<?xml version="1.0" encoding="utf-8"?>
<!-- Generator: Adobe Illustrator 25.0.1, SVG Export Plug-In . SVG Version: 6.00 Build 0)  -->
<svg version="1.1"
	 id="svg2" xmlns:cc="http://creativecommons.org/ns#" xmlns:dc="http://purl.org/dc/elements/1.1/" xmlns:rdf="http://www.w3.org/1999/02/22-rdf-syntax-ns#" xmlns:svg="http://www.w3.org/2000/svg"
	 xmlns="http://www.w3.org/2000/svg" xmlns:xlink="http://www.w3.org/1999/xlink" x="0px" y="0px" viewBox="0 0 49.8 40.9"
	 style="enable-background:new 0 0 49.8 40.9;" xml:space="preserve">
<style type="text/css">
	.st0{fill:#252525;}
</style>
<g id="g10_1_" transform="matrix(1.3333333,0,0,-1.3333333,0,26.25)">
	<g id="g12_1_">
		<path id="path14_1_" class="st0" d="M36.8,1.2l-5.4,12.5c-0.4,1-1.4,1.6-2.5,1.6h-7.4v3.8c0,0.3-0.2,0.5-0.5,0.5h-4.4
			c-0.3,0-0.5-0.2-0.5-0.5v-3.8H8.6c-1.1,0-2.1-0.6-2.5-1.6L0.6,1.2C0.2,0.3,0-0.7,0-1.7c0-0.1,0.1-0.3,0.2-0.4
			c0.1-0.1,0.2-0.2,0.4-0.2h1.8v-8.2c0-0.3,0.2-0.5,0.5-0.5h31.5c0.3,0,0.5,0.2,0.5,0.5v8.2h1.8c0.1,0,0.3,0.1,0.4,0.2
			c0.1,0.1,0.2,0.2,0.2,0.4C37.4-0.7,37.2,0.3,36.8,1.2z M33.7,5.5H3.7l1,2.2h20.8c1,0,1.9,0.3,2.6,0.9c0.8-0.6,1.7-0.9,2.6-0.9h2.1
			L33.7,5.5z M34.2,4.4l1-2.2H9.8c-0.9,0-1.7,0.3-2.3,0.9c-0.2,0.2-0.6,0.2-0.8,0C6.1,2.5,5.3,2.2,4.5,2.2H2.2l1,2.2H34.2z M17,18.6
			h3.3v-3.3H17V18.6z M7,13.2c0.3,0.6,0.9,1,1.5,1h20.3c0.7,0,1.2-0.4,1.5-1l0.5-1.2H10.6c-0.3,0-0.5-0.2-0.5-0.5
			c0-0.3,0.2-0.5,0.5-0.5h20.7l1-2.2h-1.6c-0.9,0-1.7,0.3-2.3,0.9c-0.2,0.2-0.6,0.2-0.8,0c-0.6-0.6-1.4-0.9-2.3-0.9H5.1l1,2.2h2.4
			c0.3,0,0.5,0.2,0.5,0.5C9,11.8,8.7,12,8.4,12H6.5L7,13.2z M3.5-2.2h3.3v-6c0-0.3,0.2-0.5,0.5-0.5h10.3c0.3,0,0.5,0.2,0.5,0.5v6
			h1.1v-7.7H3.5V-2.2z M14.9-2.2v-3.3H13v3.3H14.9z M11.9-5.5h-1.9v3.3h1.9V-5.5z M9.5-6.6h5.9C15.7-6.6,16-6.3,16-6v3.8H17v-5.5
			H7.9v5.5H9V-6C9-6.3,9.2-6.6,9.5-6.6z M22.5-8.8h4.8v-1.1h-4.8V-8.8z M28.4-2.2h1.1v-7.7h-1.1V-2.2z M27.3-7.7h-4.8v5.5h4.8V-7.7z
			 M21.4-9.9h-1.1v7.7h1.1V-9.9z M33.9-9.9h-3.3v7.7h3.3V-9.9z M1.1-1.1c0.1,0.6,0.2,1.3,0.5,1.9l0.1,0.3h2.7c1,0,1.9,0.3,2.6,0.9
			c0.8-0.6,1.7-0.9,2.6-0.9h25.9l0.1-0.3c0.3-0.6,0.4-1.2,0.5-1.9C36.3-1.1,1.1-1.1,1.1-1.1z"/>
	</g>
</g>
</svg>
