<?xml version="1.0" encoding="UTF-8" standalone="no"?>
<svg
   xmlns:dc="http://purl.org/dc/elements/1.1/"
   xmlns:cc="http://creativecommons.org/ns#"
   xmlns:rdf="http://www.w3.org/1999/02/22-rdf-syntax-ns#"
   xmlns:svg="http://www.w3.org/2000/svg"
   xmlns="http://www.w3.org/2000/svg"
   version="1.1"
   id="svg2"
   xml:space="preserve"
   width="15"
   height="15"
   viewBox="0 0 32 26.25"><metadata
     id="metadata8"><rdf:RDF><cc:Work
         rdf:about=""><dc:format>image/svg+xml</dc:format><dc:type
           rdf:resource="http://purl.org/dc/dcmitype/StillImage" /></cc:Work></rdf:RDF></metadata><defs
     id="defs6" /><g
     id="g10"
     transform="matrix(1.3333333,0,0,-1.3333333,0,26.25)"><g
       id="g12"><path
         d="m 23.618109,7.806093 -3.497952,8.014267 c -0.279609,0.640688 -0.912,1.05464 -1.611048,1.05464 h -4.751297 v 2.460938 c 0,0.194202 -0.157405,0.351562 -0.351562,0.351562 h -2.8125 c -0.194157,0 -0.351562,-0.15736 -0.351562,-0.351562 V 16.875 H 5.490891 c -0.699047,0 -1.331438,-0.413952 -1.611047,-1.05464 L 0.381891,7.806093 C 0.128484,7.225594 0,6.610078 0,5.976562 0,5.883328 0.037031,5.793939 0.102984,5.727938 0.168891,5.662032 0.258328,5.625 0.351562,5.625 H 1.534219 V 0.351562 C 1.534219,0.15736 1.691625,0 1.885781,0 h 20.228437 c 0.194156,0 0.351562,0.15736 0.351562,0.351562 V 5.625 h 1.182658 c 0.09323,0 0.182672,0.037032 0.248579,0.102938 C 23.962969,5.793891 24,5.883282 24,5.976562 24,6.610078 23.871515,7.225594 23.618109,7.806093 Z m -1.963406,2.740782 H 2.345297 l 0.613781,1.40625 h 13.366829 c 0.623296,0 1.215046,0.205875 1.697483,0.585328 0.482485,-0.379453 1.074236,-0.585328 1.697532,-0.585328 h 1.319952 z M 21.961594,9.84375 22.575375,8.4375 H 6.267797 c -0.547313,0 -1.061906,0.21314 -1.448906,0.600187 -0.137297,0.13725 -0.359907,0.13725 -0.497157,0 C 3.934687,8.65064 3.420141,8.4375 2.872828,8.4375 H 1.424625 l 0.613781,1.40625 z m -11.016282,9.140625 h 2.109376 V 16.875 H 10.945312 Z M 4.524281,15.53911 c 0.167766,0.384375 0.547172,0.632765 0.96661,0.632765 h 13.018218 c 0.419438,0 0.798844,-0.24839 0.96661,-0.632765 l 0.337594,-0.773485 H 6.807656 c -0.194156,0 -0.351562,-0.15736 -0.351562,-0.351563 0,-0.194202 0.157406,-0.351562 0.351562,-0.351562 h 13.312547 l 0.613783,-1.40625 h -1.013064 c -0.547311,0 -1.061906,0.21314 -1.448905,0.600187 -0.137297,0.137251 -0.359908,0.137251 -0.497159,0 C 17.387812,12.86939 16.873264,12.65625 16.325953,12.65625 H 3.266016 l 0.613781,1.40625 h 1.521609 c 0.194156,0 0.351563,0.15736 0.351563,0.351562 0,0.194203 -0.157407,0.351563 -0.351563,0.351563 H 4.186687 Z M 2.237344,5.625 H 4.346719 V 1.757812 c 0,-0.194202 0.157406,-0.351562 0.351562,-0.351562 h 6.598594 c 0.194157,0 0.351563,0.15736 0.351563,0.351562 V 5.625 h 0.703124 V 0.703125 H 2.237344 Z m 7.301718,0 V 3.515625 H 8.349141 V 5.625 Z M 7.646016,3.515625 H 6.456094 V 5.625 H 7.646016 Z M 6.104531,2.8125 h 3.786094 c 0.194157,0 0.351563,0.15736 0.351563,0.351562 V 5.625 h 0.703124 V 2.109375 H 5.049844 V 5.625 H 5.752969 V 3.164062 C 5.752969,2.96986 5.910375,2.8125 6.104531,2.8125 Z m 8.356407,-1.40625 h 3.082967 V 0.703125 H 14.460938 Z M 18.24703,5.625 h 0.703125 V 0.703125 H 18.24703 Z M 17.543905,2.109375 H 14.460938 V 5.625 h 3.082967 z M 13.757812,0.703125 H 13.054688 V 5.625 h 0.703124 z m 8.004843,0 H 19.65328 V 5.625 h 2.109375 z m -21.04378,5.625 c 0.037219,0.412359 0.140156,0.813562 0.307406,1.196718 l 0.091453,0.209532 h 1.755094 c 0.623344,0 1.215047,0.205875 1.697484,0.585328 C 5.05275,7.94025 5.6445,7.734375 6.267797,7.734375 h 16.614468 l 0.09145,-0.209532 C 23.140917,7.141687 23.243902,6.740484 23.28112,6.328125 H 0.718871 Z"
         style="fill:#123;fill-opacity:1;fill-rule:nonzero;stroke:none"
         id="path14" /></g></g></svg>
