<?xml version="1.0" encoding="UTF-8" standalone="no"?>
<svg
   xmlns:dc="http://purl.org/dc/elements/1.1/"
   xmlns:cc="http://creativecommons.org/ns#"
   xmlns:rdf="http://www.w3.org/1999/02/22-rdf-syntax-ns#"
   xmlns:svg="http://www.w3.org/2000/svg"
   xmlns="http://www.w3.org/2000/svg"
   version="1.1"
   id="svg2"
   xml:space="preserve"
   width="40"
   height="40"
   viewBox="0 0 42.666668 40.878906"><metadata
     id="metadata8"><rdf:RDF><cc:Work
         rdf:about=""><dc:format>image/svg+xml</dc:format><dc:type
           rdf:resource="http://purl.org/dc/dcmitype/StillImage" /></cc:Work></rdf:RDF></metadata><defs
     id="defs6" /><g
     id="g10"
     transform="matrix(1.3333333,0,0,-1.3333333,0,40.878907)"><g
       id="g12"><path
         d="m 31.530941,0.937283 h -0.691179 v 4.032211 l 0.65818,0.414684 c 0.242809,0.152935 0.411495,0.391306 0.475058,0.671179 0.06356,0.279873 0.01425,0.567621 -0.138686,0.810431 L 17.284267,29.960749 c -0.275371,0.437059 -0.748178,0.698118 -1.265611,0.698431 -0.516245,0 -0.98899,-0.260559 -1.264612,-0.696993 L 0.166123,6.866913 C -0.150249,6.366106 -1.87e-4,5.7013 0.50062,5.384928 L 1.159051,4.969057 V 0.937283 H 0.468745 C 0.209873,0.937283 0,0.727409 0,0.468538 0,0.209665 0.209873,-2.08e-4 0.468745,-2.08e-4 h 31.062196 c 0.258873,0 0.468746,0.209873 0.468746,0.468746 0,0.258871 -0.209873,0.468745 -0.468746,0.468745 z M 0.940928,6.263044 C 0.935241,6.288231 0.933678,6.326607 0.958741,6.366232 L 15.54666,29.461504 c 0.102874,0.162935 0.279374,0.260185 0.472372,0.260185 0.19281,-1.26e-4 0.369306,-0.09762 0.472055,-0.260685 L 31.041071,6.366106 c 0.02494,-0.039625 0.02344,-0.078001 0.01769,-0.103188 -0.0057,-0.025186 -0.02088,-0.060499 -0.0605,-0.0855 L 30.285017,5.728048 C 30.221205,5.68786 30.136517,5.707113 30.096331,5.770863 L 16.414152,27.488211 c -0.08581,0.136123 -0.235435,0.218748 -0.396309,0.218872 -6.3e-5,0 -1.87e-4,0 -2.5e-4,0 -0.160811,0 -0.310435,-0.08244 -0.396309,-0.218436 L 1.902731,5.769924 C 1.877732,5.730299 1.842482,5.715237 1.817232,5.709549 1.792045,5.703861 1.75367,5.702362 1.714046,5.727362 L 1.001303,6.177544 C 0.961741,6.202545 0.946616,6.237858 0.940928,6.263044 Z m 7.584739,8.236544 h 3.240405 c 0.258873,0 0.468746,0.209872 0.468746,0.468745 0,0.258872 -0.209873,0.468745 -0.468746,0.468745 H 9.117786 l 6.43075,10.180964 -0.0019,-10.180964 H 13.64103 c -0.258872,0 -0.468745,-0.209873 -0.468745,-0.468745 0,-0.258873 0.209873,-0.468745 0.468745,-0.468745 h 9.84803 l 0.924803,-1.467924 H 7.598401 l 0.927242,1.467924 z m 7.96036,11.115828 6.412437,-10.178338 h -6.414312 l 0.0019,10.178338 z M 15.547724,8.373711 V 0.937283 h -1.389487 v 7.436428 z m 2.327038,0 V 0.937283 h -1.389548 v 7.436428 z m 0.937492,-7.436428 v 7.436428 h 0.913303 c 0.333372,0 0.60462,-0.271248 0.60462,-0.60462 V 0.937283 Z m 2.455351,0 v 6.831808 c 0,0.850305 -0.691807,1.54211 -1.542111,1.54211 H 12.27413 c -0.850304,0 -1.54211,-0.691805 -1.54211,-1.54211 V 5.482988 c 0,-0.258873 0.209874,-0.468746 0.468746,-0.468746 0.258873,0 0.468745,0.209873 0.468745,0.468746 v 2.286103 c 0,0.333372 0.271248,0.60462 0.604619,0.60462 h 0.946553 V 0.937283 h -1.551172 v 2.670724 c 0,0.258872 -0.209872,0.468745 -0.468745,0.468745 -0.258872,0 -0.468746,-0.209873 -0.468746,-0.468745 V 0.937283 H 2.096542 V 4.815245 C 2.344727,4.88962 2.555725,5.048119 2.695411,5.269241 l 4.310895,6.824932 H 25.004505 L 29.303089,5.271116 C 29.446712,5.043243 29.662647,4.888744 29.902271,4.81662 V 0.937283 Z"
         style="fill:#202228;fill-opacity:1;fill-rule:nonzero;stroke:none"
         id="path14" /></g><g
       id="g16"
       transform="translate(5.289062,4.445312)"><path
         d="M 2.25125,3.186523 H 0.935375 C 0.419625,3.186523 0,2.766961 0,2.251211 V 0.935337 C 0,0.419587 0.419625,2.5e-5 0.935375,2.5e-5 H 2.25125 c 0.51575,0 0.935375,0.419562 0.935375,0.935312 v 1.315874 c 0,0.51575 -0.419625,0.935312 -0.935375,0.935312 z M 0.9375,0.935337 0.935375,2.249086 l 1.31375,0.00219 0.0025,-1.313749 z"
         style="fill:#202228;fill-opacity:1;fill-rule:nonzero;stroke:none"
         id="path18" /></g><g
       id="g20"
       transform="translate(23.367188,4.445312)"><path
         d="M 2.251186,3.186523 H 0.935312 C 0.419562,3.186523 0,2.766961 0,2.251211 V 0.935337 C 0,0.419587 0.419562,2.5e-5 0.935312,2.5e-5 h 1.315874 c 0.51575,0 0.935313,0.419562 0.935313,0.935312 v 1.315874 c 0,0.51575 -0.419563,0.935312 -0.935313,0.935312 z M 0.9375,0.935337 0.935312,2.249086 l 1.31375,0.00219 0.0025,-1.313749 z"
         style="fill:#202228;fill-opacity:1;fill-rule:nonzero;stroke:none"
         id="path22" /></g></g></svg>
