<svg width="33" height="32" viewBox="0 0 33 32" fill="none" xmlns="http://www.w3.org/2000/svg">
<path d="M32.0309 30.3918H31.3398V26.3596L31.9979 25.9449C32.2408 25.792 32.4094 25.5536 32.473 25.2737C32.5366 24.9939 32.4873 24.7061 32.3343 24.4633L17.7843 1.36835C17.5089 0.931294 17.0361 0.670234 16.5187 0.669922C16.0024 0.669922 15.5297 0.930482 15.254 1.36692L0.666123 24.4622C0.349751 24.963 0.499813 25.6278 1.00062 25.9442L1.65905 26.36V30.3918H0.968745C0.709873 30.3918 0.5 30.6017 0.5 30.8606C0.5 31.1194 0.709873 31.3293 0.968745 31.3293H32.0309C32.2898 31.3293 32.4997 31.1194 32.4997 30.8606C32.4997 30.6017 32.2898 30.3918 32.0309 30.3918ZM1.44093 25.0661C1.43524 25.0409 1.43368 25.0025 1.45874 24.9629L16.0467 1.8676C16.1495 1.70466 16.326 1.60741 16.519 1.60741C16.7118 1.60754 16.8883 1.70504 16.9911 1.8681L31.5411 24.963C31.566 25.0026 31.5645 25.041 31.5588 25.0662C31.5531 25.0914 31.5379 25.1267 31.4983 25.1517L30.785 25.6011C30.7212 25.6412 30.6365 25.622 30.5963 25.5582L16.9142 3.84089C16.8283 3.70477 16.6787 3.62214 16.5178 3.62202C16.5178 3.62202 16.5177 3.62202 16.5176 3.62202C16.3568 3.62202 16.2072 3.70445 16.1213 3.84045L2.40273 25.5592C2.37773 25.5988 2.34248 25.6139 2.31723 25.6196C2.29204 25.6252 2.25367 25.6267 2.21405 25.6017L1.5013 25.1516C1.46174 25.1266 1.44662 25.0912 1.44093 25.0661V25.0661ZM9.02567 16.8295H12.2661C12.5249 16.8295 12.7348 16.6196 12.7348 16.3608C12.7348 16.1019 12.5249 15.892 12.2661 15.892H9.61779L16.0485 5.71106L16.0467 15.892H14.1411C13.8822 15.892 13.6723 16.1019 13.6723 16.3608C13.6723 16.6196 13.8822 16.8295 14.1411 16.8295H23.9891L24.9139 18.2974H8.09843L9.02567 16.8295ZM16.986 5.71369L23.3985 15.892H16.9842L16.986 5.71369ZM16.0477 22.9554V30.3918H14.6582V22.9554H16.0477ZM18.3748 22.9554V30.3918H16.9852V22.9554H18.3748ZM19.3123 30.3918V22.9554H20.2256C20.5589 22.9554 20.8302 23.2266 20.8302 23.56V30.3918H19.3123ZM21.7676 30.3918V23.56C21.7676 22.7097 21.0758 22.0179 20.2255 22.0179H12.7741C11.9238 22.0179 11.232 22.7097 11.232 23.56V25.8461C11.232 26.105 11.4419 26.3149 11.7008 26.3149C11.9596 26.3149 12.1695 26.105 12.1695 25.8461V23.56C12.1695 23.2266 12.4408 22.9554 12.7741 22.9554H13.7207V30.3918H12.1695V27.7211C12.1695 27.4622 11.9596 27.2523 11.7008 27.2523C11.4419 27.2523 11.232 27.4622 11.232 27.7211V30.3918H2.59654V26.5139C2.84473 26.4395 3.05572 26.281 3.19541 26.0599L7.50631 19.2349H25.5045L29.8031 26.058C29.9467 26.2859 30.1626 26.4404 30.4023 26.5125V30.3918H21.7676Z" fill="#202228"/>
<path d="M8.04031 23.6973H6.72444C6.20869 23.6973 5.78906 24.1168 5.78906 24.6326V25.9485C5.78906 26.4642 6.20869 26.8838 6.72444 26.8838H8.04031C8.55606 26.8838 8.97569 26.4642 8.97569 25.9485V24.6326C8.97569 24.1168 8.55606 23.6973 8.04031 23.6973ZM6.72656 25.9485L6.72444 24.6347L8.03819 24.6325L8.04069 25.9463L6.72656 25.9485Z" fill="#202228"/>
<path d="M26.1184 23.6973H24.8025C24.2867 23.6973 23.8672 24.1168 23.8672 24.6326V25.9485C23.8672 26.4642 24.2867 26.8838 24.8025 26.8838H26.1184C26.6341 26.8838 27.0537 26.4642 27.0537 25.9485V24.6326C27.0537 24.1168 26.6341 23.6973 26.1184 23.6973ZM24.8047 25.9485L24.8025 24.6347L26.1162 24.6325L26.1187 25.9463L24.8047 25.9485Z" fill="#202228"/>
</svg>
