<?xml version="1.0" encoding="UTF-8" standalone="no"?>
<svg
   xmlns:dc="http://purl.org/dc/elements/1.1/"
   xmlns:cc="http://creativecommons.org/ns#"
   xmlns:rdf="http://www.w3.org/1999/02/22-rdf-syntax-ns#"
   xmlns:svg="http://www.w3.org/2000/svg"
   xmlns="http://www.w3.org/2000/svg"
   version="1.1"
   id="svg2"
   xml:space="preserve"
   width="40"
   height="40"
   viewBox="0 0 42.666668 38.751305"><metadata
     id="metadata8"><rdf:RDF><cc:Work
         rdf:about=""><dc:format>image/svg+xml</dc:format><dc:type
           rdf:resource="http://purl.org/dc/dcmitype/StillImage" /></cc:Work></rdf:RDF></metadata><defs
     id="defs6" /><g
     id="g10"
     transform="matrix(1.3333333,0,0,-1.3333333,0,38.751303)"><g
       id="g12"
       transform="translate(0,-0.048828)"><path
         d="m 31.528488,1.009136 h -1.42246 l -1.100636,9.263088 0.360298,-0.376203 c 0.09261,-0.096691 0.216521,-0.145416 0.340559,-0.145416 0.117251,0 0.234686,0.043443 0.326035,0.130956 l 1.604088,1.536251 c 0.09028,0.08651 0.142585,0.205328 0.145288,0.330311 0.0027,0.125046 -0.04439,0.246004 -0.130892,0.336346 l -6.698375,6.994169 c -0.18018,0.188101 -0.478615,0.194515 -0.666655,0.0144 -0.188101,-0.180117 -0.194515,-0.478617 -0.0144,-0.666657 l 6.372338,-6.653547 -0.923035,-0.883993 -13.042482,13.618044 0.884809,0.923851 5.403601,-5.64206 c 0.0926,-0.09669 0.216518,-0.145414 0.34062,-0.145414 0.11725,0 0.234686,0.04344 0.326034,0.130953 0.188101,0.180118 0.194516,0.478619 0.0144,0.666656 l -5.431765,5.671482 0.637864,0.666028 c 0.08651,0.09034 0.133594,0.211301 0.130891,0.336347 -0.0027,0.124981 -0.05495,0.243866 -0.145225,0.330309 l -1.604088,1.53625 c -0.188103,0.18018 -0.486599,0.173704 -0.666655,-0.0144 l -0.543308,-0.567323 -0.543309,0.567323 c -0.180118,0.188103 -0.478617,0.194516 -0.666656,0.0144 L 13.211286,27.44516 c -0.09034,-0.08651 -0.142586,-0.205328 -0.14529,-0.330311 -0.0027,-0.125044 0.04432,-0.246002 0.13083,-0.336346 l 0.637862,-0.666027 -5.832299,-6.089681 v 1.999843 h 0.482389 c 0.260401,0 0.471513,0.211111 0.471513,0.471514 v 0.987473 c 0,0.694255 -0.56481,1.259063 -1.259065,1.259063 H 4.464221 c -0.694256,0 -1.259129,-0.564808 -1.259129,-1.259063 v -0.987473 c 0,-0.260403 0.211112,-0.471514 0.471513,-0.471514 h 0.482389 v -6.01292 L 0.39978,12.08453 C 0.313273,11.994251 0.266185,11.873232 0.268888,11.748186 0.271591,11.623203 0.323835,11.504383 0.414177,11.417875 L 2.018263,9.881624 C 2.109674,9.794111 2.227049,9.750669 2.344362,9.750669 c 0.124102,0 0.248015,0.048659 0.340558,0.145413 L 3.045218,10.272287 1.944582,1.009136 H 0.471513 C 0.211112,1.009136 0,0.798023 0,0.537622 0,0.277222 0.211112,0.066111 0.471513,0.066111 h 11.591671 c 0.04036,-0.011254 0.08273,-0.017729 0.126616,-0.017729 h 7.664974 c 0.04395,0 0.08632,0.006475 0.126618,0.017729 H 31.528488 C 31.788889,0.066111 32,0.277222 32,0.537622 32,0.798023 31.788889,1.009136 31.528488,1.009136 Z M 3.199623,3.579321 h 8.518664 V 1.022276 H 2.895843 Z m 25.539333,0.943025 h -2.558805 c -0.260401,0 -0.471514,-0.211111 -0.471514,-0.471511 0,-0.260401 0.211113,-0.471514 0.471514,-0.471514 h 2.670837 l 0.303841,-2.557045 h -8.828541 v 2.557045 h 3.967749 c 0.260401,0 0.471512,0.211113 0.471512,0.471514 0,0.2604 -0.211111,0.471511 -0.471512,0.471511 H 20.326288 V 6.48868 h 8.178986 z m -9.355693,-3.50007 h -6.721887 v 6.891443 c 0,1.853234 1.507709,3.361006 3.360942,3.361006 1.853235,0 3.360945,-1.50771 3.360945,-3.361006 z m -5.179223,26.06793 0.923033,0.883991 0.245376,-0.256187 -0.88481,-0.923851 z M 4.148118,23.481562 c 0,0.17427 0.141768,0.316038 0.316103,0.316038 h 3.233068 c 0.174271,0 0.31604,-0.141768 0.31604,-0.316038 V 22.965601 H 7.53094 4.630507 4.148118 Z M 5.10202,22.022575 h 1.957407 v -2.893203 c 0,-0.02842 0.00296,-0.05614 0.0078,-0.08318 l -1.965203,-2.05196 v 5.028339 z M 2.329965,10.888838 1.406931,11.772831 16.322327,27.346457 c 0.011,0.0088 0.02182,0.01792 0.03212,0.02785 0.02006,0.01924 0.0376,0.03998 0.05356,0.06161 l 0.51552,0.538278 0.923035,-0.883991 z m 2.784125,1.543608 0.232676,-0.232678 c 0.09204,-0.0921 0.212747,-0.138121 0.333391,-0.138121 0.120645,0 0.241352,0.04602 0.333391,0.138121 0.184142,0.184143 0.184142,0.482643 0,0.666784 l -0.247072,0.247136 1.414663,1.47709 0.278319,-0.278317 c 0.092039,-0.09204 0.212746,-0.138123 0.333391,-0.138123 0.120645,0 0.241352,0.04602 0.333391,0.138123 0.184141,0.184142 0.184141,0.482703 0,0.666844 l -0.292715,0.292716 1.414664,1.477092 0.323897,-0.323898 c 0.092039,-0.0921 0.212748,-0.138121 0.333392,-0.138121 0.120644,0 0.241352,0.04602 0.333391,0.138121 0.184141,0.184141 0.184141,0.482704 0,0.666845 l -0.338358,0.338295 1.414664,1.477093 0.36954,-0.369541 c 0.09204,-0.09204 0.212747,-0.138123 0.333391,-0.138123 0.120645,0 0.241353,0.04608 0.333392,0.138123 0.184141,0.184143 0.184141,0.482704 0,0.666845 l -0.383938,0.383936 1.414664,1.477093 0.41512,-0.415182 c 0.09204,-0.0921 0.212747,-0.138123 0.333391,-0.138123 0.120645,0 0.241352,0.04602 0.333392,0.138123 0.184141,0.184141 0.184141,0.482641 0,0.666845 l -0.429517,0.429579 1.990538,2.078428 1.990601,-2.078428 -0.429518,-0.429579 c -0.184141,-0.184143 -0.184141,-0.482704 0,-0.666845 0.09204,-0.0921 0.212748,-0.138123 0.333391,-0.138123 0.120646,0 0.241354,0.04602 0.333394,0.138123 l 0.415119,0.415182 1.414663,-1.477093 -0.383938,-0.383936 c -0.184141,-0.184141 -0.184141,-0.482702 0,-0.666845 0.09204,-0.09204 0.212748,-0.138123 0.333391,-0.138123 0.120646,0 0.241354,0.04608 0.333393,0.138123 l 0.36954,0.369541 1.414665,-1.477093 -0.33836,-0.338295 c -0.184141,-0.184141 -0.184141,-0.482641 0,-0.666845 0.09204,-0.0921 0.212748,-0.138121 0.333391,-0.138121 0.120646,0 0.241354,0.04602 0.333393,0.138121 l 0.32396,0.323898 1.414602,-1.477092 -0.292717,-0.292716 c -0.184141,-0.184141 -0.184141,-0.48264 0,-0.666844 0.09204,-0.0921 0.212748,-0.138123 0.333393,-0.138123 0.120644,0 0.24135,0.04602 0.333389,0.138123 l 0.278319,0.278317 1.414665,-1.47709 -0.247072,-0.247136 c -0.184143,-0.184141 -0.184143,-0.482704 0,-0.666784 0.09204,-0.0921 0.212744,-0.138121 0.333389,-0.138121 0.120644,0 0.241352,0.04602 0.333391,0.138121 l 0.232676,0.232678 0.984709,-1.028214 0.472015,-3.972527 h -8.066704 v 0.482014 c 0,2.373217 -1.930752,4.304032 -4.30397,4.304032 -2.373218,0 -4.303968,-1.930752 -4.303968,-4.304032 V 7.431705 H 8.276558 c -0.260401,0 -0.471512,-0.211113 -0.471512,-0.471513 0,-0.260401 0.211111,-0.471512 0.471512,-0.471512 H 11.71835 V 4.522346 H 3.311654 L 3.545273,6.48868 h 2.845171 c 0.260401,0 0.471513,0.211111 0.471513,0.471512 0,0.2604 -0.211112,0.471513 -0.471513,0.471513 H 3.657367 l 0.472016,3.972527 z"
         style="fill:#202228;fill-opacity:1;fill-rule:nonzero;stroke:none"
         id="path14" /></g><g
       id="g16"
       transform="translate(12.496094,13.043945)"><path
         d="m 0.471513,3.4e-5 h 5.972999 c 0.260401,0 0.471513,0.211112 0.471513,0.471513 v 1.872534 c 0,0.260401 -0.211112,0.471513 -0.471513,0.471513 H 5.588433 v 1.09743 c 0,1.062979 -0.864817,1.927796 -1.927796,1.927796 H 3.29839 c -1.062979,0 -1.927796,-0.864817 -1.927796,-1.927796 V 2.815594 H 0.471513 C 0.211112,2.815594 0,2.604482 0,2.344081 V 0.471547 C 0,0.211146 0.211112,3.4e-5 0.471513,3.4e-5 Z m 1.842169,3.913053 c 0,0.542994 0.441776,0.98477 0.98477,0.98477 h 0.362185 c 0.542994,0 0.98477,-0.441776 0.98477,-0.98477 V 2.815657 H 2.31362 v 1.09743 z M 0.943026,1.872568 H 5.972999 V 0.94306 H 0.943026 Z"
         style="fill:#202228;fill-opacity:1;fill-rule:nonzero;stroke:none"
         id="path18" /></g><g
       id="g20"
       transform="translate(14.960938,6.056641)"><path
         d="M 1.735985,0.943359 H 0.471513 C 0.211112,0.943359 0,0.732247 0,0.471847 0,0.211446 0.211112,3.34e-4 0.471513,3.34e-4 h 1.264472 c 0.260401,0 0.471513,0.211112 0.471513,0.471513 0,0.2604 -0.211112,0.471512 -0.471513,0.471512 z"
         style="fill:#202228;fill-opacity:1;fill-rule:nonzero;stroke:none"
         id="path22" /></g></g></svg>
