<svg width="32" height="30" viewBox="0 0 32 30" fill="none" xmlns="http://www.w3.org/2000/svg">
<path d="M31.5285 28.5709H30.106L29.0054 19.3079L29.3657 19.6841C29.4583 19.7807 29.5822 19.8295 29.7062 19.8295C29.8235 19.8295 29.9409 19.786 30.0323 19.6985L31.6364 18.1623C31.7266 18.0758 31.779 17.9569 31.7817 17.832C31.7844 17.7069 31.7373 17.586 31.6508 17.4956L24.9524 10.5014C24.7722 10.3133 24.4738 10.3069 24.2857 10.487C24.0976 10.6672 24.0912 10.9657 24.2713 11.1537L30.6437 17.8072L29.7206 18.6912L16.6782 5.0732L17.563 4.14935L22.9666 9.79141C23.0592 9.8881 23.1831 9.93682 23.3072 9.93682C23.4244 9.93682 23.5419 9.89338 23.6332 9.80586C23.8213 9.62575 23.8277 9.32725 23.6476 9.13921L18.2159 3.46773L18.8537 2.8017C18.9402 2.71136 18.9873 2.5904 18.9846 2.46535C18.9819 2.34037 18.9297 2.22149 18.8394 2.13504L17.2353 0.598792C17.0472 0.418611 16.7487 0.425087 16.5686 0.613189L16.0253 1.18051L15.482 0.613189C15.3019 0.425087 15.0034 0.418674 14.8154 0.598792L13.2113 2.13492C13.1209 2.22142 13.0687 2.34025 13.066 2.46523C13.0633 2.59027 13.1103 2.71123 13.1968 2.80157L13.8347 3.4676L8.00239 9.55728V7.55744H8.48478C8.74518 7.55744 8.95629 7.34633 8.95629 7.08593V6.09845C8.95629 5.4042 8.39148 4.83939 7.69723 4.83939H4.46422C3.76996 4.83939 3.20509 5.4042 3.20509 6.09845V7.08593C3.20509 7.34633 3.4162 7.55744 3.67661 7.55744H4.15899V13.5704L0.39978 17.4955C0.313273 17.5858 0.266185 17.7068 0.268888 17.8319C0.271591 17.9569 0.323835 18.0757 0.414177 18.1622L2.01826 19.6985C2.10967 19.786 2.22705 19.8294 2.34436 19.8294C2.46846 19.8294 2.59238 19.7807 2.68492 19.684L3.04522 19.3078L1.94458 28.5709H0.471513C0.211112 28.5709 0 28.7821 0 29.0425C0 29.3029 0.211112 29.514 0.471513 29.514H12.0632C12.1035 29.5252 12.1459 29.5317 12.1898 29.5317H19.8548C19.8987 29.5317 19.9411 29.5252 19.9814 29.514H31.5285C31.7889 29.514 32 29.3029 32 29.0425C32 28.7821 31.7889 28.5709 31.5285 28.5709V28.5709ZM3.19962 26.0008H11.7183V28.5578H2.89584L3.19962 26.0008ZM28.739 25.0577H26.1802C25.9198 25.0577 25.7086 25.2688 25.7086 25.5292C25.7086 25.7896 25.9198 26.0008 26.1802 26.0008H28.851L29.1548 28.5578H20.3263V26.0008H24.294C24.5544 26.0008 24.7655 25.7896 24.7655 25.5292C24.7655 25.2688 24.5544 25.0577 24.294 25.0577H20.3263V23.0914H28.5053L28.739 25.0577ZM19.3833 28.5578H12.6614V21.6664C12.6614 19.8131 14.1691 18.3054 16.0223 18.3054C17.8756 18.3054 19.3833 19.8131 19.3833 21.6664V28.5578ZM14.204 2.48987L15.1271 1.60588L15.3724 1.86207L14.4876 2.78592L14.204 2.48987ZM4.14812 6.09852C4.14812 5.92425 4.28989 5.78248 4.46422 5.78248H7.69729C7.87156 5.78248 8.01333 5.92425 8.01333 6.09852V6.61448H7.53094H4.63051H4.14812V6.09852ZM5.10202 7.5575H7.05943V10.4507C7.05943 10.4791 7.06238 10.5068 7.06722 10.5339L5.10202 12.5858V7.5575ZM2.32996 18.6912L1.40693 17.8072L16.3223 2.23362C16.3333 2.22482 16.3441 2.2157 16.3545 2.20577C16.3745 2.18653 16.392 2.16579 16.408 2.14416L16.9235 1.60588L17.8466 2.48987L2.32996 18.6912ZM5.11409 17.1476L5.34677 17.3803C5.43881 17.4724 5.55951 17.5184 5.68016 17.5184C5.8008 17.5184 5.92151 17.4724 6.01355 17.3803C6.19769 17.1962 6.19769 16.8977 6.01355 16.7135L5.76648 16.4664L7.18114 14.9893L7.45946 15.2676C7.5515 15.3597 7.6722 15.4057 7.79285 15.4057C7.91349 15.4057 8.0342 15.3597 8.12624 15.2676C8.31038 15.0835 8.31038 14.7849 8.12624 14.6008L7.83352 14.3081L9.24819 12.831L9.57209 13.1549C9.66413 13.247 9.78483 13.293 9.90548 13.293C10.0261 13.293 10.1468 13.247 10.2389 13.1549C10.423 12.9707 10.423 12.6722 10.2389 12.488L9.90051 12.1497L11.3152 10.6726L11.6847 11.0422C11.7768 11.1342 11.8975 11.1803 12.0181 11.1803C12.1388 11.1803 12.2595 11.1342 12.3515 11.0422C12.5356 10.858 12.5356 10.5595 12.3515 10.3753L11.9676 9.99139L13.3822 8.5143L13.7973 8.92948C13.8894 9.02158 14.0101 9.0676 14.1307 9.0676C14.2514 9.0676 14.3721 9.02158 14.4641 8.92948C14.6483 8.74534 14.6483 8.44684 14.4641 8.26264L14.0346 7.83306L16.0251 5.75463L18.0157 7.83306L17.5862 8.26264C17.4021 8.44678 17.4021 8.74534 17.5862 8.92948C17.6783 9.02158 17.799 9.0676 17.9196 9.0676C18.0403 9.0676 18.161 9.02158 18.253 8.92948L18.6681 8.5143L20.0828 9.99139L19.6989 10.3753C19.5147 10.5595 19.5147 10.858 19.6989 11.0422C19.7909 11.1342 19.9116 11.1803 20.0323 11.1803C20.1529 11.1803 20.2736 11.1342 20.3656 11.0422L20.7352 10.6726L22.1498 12.1497L21.8115 12.488C21.6273 12.6722 21.6273 12.9707 21.8115 13.1549C21.9035 13.247 22.0242 13.293 22.1449 13.293C22.2655 13.293 22.3862 13.247 22.4783 13.1549L22.8022 12.831L24.2168 14.3081L23.9241 14.6008C23.74 14.7849 23.74 15.0834 23.9241 15.2676C24.0162 15.3597 24.1369 15.4057 24.2575 15.4057C24.3782 15.4057 24.4989 15.3597 24.5909 15.2676L24.8692 14.9893L26.2839 16.4664L26.0368 16.7135C25.8527 16.8977 25.8527 17.1962 26.0368 17.3803C26.1289 17.4724 26.2496 17.5184 26.3702 17.5184C26.4908 17.5184 26.6116 17.4724 26.7036 17.3803L26.9363 17.1476L27.921 18.1758L28.393 22.1484H20.3263V21.6664C20.3263 19.2931 18.3955 17.3623 16.0223 17.3623C13.6491 17.3623 11.7184 19.2931 11.7184 21.6664V22.1484H8.27656C8.01616 22.1484 7.80505 22.3595 7.80505 22.6199C7.80505 22.8803 8.01616 23.0914 8.27656 23.0914H11.7184V25.0577H3.31165L3.54527 23.0914H6.39044C6.65085 23.0914 6.86196 22.8803 6.86196 22.6199C6.86196 22.3595 6.65085 22.1484 6.39044 22.1484H3.65737L4.12938 18.1758L5.11409 17.1476Z" fill="#202228"/>
<path d="M12.9676 16.4873H18.9406C19.201 16.4873 19.4121 16.2762 19.4121 16.0158V14.1432C19.4121 13.8828 19.201 13.6717 18.9406 13.6717H18.0845V12.5743C18.0845 11.5113 17.2197 10.6465 16.1567 10.6465H15.7945C14.7315 10.6465 13.8667 11.5113 13.8667 12.5743V13.6717H12.9676C12.7072 13.6717 12.4961 13.8828 12.4961 14.1432V16.0158C12.4961 16.2762 12.7072 16.4873 12.9676 16.4873ZM14.8098 12.5742C14.8098 12.0312 15.2516 11.5894 15.7945 11.5894H16.1567C16.6997 11.5894 17.1415 12.0312 17.1415 12.5742V13.6716H14.8097V12.5742H14.8098ZM13.4391 14.6147H18.4691V15.5442H13.4391V14.6147Z" fill="#202228"/>
<path d="M16.6969 22.5312H15.4325C15.172 22.5312 14.9609 22.7424 14.9609 23.0028C14.9609 23.2632 15.172 23.4743 15.4325 23.4743H16.6969C16.9573 23.4743 17.1684 23.2632 17.1684 23.0028C17.1684 22.7424 16.9573 22.5312 16.6969 22.5312Z" fill="#202228"/>
</svg>
