<svg width="32" height="32" viewBox="0 0 32 32" fill="none" xmlns="http://www.w3.org/2000/svg">
<path d="M18.1092 17.6958H17.8477C17.5888 17.6958 17.3789 17.9056 17.3789 18.1646C17.3789 18.4235 17.5888 18.6333 17.8477 18.6333H18.1092C18.3681 18.6333 18.578 18.4235 18.578 18.1646C18.578 17.9056 18.3681 17.6958 18.1092 17.6958Z" fill="#252525"/>
<path d="M8.4003 17.6958H8.13867C7.8798 17.6958 7.66992 17.9056 7.66992 18.1646C7.66992 18.4235 7.87973 18.6333 8.13867 18.6333H8.4003C8.65917 18.6333 8.86905 18.4235 8.86905 18.1646C8.86905 17.9056 8.65917 17.6958 8.4003 17.6958Z" fill="#252525"/>
<path d="M31.2694 21.0312H31.1562V20.75C31.1562 20.4911 30.9464 20.2812 30.6875 20.2812C30.4286 20.2812 30.2188 20.4911 30.2188 20.75V21.0312H27.7841C27.2289 20.5267 26.4919 20.2188 25.6844 20.2188C24.8768 20.2188 24.1398 20.5267 23.5846 21.0312H21.1821V17.2088H28.8859C29.1448 17.2088 29.3546 16.999 29.3546 16.7401V13.5052C29.3546 13.2463 29.1448 13.0365 28.8859 13.0365H21.182V12.0988H30.2188V18.9688C30.2188 19.2277 30.4286 19.4375 30.6875 19.4375C30.9464 19.4375 31.1562 19.2277 31.1562 18.9688V11.63C31.1562 11.6292 31.1561 11.6283 31.1561 11.6275C31.1561 11.6267 31.1562 11.6258 31.1562 11.625V7.875C31.1562 7.61606 30.9464 7.40625 30.6875 7.40625H28.8093V6C28.8093 5.74106 28.5994 5.53125 28.3406 5.53125H22.0906C21.8317 5.53125 21.6218 5.74106 21.6218 6V7.40625H16.75C16.4911 7.40625 16.2812 7.61606 16.2812 7.875C16.2812 8.13394 16.4911 8.34375 16.75 8.34375H30.2188V11.1562H2.76288C2.60838 11.1562 2.53669 11.0499 2.51306 11.0042C2.48944 10.9584 2.44406 10.8385 2.53338 10.7124L3.79087 8.93719C4.05406 8.56562 4.48312 8.34375 4.93844 8.34375H14.7188C14.9776 8.34375 15.1875 8.13394 15.1875 7.875C15.1875 7.61606 14.9776 7.40625 14.7188 7.40625H14.4196V6C14.4196 5.74106 14.2098 5.53125 13.9509 5.53125H7.70087C7.442 5.53125 7.23212 5.74106 7.23212 6V7.40625H4.93837C4.1795 7.40625 3.4645 7.77594 3.02581 8.39525L1.76831 10.1705C1.50381 10.5439 1.47013 11.0284 1.68031 11.4348C1.8905 11.8413 2.30531 12.0938 2.76288 12.0938H4.64575L4.56325 12.4151C4.49888 12.6659 4.65 12.9214 4.90075 12.9858C4.93981 12.9958 4.979 13.0006 5.01762 13.0006C5.2265 13.0006 5.417 12.8599 5.47131 12.6482L5.61369 12.0938H10.0444V16.2712H4.54119L4.99825 14.4909C5.06263 14.2401 4.9115 13.9847 4.66075 13.9203C4.41019 13.8561 4.15456 14.0071 4.09019 14.2577L3.57394 16.2687H1.9375C1.33444 16.2687 0.84375 16.7594 0.84375 17.3625V17.365V21.0312H0.730625C0.320937 21.0312 0 21.3868 0 21.8406V23.0344C0 23.4882 0.320937 23.8438 0.730625 23.8438H2.38719C2.62725 25.33 3.91875 26.4688 5.47169 26.4688C7.02462 26.4688 8.31613 25.33 8.55619 23.8438H22.5998C22.8399 25.33 24.1314 26.4688 25.6843 26.4688C27.2373 26.4688 28.5287 25.33 28.7688 23.8438H31.2694C31.6791 23.8438 32 23.4882 32 23.0344V21.8406C32 21.3868 31.6791 21.0312 31.2694 21.0312ZM27.8718 7.40625H22.5593V6.46875H27.8718V7.40625ZM8.16963 6.46875H13.4821V7.40625H8.16963V6.46875ZM21.182 13.974H28.4171V16.2713H21.182V13.974ZM16.5896 12.099H20.2445V21.0312H16.5896V12.099ZM10.9819 12.0988H15.6521V13.0365H12.3884C12.1296 13.0365 11.9197 13.2463 11.9197 13.5052V16.7401C11.9197 16.999 12.1296 17.2088 12.3884 17.2088H15.6521V21.0312H10.9819V12.0988ZM15.6521 13.974V16.2713H12.8572V13.974H15.6521ZM1.78125 18.7539H2.71875V19.6914H1.78125V18.7539ZM2.378 22.9062H0.9375V21.9688H2.66631C2.5235 22.2589 2.42469 22.5743 2.378 22.9062ZM5.47169 25.5312C4.2655 25.5312 3.28419 24.5499 3.28419 23.3438C3.28419 22.1376 4.2655 21.1562 5.47169 21.1562C6.67787 21.1562 7.65919 22.1376 7.65919 23.3438C7.65919 24.5499 6.67787 25.5312 5.47169 25.5312ZM7.5715 21.0312C7.01631 20.5266 6.27931 20.2187 5.47175 20.2187C4.66419 20.2187 3.92719 20.5266 3.372 21.0312H1.78125V20.6289H2.9C3.317 20.6289 3.65625 20.2943 3.65625 19.8829V18.5623C3.65625 18.151 3.317 17.8164 2.9 17.8164H1.78125V17.3649C1.78125 17.2787 1.85137 17.2087 1.9375 17.2087H10.0444V21.0312H7.5715ZM22.5906 22.9062H8.56544C8.51869 22.5743 8.41988 22.2589 8.27713 21.9688H22.8789C22.7361 22.2589 22.6373 22.5743 22.5906 22.9062ZM25.6843 25.5312C24.4781 25.5312 23.4968 24.5499 23.4968 23.3438C23.4968 22.1376 24.4781 21.1562 25.6843 21.1562C26.8905 21.1562 27.8718 22.1376 27.8718 23.3438C27.8718 24.5499 26.8905 25.5312 25.6843 25.5312ZM31.0625 22.9062H28.7781C28.7313 22.5743 28.6325 22.2589 28.4897 21.9688H31.0625V22.9062Z" fill="#252525"/>
<path d="M5.49414 21.9375C4.7187 21.9375 4.08789 22.5684 4.08789 23.3438C4.08789 24.1191 4.71877 24.75 5.49414 24.75C6.26952 24.75 6.90039 24.1191 6.90039 23.3438C6.90039 22.5684 6.26958 21.9375 5.49414 21.9375ZM5.49414 23.8125C5.23564 23.8125 5.02539 23.6023 5.02539 23.3438C5.02539 23.0852 5.23564 22.875 5.49414 22.875C5.75264 22.875 5.96289 23.0852 5.96289 23.3438C5.96289 23.6023 5.75264 23.8125 5.49414 23.8125Z" fill="#252525"/>
<path d="M25.707 21.9375C24.9316 21.9375 24.3008 22.5684 24.3008 23.3438C24.3008 24.1191 24.9316 24.75 25.707 24.75C26.4825 24.75 27.1133 24.1191 27.1133 23.3438C27.1133 22.5684 26.4825 21.9375 25.707 21.9375ZM25.707 23.8125C25.4485 23.8125 25.2383 23.6023 25.2383 23.3438C25.2383 23.0852 25.4485 22.875 25.707 22.875C25.9655 22.875 26.1758 23.0852 26.1758 23.3438C26.1758 23.6023 25.9655 23.8125 25.707 23.8125Z" fill="#252525"/>
</svg>
