<svg    width="40"
   height="40" viewBox="0 0 32 32" fill="none" xmlns="http://www.w3.org/2000/svg">
<g clip-path="url(#clip0_1194_39181)">
<path d="M31.5311 29.1211H29.555C30.3668 28.0724 30.1568 26.5042 29.075 25.707C30.3652 24.7564 30.3652 22.7749 29.075 21.8242C30.3652 20.8736 30.3652 18.8921 29.075 17.9414C30.1567 17.1443 30.3668 15.5762 29.5551 14.5275C29.6917 14.5323 29.8259 14.4859 29.9216 14.3902L31.8628 12.4489C32.0611 12.1982 32.0443 11.9627 31.8126 11.7425L24.6488 6.36996C24.4416 6.21452 24.1478 6.25671 23.9925 6.46371C23.8372 6.67084 23.8792 6.96465 24.0863 7.11997L30.8177 12.1682L29.5437 13.4422L16.2781 3.66208C16.1128 3.54014 15.8871 3.54014 15.7218 3.66208L2.45626 13.4422L1.18225 12.1682L15.9999 1.05469L22.4518 5.89377C22.659 6.04909 22.9528 6.00709 23.1081 5.80002C23.2634 5.59296 23.2214 5.29908 23.0143 5.14377L16.2812 0.0937504C16.1146 -0.0312501 15.8853 -0.0312501 15.7187 0.0937504L7.73241 6.08365V4.82039H8.23434C8.49328 4.82039 8.7031 4.61052 8.7031 4.35164V2.41026C8.7031 2.15138 8.49328 1.94151 8.23434 1.94151H2.41013C2.1512 1.94151 1.94138 2.15138 1.94138 2.41026V4.35164C1.94138 4.61052 2.1512 4.82039 2.41013 4.82039H2.91207V9.69891L0.187376 11.7425C-0.0443127 11.9627 -0.0610627 12.1982 0.137126 12.449L2.07838 14.3902C2.17388 14.4857 2.30707 14.532 2.44482 14.5276C1.63307 15.5762 1.84313 17.1444 2.92495 17.9414C1.63476 18.8921 1.63476 20.8736 2.92495 21.8243C1.63476 22.7749 1.63476 24.7564 2.92495 25.7071C1.84313 26.5042 1.63313 28.0725 2.44495 29.1212H0.468752C0.209813 29.1212 0 29.3311 0 29.5899V31.5313C0 31.7902 0.209813 32.0001 0.468752 32.0001H31.5311C31.7901 32.0001 31.9999 31.7902 31.9999 31.5313V29.5899C31.9999 29.3309 31.7901 29.1211 31.5311 29.1211V29.1211ZM2.87889 2.87901H7.76559V3.88289H2.87889V2.87901ZM6.7949 4.82039V6.78665L3.84964 8.99566V4.82039H6.7949ZM27.6483 29.1211C26.8363 29.1211 26.1757 28.4605 26.1757 27.6485C26.1757 26.8434 26.8251 26.187 27.6277 26.176H27.6483C27.651 26.176 27.6536 26.1759 27.6563 26.1759C28.4647 26.1802 29.1209 26.8391 29.1209 27.6485C29.121 28.4605 28.4603 29.1211 27.6483 29.1211ZM6.25821 29.1211C6.92209 28.2635 6.92203 27.0333 6.25815 26.1758H10.1249C10.3839 26.1758 10.5937 25.9659 10.5937 25.707C10.5937 25.4482 10.3839 25.2383 10.1249 25.2383H6.25827C6.92209 24.3808 6.92203 23.1506 6.25821 22.293H15.5311V25.2383H12.168C11.9091 25.2383 11.6993 25.4482 11.6993 25.707C11.6993 25.9659 11.9091 26.1758 12.168 26.1758H15.5311V29.1211H6.25821ZM18.4593 13.5901H3.83558L7.83066 10.6447H24.1693L28.1644 13.5901H20.5018C20.2429 13.5901 20.0331 13.7999 20.0331 14.0588C20.0331 14.3177 20.2429 14.5276 20.5018 14.5276H25.7415C25.0778 15.3851 25.0778 16.6153 25.7417 17.4727H6.25821C6.92203 16.6152 6.92209 15.3851 6.25834 14.5276H18.4593C18.7183 14.5276 18.9281 14.3177 18.9281 14.0588C18.9281 13.7999 18.7182 13.5901 18.4593 13.5901V13.5901ZM13.0973 6.76178L18.9027 6.76184L22.8977 9.70716H9.10222L13.0973 6.76178ZM23.2635 22.2928L25.7418 22.2929C25.0778 23.1505 25.0778 24.3808 25.7417 25.2384L23.2635 25.2382V22.2928ZM23.2635 21.3553V18.4102H25.7417C25.0778 19.2677 25.0778 20.4978 25.7416 21.3554L23.2635 21.3553ZM15.5311 21.3555H13.5564V18.4102H15.5311V21.3555ZM9.67391 18.4102H12.6189V21.3552H9.67391V18.4102ZM8.73641 18.4102V21.3555H6.25821C6.92209 20.498 6.92203 19.2678 6.25821 18.4102H8.73641ZM16.4686 18.4102H22.326V29.1211H16.4686V18.4102ZM23.2635 26.1757L25.7417 26.1759C25.0778 27.0334 25.0778 28.2636 25.7417 29.1211H23.2635V26.1757ZM29.121 23.7657C29.121 24.5777 28.4604 25.2383 27.6484 25.2383C26.8364 25.2383 26.1757 24.5777 26.1757 23.7657C26.1757 22.9537 26.8363 22.293 27.6484 22.293C28.4604 22.293 29.121 22.9537 29.121 23.7657ZM29.121 19.8829C29.121 20.6949 28.4604 21.3555 27.6484 21.3555C26.8364 21.3555 26.1757 20.6949 26.1757 19.8829C26.1757 19.0709 26.8363 18.4103 27.6484 18.4103C28.4604 18.4103 29.121 19.0708 29.121 19.8829ZM29.121 16.0001C29.121 16.8121 28.4604 17.4727 27.6484 17.4727C26.8364 17.4727 26.1757 16.8121 26.1757 16.0001C26.1757 15.1944 26.826 14.5377 27.6293 14.5276H27.6673C28.4706 14.5377 29.121 15.1944 29.121 16.0001ZM15.9999 4.62177L17.6311 5.82434L14.3689 5.82427L15.9999 4.62177ZM2.87889 16.0001C2.87889 15.1944 3.52926 14.5377 4.33252 14.5276H4.37052C5.17383 14.5377 5.82409 15.1944 5.82409 16.0001C5.82409 16.8121 5.16352 17.4727 4.35145 17.4727C3.53939 17.4727 2.87889 16.8121 2.87889 16.0001V16.0001ZM2.87889 19.8829C2.87889 19.0709 3.53951 18.4103 4.35152 18.4103C5.16352 18.4103 5.82415 19.0709 5.82415 19.8829C5.82415 20.6949 5.16358 21.3555 4.35152 21.3555C3.53945 21.3555 2.87889 20.6949 2.87889 19.8829ZM4.35158 22.293C5.16358 22.293 5.82421 22.9537 5.82421 23.7657C5.82421 24.5745 5.16877 25.2331 4.36114 25.2382H4.35183C4.35077 25.2382 4.34964 25.2382 4.34858 25.2383C3.53795 25.2366 2.87901 24.5767 2.87901 23.7657C2.87889 22.9537 3.53958 22.293 4.35158 22.293V22.293ZM2.87889 27.6485C2.87889 26.8365 3.53951 26.1759 4.35152 26.1759C5.16352 26.1759 5.82415 26.8365 5.82415 27.6485C5.82415 28.4605 5.16358 29.1211 4.35152 29.1211C3.53945 29.1211 2.87889 28.4605 2.87889 27.6485ZM31.0624 31.0625H0.937504V30.0586H31.0624V31.0625Z" fill="#202228"/>
<path d="M17.9414 23.2969C17.6825 23.2969 17.4727 23.5067 17.4727 23.7656V24.7363C17.4727 24.9952 17.6825 25.2051 17.9414 25.2051C18.2003 25.2051 18.4102 24.9952 18.4102 24.7363V23.7656C18.4102 23.5067 18.2003 23.2969 17.9414 23.2969Z" fill="#202228"/>
</g>
<defs>
<clipPath id="clip0_1194_39181">
<rect width="32" height="32" fill="white"/>
</clipPath>
</defs>
</svg>
