<?xml version="1.0" encoding="UTF-8" standalone="no"?>
<svg
   xmlns:dc="http://purl.org/dc/elements/1.1/"
   xmlns:cc="http://creativecommons.org/ns#"
   xmlns:rdf="http://www.w3.org/1999/02/22-rdf-syntax-ns#"
   xmlns:svg="http://www.w3.org/2000/svg"
   xmlns="http://www.w3.org/2000/svg"
   version="1.1"
   id="svg2"
   xml:space="preserve"
   width="15"
   height="15"
   viewBox="0 0 42.666668 42.666668"><metadata
     id="metadata8"><rdf:RDF><cc:Work
         rdf:about=""><dc:format>image/svg+xml</dc:format><dc:type
           rdf:resource="http://purl.org/dc/dcmitype/StillImage" /></cc:Work></rdf:RDF></metadata><defs
     id="defs6" /><g
     id="g10"
     transform="matrix(1.3333333,0,0,-1.3333333,0,42.666667)"><g
       id="g12"
       transform="translate(0.501953)"><path
         d="M 30.529251,32 H 0.46875 C 0.209875,32 0,31.790125 0,31.53125 0,31.272375 0.209875,31.0625 0.46875,31.0625 H 1.002 v -1.53525 c 0,-0.258875 0.209875,-0.46875 0.46875,-0.46875 H 2.004063 V 2.941563 H 1.47075 C 1.211875,2.941563 1.002,2.731688 1.002,2.472813 V 0.46875 C 1.002,0.209812 1.211875,0 1.47075,0 h 4.008063 c 0.258875,0 0.46875,0.209812 0.46875,0.46875 v 2.004 c 0,0.258875 -0.209875,0.46875 -0.46875,0.46875 H 4.945562 V 4.509062 H 26.052376 V 2.9415 h -0.533251 c -0.258875,0 -0.46875,-0.209875 -0.46875,-0.46875 v -2.004 C 25.050375,0.209812 25.26025,0 25.519125,0 h 4.008062 c 0.258875,0 0.46875,0.209812 0.46875,0.46875 v 2.004 c 0,0.258875 -0.209875,0.46875 -0.46875,0.46875 h -0.533249 v 26.117 h 0.533249 c 0.258875,0 0.46875,0.209875 0.46875,0.46875 v 1.53525 h 0.533251 c 0.258875,0 0.46875,0.209875 0.46875,0.46875 0,0.258875 -0.209749,0.46875 -0.468687,0.46875 z M 5.010063,2.004 V 0.9375 H 1.9395 V 2.004 Z M 4.476875,9.454624 c -0.258875,0 -0.46875,-0.209875 -0.46875,-0.46875 V 2.941626 H 2.941563 V 29.0585 H 4.008062 V 10.989876 c 0,-0.258875 0.209875,-0.46875 0.46875,-0.46875 0.258875,0 0.46875,0.209875 0.46875,0.46875 v 1.535312 H 26.052376 V 8.452562 h -3.0385 c -0.124313,0 -0.243563,-0.049436 -0.331501,-0.137312 -0.08794,-0.087938 -0.137312,-0.207187 -0.137249,-0.331501 6.3e-5,-0.27625 -0.1075,-0.535936 -0.302813,-0.731248 C 22.047001,7.057188 21.787312,6.949562 21.511,6.949562 c -0.276251,0 -0.536,0.107563 -0.731312,0.302939 -0.195313,0.195375 -0.302813,0.454998 -0.30275,0.731248 0,0.124314 -0.04938,0.243565 -0.137251,0.331564 -0.08794,0.087939 -0.207185,0.137312 -0.331499,0.137312 h -3.00625 c -0.258875,0 -0.46875,-0.209875 -0.46875,-0.46875 0,-0.570312 -0.46394,-1.03425 -1.034251,-1.03425 -0.27625,0 -0.536,0.107561 -0.731312,0.302937 -0.195313,0.195375 -0.302876,0.455062 -0.302876,0.731313 0,0.124314 -0.04937,0.243561 -0.13725,0.331499 -0.08794,0.087876 -0.207124,0.137314 -0.3315,0.137314 h -1.066874 c -0.229688,1.695 -1.685313,3.006062 -3.442313,3.006062 -1.757,0 -3.212624,-1.311062 -3.442312,-3.006062 H 4.945625 v 0.533186 c 0,0.258875 -0.209812,0.46875 -0.46875,0.46875 z M 15.499,21.478813 c -1.399063,0 -2.537313,1.138249 -2.537313,2.537312 0,1.399063 1.13825,2.537313 2.537313,2.537313 1.399062,0 2.537312,-1.138187 2.537312,-2.537313 0,-1.399124 -1.13825,-2.537312 -2.537312,-2.537312 z m 3.442376,2.068562 h 0.654312 c 0.210874,-0.86175 0.989687,-1.503063 1.915438,-1.503063 0.92575,0 1.704563,0.641313 1.915437,1.503063 h 2.625876 v -2.068562 h -8.182877 c 0.570875,0.533749 0.961813,1.256937 1.071814,2.068562 z M 13.1285,21.478813 h -1.271001 c 0.248875,0.232687 0.463313,0.501312 0.635501,0.797688 0.172125,-0.296376 0.386625,-0.565001 0.6355,-0.797688 z m -3.641562,0 c -1.399063,0 -2.537313,1.138249 -2.537313,2.537312 0,1.399063 1.13825,2.537313 2.537313,2.537313 1.399062,0 2.537312,-1.138187 2.537312,-2.537313 0,-1.399124 -1.13825,-2.537312 -2.537312,-2.537312 z m -2.370625,0 H 4.945625 v 2.068562 h 1.098937 c 0.11,-0.811625 0.500875,-1.534874 1.071751,-2.068562 z M 26.0525,20.541313 V 16.46875 h -1.098999 c -0.229687,1.695 -1.685375,3.006062 -3.442312,3.006062 -1.282439,0 -2.404002,-0.698811 -3.006064,-1.735188 -0.602062,1.036312 -1.723625,1.735188 -3.006062,1.735188 -1.757,0 -3.212564,-1.311062 -3.442314,-3.006062 H 10.99 c -0.258875,0 -0.46875,-0.209875 -0.46875,-0.46875 0,-0.570312 -0.463938,-1.03425 -1.03425,-1.03425 -0.570313,0 -1.034251,0.463938 -1.034251,1.03425 0,0.258875 -0.209874,0.46875 -0.468749,0.46875 H 4.945625 v 4.072563 z m -7.547438,-6.280939 c 0.172188,-0.296375 0.386627,-0.564999 0.635502,-0.797686 h -1.270939 c 0.248812,0.232687 0.463312,0.501311 0.635437,0.797686 z M 15.499,13.462688 c -1.399063,0 -2.537313,1.138249 -2.537313,2.537312 0,1.399063 1.138187,2.537312 2.537313,2.537312 1.399125,0 2.537312,-1.138188 2.537312,-2.537312 0,-1.399124 -1.13825,-2.537312 -2.537312,-2.537312 z M 18.973812,16 c 0,1.399063 1.138189,2.537312 2.537314,2.537312 1.399124,0 2.537311,-1.138188 2.537311,-2.537312 0,-1.399124 -1.138248,-2.537312 -2.537311,-2.537312 -1.399001,0 -2.537314,1.138249 -2.537314,2.537312 z m 5.979626,-0.46875 h 1.099001 v -2.068562 h -2.170813 c 0.570938,0.533751 0.961811,1.256937 1.071812,2.068562 z m -17.381876,0 c 0.210875,-0.86175 0.989688,-1.503 1.915438,-1.503 0.925749,0 1.704563,0.641313 1.915437,1.503 h 0.654312 c 0.11,-0.811625 0.500876,-1.534811 1.071751,-2.068562 H 4.945625 V 15.53125 Z M 4.945625,5.446562 v 2.068563 h 1.099 c 0.11,-0.811624 0.500875,-1.534813 1.07175,-2.068563 z m 4.541313,0 c -1.398813,0 -2.536875,1.13775 -2.537313,2.536501 0,2.5e-4 6.2e-5,5.62e-4 6.2e-5,8.12e-4 0,2.5e-4 -6.2e-5,5.63e-4 -6.2e-5,8.13e-4 4.38e-4,1.398687 1.1385,2.536499 2.537313,2.536499 1.399062,0 2.537312,-1.138249 2.537312,-2.537312 0,-1.399063 -1.13825,-2.537313 -2.537312,-2.537313 z m 2.370499,-6.1e-5 v 6.1e-5 c 0.570875,0.533687 0.96175,1.256939 1.07175,2.068563 h 0.653812 c 0.08431,-0.3475 0.262438,-0.666189 0.521751,-0.925501 0.372375,-0.372438 0.867562,-0.577562 1.39425,-0.577562 0.925749,0 1.704564,0.641314 1.915438,1.503 h 2.18075 c 0.08425,-0.347437 0.262436,-0.666187 0.521687,-0.925499 0.372375,-0.372438 0.8675,-0.577564 1.394251,-0.577564 0.52675,0 1.021875,0.205126 1.39425,0.577564 0.259251,0.259251 0.437375,0.578062 0.521687,0.925499 H 26.0525 V 5.446501 Z M 29.058563,2.004 V 0.9375 H 25.988001 V 2.004 Z M 26.99,2.9415 v 26.117 h 1.066562 V 2.9415 H 26.99 Z M 25.018063,29.996 c -0.258875,0 -0.46875,-0.209875 -0.46875,-0.46875 0,-0.258875 0.209875,-0.46875 0.46875,-0.46875 H 26.0525 v -4.573562 h -3.038311 c -0.258875,0 -0.46875,-0.209875 -0.46875,-0.46875 0,-0.570313 -0.463938,-1.034312 -1.03425,-1.034312 -0.570313,0 -1.034251,0.463999 -1.034251,1.034312 0,0.258875 -0.209875,0.46875 -0.46875,0.46875 h -1.066749 c -0.229687,1.694999 -1.685313,3.006063 -3.442314,3.006063 -1.282437,0 -2.404001,-0.698814 -3.006063,-1.735187 -0.602062,1.036312 -1.723625,1.735187 -3.006062,1.735187 -1.757,0 -3.212625,-1.311064 -3.442312,-3.006063 H 4.945625 V 29.0585 H 23.01425 c 0.258875,0 0.46875,0.209875 0.46875,0.46875 0,0.258875 -0.209875,0.46875 -0.46875,0.46875 H 1.9395 v 1.0665 H 29.058437 V 29.996 Z"
         style="fill:#252525;fill-opacity:1;fill-rule:nonzero;stroke:none"
         id="path14" /></g><g
       id="g16"
       transform="translate(8.517578,22.544922)"><path
         d="M 1.470751,2.941406 C 0.659751,2.941406 0,2.281594 0,1.470656 0,0.659657 0.659813,-1.56e-4 1.470751,-1.56e-4 c 0.810937,0 1.47075,0.659813 1.47075,1.470812 0,0.810938 -0.659813,1.47075 -1.47075,1.47075 z m 0,-2.004062 c -0.294063,0 -0.533251,0.23925 -0.533251,0.533312 0,0.294063 0.239251,0.53325 0.533251,0.53325 0.294,0 0.53325,-0.23925 0.53325,-0.53325 0,-0.294125 -0.23925,-0.533312 -0.53325,-0.533312 z"
         style="fill:#252525;fill-opacity:1;fill-rule:nonzero;stroke:none"
         id="path18" /></g><g
       id="g20"
       transform="translate(14.529297,22.545898)"><path
         d="M 1.47075,2.941406 C 0.65975,2.941406 0,2.281594 0,1.470656 0,0.659657 0.659812,-1.56e-4 1.47075,-1.56e-4 c 0.810937,0 1.470751,0.659813 1.470751,1.470812 6.2e-5,0.810938 -0.659689,1.47075 -1.470751,1.47075 z m 0,-2.004062 c -0.294063,0 -0.53325,0.23925 -0.53325,0.533312 0,0.294063 0.23925,0.53325 0.53325,0.53325 0.294,0 0.533251,-0.23925 0.533251,-0.53325 C 2.004063,1.176531 1.764875,0.937344 1.47075,0.937344 Z"
         style="fill:#252525;fill-opacity:1;fill-rule:nonzero;stroke:none"
         id="path22" /></g><g
       id="g24"
       transform="translate(14.529297,14.529297)"><path
         d="M 1.47075,2.941406 C 0.65975,2.941406 0,2.281594 0,1.470656 0,0.659719 0.659812,-9.4e-5 1.47075,-9.4e-5 c 0.810937,0 1.470751,0.659813 1.470751,1.47075 6.2e-5,0.810938 -0.659689,1.47075 -1.470751,1.47075 z m 0,-2.004 c -0.294063,0 -0.53325,0.23925 -0.53325,0.53325 0,0.294 0.23925,0.53325 0.53325,0.53325 0.294,0 0.533251,-0.23925 0.533251,-0.53325 0,-0.294 -0.239126,-0.53325 -0.533251,-0.53325 z"
         style="fill:#252525;fill-opacity:1;fill-rule:nonzero;stroke:none"
         id="path26" /></g><g
       id="g28"
       transform="translate(20.541016,14.529297)"><path
         d="M 1.470749,2.941406 C 0.659749,2.941406 0,2.281594 0,1.470656 0,0.659719 0.659811,-9.4e-5 1.470749,-9.4e-5 c 0.810937,0 1.470751,0.659813 1.470751,1.47075 6.2e-5,0.810938 -0.659751,1.47075 -1.470751,1.47075 z m 0,-2.004 c -0.294063,0 -0.533249,0.23925 -0.533249,0.53325 0,0.294 0.239249,0.53325 0.533249,0.53325 0.294,0 0.533251,-0.23925 0.533251,-0.53325 0,-0.294 -0.239189,-0.53325 -0.533251,-0.53325 z"
         style="fill:#252525;fill-opacity:1;fill-rule:nonzero;stroke:none"
         id="path30" /></g><g
       id="g32"
       transform="translate(8.517578,6.513672)"><path
         d="M 1.470751,2.941406 C 0.659751,2.941406 0,2.281594 0,1.470594 0,0.659595 0.659813,-1.54e-4 1.470751,-1.54e-4 c 0.810937,0 1.47075,0.659811 1.47075,1.470748 0,0.811063 -0.659813,1.470812 -1.47075,1.470812 z m 0,-2.00406 c -0.294063,0 -0.533251,0.239248 -0.533251,0.533248 0,0.294063 0.239251,0.533312 0.533251,0.533312 0.294,0 0.53325,-0.239249 0.53325,-0.533312 0,-0.294 -0.23925,-0.533248 -0.53325,-0.533248 z"
         style="fill:#252525;fill-opacity:1;fill-rule:nonzero;stroke:none"
         id="path34" /></g></g></svg>
