<?xml version="1.0" encoding="UTF-8" standalone="no"?>
<svg
   xmlns:dc="http://purl.org/dc/elements/1.1/"
   xmlns:cc="http://creativecommons.org/ns#"
   xmlns:rdf="http://www.w3.org/1999/02/22-rdf-syntax-ns#"
   xmlns:svg="http://www.w3.org/2000/svg"
   xmlns="http://www.w3.org/2000/svg"
   version="1.1"
   id="svg2"
   xml:space="preserve"
   width="40"
   height="40"
   viewBox="0 0 42.666668 35.764324"><metadata
     id="metadata8"><rdf:RDF><cc:Work
         rdf:about=""><dc:format>image/svg+xml</dc:format><dc:type
           rdf:resource="http://purl.org/dc/dcmitype/StillImage" /></cc:Work></rdf:RDF></metadata><defs
     id="defs6" /><g
     id="g10"
     transform="matrix(1.3333333,0,0,-1.3333333,0,35.764323)"><g
       id="g12"><path
         d="m 31.96389,0.649418 -0.86256,2.070183 c -6.26e-4,0.00156 -0.0013,0.00319 -0.002,0.00475 l -6.900986,16.56253 c -0.07275,0.174689 -0.243499,0.288439 -0.432687,0.288439 h -2.280495 c -0.258938,0 -0.46875,-0.209875 -0.46875,-0.46875 0,-0.258875 0.209812,-0.468748 0.46875,-0.468748 h 1.967996 L 29.96527,3.008538 H 15.449674 L 8.937562,18.637822 h 10.674542 c 0.258935,0 0.468748,0.209873 0.468748,0.468748 0,0.258875 -0.209813,0.46875 -0.468748,0.46875 H 8.703187 v 2.168871 h 5.226051 c 0.258875,0 0.468749,0.209873 0.468749,0.468748 v 3.623869 c 0,0.258873 -0.209874,0.468748 -0.468749,0.468748 H 8.703187 v 0.04894 c 0,0.258875 -0.209874,0.46875 -0.468749,0.46875 -0.258874,0 -0.46875,-0.209875 -0.46875,-0.46875 V 25.836811 22.212942 19.200323 L 2.354073,6.212282 0.13089,3.90016 c -0.177,-0.184 -0.174125,-0.475809 0.006437,-0.65637 L 0.829013,2.552101 0.036202,0.649418 C -0.024048,0.50473 -0.008048,0.33954 0.07889,0.209105 0.165827,0.07873 0.312202,3.57e-4 0.468889,3.57e-4 h 3.105807 c 0.00169,0 0.00338,0 0.00506,0 h 9.312607 c 5.62e-4,0 0.0011,-1.26e-4 0.0016,-1.26e-4 8.12e-4,0 0.0017,1.26e-4 0.0025,1.26e-4 h 3.101995 c 5.62e-4,0 0.0011,-1.26e-4 0.0017,-1.26e-4 8.12e-4,0 0.0017,1.26e-4 0.0025,1.26e-4 H 31.53119 c 0.15675,0 0.303126,0.07831 0.39,0.208748 0.087,0.130435 0.103002,0.295625 0.04269,0.440313 z M 8.703186,25.368057 h 4.757302 V 22.681688 H 8.703186 v 2.686369 z M 1.172075,0.937855 1.545949,1.835291 2.443448,0.937855 Z m 2.239621,0.357689 -1.693497,1.69337 c -0.001,0.00106 -0.00206,0.00206 -0.00306,0.00306 l -0.589814,0.58975 5.715801,5.944489 z m 0.866623,-0.357689 3.956243,9.49498 3.95618,-9.49498 H 4.278319 Z m 8.928046,0 -4.539179,10.89404 c -1.25e-4,2.5e-4 -2.5e-4,4.39e-4 -3.13e-4,6.88e-4 -0.00819,0.0195 -0.017938,0.03844 -0.028875,0.05688 -0.00219,0.0037 -0.00444,0.0072 -0.00669,0.01087 -0.00975,0.01556 -0.020436,0.03075 -0.032249,0.04531 -0.00169,0.0021 -0.00319,0.0044 -0.00494,0.0064 -0.010812,0.01294 -0.022312,0.02544 -0.03475,0.03744 -0.00225,0.0022 -0.00475,0.004 -0.007,0.0061 -0.00387,0.0036 -0.00794,0.0069 -0.012,0.01037 -0.01275,0.011 -0.025874,0.02119 -0.039375,0.03062 -0.00331,0.0023 -0.00644,0.0048 -0.00981,0.0069 -0.017312,0.01137 -0.035061,0.02144 -0.053373,0.03025 -0.00269,0.0013 -0.0055,0.0024 -0.00819,0.0036 -0.016688,0.0076 -0.03375,0.01425 -0.051062,0.01981 -0.00363,0.0012 -0.00725,0.0025 -0.010876,0.0036 -0.019562,0.0058 -0.039437,0.01031 -0.059499,0.0135 -0.00375,6.26e-4 -0.00763,8.77e-4 -0.011438,0.0014 -0.018125,0.0024 -0.036313,0.0038 -0.054562,0.0041 -0.00256,6.3e-5 -0.00506,5.63e-4 -0.00762,5.63e-4 -0.00119,0 -0.00231,-2.5e-4 -0.0035,-2.5e-4 -0.020375,-1.25e-4 -0.040688,-0.0018 -0.060875,-0.0046 -0.00456,-6.25e-4 -0.00906,-0.0014 -0.013563,-0.0022 -0.018438,-0.0031 -0.036749,-0.0071 -0.05475,-0.01244 -0.00194,-5.62e-4 -0.004,-0.001 -0.00594,-0.0016 -0.019625,-0.0061 -0.038812,-0.01369 -0.057625,-0.02238 -0.00356,-0.0017 -0.00706,-0.0034 -0.010626,-0.0052 -0.016749,-0.0083 -0.033062,-0.01737 -0.048937,-0.02769 -0.00188,-0.0012 -0.00381,-0.0023 -0.00569,-0.0035 -0.016688,-0.01125 -0.032688,-0.02375 -0.048063,-0.03731 -0.00381,-0.0034 -0.00737,-0.0069 -0.011062,-0.01044 -0.00581,-0.0054 -0.011813,-0.0105 -0.017375,-0.01631 L 4.146252,8.076071 7.765683,16.76268 v -1.797935 c 0,-0.258874 0.209876,-0.468749 0.46875,-0.468749 0.258875,0 0.468749,0.209875 0.468749,0.468749 v 1.797935 c 1.50731,-3.617494 4.519491,-10.846918 6.001176,-14.402912 6.25e-4,-0.0015 0.0012,-0.00306 0.0019,-0.00456 0.242374,-0.581623 0.443749,-1.064933 0.590624,-1.417495 h -2.090558 z m 3.106118,0 -0.472186,1.133184 H 30.355894 L 30.828079,0.937855 H 16.312483 Z"
         style="fill:#202228;fill-opacity:1;fill-rule:nonzero;stroke:none"
         id="path14" /></g></g></svg>
