<?xml version="1.0" encoding="UTF-8" standalone="no"?>
<svg
   xmlns:dc="http://purl.org/dc/elements/1.1/"
   xmlns:cc="http://creativecommons.org/ns#"
   xmlns:rdf="http://www.w3.org/1999/02/22-rdf-syntax-ns#"
   xmlns:svg="http://www.w3.org/2000/svg"
   xmlns="http://www.w3.org/2000/svg"
   version="1.1"
   id="svg2"
   xml:space="preserve"
   width="42.666668"
   height="34.908855"
   viewBox="0 0 42.666668 34.908855"><metadata
     id="metadata8"><rdf:RDF><cc:Work
         rdf:about=""><dc:format>image/svg+xml</dc:format><dc:type
           rdf:resource="http://purl.org/dc/dcmitype/StillImage" /></cc:Work></rdf:RDF></metadata><defs
     id="defs6" /><g
     id="g10"
     transform="matrix(1.3333333,0,0,-1.3333333,0,34.908855)"><g
       id="g12"
       transform="translate(24.429688,19.025391)"><path
         d="M 0.678945,0.604935 C 0.94582,0.738685 1.271821,0.63031 1.405633,0.36356 1.485071,0.204998 1.647257,0.104873 1.824632,0.104873 c 0.177375,0 0.339563,0.100125 0.419063,0.258687 C 2.377508,0.630435 2.703383,0.738748 2.970258,0.604935 3.201633,0.48906 3.483382,0.582561 3.599381,0.813936 3.715319,1.045373 3.621757,1.32706 3.390382,1.44306 3.037257,1.62006 2.636383,1.648935 2.261445,1.524435 2.101195,1.471185 1.95382,1.392623 1.823882,1.292498 1.388132,1.627061 0.781883,1.705248 0.258758,1.44306 0.027383,1.32706 -0.066179,1.045373 0.049758,0.813936 0.165821,0.582498 0.447445,0.488998 0.678945,0.604935 Z"
         style="fill:#252525;fill-opacity:1;fill-rule:nonzero;stroke:none"
         id="path14" /></g><g
       id="g16"
       transform="translate(14.835938,21.603516)"><path
         d="M 0.678946,0.604972 C 0.945821,0.738785 1.271758,0.630472 1.405508,0.363597 1.485008,0.205035 1.647195,0.10491 1.82457,0.10491 c 0.177375,0 0.339563,0.100125 0.419063,0.258687 C 2.377383,0.630535 2.703257,0.739035 2.97032,0.604972 3.201507,0.489035 3.483382,0.582535 3.599382,0.814035 3.71532,1.045473 3.621757,1.327098 3.39032,1.443098 2.867195,1.705285 2.260946,1.626972 1.825258,1.292597 1.695321,1.39266 1.547945,1.471222 1.387695,1.524472 1.01282,1.648972 0.61182,1.619973 0.258758,1.443098 0.027383,1.327098 -0.066179,1.04541 0.049758,0.813973 0.165696,0.582535 0.447446,0.489035 0.678946,0.604972 Z"
         style="fill:#252525;fill-opacity:1;fill-rule:nonzero;stroke:none"
         id="path18" /></g><g
       id="g20"
       transform="translate(20.519531,24.636719)"><path
         d="m 0.678872,0.549298 c 0.26675,0.133625 0.592749,0.025438 0.726687,-0.241374 0.079437,-0.158563 0.241625,-0.258688 0.419,-0.258688 0.177376,0 0.339564,0.100125 0.419064,0.258688 0.06475,0.12925 0.176,0.225562 0.313313,0.271187 0.137312,0.045562 0.283999,0.035062 0.41325,-0.029813 0.231187,-0.115937 0.513062,-0.022437 0.629062,0.208938 0.116,0.231375 0.022499,0.513062 -0.208938,0.629062 -0.353,0.177063 -0.753937,0.206 -1.128937,0.0815 C 2.101373,1.415611 1.954309,1.337298 1.824559,1.237486 1.694747,1.337298 1.547623,1.415673 1.387685,1.468798 1.01281,1.593298 0.611809,1.564361 0.258746,1.387298 0.027309,1.271298 -0.06619,0.989611 0.04981,0.758236 0.16581,0.526798 0.447685,0.433173 0.678872,0.549298 Z"
         style="fill:#252525;fill-opacity:1;fill-rule:nonzero;stroke:none"
         id="path22" /></g><g
       id="g24"><path
         d="m 31.984125,2.607969 c -0.05288,0.825062 -0.6495,1.504563 -1.434749,1.682375 -0.043,0.146125 -0.108063,0.282811 -0.190627,0.406874 v 0.948563 c 0,4.056875 -1.728937,7.943437 -4.743499,10.663 -0.192126,0.173374 -0.488562,0.15825 -0.661999,-0.03406 -0.173437,-0.192188 -0.158188,-0.488563 0.03406,-0.662 0.364064,-0.3285 0.707688,-0.6755 1.030751,-1.038375 h -2.717625 c -0.226688,0.440875 -0.471188,0.863624 -0.733126,1.265562 -0.655374,1.005625 -1.392374,1.841937 -2.188499,2.494813 1.027563,-0.354313 2.012874,-0.834126 2.934875,-1.434313 0.217125,-0.141312 0.507374,-0.07987 0.648562,0.137062 0.14125,0.217001 0.07988,0.507313 -0.137062,0.648563 -2.327626,1.515189 -5.031189,2.316563 -7.818814,2.317749 -0.0021,0 -0.0042,1.26e-4 -0.0063,1.26e-4 0,0 0,0 -6.3e-5,0 h -6.3e-5 c -0.0029,0 -0.0059,-1.87e-4 -0.0089,-1.87e-4 C 12.215813,20.001406 8.651813,18.546032 5.95475,15.905031 3.314,13.319157 1.792562,9.880157 1.653563,6.199532 0.945438,6.101281 0.391937,5.512843 0.350812,4.78828 0.123375,4.488781 0,4.124656 0,3.743843 V 0.468281 C 0,0.209343 0.209812,-4.69e-4 0.46875,-4.69e-4 h 24.039375 c 0.258938,0 0.46875,0.209812 0.46875,0.46875 0,0.258938 -0.209812,0.46875 -0.46875,0.46875 H 0.9375 v 1.083126 h 7.99125 c 0.258938,0 0.46875,0.209812 0.46875,0.46875 0,0.258938 -0.209812,0.46875 -0.46875,0.46875 H 8.6715 c 0.038563,0.124813 0.059938,0.257 0.059938,0.394312 0,0.490749 -0.261751,0.928938 -0.67375,1.163313 C 7.977625,4.747407 7.826063,4.945844 7.629813,5.085281 v 0.560187 c 0,1.22425 0.102437,2.422876 0.300187,3.571876 h 4.243375 C 12.097876,8.064907 12.05875,6.866968 12.05875,5.645531 V 2.957657 h -0.9425 c -0.258938,0 -0.46875,-0.209812 -0.46875,-0.46875 0,-0.258938 0.209812,-0.46875 0.46875,-0.46875 H 14.567 c 0.0013,0 0.0024,-1.89e-4 0.0036,-1.89e-4 0.0012,0 0.0024,1.89e-4 0.0036,1.89e-4 h 2.851375 c 0.0012,0 0.0024,-1.89e-4 0.0036,-1.89e-4 0.0012,0 0.0024,1.89e-4 0.0036,1.89e-4 H 31.0624 V 0.937031 h -4.366875 c -0.258938,0 -0.46875,-0.209812 -0.46875,-0.46875 0,-0.258938 0.209812,-0.46875 0.46875,-0.46875 h 4.835625 c 0.258938,0 0.46875,0.209812 0.46875,0.46875 0,0 -0.0059,2.101625 -0.01588,2.139688 v 0 z M 30.91925,2.957657 H 22.472 c 0.1595,0.2635 0.447998,0.440624 0.777874,0.440624 0.258938,0 0.46875,0.209812 0.46875,0.46875 0,0.3115 0.253437,0.565001 0.564938,0.565001 0.258938,0 0.46875,0.209812 0.46875,0.46875 0,0.501437 0.408001,0.9095 0.909563,0.9095 0.258938,0 0.46875,0.209812 0.46875,0.46875 0,0.311499 0.2535,0.564998 0.565,0.564998 0.311501,0 0.564938,-0.253438 0.564938,-0.564937 0,-0.258875 0.209812,-0.46875 0.468687,-0.46875 0.501562,-6.3e-5 0.909624,-0.408061 0.909624,-0.909561 0,-0.258938 0.209812,-0.46875 0.46875,-0.46875 0.311501,0 0.565001,-0.253501 0.565001,-0.565001 0,-0.258938 0.209812,-0.46875 0.46875,-0.46875 0.329874,0 0.618375,-0.177124 0.777875,-0.440624 z M 12.861,14.574344 H 9.763625 c 0.122501,0.218875 0.249499,0.432999 0.381812,0.640937 1.166063,1.832437 2.603875,3.056499 4.159251,3.572874 -0.45875,-0.737124 -0.864813,-1.807249 -1.214876,-3.207437 C 13.009062,15.25778 12.932813,14.921782 12.861,14.574344 Z m 1.138312,0.778999 c 0.684625,2.738376 1.504501,3.711438 1.999376,3.713063 h 0.0013 0.0011 c 0.494812,-0.0015 1.314875,-0.9745 1.999501,-3.713063 0.06294,-0.251625 0.122999,-0.511687 0.180311,-0.778999 h -4.362 c 0.05738,0.267312 0.117501,0.527312 0.180375,0.778999 v 0 z m 4.365625,-1.716499 c 0.192499,-1.07275 0.343813,-2.243812 0.45075,-3.482 h -5.631374 c 0.106937,1.238188 0.258249,2.409312 0.450749,3.482 z m 0.95175,0 h 3.399438 c 0.49825,-1.068376 0.890936,-2.240187 1.168187,-3.482 H 19.75625 c -0.104436,1.232875 -0.251937,2.403312 -0.439563,3.482 z m 4.75275,-4.4195 C 24.23675,8.246032 24.335312,7.238968 24.362,6.211281 24.116812,5.968093 23.939125,5.657031 23.86025,5.308781 23.371626,5.16503 22.985563,4.779032 22.841875,4.290344 22.170813,4.138407 21.637312,3.620094 21.463312,2.957657 h -1.522125 v 2.687874 c 0,1.2215 -0.03912,2.419376 -0.114624,3.571813 z m 5.351812,-3.571563 v -0.00687 c -0.232624,0.531001 -0.707,0.932875 -1.283937,1.0635 -0.18325,0.623062 -0.760187,1.079187 -1.441687,1.079187 -0.654188,0 -1.211126,-0.420811 -1.416813,-1.005562 -0.04156,0.83025 -0.128936,1.646437 -0.259687,2.441437 H 28.9345 C 29.253874,8.063656 29.421249,6.86303 29.421249,5.645781 Z m -2.642124,7.991063 c 0.788876,-1.065376 1.415125,-2.239499 1.859062,-3.482 h -3.795499 c -0.26175,1.231313 -0.630875,2.401625 -1.099438,3.482 z m -4.997188,1.69125 c 0.1585,-0.243188 0.309938,-0.494813 0.454876,-0.75375 h -3.097876 c -0.07181,0.347438 -0.148062,0.683436 -0.228811,1.006374 -0.349875,1.399562 -0.755688,2.469314 -1.214251,3.206437 1.521876,-0.506437 2.933748,-1.690998 4.086062,-3.459061 z M 11.625063,18.338593 C 10.795876,17.659094 10.030562,16.781031 9.3545,15.718594 9.121812,15.352968 8.903812,14.970593 8.699938,14.574281 H 5.980187 c 0.202001,0.226125 0.411813,0.446812 0.630438,0.660875 1.443938,1.414001 3.154001,2.463624 5.014438,3.103437 z M 5.215562,13.636844 h 3.040813 c -0.46925,-1.081375 -0.838688,-2.251313 -1.100187,-3.482 H 3.353563 c 0.441937,1.242251 1.067749,2.414187 1.861999,3.482 z M 7.793938,3.351906 c 0,-0.194937 -0.1395,-0.357811 -0.324001,-0.394312 H 0.9375 V 3.74378 c 0,0.205626 0.078625,0.400751 0.221375,0.549439 C 1.251562,4.389781 1.298563,4.521405 1.288,4.654905 1.28675,4.670342 1.28581,4.685906 1.28581,4.701656 c 0,0.353626 0.323625,0.635437 0.685751,0.565688 0.253874,-0.048501 0.498999,0.117374 0.548312,0.370937 0.072187,0.3715 0.399813,0.641125 0.779063,0.641125 0.011937,0 0.023875,-3.74e-4 0.035687,-9.37e-4 0.23875,-0.010875 0.445688,0.156937 0.484688,0.391312 0.046312,0.278374 0.285249,0.480501 0.568187,0.480501 0.31775,0 0.57625,-0.2585 0.57625,-0.57625 0,-0.048938 -0.00612,-0.097376 -0.018063,-0.144001 C 4.895937,6.236593 4.974187,6.032968 5.140563,5.922655 5.273625,5.834405 5.364875,5.694219 5.391,5.538094 5.428125,5.316093 5.61775,5.151781 5.842813,5.146719 6.158688,5.139594 6.440063,4.945845 6.559688,4.653219 6.628313,4.485219 6.787625,4.371968 6.968875,4.362469 7.083188,4.356406 7.175313,4.265843 7.183125,4.151718 7.196312,3.958656 7.326812,3.793594 7.511625,3.736094 7.6805,3.683531 7.793938,3.529156 7.793938,3.351906 Z M 6.693937,5.850468 C 6.545187,5.936843 6.383312,6.001343 6.213062,6.040468 6.1385,6.213093 6.032063,6.371032 5.89975,6.505344 c 0.00106,0.022875 0.0015,0.045749 0.0015,0.068749 0,0.834625 -0.679063,1.51375 -1.51375,1.51375 -0.611688,0 -1.145312,-0.360188 -1.382937,-0.896063 C 2.884375,7.17103 2.768312,7.137094 2.65725,7.092594 2.734313,7.815282 2.868563,8.525406 3.058438,9.217468 H 6.980062 C 6.801188,8.128718 6.70425,7.000342 6.693937,5.850468 Z m 1.421188,4.304376 c 0.277062,1.240876 0.669438,2.412438 1.168563,3.482 h 3.399499 c -0.187562,-1.078688 -0.335062,-2.249125 -0.439499,-3.482 z M 12.99625,5.645531 c 0,1.2235 0.03975,2.421751 0.116375,3.571813 h 5.774626 c 0.07663,-1.150062 0.116375,-2.348313 0.116375,-3.571813 V 2.957657 h -1.105564 v 1.356687 c 0,1.046563 -0.8515,1.898062 -1.898062,1.898062 -1.046562,0 -1.898063,-0.851499 -1.898063,-1.898062 V 2.957657 h -1.105625 v 2.687874 z m 3.964312,-2.687874 h -1.921125 v 1.356687 c 0,0.529688 0.430938,0.960562 0.960563,0.960562 0.529625,0 0.960562,-0.430937 0.960562,-0.960562 z"
         style="fill:#252525;fill-opacity:1;fill-rule:nonzero;stroke:none"
         id="path26" /></g></g></svg>
