<?xml version="1.0" encoding="UTF-8" standalone="no"?>
<svg
   xmlns:dc="http://purl.org/dc/elements/1.1/"
   xmlns:cc="http://creativecommons.org/ns#"
   xmlns:rdf="http://www.w3.org/1999/02/22-rdf-syntax-ns#"
   xmlns:svg="http://www.w3.org/2000/svg"
   xmlns="http://www.w3.org/2000/svg"
   version="1.1"
   id="svg2"
   xml:space="preserve"
   width="42.666668"
   height="38.803387"
   viewBox="0 0 42.666668 38.803387"><metadata
     id="metadata8"><rdf:RDF><cc:Work
         rdf:about=""><dc:format>image/svg+xml</dc:format><dc:type
           rdf:resource="http://purl.org/dc/dcmitype/StillImage" /></cc:Work></rdf:RDF></metadata><defs
     id="defs6" /><g
     id="g10"
     transform="matrix(1.3333333,0,0,-1.3333333,0,38.803385)"><g
       id="g12"
       transform="translate(0,-0.026367)"><path
         d="m 31.795124,8.245792 -1.040436,0.708874 c -0.374124,0.254812 -0.857559,0.254936 -1.231621,0 L 28.834505,8.485603 c -0.05344,-0.036375 -0.122499,-0.036375 -0.175938,0 l -0.08087,0.055125 v 0.818561 c 0,0.258938 -0.209875,0.46875 -0.46875,0.46875 h -0.905872 v 9.538105 c 0.48356,0.07556 0.98656,0.156874 1.511808,0.244562 0.385437,0.06425 0.699688,0.320126 0.840563,0.684437 0.140873,0.364561 0.0805,0.765497 -0.161688,1.072559 -1.284935,1.629622 -4.975803,5.640301 -11.479664,7.681674 -0.337625,0.106061 -0.694563,0.105999 -1.032249,6.2e-5 C 10.378041,27.008003 6.687112,22.997324 5.402114,21.367702 5.15999,21.06064 5.099553,20.659641 5.240552,20.295143 c 0.140812,-0.364311 0.455062,-0.620186 0.840436,-0.684437 0.531561,-0.08869 1.034248,-0.17 1.511872,-0.244751 V 17.958084 H 5.475051 c -0.443749,0 -0.872872,-0.185123 -1.177372,-0.507936 L 2.58387,15.633214 C 2.369745,15.406152 2.311245,15.074277 2.43487,14.787653 2.554307,14.51084 2.821182,14.329153 3.120556,14.317091 V 9.359352 c 0,-0.258936 0.209875,-0.468748 0.468749,-0.468748 H 3.947617 V 8.327229 H 0.468749 C 0.209875,8.327229 0,8.117416 0,7.85848 0,7.599543 0.209875,7.38973 0.468749,7.38973 H 3.947617 V 6.341606 H 3.143744 c -0.258875,0 -0.468749,-0.20981 -0.468749,-0.468748 0,-0.258938 0.209874,-0.46875 0.468749,-0.46875 H 5.04424 c 0.258874,0 0.468749,0.209812 0.468749,0.46875 0,0.258938 -0.209875,0.468748 -0.468749,0.468748 H 4.885116 V 7.38973 L 6.218237,7.374981 V 0.964119 H 4.612116 c -0.258875,0 -0.468749,-0.209812 -0.468749,-0.468748 0,-0.258938 0.209874,-0.46875 0.468749,-0.46875 h 6.576737 c 0.220562,0 0.433562,0.065687 0.615937,0.189937 l 0.880685,0.600249 c 0.0535,0.036312 0.122562,0.036312 0.175999,0 l 0.688,-0.468874 c 0.374061,-0.254999 0.857623,-0.254999 1.231872,-1.24e-4 l 0.688186,0.468998 c 0.05338,0.036501 0.1225,0.036375 0.175938,0 l 1.040186,-0.708811 c 0.08075,-0.055063 0.172624,-0.081438 0.2635,-0.081438 0.149811,0 0.29706,0.071688 0.38781,0.204813 0.145813,0.213936 0.09056,0.505562 -0.123438,0.651373 l -1.040247,0.708811 c -0.374187,0.254875 -0.857623,0.254875 -1.231748,0 L 14.253347,1.122557 c -0.05344,-0.036375 -0.122562,-0.036375 -0.175999,0 l -0.688,0.468872 c -0.374124,0.254938 -0.857747,0.254938 -1.231872,0 L 11.276916,0.991243 C 11.262796,0.981682 11.247296,0.974993 11.231226,0.97043 V 2.548241 H 25.874071 V 0.964056 h -1.06006 c -0.258873,0 -0.468749,-0.209812 -0.468749,-0.468748 0,-0.258938 0.209876,-0.46875 0.468749,-0.46875 h 4.113555 c 0.258875,0 0.46875,0.209812 0.46875,0.46875 0,0.258936 -0.209875,0.468748 -0.46875,0.468748 h -0.349874 v 3.091307 c 0,0.258936 -0.209875,0.468748 -0.46875,0.468748 -0.258875,0 -0.46875,-0.209812 -0.46875,-0.468748 V 3.485739 h -6.592611 v 3.420494 h 6.59255 V 6.016296 c 0,-0.258937 0.209875,-0.46875 0.46875,-0.46875 0.258875,0 0.46875,0.209813 0.46875,0.46875 0,0 0,1.462435 0,1.483685 v 0.033312 c 0.268436,-0.042374 0.548372,0.016626 0.784685,0.177625 l 0.688561,0.469061 c 0.05338,0.036499 0.122436,0.036375 0.175874,0 l 1.040436,-0.708873 c 0.08075,-0.055062 0.172625,-0.081438 0.263498,-0.081438 0.149813,0 0.297062,0.071689 0.387812,0.204875 0.145813,0.213875 0.09056,0.505499 -0.123375,0.651249 v 0 z m -5.52955,1.582184 h -0.82856 v 9.275919 c 0.269062,0.03756 0.545061,0.07737 0.82856,0.119374 z M 6.114925,20.633205 c -0.012062,0.03119 -0.025062,0.09262 0.023375,0.154061 1.231123,1.561247 4.769804,5.404552 11.024353,7.367737 0.153938,0.04831 0.316689,0.04825 0.470688,-6.3e-5 6.254612,-1.963122 9.793169,-5.806427 11.02429,-7.367674 0.04838,-0.06144 0.03544,-0.122875 0.02337,-0.154061 -0.012,-0.031 -0.04356,-0.085 -0.120372,-0.09781 -2.206059,-0.368187 -4.025931,-0.626875 -5.563553,-0.790814 -0.257437,-0.02744 -0.443875,-0.258434 -0.416374,-0.51581 0.02744,-0.257497 0.258688,-0.443811 0.515812,-0.416437 0.443687,0.04731 0.911121,0.102688 1.403059,0.165814 V 9.828041 H 21.608391 V 11.8176 c 0,0.45275 -0.231812,0.852124 -0.582812,1.086436 v 2.263556 c 0,0.258937 -0.209873,0.468749 -0.468748,0.468749 h -1.479498 c -0.258873,0 -0.468748,-0.209812 -0.468748,-0.468749 v -2.044307 h -2.898744 v 5.427987 c 0.561748,-0.01194 1.114246,-0.01481 1.688245,-0.01481 1.344435,0 2.439059,0.01744 3.739931,0.104313 0.258313,0.01725 0.453749,0.240688 0.436499,0.498938 -0.01725,0.258249 -0.240625,0.454624 -0.498937,0.436437 -1.274872,-0.08513 -2.352307,-0.102251 -3.677493,-0.102251 -2.901119,0 -5.245427,0.07387 -11.162727,1.061373 -0.076875,0.01294 -0.108438,0.06694 -0.120438,0.09794 v 0 z m 13.99516,-12.7896 h -2.073184 v 1.046873 h 2.073184 z m 0,-1.984434 h -2.073184 v 1.046936 h 2.073184 z M 10.29373,5.662609 H 7.155735 V 6.906107 H 10.29373 Z M 7.155735,4.725111 H 10.29373 V 3.485676 H 7.155735 Z m 0,3.118494 v 1.046873 h 9.943668 V 7.843605 Z m 7.616487,10.736603 v -0.334126 h -4.475805 v 0.731375 c 1.826184,-0.234499 3.212994,-0.345562 4.475805,-0.397249 z M 15.70972,9.827976 v 0.556061 h 4.961053 V 9.827976 Z m -0.937498,4.214615 h -4.475805 v 0.463687 h 4.475805 z m 0,1.401185 H 10.296417 V 15.9074 h 4.475805 z m -4.475805,-2.338681 h 4.475805 V 12.64147 h -4.475805 z m 4.475805,3.739803 h -4.475805 v 0.463688 h 4.475805 z m -4.475805,-5.140926 h 4.475805 v -0.463686 h -4.475805 z m 9.791542,1.419311 h -0.541998 v 1.575558 h 0.541998 z m 0.214564,-0.9375 c 0.203062,0 0.36825,-0.165186 0.36825,-0.368248 v -0.496 H 15.70972 v 0.864185 h 4.592803 z M 10.296417,10.302788 h 4.475805 V 9.827976 H 10.296417 Z M 9.358919,19.103394 V 9.828039 H 8.530357 v 1.619372 c 0,0.258937 -0.209874,0.46875 -0.468749,0.46875 -0.258874,0 -0.468748,-0.209813 -0.468748,-0.46875 V 9.828039 H 4.058054 v 4.708989 h 3.534744 v -1.128811 c 0,-0.258936 0.209874,-0.468747 0.468748,-0.468747 0.258875,0 0.468749,0.209811 0.468749,0.468747 v 5.814741 c 0.285625,-0.04238 0.561687,-0.08225 0.828624,-0.119564 z M 4.979678,16.806835 c 0.128125,0.135876 0.308686,0.213751 0.495373,0.213751 h 2.117747 v -1.54606 H 3.722993 Z M 4.885116,8.327166 V 8.890541 H 6.218237 V 8.327166 Z M 7.155735,2.548178 H 10.29373 V 0.963993 H 7.155735 Z m 4.075493,4.357929 h 5.868175 V 4.980673 h -3.512617 c -0.258875,0 -0.468749,-0.209812 -0.468749,-0.46875 0,-0.258936 0.209874,-0.468748 0.468749,-0.468748 h 3.512617 V 3.485613 H 11.231228 Z M 27.640133,2.548178 V 0.963993 h -0.828562 v 1.584185 z m -9.603232,0.937498 v 1.43606 h 2.073184 v -1.43606 z m 3.010682,4.357929 v 1.046873 h 6.59255 V 7.843605 Z"
         style="fill:#252525;fill-opacity:1;fill-rule:nonzero;stroke:none"
         id="path14" /></g><g
       id="g16"
       transform="translate(11.804688,5.37793)"><path
         d="m 2.767625,0.46875 c 0,0.258937 -0.209875,0.46875 -0.46875,0.46875 H 0.46875 C 0.209875,0.9375 0,0.727687 0,0.46875 0,0.209813 0.209875,0 0.46875,0 h 1.830125 c 0.258937,0 0.46875,0.209875 0.46875,0.46875 z"
         style="fill:#252525;fill-opacity:1;fill-rule:nonzero;stroke:none"
         id="path18" /></g></g></svg>
