<?xml version="1.0" encoding="UTF-8" standalone="no"?>
<svg
   xmlns:dc="http://purl.org/dc/elements/1.1/"
   xmlns:cc="http://creativecommons.org/ns#"
   xmlns:rdf="http://www.w3.org/1999/02/22-rdf-syntax-ns#"
   xmlns:svg="http://www.w3.org/2000/svg"
   xmlns="http://www.w3.org/2000/svg"
   version="1.1"
   id="svg2"
   xml:space="preserve"
   width="40"
   height="40"
   viewBox="0 0 42.666668 31.916668"><metadata
     id="metadata8"><rdf:RDF><cc:Work
         rdf:about=""><dc:format>image/svg+xml</dc:format><dc:type
           rdf:resource="http://purl.org/dc/dcmitype/StillImage" /></cc:Work></rdf:RDF></metadata><defs
     id="defs6" /><g
     id="g10"
     transform="matrix(1.3333333,0,0,-1.3333333,0,31.916667)"><g
       id="g12"
       transform="translate(0,-0.0625)"><path
         d="M 31.21875,20.874846 H 16.091249 L 8.457125,23.965595 C 8.217312,24.062785 7.943875,23.947035 7.84675,23.707033 7.749562,23.467094 7.865375,23.193783 8.105312,23.096657 L 9.062437,22.709158 V 20.874907 H 0.78125 C 0.350437,20.874907 0,20.524469 0,20.093657 V 2.656157 C 0,2.225344 0.350437,1.874907 0.78125,1.874907 h 1.0525 v -1.03125 c 0,-0.430813 0.350437,-0.78125 0.78125,-0.78125 h 4.6875 c 0.430812,0 0.78125,0.350437 0.78125,0.78125 v 1.03125 h 9.829813 c 0.258875,0 0.46875,0.209875 0.46875,0.46875 0,0.258874 -0.209875,0.46875 -0.46875,0.46875 H 0.9375 v 17.125 h 30.125 v -17.125 H 20.101063 c -0.258875,0 -0.46875,-0.209876 -0.46875,-0.46875 0,-0.258875 0.209875,-0.46875 0.46875,-0.46875 h 3.805187 v -1.03125 c 0,-0.430813 0.350437,-0.78125 0.78125,-0.78125 h 4.6875 c 0.430813,0 0.78125,0.350437 0.78125,0.78125 v 1.03125 h 1.0625 C 31.649563,1.874907 32,2.225344 32,2.656157 v 17.4375 c 0,0.430749 -0.350437,0.781189 -0.78125,0.781189 z M 7.14625,0.999844 h -4.375 v 0.875 h 4.375 z M 10,22.329533 13.593125,20.874846 H 10 Z M 29.21875,0.999844 h -4.375 v 0.875 h 4.375 z"
         style="fill:#252525;fill-opacity:1;fill-rule:nonzero;stroke:none"
         id="path14" /></g><g
       id="g16"
       transform="translate(1.84375,3.65625)"><path
         d="m 2.97575,14.375 c 0.258875,0 0.46875,0.209875 0.46875,0.46875 0,0.258875 -0.209875,0.46875 -0.46875,0.46875 h -2.507 C 0.209875,15.3125 0,15.102625 0,14.84375 V 0.46875 C 0,0.209875 0.209875,0 0.46875,0 h 27.375 c 0.258875,0 0.46875,0.209875 0.46875,0.46875 v 9.911563 c 0,0.258875 -0.209875,0.46875 -0.46875,0.46875 -0.258875,0 -0.46875,-0.209875 -0.46875,-0.46875 V 0.9375 H 19.1875 V 14.375 h 8.1875 v -1.807187 c 0,-0.258875 0.209875,-0.46875 0.46875,-0.46875 0.258875,0 0.46875,0.209875 0.46875,0.46875 v 2.275937 c 0,0.258875 -0.209875,0.46875 -0.46875,0.46875 H 5.16325 c -0.258875,0 -0.46875,-0.209875 -0.46875,-0.46875 0,-0.258875 0.209875,-0.46875 0.46875,-0.46875 H 9.125 V 0.9375 H 8.15625 v 4.223438 c 0,0.258875 -0.209875,0.46875 -0.46875,0.46875 -0.258875,0 -0.46875,-0.209875 -0.46875,-0.46875 V 0.9375 h -4.4375 v 10.733376 h 4.4375 V 7.348438 c 0,-0.258875 0.209875,-0.46875 0.46875,-0.46875 0.258875,0 0.46875,0.209875 0.46875,0.46875 v 4.478688 c 0,0.430812 -0.350438,0.78125 -0.78125,0.78125 h -4.75 c -0.430813,0 -0.78125,-0.350438 -0.78125,-0.78125 V 0.9375 H 0.9375 V 14.375 Z m 7.08675,0 H 18.25 V 0.9375 h -8.1875 z"
         style="fill:#252525;fill-opacity:1;fill-rule:nonzero;stroke:none"
         id="path18" /></g><g
       id="g20"
       transform="translate(12.84375,9.139648)"><path
         d="m 5.53125,7.125 h -4.75 C 0.350437,7.125 0,6.774562 0,6.34375 V 0.78125 C 0,0.350438 0.350437,0 0.78125,0 h 4.75 C 5.962062,0 6.3125,0.350438 6.3125,0.78125 v 5.5625 C 6.3125,6.7745 5.962062,7.125 5.53125,7.125 Z M 5.375,6.1875 V 4.625 H 0.9375 v 1.5625 z m -4.4375,-5.25 v 2.75 H 5.375 v -2.75 z"
         style="fill:#252525;fill-opacity:1;fill-rule:nonzero;stroke:none"
         id="path22" /></g><g
       id="g24"
       transform="translate(5.289062,8.767578)"><path
         d="M 0,1.53125 V 0.46875 C 0,0.209875 0.209875,0 0.46875,0 0.727625,0 0.9375,0.209875 0.9375,0.46875 v 1.0625 C 0.9375,1.790125 0.727625,2 0.46875,2 0.209875,2 0,1.790125 0,1.53125 Z"
         style="fill:#252525;fill-opacity:1;fill-rule:nonzero;stroke:none"
         id="path26" /></g><g
       id="g28"
       transform="translate(21.96875,9.139648)"><path
         d="M 0.78125,7.125 C 0.350437,7.125 0,6.774562 0,6.34375 V 0.78125 C 0,0.350438 0.350437,0 0.78125,0 h 4.75 C 5.962062,0 6.3125,0.350438 6.3125,0.78125 v 5.5625 C 6.3125,6.774562 5.962062,7.125 5.53125,7.125 Z M 5.375,6.1875 V 4.625 H 0.9375 v 1.5625 z m -4.4375,-5.25 v 2.75 H 5.375 v -2.75 z"
         style="fill:#252525;fill-opacity:1;fill-rule:nonzero;stroke:none"
         id="path30" /></g></g></svg>
