<svg width="32" height="24" viewBox="0 0 32 24" fill="none" xmlns="http://www.w3.org/2000/svg">
<path d="M31.2188 3.15641H16.0912L8.45712 0.0656555C8.21731 -0.031532 7.94387 0.0842176 7.84675 0.324218C7.74956 0.564155 7.86537 0.837468 8.10531 0.934593L9.06244 1.32209V3.15634H0.78125C0.350437 3.15634 0 3.50678 0 3.93759V21.3751C0 21.8059 0.350437 22.1563 0.78125 22.1563H1.83375V23.1876C1.83375 23.6184 2.18419 23.9688 2.615 23.9688H7.3025C7.73331 23.9688 8.08375 23.6184 8.08375 23.1876V22.1563H17.9136C18.1724 22.1563 18.3823 21.9465 18.3823 21.6876C18.3823 21.4287 18.1724 21.2188 17.9136 21.2188H0.9375V4.09384H31.0625V21.2188H20.1011C19.8422 21.2188 19.6323 21.4287 19.6323 21.6876C19.6323 21.9465 19.8422 22.1563 20.1011 22.1563H23.9062V23.1876C23.9062 23.6184 24.2567 23.9688 24.6875 23.9688H29.375C29.8058 23.9688 30.1562 23.6184 30.1562 23.1876V22.1563H31.2188C31.6496 22.1563 32 21.8059 32 21.3751V3.93759C32 3.50684 31.6496 3.15641 31.2188 3.15641V3.15641ZM7.14625 23.0314H2.77125V22.1564H7.14625V23.0314ZM10 1.70172L13.5931 3.15641H10V1.70172ZM29.2188 23.0314H24.8438V22.1564H29.2188V23.0314Z" fill="#252525"/>
<path d="M4.8195 5.9375C5.07837 5.9375 5.28825 5.72763 5.28825 5.46875C5.28825 5.20987 5.07837 5 4.8195 5H2.3125C2.05362 5 1.84375 5.20987 1.84375 5.46875V19.8438C1.84375 20.1026 2.05362 20.3125 2.3125 20.3125H29.6875C29.9464 20.3125 30.1562 20.1026 30.1562 19.8438V9.93219C30.1562 9.67331 29.9464 9.46344 29.6875 9.46344C29.4286 9.46344 29.2188 9.67331 29.2188 9.93219V19.375H21.0312V5.9375H29.2188V7.74469C29.2188 8.00356 29.4286 8.21344 29.6875 8.21344C29.9464 8.21344 30.1562 8.00356 30.1562 7.74469V5.46875C30.1562 5.20987 29.9464 5 29.6875 5H7.007C6.74813 5 6.53825 5.20987 6.53825 5.46875C6.53825 5.72763 6.74813 5.9375 7.007 5.9375H10.9688V19.375H10V15.1516C10 14.8927 9.79012 14.6828 9.53125 14.6828C9.27238 14.6828 9.0625 14.8927 9.0625 15.1516V19.375H4.625V8.64162H9.0625V12.9641C9.0625 13.2229 9.27238 13.4328 9.53125 13.4328C9.79012 13.4328 10 13.2229 10 12.9641V8.48537C10 8.05456 9.64956 7.70412 9.21875 7.70412H4.46875C4.03794 7.70412 3.6875 8.05456 3.6875 8.48537V19.375H2.78125V5.9375H4.8195ZM11.9062 5.9375H20.0938V19.375H11.9062V5.9375Z" fill="#252525"/>
<path d="M18.375 7.7041H13.625C13.1942 7.7041 12.8438 8.05454 12.8438 8.48535V14.0479C12.8438 14.4787 13.1942 14.8291 13.625 14.8291H18.375C18.8058 14.8291 19.1562 14.4787 19.1562 14.0479V8.48535C19.1562 8.0546 18.8058 7.7041 18.375 7.7041ZM18.2188 8.6416V10.2041H13.7812V8.6416H18.2188ZM13.7812 13.8916V11.1416H18.2188V13.8916H13.7812Z" fill="#252525"/>
<path d="M5.28906 13.6699V14.7324C5.28906 14.9913 5.49894 15.2012 5.75781 15.2012C6.01669 15.2012 6.22656 14.9913 6.22656 14.7324V13.6699C6.22656 13.411 6.01669 13.2012 5.75781 13.2012C5.49894 13.2012 5.28906 13.411 5.28906 13.6699Z" fill="#252525"/>
<path d="M22.75 7.7041C22.3192 7.7041 21.9688 8.05454 21.9688 8.48535V14.0479C21.9688 14.4787 22.3192 14.8291 22.75 14.8291H27.5C27.9308 14.8291 28.2812 14.4787 28.2812 14.0479V8.48535C28.2812 8.05454 27.9308 7.7041 27.5 7.7041H22.75ZM27.3438 8.6416V10.2041H22.9062V8.6416H27.3438ZM22.9062 13.8916V11.1416H27.3438V13.8916H22.9062Z" fill="#252525"/>
</svg>
