<?xml version="1.0" encoding="UTF-8" standalone="no"?>
<svg
   xmlns:dc="http://purl.org/dc/elements/1.1/"
   xmlns:cc="http://creativecommons.org/ns#"
   xmlns:rdf="http://www.w3.org/1999/02/22-rdf-syntax-ns#"
   xmlns:svg="http://www.w3.org/2000/svg"
   xmlns="http://www.w3.org/2000/svg"
   version="1.1"
   id="svg2"
   xml:space="preserve"
   width="42.666668"
   height="42.596355"
   viewBox="0 0 42.666668 42.596355"><metadata
     id="metadata8"><rdf:RDF><cc:Work
         rdf:about=""><dc:format>image/svg+xml</dc:format><dc:type
           rdf:resource="http://purl.org/dc/dcmitype/StillImage" /></cc:Work></rdf:RDF></metadata><defs
     id="defs6" /><g
     id="g10"
     transform="matrix(1.3333333,0,0,-1.3333333,0,42.596355)"><g
       id="g12"
       transform="translate(24.271484,26.891602)"><path
         d="m 0.467499,-4.3e-4 h 0.612188 c 0.258188,0 0.467499,0.209313 0.467499,0.467501 0,0.258187 -0.209249,0.467499 -0.467499,0.467499 H 0.467499 C 0.209311,0.93457 0,0.725258 0,0.467071 0,0.208883 0.209249,-4.3e-4 0.467499,-4.3e-4 Z"
         style="fill:#252525;fill-opacity:1;fill-rule:nonzero;stroke:none"
         id="path14" /></g><g
       id="g16"
       transform="translate(27.580078,26.891602)"><path
         d="m 0.467501,-4.3e-4 h 0.612186 c 0.258188,0 0.467501,0.209313 0.467501,0.467501 0,0.258187 -0.209251,0.467499 -0.467501,0.467499 H 0.467501 C 0.209313,0.93457 0,0.725258 0,0.467071 0,0.208883 0.209313,-4.3e-4 0.467501,-4.3e-4 Z"
         style="fill:#252525;fill-opacity:1;fill-rule:nonzero;stroke:none"
         id="path18" /></g><g
       id="g20"
       transform="translate(10.263672,16.089844)"><path
         d="M 1.079687,0.93457 H 0.4675 C 0.209312,0.93457 0,0.725257 0,0.46707 0,0.208882 0.209312,-4.3e-4 0.4675,-4.3e-4 h 0.612187 c 0.258188,0 0.4675,0.209312 0.4675,0.4675 0,0.258187 -0.209312,0.4675 -0.4675,0.4675 z"
         style="fill:#252525;fill-opacity:1;fill-rule:nonzero;stroke:none"
         id="path22" /></g><g
       id="g24"
       transform="translate(13.572266,16.089844)"><path
         d="m 0.4675,-4.3e-4 h 0.612187 c 0.258188,0 0.4675,0.209313 0.4675,0.467501 0,0.258187 -0.209312,0.467499 -0.4675,0.467499 H 0.4675 C 0.209312,0.93457 0,0.725258 0,0.467071 0,0.208883 0.209312,-4.3e-4 0.4675,-4.3e-4 Z"
         style="fill:#252525;fill-opacity:1;fill-rule:nonzero;stroke:none"
         id="path26" /></g><g
       id="g28"
       transform="translate(16.880859,16.089844)"><path
         d="m 0.467501,-4.3e-4 h 0.612186 c 0.258188,0 0.467501,0.209313 0.467501,0.467501 0,0.258187 -0.209251,0.467499 -0.467501,0.467499 H 0.467501 C 0.209313,0.93457 0,0.725258 0,0.467071 6.3e-5,0.208883 0.209313,-4.3e-4 0.467501,-4.3e-4 Z"
         style="fill:#252525;fill-opacity:1;fill-rule:nonzero;stroke:none"
         id="path30" /></g><g
       id="g32"
       transform="translate(20.189453,16.089844)"><path
         d="m 0.467501,-4.3e-4 h 0.612186 c 0.258188,0 0.467501,0.209313 0.467501,0.467501 0,0.258187 -0.209251,0.467499 -0.467501,0.467499 H 0.467501 C 0.209313,0.93457 0,0.725258 0,0.467071 0,0.208883 0.209313,-4.3e-4 0.467501,-4.3e-4 Z"
         style="fill:#252525;fill-opacity:1;fill-rule:nonzero;stroke:none"
         id="path34" /></g><g
       id="g36"
       transform="translate(11.917969,18.152344)"><path
         d="m 0.4675,-4.3e-4 h 0.612188 c 0.258188,0 0.4675,0.209312 0.4675,0.4675 0,0.258187 -0.209312,0.4675 -0.4675,0.4675 H 0.4675 C 0.209312,0.93457 0,0.725257 0,0.46707 0,0.208882 0.209312,-4.3e-4 0.4675,-4.3e-4 Z"
         style="fill:#252525;fill-opacity:1;fill-rule:nonzero;stroke:none"
         id="path38" /></g><g
       id="g40"
       transform="translate(15.226562,18.152344)"><path
         d="m 0.4675,-4.3e-4 h 0.612188 c 0.258188,0 0.467499,0.209312 0.467499,0.4675 0,0.258187 -0.209249,0.4675 -0.467499,0.4675 H 0.4675 C 0.209312,0.93457 0,0.725257 0,0.46707 0,0.208882 0.209312,-4.3e-4 0.4675,-4.3e-4 Z"
         style="fill:#252525;fill-opacity:1;fill-rule:nonzero;stroke:none"
         id="path42" /></g><g
       id="g44"
       transform="translate(18.535156,18.152344)"><path
         d="M 0.467501,-4.3e-4 H 1.07975 c 0.258188,0 0.467501,0.209312 0.467501,0.4675 0,0.258187 -0.209251,0.4675 -0.467501,0.4675 H 0.467501 C 0.209313,0.93457 0,0.725257 0,0.46707 0,0.208882 0.209251,-4.3e-4 0.467501,-4.3e-4 Z"
         style="fill:#252525;fill-opacity:1;fill-rule:nonzero;stroke:none"
         id="path46" /></g><g
       id="g48"
       transform="translate(25.068359,17.90918)"><path
         d="m 0.619999,-2.5e-4 h 1.721313 c 0.341813,0 0.619936,0.278124 0.619936,0.619937 v 1.477876 c 0,0.816375 -0.664185,1.480562 -1.480623,1.480562 C 0.66425,3.578125 0,2.913938 0,2.097563 V 0.619687 C 0,0.277874 0.278124,-2.5e-4 0.619999,-2.5e-4 Z m 0.315,2.097875 c 0,0.300875 0.244751,0.545625 0.545626,0.545625 0.300875,0 0.545624,-0.24475 0.545624,-0.545625 V 0.93475 H 0.934937 v 1.162875 z"
         style="fill:#252525;fill-opacity:1;fill-rule:nonzero;stroke:none"
         id="path50" /></g><g
       id="g52"
       transform="translate(25.068359,7.219727)"><path
         d="M 1.480625,3.578125 C 0.66425,3.578125 0,2.913938 0,2.097563 V 0.619688 C 0,0.277813 0.278123,-2.5e-4 0.619936,-2.5e-4 h 1.721313 c 0.341813,0 0.619938,0.278125 0.619938,0.619938 V 2.097563 C 2.96125,2.913938 2.297,3.578125 1.480625,3.578125 Z M 2.026249,0.934687 H 0.934937 v 1.162876 c 0,0.300875 0.24475,0.545624 0.545625,0.545624 0.300875,0 0.545624,-0.244749 0.545624,-0.545624 V 0.934687 Z"
         style="fill:#252525;fill-opacity:1;fill-rule:nonzero;stroke:none"
         id="path54" /></g><g
       id="g56"
       transform="translate(25.775391,15.236328)"><path
         d="m 1.547251,0.46707 c 0,0.258187 -0.209251,0.4675 -0.467501,0.4675 H 0.467501 C 0.209313,0.93457 0,0.725257 0,0.46707 0,0.208882 0.209251,-4.29e-4 0.467501,-4.29e-4 H 1.07975 c 0.258188,0 0.467501,0.209311 0.467501,0.467499 z"
         style="fill:#252525;fill-opacity:1;fill-rule:nonzero;stroke:none"
         id="path58" /></g><g
       id="g60"
       transform="translate(24.498047,12.536133)"><path
         d="m 0.467501,-4.31e-4 h 0.612186 c 0.258188,0 0.467501,0.209313 0.467501,0.467501 0,0.258187 -0.209251,0.4675 -0.467501,0.4675 H 0.467501 C 0.209313,0.93457 0,0.725257 0,0.46707 0,0.208882 0.209251,-4.31e-4 0.467501,-4.31e-4 Z"
         style="fill:#252525;fill-opacity:1;fill-rule:nonzero;stroke:none"
         id="path62" /></g><g
       id="g64"
       transform="translate(27.052734,12.536133)"><path
         d="M 0,0.46707 C 0,0.208882 0.209251,-4.31e-4 0.467501,-4.31e-4 H 1.07975 c 0.258188,0 0.467501,0.209313 0.467501,0.467501 0,0.258187 -0.209251,0.4675 -0.467501,0.4675 H 0.467501 C 0.209313,0.93457 0,0.725257 0,0.46707 Z"
         style="fill:#252525;fill-opacity:1;fill-rule:nonzero;stroke:none"
         id="path66" /></g><g
       id="g68"><path
         d="m 30.578188,4.101641 h -0.243376 v 20.727062 l 1.272251,1.765125 c 0.176125,0.244312 0.269186,0.532562 0.269186,0.833624 v 3.956564 c 0,0.310562 -0.252687,0.56325 -0.563249,0.56325 h -1.771937 c -0.310625,0 -0.563312,-0.252688 -0.563312,-0.56325 v -1.326813 h -0.955063 v 1.326813 c 0,0.310562 -0.252688,0.56325 -0.563313,0.56325 H 25.63825 c -0.310562,0 -0.563249,-0.252688 -0.563249,-0.56325 v -1.326813 h -0.955 v 1.326813 c 0,0.310562 -0.25269,0.56325 -0.563252,0.56325 h -1.771936 c -0.310625,0 -0.563313,-0.252688 -0.563313,-0.56325 v -3.956625 c 0,-0.301063 0.09306,-0.589313 0.269188,-0.833626 l 1.27225,-1.765125 v -1.491375 h -2.279875 c -0.355875,0 -0.645437,-0.289562 -0.645437,-0.6455 V 21.25639 h -1.881064 v 1.435375 c 0,0.355938 -0.289562,0.6455 -0.6455,0.6455 h -2.642624 c -0.355938,0 -0.6455,-0.289562 -0.6455,-0.6455 V 21.25639 h -1.881063 v 1.435375 c 0,0.355938 -0.289562,0.6455 -0.6455,0.6455 H 9.215313 v 1.491375 l 1.272187,1.765188 c 0.176063,0.244312 0.269062,0.532562 0.269062,0.833563 v 3.956625 c 0,0.310562 -0.252687,0.56325 -0.563249,0.56325 H 8.421375 c -0.310562,0 -0.56325,-0.252688 -0.56325,-0.56325 V 30.057203 H 6.903 v 1.326813 c 0,0.310562 -0.252688,0.56325 -0.56325,0.56325 H 4.518688 c -0.310563,0 -0.563251,-0.252688 -0.563251,-0.56325 V 30.057203 H 3.000313 v 1.326813 c 0,0.310562 -0.252688,0.56325 -0.56325,0.56325 H 0.665125 c -0.310562,0 -0.56325,-0.252688 -0.56325,-0.56325 v -0.993189 c 0,-0.258186 0.209312,-0.467499 0.4675,-0.467499 0.258187,0 0.4675,0.209313 0.4675,0.467499 v 0.6215 h 1.0285 v -1.326811 c 0,-0.310562 0.252687,-0.563251 0.56325,-0.563251 h 1.698563 c 0.310562,0 0.56325,0.252689 0.56325,0.563251 v 1.326811 h 1.077687 v -1.326811 c 0,-0.310562 0.252687,-0.563251 0.56325,-0.563251 h 1.6985 c 0.310562,0 0.56325,0.252689 0.56325,0.563251 v 1.326811 h 1.0285 v -3.584875 c 0,-0.103624 -0.032063,-0.202873 -0.092625,-0.286938 L 8.508375,25.44714 H 2.350063 L 1.1295,27.140514 c -0.060625,0.08406 -0.092625,0.183314 -0.092625,0.286938 v 0.80225 c 0,0.258188 -0.209313,0.467501 -0.4675,0.467501 -0.258188,0 -0.4675,-0.209313 -0.4675,-0.467501 v -0.80225 c 0,-0.301124 0.093062,-0.589374 0.269125,-0.833624 L 1.64325,24.828703 V 4.101641 H 1.42175 C 0.637812,4.101641 0,3.463829 0,2.679829 V 0.768641 C 0,0.344578 0.345,-4.22e-4 0.769063,-4.22e-4 h 30.461938 c 0.424,0 0.76906,0.345 0.76906,0.769063 v 1.911188 c -6.3e-5,0.784 -0.637873,1.421812 -1.421873,1.421812 z m -8.329063,23.038873 c -0.06063,0.08413 -0.09262,0.183314 -0.09262,0.286938 v 3.584875 h 1.028562 v -1.326811 c 0,-0.310562 0.252688,-0.563251 0.56325,-0.563251 h 1.6985 c 0.310625,0 0.563312,0.252689 0.563312,0.563251 v 1.326811 h 1.077688 v -1.326811 c 0,-0.310562 0.252688,-0.563251 0.56325,-0.563251 h 1.6985 c 0.310562,0 0.563251,0.252689 0.563251,0.563251 v 1.326811 h 1.0285 v -3.584875 c 0,-0.103624 -0.032,-0.202812 -0.09263,-0.286938 L 29.628124,25.44714 H 23.469688 Z M 29.399876,24.51214 V 4.194328 H 23.697937 V 24.51214 Z M 9.216375,22.402391 h 1.990438 v -1.435375 c 0,-0.355938 0.289561,-0.6455 0.645499,-0.6455 h 2.46 c 0.355938,0 0.6455,0.289562 0.6455,0.6455 v 1.435375 h 2.063751 v -1.435375 c 0,-0.355938 0.289562,-0.6455 0.645437,-0.6455 h 2.460001 c 0.355938,0 0.645498,0.289562 0.645498,0.6455 v 1.435375 h 1.990376 V 4.194328 h -2.44575 v 2.362439 c 0,0.258188 -0.209251,0.467498 -0.4675,0.467498 -0.25825,0 -0.467499,-0.20931 -0.467499,-0.467498 V 4.194328 h -2.908564 v 9.936125 c 1.641814,-0.233812 2.908564,-1.64875 2.908564,-3.354187 V 8.73789 c 0,-0.258188 0.209249,-0.467499 0.467499,-0.467499 0.258249,0 0.4675,0.209311 0.4675,0.467499 v 2.038376 c 0,2.375563 -1.926061,4.309187 -4.2985,4.322687 -0.0042,1.26e-4 -0.0083,6.26e-4 -0.0125,6.26e-4 -0.0021,0 -0.0041,-1.24e-4 -0.0062,-1.87e-4 -0.0021,0 -0.0041,1.87e-4 -0.0062,1.87e-4 -0.0042,0 -0.0083,-5e-4 -0.0125,-6.26e-4 -2.372438,-0.0135 -4.2985,-1.947124 -4.2985,-4.322687 V 4.194328 h -2.4665 v 18.208063 h 1.25e-4 z m 6.309938,-8.271938 V 4.194328 h -2.908501 v 6.581875 c 0,1.705437 1.266689,3.120375 2.908501,3.35425 z M 2.57825,24.51214 H 8.280188 V 4.194328 H 2.57825 Z M 31.065062,0.934578 H 0.934937 v 1.745251 c 0,0.268438 0.218375,0.486812 0.486813,0.486812 h 29.156438 c 0.268438,0 0.486874,-0.218374 0.486874,-0.486812 z"
         style="fill:#252525;fill-opacity:1;fill-rule:nonzero;stroke:none"
         id="path70" /></g><g
       id="g72"
       transform="translate(3.949219,17.90918)"><path
         d="m 0.62,-2.5e-4 h 1.72125 c 0.341875,0 0.619937,0.278124 0.619937,0.619937 V 2.097563 C 2.961187,2.913938 2.297,3.578125 1.480562,3.578125 0.664187,3.578125 0,2.913938 0,2.097563 V 0.619687 C 0,0.277874 0.278125,-2.5e-4 0.62,-2.5e-4 Z M 0.935,2.097625 C 0.935,2.3985 1.17975,2.64325 1.480625,2.64325 1.7815,2.64325 2.02625,2.3985 2.02625,2.097625 V 0.93475 H 0.935 Z"
         style="fill:#252525;fill-opacity:1;fill-rule:nonzero;stroke:none"
         id="path74" /></g><g
       id="g76"
       transform="translate(3.949219,7.219727)"><path
         d="M 1.480562,3.578125 C 0.664187,3.578125 0,2.913938 0,2.097563 V 0.619688 C 0,0.277813 0.278125,-2.5e-4 0.619937,-2.5e-4 h 1.72125 c 0.341876,0 0.619938,0.278125 0.619938,0.619938 v 1.477875 c 0,0.816375 -0.664125,1.480562 -1.480563,1.480562 z M 2.026187,0.934687 h -1.09125 v 1.162876 c 0,0.300875 0.24475,0.545624 0.545625,0.545624 0.300875,0 0.545625,-0.244749 0.545625,-0.545624 z"
         style="fill:#252525;fill-opacity:1;fill-rule:nonzero;stroke:none"
         id="path78" /></g><g
       id="g80"
       transform="translate(4.65625,15.236328)"><path
         d="M 0.4675,0.93457 C 0.209313,0.93457 0,0.725258 0,0.467071 0,0.208883 0.209313,-4.3e-4 0.4675,-4.3e-4 h 0.612188 c 0.258187,0 0.4675,0.209313 0.4675,0.467501 0,0.258187 -0.209313,0.467499 -0.4675,0.467499 z"
         style="fill:#252525;fill-opacity:1;fill-rule:nonzero;stroke:none"
         id="path82" /></g><g
       id="g84"
       transform="translate(3.378906,12.536133)"><path
         d="m 1.547188,0.46707 c 0,0.258187 -0.209313,0.4675 -0.467501,0.4675 H 0.4675 C 0.209312,0.93457 0,0.725257 0,0.46707 0,0.208882 0.209312,-4.31e-4 0.4675,-4.31e-4 h 0.612187 c 0.258188,0 0.467501,0.209313 0.467501,0.467501 z"
         style="fill:#252525;fill-opacity:1;fill-rule:nonzero;stroke:none"
         id="path86" /></g><g
       id="g88"
       transform="translate(5.933594,12.536133)"><path
         d="M 1.079688,0.93457 H 0.4675 C 0.209313,0.93457 0,0.725257 0,0.46707 0,0.208882 0.209313,-4.31e-4 0.4675,-4.31e-4 h 0.612188 c 0.258187,0 0.467499,0.209313 0.467499,0.467501 0,0.258187 -0.209312,0.4675 -0.467499,0.4675 z"
         style="fill:#252525;fill-opacity:1;fill-rule:nonzero;stroke:none"
         id="path90" /></g><g
       id="g92"
       transform="translate(3.152344,26.891602)"><path
         d="m 1.079688,-4.3e-4 c 0.258187,0 0.4675,0.209313 0.4675,0.467501 0,0.258187 -0.209313,0.467499 -0.4675,0.467499 H 0.4675 C 0.209313,0.93457 0,0.725258 0,0.467071 0,0.208883 0.209313,-4.3e-4 0.4675,-4.3e-4 Z"
         style="fill:#252525;fill-opacity:1;fill-rule:nonzero;stroke:none"
         id="path94" /></g><g
       id="g96"
       transform="translate(6.460938,26.891602)"><path
         d="m 1.079688,-4.3e-4 c 0.258187,0 0.467499,0.209313 0.467499,0.467501 0,0.258187 -0.209312,0.467499 -0.467499,0.467499 H 0.4675 C 0.209313,0.93457 0,0.725258 0,0.467071 0,0.208883 0.209313,-4.3e-4 0.4675,-4.3e-4 Z"
         style="fill:#252525;fill-opacity:1;fill-rule:nonzero;stroke:none"
         id="path98" /></g></g></svg>
