<svg width="32" height="26" viewBox="0 0 32 26" fill="none" xmlns="http://www.w3.org/2000/svg">
<path d="M31.53 24.3341H30.7348C31.0504 23.9261 31.2389 23.415 31.2389 22.8605V13.483C31.2389 12.9285 31.0504 12.4174 30.7348 12.0094H30.9606C31.3454 12.0094 31.6809 11.7905 31.8362 11.4381C31.9913 11.0861 31.9264 10.6914 31.6672 10.4079C27.4264 5.77086 22.1801 2.52605 16.0742 0.763487C15.8852 0.708842 15.6866 0.713354 15.5004 0.776585C13.2498 1.53949 11.1058 2.47591 9.12814 3.55998C8.90053 3.68475 8.81719 3.97045 8.94189 4.19812C9.06666 4.42578 9.3523 4.50913 9.58003 4.38436C11.5098 3.32649 13.6032 2.41218 15.8022 1.66689C15.8056 1.66576 15.81 1.66557 15.8135 1.66664C18.8012 2.52912 21.597 3.76152 24.1231 5.32963C26.619 6.87912 28.9239 8.8011 30.9736 11.0423C30.9773 11.0464 30.9783 11.0486 30.9783 11.0486C30.9793 11.0539 30.9736 11.0662 30.9692 11.0686C30.9691 11.0686 30.9669 11.0695 30.9606 11.0695H28.8252H3.21599H0.992388C0.986059 11.0695 0.98374 11.0686 0.98374 11.0686C0.979729 11.0664 0.973588 11.0542 0.974465 11.049C0.974465 11.049 0.975468 11.0468 0.979228 11.0427C3.01132 8.87066 5.33092 6.96641 7.87387 5.38283C8.0942 5.24565 8.16157 4.95576 8.02433 4.73542C7.88722 4.51502 7.59713 4.44766 7.37692 4.58496C4.76441 6.21197 2.38095 8.16861 0.292778 10.4006C0.0288893 10.6827 -0.0394173 11.0783 0.114555 11.4332C0.26884 11.7887 0.605171 12.0095 0.992388 12.0095H1.30641C0.990821 12.4175 0.80232 12.9286 0.80232 13.4832V22.8606C0.80232 23.4151 0.990821 23.9262 1.30641 24.3343H0.469999C0.210372 24.3343 0 24.5446 0 24.8043C0 25.0639 0.210372 25.2743 0.469999 25.2743H3.21599H13.9102H21.0071H28.8252H31.5299C31.7896 25.2743 31.9999 25.0639 31.9999 24.8043C31.9999 24.5446 31.7896 24.3341 31.53 24.3341ZM13.4402 17.0821H1.74238V15.6047H13.4402V17.0821ZM1.74238 18.0221H13.4402V19.4994H1.74238V18.0221ZM14.3802 15.2952C14.3802 15.0403 14.5878 14.8327 14.8428 14.8327H16.9887V16.7083H14.3802V15.2952ZM17.9287 14.8328H20.0745C20.3296 14.8328 20.5372 15.0403 20.5372 15.2953V16.7084H17.9287V14.8328ZM30.2989 15.6047V17.0821H28.2662C28.0066 17.0821 27.7962 17.2924 27.7962 17.5521C27.7962 17.8117 28.0066 18.0221 28.2662 18.0221H30.2989V19.4994H21.4772V18.0221H26.2633C26.5229 18.0221 26.7333 17.8117 26.7333 17.5521C26.7333 17.2924 26.5229 17.0821 26.2633 17.0821H21.4772V15.6047H30.2989ZM21.4772 20.4394H30.2989V21.9167H21.4772V20.4394ZM28.8253 12.0094C29.6379 12.0094 30.299 12.6705 30.299 13.4831V14.6647H21.3268C21.0955 14.2073 20.6213 13.8928 20.0745 13.8928H14.8428C14.2961 13.8928 13.8219 14.2073 13.5906 14.6647H1.74238V13.483C1.74238 12.6705 2.40345 12.0094 3.21605 12.0094H28.8253V12.0094ZM1.74238 22.8605V22.8567H5.75079C6.01041 22.8567 6.22079 22.6463 6.22079 22.3867C6.22079 22.1271 6.01041 21.9167 5.75079 21.9167H1.74238V20.4394H13.4402V21.9167H7.75374C7.49411 21.9167 7.28374 22.1271 7.28374 22.3867C7.28374 22.6463 7.49411 22.8567 7.75374 22.8567H13.4402V24.3341H3.21599C2.40345 24.3341 1.74238 23.6731 1.74238 22.8605V22.8605ZM14.3802 17.6483H16.9887V24.3341H14.3802V17.6483ZM17.9287 24.3341V17.6483H20.5372V22.3855C20.5372 22.386 20.5371 22.3863 20.5371 22.3868C20.5371 22.3872 20.5372 22.3876 20.5372 22.388V24.3342H17.9287V24.3341ZM21.4772 24.3341V22.8568H30.2989V22.8605C30.2989 23.6731 29.6378 24.3342 28.8252 24.3342H21.4772V24.3341Z" fill="#252525"/>
<path d="M15.8639 20.064C15.5637 20.064 15.3203 20.3074 15.3203 20.6076C15.3203 20.9078 15.5637 21.1512 15.8639 21.1512C16.1642 21.1512 16.4076 20.9078 16.4076 20.6076C16.4076 20.3074 16.1642 20.064 15.8639 20.064Z" fill="#252525"/>
<path d="M19.0534 21.1512C19.3536 21.1512 19.597 20.9078 19.597 20.6076C19.597 20.3074 19.3536 20.064 19.0534 20.064C18.7532 20.064 18.5098 20.3074 18.5098 20.6076C18.5098 20.9078 18.7532 21.1512 19.0534 21.1512Z" fill="#252525"/>
<path d="M10.0045 7.26011V6.65945C10.0045 6.39982 9.79408 6.18945 9.53445 6.18945C9.27482 6.18945 9.06445 6.39982 9.06445 6.65945V7.26011C9.06445 7.51974 9.27482 7.73011 9.53445 7.73011C9.79408 7.73011 10.0045 7.51968 10.0045 7.26011Z" fill="#252525"/>
<path d="M13.5735 4.99183C13.8331 4.99183 14.0435 4.78146 14.0435 4.52183V3.92117C14.0435 3.66154 13.8331 3.45117 13.5735 3.45117C13.3139 3.45117 13.1035 3.66154 13.1035 3.92117V4.52183C13.1035 4.78146 13.3139 4.99183 13.5735 4.99183Z" fill="#252525"/>
<path d="M16.4459 7.8607V7.26004C16.4459 7.00041 16.2355 6.79004 15.9759 6.79004C15.7162 6.79004 15.5059 7.00041 15.5059 7.26004V7.8607C15.5059 8.12033 15.7162 8.3307 15.9759 8.3307C16.2355 8.3307 16.4459 8.12026 16.4459 7.8607Z" fill="#252525"/>
<path d="M12.7512 7.96338C12.4916 7.96338 12.2812 8.17375 12.2812 8.43338V9.03404C12.2812 9.29367 12.4916 9.50404 12.7512 9.50404C13.0109 9.50404 13.2212 9.29367 13.2212 9.03404V8.43338C13.2212 8.17381 13.0109 7.96338 12.7512 7.96338Z" fill="#252525"/>
<path d="M5.50781 8.84598V9.44663C5.50781 9.70626 5.71818 9.91663 5.97781 9.91663C6.23744 9.91663 6.44781 9.70626 6.44781 9.44663V8.84598C6.44781 8.58635 6.23744 8.37598 5.97781 8.37598C5.71818 8.37598 5.50781 8.58641 5.50781 8.84598Z" fill="#252525"/>
<path d="M22.8892 7.26011V6.65945C22.8892 6.39982 22.6788 6.18945 22.4192 6.18945C22.1596 6.18945 21.9492 6.39982 21.9492 6.65945V7.26011C21.9492 7.51974 22.1596 7.73011 22.4192 7.73011C22.6788 7.73011 22.8892 7.51968 22.8892 7.26011Z" fill="#252525"/>
<path d="M18.3782 3.38818C18.1186 3.38818 17.9082 3.59856 17.9082 3.85818V4.45884C17.9082 4.71847 18.1186 4.92884 18.3782 4.92884C18.6378 4.92884 18.8482 4.71847 18.8482 4.45884V3.85818C18.8482 3.59862 18.6378 3.38818 18.3782 3.38818Z" fill="#252525"/>
<path d="M18.7305 8.97105C18.7305 9.23068 18.9408 9.44105 19.2005 9.44105C19.4601 9.44105 19.6705 9.23068 19.6705 8.97105V8.37039C19.6705 8.11076 19.4601 7.90039 19.2005 7.90039C18.9408 7.90039 18.7305 8.11076 18.7305 8.37039V8.97105Z" fill="#252525"/>
<path d="M26.4459 9.44663V8.84598C26.4459 8.58635 26.2355 8.37598 25.9759 8.37598C25.7162 8.37598 25.5059 8.58635 25.5059 8.84598V9.44663C25.5059 9.70626 25.7162 9.91663 25.9759 9.91663C26.2355 9.91663 26.4459 9.70626 26.4459 9.44663Z" fill="#252525"/>
</svg>
