<svg width="32" height="32" viewBox="0 0 32 32" fill="none" xmlns="http://www.w3.org/2000/svg">
<path d="M31.5636 22.9466C31.8365 22.6019 32 22.1669 32 21.6941C32 20.5793 31.093 19.6723 29.9781 19.6723C29.4271 19.6723 28.9128 19.8921 28.5371 20.2753C28.4837 20.2553 28.4296 20.2375 28.3746 20.2223C28.3756 20.1951 28.376 20.1681 28.376 20.1409C28.376 18.7406 27.2367 17.6013 25.8364 17.6013C25.6451 17.6013 25.455 17.6239 25.2698 17.6661V14.4257C26.3624 14.3578 27.5451 13.5851 27.8487 11.9516C27.9277 11.6973 27.6104 11.3719 27.4968 11.1734C26.222 9.26113 24.6571 7.57445 22.8457 6.16013C21.4364 5.05982 19.9029 4.1452 18.2726 3.42895L19.1345 2.56701C19.7209 1.98051 19.7209 1.02626 19.1344 0.439758C18.548 -0.14668 17.5938 -0.146492 17.0072 0.439758L16 1.44713L14.9928 0.439883C14.4063 -0.14643 13.4521 -0.146492 12.8656 0.439883C12.5815 0.724008 12.425 1.10176 12.425 1.50345C12.425 1.90526 12.5815 2.28301 12.8656 2.56713L13.7271 3.42857C12.367 4.02638 11.0717 4.76395 9.86169 5.63101C9.65125 5.78182 9.60287 6.0747 9.75375 6.28507C9.9045 6.49545 10.1972 6.54395 10.4078 6.39313C11.1907 5.83213 12.0109 5.32795 12.8623 4.88326C11.2872 6.49951 9.94225 8.65569 8.90075 11.2594L8.84894 11.389H5.49056C6.41988 10.0479 7.50706 8.82045 8.72656 7.73651C8.92006 7.56457 8.9375 7.26826 8.76556 7.07476C8.59356 6.88132 8.29731 6.86363 8.10381 7.03582C6.73256 8.25451 5.52113 9.6467 4.50319 11.1736C4.38863 11.3738 4.07294 11.6961 4.15137 11.9519C4.45494 13.5853 5.63756 14.3579 6.73025 14.4259V17.6668C6.54506 17.6244 6.35512 17.6015 6.16362 17.6015C4.76331 17.6015 3.62406 18.7408 3.62406 20.1411C3.62406 20.1683 3.6245 20.1953 3.62538 20.2224C3.57044 20.2378 3.51625 20.2554 3.46294 20.2754C3.08725 19.8922 2.573 19.6724 2.02194 19.6724C0.907 19.6723 0 20.5793 0 21.6941C0 22.1669 0.1635 22.6019 0.436375 22.9466C0.173375 23.1239 0 23.4246 0 23.765V24.8004C0 25.3443 0.442563 25.7868 0.986437 25.7868H1.55313V26.8889C1.55313 27.2603 1.76337 27.583 2.07081 27.7456V31.0306C2.07081 31.5648 2.50537 31.9993 3.03956 31.9993H5.14581C5.68 31.9993 6.11456 31.5648 6.11456 31.0306V27.7456C6.422 27.583 6.63225 27.2603 6.63225 26.8889V25.7868H10.8719V26.8618C10.8719 27.1208 11.0817 27.3306 11.3406 27.3306C11.5995 27.3306 11.8094 27.1208 11.8094 26.8618V23.716H12.8938H12.9427V31.0306C12.9427 31.0478 12.9288 31.0618 12.9115 31.0618H11.8406C11.8234 31.0618 11.8094 31.0478 11.8094 31.0306V29.0493C11.8094 28.7904 11.5995 28.5806 11.3406 28.5806C11.0817 28.5806 10.8719 28.7904 10.8719 29.0493V31.0306C10.8719 31.5648 11.3064 31.9993 11.8406 31.9993H12.9114C13.4456 31.9993 13.8802 31.5648 13.8802 31.0306V29.9285H18.1198V31.0306C18.1198 31.5648 18.5544 31.9994 19.0886 31.9994H20.1594C20.6936 31.9994 21.1281 31.5648 21.1281 31.0306V25.7869H25.3678V26.889C25.3678 27.2603 25.578 27.5831 25.8854 27.7456V31.0306C25.8854 31.5648 26.32 31.9994 26.8542 31.9994H28.9604C29.4946 31.9994 29.9292 31.5648 29.9292 31.0306V27.7456C30.2366 27.5831 30.4469 27.2603 30.4469 26.889V25.7869H31.0135C31.5574 25.7869 31.9999 25.3444 31.9999 24.8004V23.7651C32 23.4246 31.8266 23.1239 31.5636 22.9466ZM25.4357 18.5894C25.5658 18.5559 25.7006 18.5389 25.8365 18.5389C26.7199 18.5389 27.4386 19.2576 27.4386 20.1411C27.4386 20.1684 27.4375 20.1959 27.4361 20.2233C27.069 20.3234 26.7417 20.5394 26.5012 20.8497C26.3426 21.0543 26.38 21.3488 26.5846 21.5073C26.7891 21.6658 27.0836 21.6285 27.2423 21.4239C27.3943 21.2278 27.6194 21.1121 27.8648 21.0999C28.0553 21.0869 28.2452 21.1474 28.4005 21.2578C28.5695 21.3801 28.6925 21.564 28.7334 21.7809C28.7758 22.0061 28.9725 22.1629 29.1934 22.1629C29.2222 22.1629 29.2514 22.1603 29.2808 22.1548C29.5351 22.1068 29.7025 21.8618 29.6546 21.6073C29.6005 21.3202 29.4788 21.0601 29.3078 20.842C29.4959 20.6934 29.7299 20.6098 29.9782 20.6098C30.5761 20.6098 31.0626 21.0962 31.0626 21.6941C31.0626 22.2921 30.5761 22.7786 29.9782 22.7786H25.2698V18.6012C25.3239 18.6069 25.3798 18.6037 25.4357 18.5894ZM14.2577 11.3889C14.692 8.17576 15.3023 5.61995 16.0001 4.07351C16.6971 5.61776 17.3077 8.17432 17.7421 11.3889H14.2577ZM17.656 12.3264C17.3011 13.1771 16.5807 13.4938 16.0001 13.4938C15.4194 13.4938 14.6991 13.1771 14.3441 12.3264H17.656ZM7.66769 22.7786V14.3113C8.23881 14.1338 8.78444 13.7556 9.16631 13.1543C9.35519 13.4517 9.58419 13.6944 9.8365 13.8854V22.7785H7.66769V22.7786ZM9.78831 12.3264H13.1001C12.7452 13.1771 12.0248 13.4938 11.4442 13.4938C10.8636 13.4938 10.1432 13.1771 9.78831 12.3264ZM9.86056 11.3889C11.1179 8.33326 12.8681 5.88338 14.8703 4.35432C14.241 6.01607 13.7099 8.40226 13.3141 11.3714L13.3118 11.3889H9.86056V11.3889ZM18.6882 11.3889L18.6859 11.3715C18.29 8.40213 17.7589 6.01594 17.1296 4.35426C19.1319 5.88326 20.8821 8.33319 22.1394 11.389H18.6882V11.3889ZM22.2119 12.3264C21.8569 13.1771 21.1366 13.4938 20.556 13.4938C19.9754 13.4938 19.255 13.1771 18.9001 12.3264H22.2119ZM22.8338 13.1544C23.2156 13.7556 23.7612 14.1338 24.3323 14.3113V22.7786H22.1636V13.8855C22.4159 13.6945 22.6449 13.4518 22.8338 13.1544ZM25.1116 13.4938C24.5311 13.4938 23.8107 13.1771 23.4557 12.3264H26.7676C26.4127 13.1771 25.6923 13.4938 25.1116 13.4938ZM26.5092 11.3889H23.1511L23.0993 11.2594C22.0594 8.65982 20.7171 6.50632 19.1453 4.89095C22.0721 6.42757 24.6222 8.66826 26.5092 11.3889ZM17.6702 1.10282C17.8911 0.881883 18.2508 0.881883 18.4716 1.10282C18.6925 1.3237 18.6925 1.68326 18.4716 1.90413L17.3334 3.04226C17.1744 2.9812 17.0149 2.92132 16.8542 2.86395C16.5964 2.77182 16.3263 2.72345 16.0554 2.71757L17.6702 1.10282ZM13.3625 1.50345C13.3625 1.35213 13.4214 1.20988 13.5285 1.10282C13.7494 0.881883 14.1089 0.881883 14.3299 1.10282L15.3371 2.11007L14.5358 2.91145L13.5285 1.9042C13.4214 1.79713 13.3625 1.65482 13.3625 1.50345ZM5.23244 12.3264H8.54431C8.18937 13.1771 7.469 13.4938 6.88837 13.4938C6.30769 13.4938 5.58738 13.1771 5.23244 12.3264ZM2.02187 20.6098C2.27006 20.6098 2.50406 20.6935 2.69225 20.8421C2.52131 21.0601 2.3995 21.3202 2.34544 21.6074C2.2975 21.8618 2.46494 22.1069 2.71931 22.1548C2.74863 22.1604 2.77781 22.163 2.80656 22.163C3.02756 22.163 3.22431 22.006 3.26669 21.781C3.30756 21.5639 3.43069 21.3799 3.59987 21.2576C3.75544 21.1473 3.94419 21.0866 4.13525 21.0999C4.38056 21.1122 4.60575 21.2279 4.75769 21.4239C4.91619 21.6286 5.21069 21.6659 5.41531 21.5074C5.61994 21.3488 5.65731 21.0544 5.49875 20.8498C5.25831 20.5394 4.931 20.3234 4.56388 20.2234C4.56244 20.1959 4.56138 20.1685 4.56138 20.1411C4.56138 19.2577 5.28006 18.539 6.16344 18.539C6.358 18.539 6.55 18.5751 6.73006 18.6431V22.7786H2.02187C1.42394 22.7786 0.9375 22.2922 0.9375 21.6942C0.9375 21.0963 1.42394 20.6098 2.02187 20.6098ZM5.17706 31.0306C5.17706 31.0478 5.16306 31.0619 5.14581 31.0619H3.03956C3.02231 31.0619 3.00831 31.0478 3.00831 31.0306V27.8577H5.17706V31.0306ZM5.69481 26.8889C5.69481 26.9061 5.68081 26.9202 5.66356 26.9202H5.64587H2.53962H2.52187C2.50462 26.9202 2.49062 26.9061 2.49062 26.8889V25.7868H5.69481V26.8889ZM10.8719 24.8494H0.986437C0.959437 24.8494 0.9375 24.8274 0.9375 24.8004V23.7651C0.9375 23.7381 0.9595 23.7161 0.986437 23.7161H10.8719V24.8494ZM10.7739 22.7786V14.3427C10.9976 14.402 11.2237 14.4313 11.4442 14.4313H11.4443C12.2662 14.4313 13.1672 14.0281 13.7221 13.1542C14.2771 14.0281 15.1781 14.4313 16.0001 14.4313C16.8221 14.4313 17.7231 14.0281 18.2781 13.1543C18.833 14.0281 19.734 14.4313 20.556 14.4313C20.7764 14.4313 21.0024 14.4019 21.2261 14.3428V22.7786H19.575V19.9899C19.575 17.9885 18.4629 16.1891 16.6727 15.2939C16.2515 15.0833 15.7486 15.0834 15.3273 15.2939C13.5371 16.189 12.4249 17.9884 12.4249 19.9899V22.7786H10.7739ZM13.8802 25.7869H18.1198V26.9203H13.8802V25.7869ZM18.5886 22.7786H13.4114H13.3625V19.9899C13.3625 18.3458 14.2761 16.8678 15.7466 16.1324C15.9053 16.0531 16.0947 16.0531 16.2534 16.1324C17.724 16.8678 18.6376 18.3458 18.6376 19.9899V22.7786H18.5886ZM18.1198 23.7161V24.8494H13.8802V23.7161H18.1198ZM13.8802 28.991V27.8577H18.1198V28.991H13.8802ZM20.1906 31.0306C20.1906 31.0478 20.1766 31.0619 20.1594 31.0619H19.0886C19.0714 31.0619 19.0573 31.0478 19.0573 31.0306V23.7161H19.1063H20.1906V31.0306ZM28.9917 31.0306C28.9917 31.0478 28.9776 31.0619 28.9604 31.0619H26.8542C26.837 31.0619 26.8229 31.0478 26.8229 31.0306V27.8577H28.9917V31.0306ZM29.5094 26.8889C29.5094 26.9061 29.4953 26.9202 29.4781 26.9202H29.4604H26.3542H26.3365C26.3193 26.9202 26.3053 26.9061 26.3053 26.8889V25.7868H29.5094V26.8889H29.5094ZM31.0625 24.8004C31.0625 24.8274 31.0405 24.8493 31.0136 24.8493H21.1281V23.716H31.0136C31.0406 23.716 31.0625 23.738 31.0625 23.7649V24.8004Z" fill="#252525"/>
</svg>
