<?xml version="1.0" encoding="UTF-8" standalone="no"?>
<svg
   xmlns:dc="http://purl.org/dc/elements/1.1/"
   xmlns:cc="http://creativecommons.org/ns#"
   xmlns:rdf="http://www.w3.org/1999/02/22-rdf-syntax-ns#"
   xmlns:svg="http://www.w3.org/2000/svg"
   xmlns="http://www.w3.org/2000/svg"
   version="1.1"
   id="svg2"
   xml:space="preserve"
   width="15"
   height="15"
   viewBox="0 0 42.666668 42.665363"><metadata
     id="metadata8"><rdf:RDF><cc:Work
         rdf:about=""><dc:format>image/svg+xml</dc:format><dc:type
           rdf:resource="http://purl.org/dc/dcmitype/StillImage" /></cc:Work></rdf:RDF></metadata><defs
     id="defs6" /><g
     id="g10"
     transform="matrix(1.3333333,0,0,-1.3333333,0,42.665364)"><g
       id="g12"
       transform="translate(0,-0.146484)"><path
         d="M 31.563625,9.198938 C 31.8365,9.543627 32,9.978626 32,10.451376 c 0,1.114876 -0.907,2.021873 -2.021875,2.021873 -0.551062,0 -1.065314,-0.21981 -1.441063,-0.602998 -0.05331,0.02 -0.1075,0.03775 -0.162438,0.053 9.39e-4,0.02712 0.0014,0.05419 0.0014,0.08131 0,1.400313 -1.139249,2.539626 -2.539562,2.539626 -0.191313,0 -0.381437,-0.02262 -0.566686,-0.06481 v 3.240436 c 1.092687,0.06794 2.275375,0.840563 2.578937,2.474125 0.079,0.254313 -0.238251,0.579687 -0.351875,0.778189 -1.274813,1.912249 -2.839688,3.598936 -4.651125,5.013248 -1.40925,1.100314 -2.942751,2.014939 -4.573126,2.731188 l 0.861939,0.861939 c 0.586437,0.5865 0.586437,1.540748 -6.3e-5,2.127249 -0.586438,0.586437 -1.540625,0.58625 -2.127188,0 L 16,30.698376 l -1.00725,1.00725 c -0.586437,0.586313 -1.540624,0.586374 -2.127125,0 C 12.5815,31.421499 12.425,31.043751 12.425,30.642063 c 0,-0.401813 0.1565,-0.779564 0.440625,-1.063688 l 0.861437,-0.861437 C 12.367,28.119125 11.071688,27.381563 9.861688,26.5145 9.65125,26.363688 9.602875,26.070812 9.75375,25.860437 c 0.15075,-0.210374 0.443499,-0.258875 0.654062,-0.108062 0.782875,0.561 1.603063,1.065187 2.4545,1.509874 C 11.287188,25.646 9.94225,23.489813 8.90075,20.886063 L 8.848937,20.7565 H 5.490562 c 0.929313,1.341063 2.0165,2.568562 3.236,3.6525 0.1935,0.171936 0.210938,0.468251 0.039,0.661751 -0.172,0.193436 -0.46825,0.211125 -0.66175,0.03894 C 6.732562,23.890999 5.521125,22.498812 4.503188,20.971937 4.388625,20.771687 4.072937,20.449375 4.151375,20.193626 4.454937,18.560188 5.637562,17.787563 6.73025,17.719625 V 14.47875 C 6.545063,14.52106 6.355125,14.544 6.163625,14.544 c -1.400313,0 -2.539562,-1.139313 -2.539562,-2.539626 0,-0.02712 4.37e-4,-0.05419 0.00131,-0.08131 -0.054938,-0.01531 -0.109125,-0.03294 -0.162437,-0.053 C 3.08725,12.253311 2.573,12.473063 2.021938,12.473063 0.907,12.473188 0,11.566252 0,10.451376 0,9.978626 0.1635,9.543627 0.436375,9.198938 0.173375,9.021563 0,8.720938 0,8.380501 V 7.345125 C 0,6.801188 0.442563,6.358688 0.986437,6.358688 H 1.553125 V 5.256563 c 0,-0.371313 0.21025,-0.694063 0.517687,-0.856626 v -3.285 c 0,-0.534187 0.434563,-0.96875 0.96875,-0.96875 h 2.106251 c 0.534187,0 0.96875,0.434563 0.96875,0.96875 v 3.285 C 6.422,4.5625 6.63225,4.88525 6.63225,5.256563 v 1.102125 h 4.239625 v -1.075 c 0,-0.258938 0.209875,-0.46875 0.46875,-0.46875 0.258875,0 0.46875,0.209812 0.46875,0.46875 v 3.145813 h 1.084375 0.049 V 1.114937 c 0,-0.017187 -0.014,-0.03125 -0.03125,-0.03125 h -1.070875 c -0.01725,0 -0.03125,0.014063 -0.03125,0.03125 v 1.981251 c 0,0.258937 -0.209875,0.46875 -0.46875,0.46875 -0.258875,0 -0.46875,-0.209813 -0.46875,-0.46875 V 1.114937 c 0,-0.534187 0.434562,-0.96875 0.96875,-0.96875 h 1.070812 c 0.534187,0 0.96875,0.434563 0.96875,0.96875 v 1.102064 h 4.239625 V 1.114876 c 0,-0.534188 0.434563,-0.96875 0.96875,-0.96875 h 1.070812 c 0.534188,0 0.96875,0.434562 0.96875,0.96875 V 6.358625 H 25.36775 V 5.2565 c 0,-0.371313 0.210249,-0.694061 0.517687,-0.856624 v -3.285 c 0,-0.534188 0.434563,-0.96875 0.96875,-0.96875 h 2.106188 c 0.534187,0 0.968813,0.434562 0.968813,0.96875 v 3.285 c 0.307438,0.162563 0.517687,0.485311 0.517687,0.856624 V 6.358625 H 31.0135 c 0.543938,0 0.986437,0.4425 0.986437,0.986437 v 1.035376 c 6.3e-5,0.3405 -0.173311,0.641125 -0.436312,0.8185 z m -6.127937,4.357188 c 0.130062,0.03344 0.264875,0.05044 0.400812,0.05044 0.883375,0 1.602062,-0.718685 1.602062,-1.602124 0,-0.02737 -0.0011,-0.05481 -0.0024,-0.08225 -0.367125,-0.100064 -0.694437,-0.316063 -0.934937,-0.626375 -0.158561,-0.204625 -0.121187,-0.499064 0.08344,-0.657626 0.2045,-0.158437 0.498938,-0.121187 0.657688,0.08344 0.151938,0.196125 0.377125,0.311751 0.6225,0.324002 0.1905,0.013 0.380436,-0.04756 0.535686,-0.157875 0.169001,-0.122376 0.292002,-0.30625 0.332877,-0.523188 0.04237,-0.225124 0.239124,-0.382 0.460062,-0.382 0.02881,0 0.058,0.00263 0.08731,0.00819 0.254376,0.047938 0.421749,0.293 0.373812,0.547438 -0.05406,0.287125 -0.175812,0.547249 -0.346811,0.765312 0.188125,0.148625 0.422188,0.23225 0.670437,0.23225 0.597875,0 1.084375,-0.486436 1.084375,-1.084373 0,-0.597937 -0.486439,-1.084438 -1.084375,-1.084438 H 25.26985 v 4.177375 c 0.05406,-0.0057 0.11,-0.0025 0.165876,0.01181 v 0 z M 14.25775,20.756561 c 0.434249,3.213188 1.044563,5.769001 1.742313,7.31544 0.697,-1.544251 1.307623,-4.100813 1.741999,-7.31544 z m 3.39825,-0.9375 c -0.354936,-0.850624 -1.075312,-1.167373 -1.655937,-1.167373 -0.580688,0 -1.301001,0.316686 -1.655938,1.167373 z M 7.667687,9.366938 v 8.467313 c 0.571125,0.177498 1.11675,0.555687 1.498625,1.156998 C 9.355187,18.693813 9.584188,18.451126 9.8365,18.260124 V 9.367001 H 7.667687 Z m 2.120626,10.452123 h 3.311812 c -0.354937,-0.850624 -1.075313,-1.167373 -1.655938,-1.167373 -0.580624,0 -1.300999,0.316686 -1.655874,1.167373 z m 0.072249,0.9375 c 1.257313,3.055689 3.007501,5.505564 5.009751,7.034626 C 14.241,26.129438 13.709937,23.74325 13.314062,20.774063 l -0.0023,-0.01744 H 9.860574 v -6.5e-5 z m 8.827625,0 -0.0023,0.01744 c -0.395876,2.969374 -0.927,5.355562 -1.556313,7.01725 2.002312,-1.529001 3.752501,-3.978937 5.009814,-7.03475 h -3.451189 v 6.1e-5 z m 3.523689,-0.9375 C 21.856939,18.968437 21.136562,18.651688 20.556,18.651688 c -0.580626,0 -1.301001,0.316686 -1.655937,1.167373 z m 0.621937,-0.827936 c 0.381813,-0.60125 0.927374,-0.979437 1.498499,-1.156874 V 9.366938 H 22.163563 V 18.26 c 0.252311,0.191 0.481312,0.433687 0.67025,0.731125 z m 2.277813,-0.339437 c -0.580563,0 -1.30094,0.316686 -1.655876,1.167373 h 3.311813 c -0.354876,-0.850687 -1.075312,-1.167373 -1.655937,-1.167373 z m 1.397562,2.104873 h -3.358126 l -0.05181,0.129502 c -1.039812,2.599624 -2.382189,4.753124 -3.954001,6.368499 2.926813,-1.536625 5.476939,-3.777313 7.363938,-6.498001 v 0 z m -8.839001,10.286125 c 0.220938,0.220938 0.580564,0.220938 0.801376,0 0.220938,-0.220874 0.220938,-0.580436 0,-0.801311 l -1.138126,-1.138124 c -0.159,0.06106 -0.318562,0.120937 -0.47925,0.178312 -0.257812,0.09213 -0.527937,0.140499 -0.79875,0.146374 z M 13.3625,30.642063 c 0,0.151312 0.05894,0.293562 0.166,0.400623 0.220937,0.220938 0.580437,0.220938 0.801375,0 l 1.00725,-1.007247 -0.801313,-0.801377 -1.007312,1.00725 c -0.107063,0.107063 -0.166,0.249376 -0.166,0.400751 z M 5.232438,19.819061 H 8.544312 C 8.189375,18.968437 7.469,18.651688 6.888375,18.651688 c -0.580688,0 -1.301,0.316686 -1.655937,1.167373 z M 2.021875,11.535688 c 0.248187,0 0.482187,-0.08369 0.670375,-0.23225 -0.170938,-0.218 -0.29275,-0.478124 -0.346812,-0.765312 -0.047938,-0.254438 0.119499,-0.4995 0.373874,-0.547438 0.029313,-0.00556 0.0585,-0.00819 0.08725,-0.00819 0.221,0 0.41775,0.157 0.460125,0.382 0.040875,0.217062 0.164,0.401062 0.333188,0.523438 0.155562,0.11025 0.344313,0.170938 0.535375,0.157625 0.245313,-0.01225 0.4705,-0.127938 0.622438,-0.324 0.1585,-0.204624 0.452999,-0.241939 0.657624,-0.08344 0.204625,0.158562 0.242001,0.453001 0.083438,0.657626 -0.240437,0.310312 -0.56775,0.526312 -0.934875,0.626375 -0.00144,0.02744 -0.0025,0.05488 -0.0025,0.08225 0,0.883439 0.718687,1.602126 1.602062,1.602126 0.194563,0 0.386563,-0.03613 0.566625,-0.104126 v -4.1355 H 2.021875 c -0.597938,0 -1.084375,0.486438 -1.084375,1.084438 0,0.597937 0.486437,1.084375 1.084375,1.084375 z M 5.177063,1.114876 c 0,-0.017187 -0.014,-0.03125 -0.03125,-0.03125 H 3.039562 c -0.01725,0 -0.03125,0.014063 -0.03125,0.03125 v 3.172937 h 2.168751 z m 0.517749,4.141687 c 0,-0.017187 -0.014,-0.03125 -0.03125,-0.03125 H 5.645875 2.539625 2.521875 c -0.01725,0 -0.03125,0.014063 -0.03125,0.03125 v 1.102125 h 3.204187 z m 5.177063,2.039562 H 0.986437 c -0.027,0 -0.048937,0.022 -0.048937,0.048937 v 1.035376 c 0,0.027 0.022,0.048937 0.048937,0.048937 h 9.885438 z m -0.09794,2.070813 v 8.435875 c 0.223625,-0.05931 0.44975,-0.08863 0.67025,-0.08863 h 6.3e-5 c 0.821938,0 1.722938,0.403251 2.277875,1.277126 0.554937,-0.87394 1.455938,-1.277126 2.278001,-1.277126 0.822,0 1.722999,0.403186 2.277937,1.277061 0.554937,-0.873875 1.455936,-1.277061 2.277937,-1.277061 0.220375,0 0.446438,0.02937 0.670063,0.08856 V 9.366931 h -1.651062 v 2.788625 c 0,2.001438 -1.112126,3.800875 -2.902313,4.695999 -0.421189,0.210625 -0.924125,0.210564 -1.345376,0 -1.790187,-0.895063 -2.902375,-2.694437 -2.902375,-4.695999 V 9.366931 h -1.651 z m 3.10625,-3.008313 H 18.11981 V 5.22525 h -4.239625 z m 4.708375,3.008313 h -5.177125 -0.04894 v 2.788625 c 0,1.644125 0.913562,3.122187 2.384125,3.8575 0.158688,0.07931 0.348124,0.07938 0.506812,0 1.470562,-0.735313 2.384125,-2.213375 2.384125,-3.8575 V 9.366938 h -0.049 z m -0.46875,-0.9375 V 7.296125 H 13.880185 V 8.429438 Z M 13.880185,3.154501 V 4.287813 H 18.11981 V 3.154501 Z m 6.310437,-2.039625 c 0,-0.017187 -0.01406,-0.03125 -0.03125,-0.03125 H 19.08856 c -0.01719,0 -0.03125,0.014063 -0.03125,0.03125 v 7.314562 h 0.04894 1.084373 V 1.114876 Z m 8.801064,0 c 0,-0.017187 -0.01406,-0.03125 -0.03131,-0.03125 h -2.106188 c -0.01719,0 -0.03125,0.014063 -0.03125,0.03125 v 3.172937 h 2.168751 V 1.114876 Z m 0.517687,4.141687 c 0,-0.017187 -0.01406,-0.03125 -0.03125,-0.03125 h -0.01769 -3.106251 -0.01769 c -0.01719,0 -0.03125,0.014063 -0.03125,0.03125 V 6.358688 H 29.50943 V 5.256563 h -6.3e-5 z M 31.0625,7.345125 c 0,-0.027 -0.022,-0.048937 -0.04894,-0.048937 h -9.885439 v 1.133313 h 9.885439 c 0.027,0 0.04894,-0.022002 0.04894,-0.048939 z"
         style="fill:#252525;fill-opacity:1;fill-rule:nonzero;stroke:none"
         id="path14" /></g></g></svg>
