<?xml version="1.0" encoding="UTF-8" standalone="no"?>
<svg
   xmlns:dc="http://purl.org/dc/elements/1.1/"
   xmlns:cc="http://creativecommons.org/ns#"
   xmlns:rdf="http://www.w3.org/1999/02/22-rdf-syntax-ns#"
   xmlns:svg="http://www.w3.org/2000/svg"
   xmlns="http://www.w3.org/2000/svg"
   version="1.1"
   id="svg2"
   xml:space="preserve"
   width="15"
   height="15"
   viewBox="0 0 42.666668 32.73177"><metadata
     id="metadata8"><rdf:RDF><cc:Work
         rdf:about=""><dc:format>image/svg+xml</dc:format><dc:type
           rdf:resource="http://purl.org/dc/dcmitype/StillImage" /></cc:Work></rdf:RDF></metadata><defs
     id="defs6" /><g
     id="g10"
     transform="matrix(1.3333333,0,0,-1.3333333,0,32.731771)"><g
       id="g12"
       transform="translate(0,-0.016602)"><path
         d="m 31.530001,0.956873 h -0.795176 c 0.315588,0.408022 0.504088,0.91913 0.504088,1.473665 v 9.377429 c 0,0.554537 -0.1885,1.065644 -0.504088,1.473666 h 0.225788 c 0.384835,0 0.720288,0.218895 0.875576,0.571332 0.1551,0.351936 0.09024,0.746673 -0.169012,1.030177 -4.240772,4.637013 -9.48703,7.881827 -15.592949,9.644387 -0.189065,0.05464 -0.387592,0.05013 -0.573837,-0.0131 C 13.249783,23.751526 11.105834,22.8151 9.128139,21.731029 8.900535,21.60626 8.817188,21.320564 8.941895,21.092897 c 0.124769,-0.227668 0.410403,-0.311016 0.638134,-0.186245 1.929754,1.057873 4.023131,1.97218 6.222164,2.717472 0.0034,0.0011 0.0078,0.0013 0.01128,2.52e-4 2.987755,-0.86248 5.783499,-2.094881 8.309587,-3.662987 2.495947,-1.549495 4.800825,-3.471479 6.850525,-5.712686 0.0037,-0.0041 0.0047,-0.0063 0.0048,-0.0063 9.4e-4,-0.0053 -0.0047,-0.01761 -0.0091,-0.01999 -6.3e-5,0 -0.0023,-9.4e-4 -0.0086,-9.4e-4 H 28.825321 3.216058 0.99246 c -0.006329,0 -0.008648,9.4e-4 -0.008648,9.4e-4 -0.004011,0.0022 -0.010152,0.01435 -0.009275,0.01961 0,0 0.001003,0.0022 0.004763,0.0063 2.032089,2.172024 4.351693,4.076273 6.89464,5.659859 0.220336,0.137176 0.287703,0.42707 0.150462,0.647407 -0.137186,0.220404 -0.42727,0.287772 -0.64748,0.15047 C 4.764415,19.079044 2.380954,17.122406 0.292778,14.890411 0.028889,14.608286 -0.039417,14.212671 0.114555,13.857854 0.26884,13.502346 0.605171,13.281508 0.992388,13.281508 H 1.30641 C 0.990821,12.873487 0.80232,12.362377 0.80232,11.807841 V 2.430414 c 0,-0.554537 0.188501,-1.065643 0.50409,-1.473665 H 0.469999 C 0.210372,0.956749 0,0.746376 0,0.486748 c 0,-0.259627 0.210372,-0.47 0.469999,-0.47 h 2.745987 10.694177 7.096929 7.818157 2.704689 c 0.259628,0 0.469999,0.210373 0.469999,0.47 0,0.259628 -0.210371,0.470125 -0.469936,0.470125 z M 13.440227,8.208963 H 1.742382 V 9.686328 H 13.440227 Z M 1.742382,7.268965 H 13.440227 V 5.791599 H 1.742382 Z m 12.637843,2.72681 c 0,0.25499 0.207552,0.462543 0.462543,0.462543 h 2.145891 V 8.582705 h -2.608434 z m 3.548433,0.46248 h 2.145891 c 0.255052,0 0.462606,-0.207553 0.462606,-0.462543 V 8.582644 H 17.928658 Z M 30.298914,9.686328 V 8.208963 h -2.032715 c -0.259626,0 -0.469999,-0.210373 -0.469999,-0.469999 0,-0.259628 0.210373,-0.469999 0.469999,-0.469999 h 2.032715 V 5.791662 h -8.82176 v 1.477303 h 4.786159 c 0.259629,0 0.47,0.210371 0.47,0.469999 0,0.259626 -0.210371,0.469999 -0.47,0.469999 h -4.786159 v 1.477365 z m -8.82176,-4.834664 h 8.82176 V 3.3743 h -8.82176 z m 7.348158,8.429907 c 0.812597,0 1.473665,-0.661069 1.473665,-1.473667 v -1.181577 h -8.972162 c -0.231303,0.457403 -0.705563,0.771926 -1.252266,0.771926 h -5.231781 c -0.546642,0 -1.020902,-0.314523 -1.252204,-0.771926 H 1.742382 v 1.18164 c 0,0.812597 0.661069,1.473666 1.473667,1.473666 H 28.825312 Z M 1.742382,2.430538 v 0.00376 h 4.008405 c 0.259627,0 0.469999,0.210371 0.469999,0.47 0,0.259626 -0.210372,0.469999 -0.469999,0.469999 H 1.742382 V 4.851598 H 13.440227 V 3.374297 H 7.753736 c -0.259627,0 -0.469999,-0.210373 -0.469999,-0.469999 0,-0.259629 0.210372,-0.47 0.469999,-0.47 h 5.686428 V 0.956933 H 3.215986 c -0.812535,-6e-5 -1.473604,0.661008 -1.473604,1.473605 z m 12.637843,5.212168 h 2.608434 v -6.68577 h -2.608434 z m 3.548433,-6.685833 v 6.685833 h 2.608497 V 2.905489 c 0,-4.39e-4 -6.3e-5,-8.13e-4 -6.3e-5,-0.00125 0,-4.39e-4 6.3e-5,-8.17e-4 6.3e-5,-0.00126 V 0.956806 h -2.608497 v 6.3e-5 z m 3.548496,0 v 1.477365 h 8.82176 v -0.00376 c 0,-0.812597 -0.661068,-1.473667 -1.473665,-1.473667 h -7.348095 z"
         style="fill:#252525;fill-opacity:1;fill-rule:nonzero;stroke:none"
         id="path14" /></g><g
       id="g16"
       transform="translate(15.320312,4.123047)"><path
         d="M 0.543633,1.086914 C 0.243397,1.086914 0,0.843518 0,0.543282 0,0.243047 0.243397,-3.51e-4 0.543633,-3.51e-4 c 0.300235,0 0.543632,0.243398 0.543632,0.543633 0,0.300236 -0.243397,0.543632 -0.543632,0.543632 z"
         style="fill:#252525;fill-opacity:1;fill-rule:nonzero;stroke:none"
         id="path18" /></g><g
       id="g20"
       transform="translate(18.509766,4.124023)"><path
         d="m 0.543632,-3.51e-4 c 0.30024,0 0.543632,0.243393 0.543632,0.543633 0,0.30024 -0.243392,0.543632 -0.543632,0.543632 C 0.243392,1.086914 0,0.843522 0,0.543282 0,0.243042 0.243392,-3.51e-4 0.543632,-3.51e-4 Z"
         style="fill:#252525;fill-opacity:1;fill-rule:nonzero;stroke:none"
         id="path22" /></g><g
       id="g24"
       transform="translate(9.064453,17.543945)"><path
         d="m 0.939999,0.470358 v 0.600658 c 0,0.259628 -0.210372,0.47 -0.47,0.47 C 0.210372,1.541016 0,1.330644 0,1.071016 V 0.470358 c 0,-0.259628 0.210372,-0.47 0.469999,-0.47 0.259628,0 0.47,0.210435 0.47,0.47 z"
         style="fill:#252525;fill-opacity:1;fill-rule:nonzero;stroke:none"
         id="path26" /></g><g
       id="g28"
       transform="translate(13.103516,20.282227)"><path
         d="m 0.469999,3.58e-4 c 0.259628,0 0.47,0.210371 0.47,0.469999 v 0.600659 c 0,0.259628 -0.210372,0.47 -0.47,0.47 C 0.210372,1.541016 0,1.330644 0,1.071016 V 0.470357 C 0,0.210729 0.210434,3.58e-4 0.469999,3.58e-4 Z"
         style="fill:#252525;fill-opacity:1;fill-rule:nonzero;stroke:none"
         id="path30" /></g><g
       id="g32"
       transform="translate(15.505859,16.943359)"><path
         d="m 0.939999,0.470357 v 0.600659 c 0,0.259628 -0.210372,0.47 -0.47,0.47 C 0.210372,1.541016 0,1.330644 0,1.071016 V 0.470357 c 0,-0.259628 0.210372,-0.47 0.469999,-0.47 0.259628,0 0.47,0.210435 0.47,0.47 z"
         style="fill:#252525;fill-opacity:1;fill-rule:nonzero;stroke:none"
         id="path34" /></g><g
       id="g36"
       transform="translate(12.28125,15.770508)"><path
         d="M 0.469999,1.541016 C 0.210372,1.541016 0,1.330644 0,1.071016 V 0.470357 c 0,-0.259628 0.210372,-0.47 0.469999,-0.47 0.259628,0 0.47,0.210372 0.47,0.47 v 0.600659 c 0,0.259565 -0.210372,0.47 -0.47,0.47 z"
         style="fill:#252525;fill-opacity:1;fill-rule:nonzero;stroke:none"
         id="path38" /></g><g
       id="g40"
       transform="translate(5.507812,15.357422)"><path
         d="M 0,1.071016 V 0.470358 c 0,-0.259628 0.210372,-0.47 0.469999,-0.47 0.259628,0 0.47,0.210372 0.47,0.47 v 0.600658 c 0,0.259628 -0.210372,0.47 -0.47,0.47 C 0.210372,1.541016 0,1.330581 0,1.071016 Z"
         style="fill:#252525;fill-opacity:1;fill-rule:nonzero;stroke:none"
         id="path42" /></g><g
       id="g44"
       transform="translate(21.949219,17.543945)"><path
         d="m 0.939999,0.470358 v 0.600658 c 0,0.259628 -0.210372,0.47 -0.47,0.47 C 0.210372,1.541016 0,1.330644 0,1.071016 V 0.470358 c 0,-0.259628 0.210372,-0.47 0.469999,-0.47 0.259628,0 0.47,0.210435 0.47,0.47 z"
         style="fill:#252525;fill-opacity:1;fill-rule:nonzero;stroke:none"
         id="path46" /></g><g
       id="g48"
       transform="translate(17.908203,20.344727)"><path
         d="M 0.469999,1.541016 C 0.210372,1.541016 0,1.330644 0,1.071016 V 0.470357 C 0,0.210729 0.210372,3.58e-4 0.469999,3.58e-4 c 0.259628,0 0.47,0.210371 0.47,0.469999 v 0.600659 c 0,0.259565 -0.210372,0.47 -0.47,0.47 z"
         style="fill:#252525;fill-opacity:1;fill-rule:nonzero;stroke:none"
         id="path50" /></g><g
       id="g52"
       transform="translate(18.730469,15.833008)"><path
         d="m 0,0.470357 c 0,-0.259628 0.210372,-0.47 0.469999,-0.47 0.259628,0 0.47,0.210372 0.47,0.47 v 0.600659 c 0,0.259628 -0.210372,0.47 -0.47,0.47 C 0.210372,1.541016 0,1.330644 0,1.071016 Z"
         style="fill:#252525;fill-opacity:1;fill-rule:nonzero;stroke:none"
         id="path54" /></g><g
       id="g56"
       transform="translate(25.505859,15.357422)"><path
         d="m 0.939999,0.470358 v 0.600658 c 0,0.259628 -0.210372,0.47 -0.47,0.47 C 0.210372,1.541016 0,1.330644 0,1.071016 V 0.470358 c 0,-0.259628 0.210372,-0.47 0.469999,-0.47 0.259628,0 0.47,0.210372 0.47,0.47 z"
         style="fill:#252525;fill-opacity:1;fill-rule:nonzero;stroke:none"
         id="path58" /></g></g></svg>
