<svg width="33" height="32" viewBox="0 0 33 32" fill="none" xmlns="http://www.w3.org/2000/svg">
<g clip-path="url(#clip0_1194_39267)">
<path d="M13.8044 7.2417H9.0625C8.63159 7.2417 8.28125 7.59204 8.28125 8.02295V15.7688C8.28125 16.1995 8.63159 16.55 9.0625 16.55H13.8044C14.2354 16.55 14.5857 16.1995 14.5857 15.7688V8.02295C14.5857 7.59204 14.2354 7.2417 13.8044 7.2417ZM10.9646 15.6125H9.21875V13.6956H10.9646V15.6125ZM10.9646 12.7581H9.21875V11.0334H10.9646V12.7581ZM10.9646 10.0959H9.21875V8.1792H10.9646V10.0959ZM13.6482 15.6125H11.9021V13.6956H13.6482V15.6125ZM13.6482 12.7581H11.9021V11.0334H13.6482V12.7581ZM13.6482 10.0959H11.9021V8.1792H13.6482V10.0959Z" fill="#252525"/>
<path d="M20.0918 25.9561C19.8328 25.9561 19.623 26.166 19.623 26.4248V27.5503C19.623 27.8091 19.8328 28.019 20.0918 28.019C20.3508 28.019 20.5605 27.8091 20.5605 27.5503V26.4248C20.5605 26.166 20.3508 25.9561 20.0918 25.9561Z" fill="#252525"/>
<path d="M32.4956 21.2222C32.4738 21.0576 32.3896 20.9109 32.2585 20.8093L22.3276 13.1255C22.1074 12.9553 21.8442 12.8652 21.5664 12.8652C21.2883 12.8652 21.0251 12.9553 20.8046 13.1257L19.3027 14.2878V12.9417C19.3027 12.6826 19.093 12.4729 18.8339 12.4729C18.5749 12.4729 18.3652 12.6826 18.3652 12.9417V15.0132L10.8745 20.8091C10.7441 20.9097 10.6574 21.0613 10.6369 21.2241C10.6157 21.3889 10.6599 21.5525 10.7612 21.6846L11.5212 22.6731C11.6406 22.8276 11.8208 22.9163 12.0158 22.9163C12.153 22.9163 12.2885 22.8701 12.3974 22.7859L21.5664 15.6917L28.4968 21.054V30.8206H24.7214V29.9417C24.7214 29.6826 24.5117 29.4729 24.2526 29.4729C23.9936 29.4729 23.7839 29.6826 23.7839 29.9417V30.8206H19.3481V23.6394H23.7839V27.7385C23.7839 27.9976 23.9936 28.2073 24.2526 28.2073C24.5117 28.2073 24.7214 27.9976 24.7214 27.7385V23.4832C24.7214 23.0525 24.3708 22.7019 23.9401 22.7019H19.1921C18.7612 22.7019 18.4106 23.0525 18.4106 23.4832V30.8206H14.8486V29.542C14.8486 29.1111 14.4982 28.7607 14.0673 28.7607H13.6186C13.656 28.5742 13.6762 28.3816 13.6762 28.1843C13.6762 26.562 12.3562 25.2422 10.7338 25.2422C9.85323 25.2422 9.02925 25.6462 8.47823 26.3015C8.26973 26.2356 8.04805 26.1997 7.81807 26.1997C7.64912 26.1997 7.48311 26.2185 7.32173 26.2561C6.81123 25.3816 5.8586 24.8191 4.82881 24.8191C4.71919 24.8191 4.61079 24.8259 4.50386 24.8384V9.14746L11.4345 3.78467L18.3654 9.14746V10.7539C18.3654 11.0129 18.5751 11.2227 18.8342 11.2227C19.093 11.2227 19.3029 11.0129 19.3029 10.7539V9.8728L20.6037 10.8792C20.7124 10.9634 20.8479 11.0095 20.9851 11.0095C21.1806 11.0095 21.361 10.9207 21.4799 10.7659C21.4816 10.7637 21.4834 10.7612 21.4851 10.759L22.2131 9.77563L22.2177 9.76978C22.2658 9.70947 22.3935 9.54956 22.3637 9.31543C22.342 9.15015 22.2575 9.00342 22.1267 8.90259L12.196 1.21875C11.9758 1.04858 11.7126 0.958496 11.4345 0.958496C11.1564 0.958496 10.8933 1.04858 10.6728 1.21899L7.94624 3.32861V2.73779C8.3149 2.67529 8.59663 2.35449 8.59663 1.96851V1.03125C8.59663 0.600342 8.24605 0.25 7.81538 0.25H4.0168C3.58614 0.25 3.23555 0.600342 3.23555 1.03125V1.96826C3.23555 2.35449 3.51729 2.67505 3.88594 2.73779V6.47021L0.743363 8.90186C0.612504 9.00244 0.525834 9.1543 0.505326 9.31665C0.483842 9.48169 0.527787 9.64526 0.629349 9.77759L1.38936 10.7661C1.5085 10.9209 1.68868 11.0095 1.88399 11.0095C2.0212 11.0095 2.15645 10.9634 2.26582 10.8792L3.56636 9.8728V25.114C2.82222 25.4802 2.24922 26.1589 2.03633 26.9868C1.32954 27.2593 0.843949 27.9458 0.843949 28.7251C0.843949 28.811 0.850053 28.8955 0.861283 28.9785C0.712601 29.1208 0.619828 29.3206 0.619828 29.542V30.9771C0.619828 31.4077 0.97017 31.7583 1.40108 31.7583H30.7929C31.052 31.7583 31.2617 31.5483 31.2617 31.2896C31.2617 31.0305 31.052 30.8208 30.7929 30.8208H29.4343V21.7793L30.7353 22.7859C30.8439 22.8699 30.9794 22.9163 31.1167 22.9163C31.3122 22.9163 31.4926 22.8274 31.6115 22.6724C31.6132 22.6702 31.6149 22.668 31.6167 22.6658L32.3449 21.6821L32.3498 21.676C32.3977 21.616 32.5251 21.4561 32.4956 21.2222ZM10.7338 26.1797C11.8393 26.1797 12.7387 27.0791 12.7387 28.1843C12.7387 28.3848 12.7085 28.5781 12.6535 28.7607H9.97969C9.99996 28.6416 10.0112 28.519 10.0112 28.394C10.0112 27.7581 9.73897 27.1848 9.30562 26.7834C9.67622 26.4072 10.1889 26.1797 10.7338 26.1797ZM4.17305 1.1875H7.65913V1.81201H4.17305V1.1875ZM7.00874 2.74951V4.05396L4.82344 5.74487V2.74951H7.00874ZM1.94087 9.94531L1.5627 9.45337L11.2463 1.96045C11.3017 1.91772 11.3649 1.896 11.4345 1.896C11.5041 1.896 11.5673 1.91772 11.6225 1.96021L21.2929 9.44287L20.9238 9.94165L11.7214 2.82129C11.5524 2.69067 11.3166 2.69067 11.1477 2.82129L1.94087 9.94531ZM13.9111 30.8208H1.55733V29.6982H5.8752C6.13399 29.6982 6.34395 29.4885 6.34395 29.2295C6.34395 28.9705 6.13399 28.7607 5.8752 28.7607H1.78267C1.78218 28.7488 1.78145 28.7371 1.78145 28.7251C1.78145 28.283 2.09566 27.9009 2.52901 27.8169C2.72505 27.7788 2.87544 27.6208 2.90376 27.4233C3.04048 26.4734 3.86812 25.7568 4.82881 25.7568C5.62666 25.7568 6.35616 26.2576 6.644 27.0027C6.69087 27.1243 6.78609 27.2207 6.90718 27.2693C7.02828 27.3176 7.16377 27.3132 7.28169 27.2576C7.45015 27.178 7.63081 27.1375 7.81807 27.1375C8.51045 27.1375 9.07369 27.7012 9.07369 28.3943C9.07369 28.522 9.05367 28.6448 9.01802 28.7607H8.1252C7.86617 28.7607 7.65645 28.9707 7.65645 29.2295C7.65645 29.4885 7.86617 29.6982 8.1252 29.6982H13.9111V30.8208ZM31.0556 21.8484L21.8532 14.7283C21.6843 14.5974 21.4484 14.5974 21.2795 14.7283L12.0725 21.8521L11.6943 21.3601L21.3781 13.8674C21.4335 13.8245 21.4968 13.8027 21.5664 13.8027C21.6357 13.8027 21.6992 13.8245 21.7543 13.8672L31.4248 21.3496L31.0556 21.8484Z" fill="#252525"/>
</g>
<defs>
<clipPath id="clip0_1194_39267">
<rect width="32" height="32" fill="white" transform="translate(0.5)"/>
</clipPath>
</defs>
</svg>
