<?xml version="1.0" encoding="UTF-8" standalone="no"?>
<svg
   xmlns:dc="http://purl.org/dc/elements/1.1/"
   xmlns:cc="http://creativecommons.org/ns#"
   xmlns:rdf="http://www.w3.org/1999/02/22-rdf-syntax-ns#"
   xmlns:svg="http://www.w3.org/2000/svg"
   xmlns="http://www.w3.org/2000/svg"
   version="1.1"
   id="svg2"
   xml:space="preserve"
   width="40"
   height="40"
   viewBox="0 0 42.666668 27.916668"><metadata
     id="metadata8"><rdf:RDF><cc:Work
         rdf:about=""><dc:format>image/svg+xml</dc:format><dc:type
           rdf:resource="http://purl.org/dc/dcmitype/StillImage" /></cc:Work></rdf:RDF></metadata><defs
     id="defs6" /><g
     id="g10"
     transform="matrix(1.3333333,0,0,-1.3333333,0,27.916667)"><g
       id="g12"><path
         d="M 31.269375,5.4375 H 31.15625 v 0.28125 c 0,0.258938 -0.209875,0.46875 -0.46875,0.46875 -0.258875,0 -0.46875,-0.209812 -0.46875,-0.46875 V 5.4375 H 27.784124 C 27.228937,5.942062 26.491938,6.25 25.684376,6.25 24.876814,6.25 24.139812,5.942062 23.584625,5.4375 h -2.402563 v 3.822437 h 7.703814 c 0.258875,0 0.46875,0.209812 0.46875,0.46875 V 12.9635 c 0,0.258937 -0.209875,0.46875 -0.46875,0.46875 H 21.181999 V 14.37 H 30.21875 V 7.5 c 0,-0.258938 0.209875,-0.46875 0.46875,-0.46875 0.258875,0 0.46875,0.209812 0.46875,0.46875 v 7.33875 c 0,8.12e-4 -1.26e-4,0.0017 -1.26e-4,0.0025 0,8.13e-4 1.26e-4,0.0017 1.26e-4,0.0025 v 3.75 c 0,0.258938 -0.209875,0.46875 -0.46875,0.46875 h -1.878187 v 1.40625 c 0,0.258938 -0.209875,0.46875 -0.46875,0.46875 h -6.25 c -0.258875,0 -0.46875,-0.209812 -0.46875,-0.46875 V 19.0625 H 16.75 c -0.258875,0 -0.46875,-0.209812 -0.46875,-0.46875 0,-0.258938 0.209875,-0.46875 0.46875,-0.46875 H 30.21875 V 15.3125 H 2.762875 c -0.1545,0 -0.226188,0.106312 -0.249813,0.152062 -0.023624,0.04575 -0.069,0.165689 0.020313,0.291813 l 1.2575,1.775188 C 4.054062,17.903126 4.483125,18.125 4.938437,18.125 h 9.780313 c 0.258875,0 0.46875,0.209812 0.46875,0.46875 0,0.258938 -0.209875,0.46875 -0.46875,0.46875 h -0.299125 v 1.40625 c 0,0.258938 -0.209875,0.46875 -0.46875,0.46875 h -6.25 c -0.258875,0 -0.46875,-0.209812 -0.46875,-0.46875 V 19.0625 h -2.29375 c -0.758875,0 -1.473875,-0.369688 -1.912563,-0.989 l -1.2575,-1.77525 C 1.503812,15.924812 1.470125,15.440374 1.680313,15.033937 1.8905,14.627501 2.305313,14.375 2.762875,14.375 H 4.64575 L 4.56325,14.053625 C 4.498875,13.802813 4.65,13.547375 4.90075,13.483 4.939813,13.473 4.979,13.46819 5.017625,13.46819 c 0.208875,0 0.399375,0.140688 0.453688,0.352313 l 0.142375,0.5545 h 4.430749 v -4.1775 H 4.541187 L 4.99825,11.977816 C 5.062625,12.228625 4.9115,12.484062 4.66075,12.548437 4.410187,12.612624 4.154562,12.461688 4.090188,12.211 L 3.573937,10.200001 H 1.9375 c -0.603063,0 -1.09375,-0.490688 -1.09375,-1.09375 v -0.0025 -3.66625 H 0.730625 C 0.320937,5.4375 0,5.081999 0,4.628124 V 3.434376 C 0,2.980501 0.320937,2.625 0.730625,2.625 H 2.387187 C 2.62725,1.13875 3.91875,0 5.471687,0 7.024625,0 8.316125,1.13875 8.556188,2.625 H 22.599812 C 22.839874,1.13875 24.131374,0 25.684313,0 c 1.552938,0 2.844436,1.13875 3.084499,2.625 h 2.500563 C 31.679062,2.625 32,2.980501 32,3.434376 V 4.628124 C 32,5.081999 31.679062,5.4375 31.269375,5.4375 Z m -3.397562,13.625 h -5.3125 V 20 h 5.3125 z M 8.169625,20 h 5.3125 v -0.9375 h -5.3125 z m 13.012374,-7.50525 h 7.235064 v -2.297313 h -7.235064 z m -4.592436,1.875 h 3.654936 V 5.4375 H 16.589563 Z M 10.981875,14.37 h 4.670187 v -0.93775 h -3.263625 c -0.258875,0 -0.46875,-0.209813 -0.46875,-0.46875 V 9.728687 c 0,-0.258938 0.209875,-0.46875 0.46875,-0.46875 h 3.263625 V 5.4375 h -4.670187 z m 4.670187,-1.87525 V 10.197437 H 12.857187 V 12.49475 Z M 1.78125,7.714813 h 0.9375 v -0.9375 H 1.78125 Z M 2.378,3.5625 H 0.9375 V 4.5 H 2.666312 C 2.5235,4.209812 2.424688,3.894501 2.378,3.5625 Z m 3.093687,-2.625 c -1.206187,0 -2.187499,0.981312 -2.187499,2.1875 0,1.206188 0.981312,2.1875 2.187499,2.1875 1.206188,0 2.1875,-0.981312 2.1875,-2.1875 0,-1.206188 -0.981312,-2.1875 -2.1875,-2.1875 z M 7.5715,5.437563 c -0.555188,0.504562 -1.292188,0.8125 -2.09975,0.8125 -0.807563,0 -1.544563,-0.307938 -2.09975,-0.8125 H 1.78125 v 0.40225 H 2.9 c 0.417,0 0.75625,0.334624 0.75625,0.745999 V 7.906437 C 3.65625,8.317749 3.317,8.652374 2.9,8.652374 H 1.78125 v 0.451439 c 0,0.086188 0.070125,0.15625 0.15625,0.15625 h 8.106875 v -3.8225 z M 22.590563,3.5625 H 8.565437 C 8.518687,3.894501 8.419875,4.209812 8.277125,4.5 H 22.878937 C 22.736124,4.209812 22.637312,3.894501 22.590563,3.5625 Z m 3.09375,-2.625 c -1.206188,0 -2.1875,0.981312 -2.1875,2.1875 0,1.206188 0.981312,2.1875 2.1875,2.1875 1.206188,0 2.1875,-0.981312 2.1875,-2.1875 0,-1.206188 -0.981312,-2.1875 -2.1875,-2.1875 z M 31.0625,3.5625 H 28.778063 C 28.731314,3.894501 28.6325,4.209812 28.48975,4.5 h 2.57275 z"
         style="fill:#252525;fill-opacity:1;fill-rule:nonzero;stroke:none"
         id="path14" /></g></g></svg>
