<svg width="32" height="32" viewBox="0 0 32 32" fill="none" xmlns="http://www.w3.org/2000/svg">
<g clip-path="url(#clip0_1194_39291)">
<path d="M31.0312 0H0.970703C0.711828 0 0.501953 0.209875 0.501953 0.46875C0.501953 0.727625 0.711828 0.9375 0.970703 0.9375H1.50395V2.47275C1.50395 2.73162 1.71383 2.9415 1.9727 2.9415H2.50602V29.0584H1.9727C1.71383 29.0584 1.50395 29.2683 1.50395 29.5272V31.5312C1.50395 31.7902 1.71383 32 1.9727 32H5.98077C6.23964 32 6.44952 31.7902 6.44952 31.5312V29.5273C6.44952 29.2684 6.23964 29.0585 5.98077 29.0585H5.44752V27.4909H26.5543V29.0585H26.0211C25.7622 29.0585 25.5523 29.2684 25.5523 29.5273V31.5312C25.5523 31.7902 25.7622 32 26.0211 32H30.0291C30.288 32 30.4979 31.7902 30.4979 31.5312V29.5273C30.4979 29.2684 30.288 29.0585 30.0291 29.0585H29.4959V2.9415H30.0291C30.288 2.9415 30.4979 2.73162 30.4979 2.47275V0.9375H31.0311C31.29 0.9375 31.4999 0.727625 31.4999 0.46875C31.4999 0.209875 31.2901 0 31.0312 0ZM5.51202 29.996V31.0625H2.44145V29.996H5.51202ZM4.97883 22.5454C4.71995 22.5454 4.51008 22.7553 4.51008 23.0141V29.0584H3.44352V2.9415H4.51002V21.0101C4.51002 21.269 4.71989 21.4789 4.97877 21.4789C5.23764 21.4789 5.44752 21.269 5.44752 21.0101V19.4748H26.5543V23.5474H23.5158C23.3915 23.5474 23.2723 23.5969 23.1843 23.6847C23.0964 23.7727 23.047 23.8919 23.0471 24.0163C23.0471 24.2925 22.9396 24.5522 22.7443 24.7475C22.549 24.9428 22.2893 25.0504 22.013 25.0504C21.7367 25.0504 21.477 24.9429 21.2816 24.7475C21.0863 24.5521 20.9788 24.2925 20.9789 24.0163C20.9789 23.8919 20.9295 23.7727 20.8416 23.6847C20.7537 23.5967 20.6345 23.5474 20.5101 23.5474H17.5039C17.245 23.5474 17.0351 23.7572 17.0351 24.0161C17.0351 24.5864 16.5712 25.0504 16.0009 25.0504C15.7246 25.0504 15.4649 24.9428 15.2696 24.7474C15.0743 24.5521 14.9667 24.2924 14.9667 24.0161C14.9667 23.8918 14.9173 23.7726 14.8295 23.6846C14.7415 23.5968 14.6223 23.5473 14.498 23.5473H13.4311C13.2014 21.8523 11.7458 20.5413 9.98876 20.5413C8.23176 20.5413 6.77614 21.8523 6.54645 23.5473H5.44758V23.0141C5.44758 22.7553 5.23777 22.5454 4.97883 22.5454ZM16.001 10.5212C14.6019 10.5212 13.4636 9.38294 13.4636 7.98387C13.4636 6.58481 14.6019 5.44656 16.001 5.44656C17.4 5.44656 18.5383 6.58475 18.5383 7.98387C18.5383 9.383 17.4 10.5212 16.001 10.5212ZM19.4433 8.45263H20.0976C20.3085 9.31438 21.0873 9.95569 22.0131 9.95569C22.9388 9.95569 23.7176 9.31438 23.9285 8.45263H26.5544V10.5212H18.3715C18.9424 9.98744 19.3333 9.26425 19.4433 8.45263ZM13.6305 10.5212H12.3595C12.6083 10.2885 12.8228 10.0199 12.995 9.7235C13.1671 10.0199 13.3816 10.2885 13.6305 10.5212ZM9.98889 10.5212C8.58983 10.5212 7.45158 9.38294 7.45158 7.98387C7.45158 6.58481 8.58983 5.44656 9.98889 5.44656C11.388 5.44656 12.5262 6.58475 12.5262 7.98387C12.5262 9.383 11.388 10.5212 9.98889 10.5212ZM7.61827 10.5212H5.44758V8.45263H6.54652C6.65652 9.26425 7.04739 9.9875 7.61827 10.5212ZM26.5545 11.4587V15.5312H25.4555C25.2258 13.8362 23.7701 12.5252 22.0131 12.5252C20.7307 12.5252 19.6091 13.224 19.0071 14.2604C18.405 13.2241 17.2835 12.5252 16.001 12.5252C14.244 12.5252 12.7885 13.8362 12.5587 15.5312H11.492C11.2331 15.5312 11.0232 15.7411 11.0232 16C11.0232 16.5703 10.5593 17.0343 9.98895 17.0343C9.41864 17.0343 8.9547 16.5703 8.9547 16C8.9547 15.7411 8.74483 15.5312 8.48595 15.5312H5.44758V11.4587H26.5545ZM19.007 17.7396C19.1792 18.036 19.3936 18.3046 19.6425 18.5373H18.3716C18.6204 18.3046 18.8349 18.036 19.007 17.7396ZM16.001 18.5373C14.6019 18.5373 13.4636 17.3991 13.4636 16C13.4636 14.6009 14.6018 13.4627 16.001 13.4627C17.4001 13.4627 18.5383 14.6009 18.5383 16C18.5383 17.3991 17.4 18.5373 16.001 18.5373ZM19.4758 16C19.4758 14.6009 20.614 13.4627 22.0131 13.4627C23.4122 13.4627 24.5504 14.6009 24.5504 16C24.5504 17.3991 23.4121 18.5373 22.0131 18.5373C20.6141 18.5373 19.4758 17.3991 19.4758 16ZM25.4554 16.4688H26.5544V18.5373H24.3836C24.9545 18.0036 25.3454 17.2804 25.4554 16.4688ZM8.07352 16.4688C8.28439 17.3305 9.0632 17.9718 9.98895 17.9718C10.9147 17.9718 11.6935 17.3304 11.9044 16.4688H12.5587C12.6687 17.2804 13.0596 18.0036 13.6305 18.5373H5.44758V16.4688H8.07352ZM5.44758 26.5534V24.4849H6.54658C6.65658 25.2965 7.04745 26.0197 7.61833 26.5534H5.44758ZM9.98889 26.5534C8.59008 26.5534 7.45202 25.4157 7.45158 24.0169C7.45158 24.0167 7.45164 24.0164 7.45164 24.0161C7.45164 24.0159 7.45158 24.0156 7.45158 24.0153C7.45202 22.6166 8.59008 21.4788 9.98889 21.4788C11.388 21.4788 12.5262 22.6171 12.5262 24.0161C12.5262 25.4152 11.388 26.5534 9.98889 26.5534ZM12.3594 26.5535V26.5534C12.9303 26.0198 13.3211 25.2965 13.4311 24.4849H14.085C14.1693 24.8324 14.3474 25.1511 14.6067 25.4104C14.9791 25.7828 15.4743 25.9879 16.001 25.9879C16.9267 25.9879 17.7055 25.3466 17.9164 24.4849H20.0971C20.1814 24.8324 20.3596 25.1511 20.6188 25.4104C20.9912 25.7829 21.4863 25.988 22.0131 25.988C22.5398 25.988 23.035 25.7829 23.4073 25.4104C23.6666 25.1512 23.8447 24.8324 23.929 24.4849H26.5545V26.5535H12.3594ZM29.5605 29.996V31.0625H26.49V29.996H29.5605ZM27.492 29.0585V2.9415H28.5585V29.0585H27.492V29.0585ZM25.52 2.004C25.2611 2.004 25.0513 2.21387 25.0513 2.47275C25.0513 2.73162 25.2611 2.9415 25.52 2.9415H26.5545V7.51506H23.5161C23.2573 7.51506 23.0474 7.72494 23.0474 7.98381C23.0474 8.55412 22.5835 9.01812 22.0131 9.01812C21.4428 9.01812 20.9789 8.55412 20.9789 7.98381C20.9789 7.72494 20.769 7.51506 20.5101 7.51506H19.4434C19.2137 5.82006 17.7581 4.509 16.0011 4.509C14.7186 4.509 13.5971 5.20781 12.995 6.24419C12.393 5.20787 11.2714 4.509 9.98895 4.509C8.23195 4.509 6.77633 5.82006 6.54664 7.51506H5.44758V2.9415H23.5162C23.7751 2.9415 23.985 2.73162 23.985 2.47275C23.985 2.21387 23.7751 2.004 23.5162 2.004H2.44145V0.9375H29.5604V2.004H25.52Z" fill="#252525"/>
<path d="M9.98833 6.51318C9.17733 6.51318 8.51758 7.173 8.51758 7.98393C8.51758 8.79493 9.17739 9.45475 9.98833 9.45475C10.7993 9.45475 11.4591 8.79493 11.4591 7.98393C11.4591 7.173 10.7993 6.51318 9.98833 6.51318ZM9.98833 8.51725C9.69427 8.51725 9.45508 8.278 9.45508 7.98393C9.45508 7.68987 9.69433 7.45068 9.98833 7.45068C10.2823 7.45068 10.5216 7.68993 10.5216 7.98393C10.5216 8.27806 10.2823 8.51725 9.98833 8.51725Z" fill="#252525"/>
<path d="M16 6.51318C15.189 6.51318 14.5293 7.173 14.5293 7.98393C14.5293 8.79493 15.1891 9.45475 16 9.45475C16.811 9.45475 17.4708 8.79493 17.4708 7.98393C17.4709 7.173 16.8111 6.51318 16 6.51318ZM16 8.51725C15.706 8.51725 15.4668 8.278 15.4668 7.98393C15.4668 7.68987 15.706 7.45068 16 7.45068C16.294 7.45068 16.5333 7.68993 16.5333 7.98393C16.5334 8.27806 16.2942 8.51725 16 8.51725Z" fill="#252525"/>
<path d="M16 14.5293C15.189 14.5293 14.5293 15.1891 14.5293 16C14.5293 16.811 15.1891 17.4708 16 17.4708C16.811 17.4708 17.4708 16.811 17.4708 16C17.4709 15.1891 16.8111 14.5293 16 14.5293ZM16 16.5333C15.706 16.5333 15.4668 16.294 15.4668 16C15.4668 15.706 15.706 15.4668 16 15.4668C16.294 15.4668 16.5333 15.706 16.5333 16C16.5333 16.294 16.2942 16.5333 16 16.5333Z" fill="#252525"/>
<path d="M22.0118 14.5293C21.2008 14.5293 20.541 15.1891 20.541 16C20.541 16.811 21.2008 17.4708 22.0118 17.4708C22.8227 17.4708 23.4825 16.811 23.4825 16C23.4826 15.1891 22.8228 14.5293 22.0118 14.5293ZM22.0118 16.5333C21.7177 16.5333 21.4785 16.294 21.4785 16C21.4785 15.706 21.7178 15.4668 22.0118 15.4668C22.3058 15.4668 22.545 15.706 22.545 16C22.545 16.294 22.3058 16.5333 22.0118 16.5333Z" fill="#252525"/>
<path d="M9.98833 22.5454C9.17733 22.5454 8.51758 23.2052 8.51758 24.0162C8.51758 24.8272 9.17739 25.487 9.98833 25.487C10.7993 25.487 11.4591 24.8272 11.4591 24.0162C11.4591 23.2052 10.7993 22.5454 9.98833 22.5454ZM9.98833 24.5495C9.69427 24.5495 9.45508 24.3102 9.45508 24.0162C9.45508 23.7222 9.69433 23.4829 9.98833 23.4829C10.2823 23.4829 10.5216 23.7222 10.5216 24.0162C10.5216 24.3102 10.2823 24.5495 9.98833 24.5495Z" fill="#252525"/>
</g>
<defs>
<clipPath id="clip0_1194_39291">
<rect width="32" height="32" fill="white"/>
</clipPath>
</defs>
</svg>
