<svg width="30" height="32" viewBox="0 0 30 32" fill="none" xmlns="http://www.w3.org/2000/svg">
<path d="M13.8901 0H1.69922C1.09616 0 0.605469 0.490687 0.605469 1.09375V20.6142C0.605469 20.8731 0.815281 21.0829 1.07422 21.0829C1.33316 21.0829 1.54297 20.8731 1.54297 20.6142V19.2594L7.77316 18.5387C7.84009 18.7294 7.91416 18.9176 7.99609 19.1023L1.54297 24.7299V22.8264C1.54297 22.5676 1.33316 22.3577 1.07422 22.3577C0.815281 22.3577 0.605469 22.5676 0.605469 22.8264V30.9062C0.605469 31.5093 1.09616 32 1.69922 32H13.8901C14.4932 32 14.9838 31.5093 14.9838 30.9062V1.09375C14.9838 0.490687 14.4932 0 13.8901 0ZM3.47616 31.0625L10.945 22.4979C11.229 22.6754 11.524 22.8336 11.8283 22.9721L11.2752 31.0625H3.47616ZM8.27853 16C8.27853 12.6186 10.7365 9.81194 14.0463 9.34669V22.6533C10.7363 22.1881 8.27853 19.382 8.27853 16ZM1.54297 7.27012L7.99609 12.8977C7.91422 13.0824 7.84009 13.2706 7.77316 13.4613L1.54297 12.7406V7.27012ZM11.2752 0.9375L11.8283 9.02794C11.5241 9.16638 11.229 9.32463 10.9451 9.50212L3.47616 0.9375H11.2752ZM14.0463 1.09375V8.40156C13.6023 8.45669 13.1668 8.55019 12.7443 8.68013L12.2148 0.9375H13.8901C13.9763 0.9375 14.0463 1.00762 14.0463 1.09375ZM1.69922 0.9375H2.23359C2.23759 0.9425 2.24122 0.94775 2.24547 0.952625L10.1787 10.0498C9.88509 10.288 9.60728 10.5487 9.34847 10.8316C9.00428 11.2076 8.70172 11.6136 8.44222 12.0429L1.54297 6.02619V1.09375C1.54297 1.00762 1.61303 0.9375 1.69922 0.9375ZM1.54297 18.3158V13.6843L7.51478 14.3751C7.40022 14.9046 7.34103 15.4488 7.34103 16C7.34103 16.5512 7.40016 17.0955 7.51472 17.6249L1.54297 18.3158ZM1.54297 30.9062V25.9738L8.44222 19.9572C8.70197 20.3869 9.00503 20.7934 9.34966 21.1698C9.60809 21.4521 9.88553 21.7124 10.1787 21.9503L2.23597 31.0583C2.23478 31.0597 2.23384 31.0611 2.23266 31.0625H1.69922C1.61303 31.0625 1.54297 30.9924 1.54297 30.9062ZM13.8901 31.0625H12.2148L12.7442 23.3199C13.1668 23.4499 13.6023 23.5433 14.0463 23.5985V30.9062C14.0463 30.9924 13.9763 31.0625 13.8901 31.0625Z" fill="#252525"/>
<path d="M28.3003 0H17.3145C16.7114 0 16.2207 0.490687 16.2207 1.09375V12.1525C16.2207 12.7556 16.7114 13.2463 17.3145 13.2463H23.9642C24.2231 13.2463 24.433 13.0364 24.433 12.7775C24.433 12.5186 24.2231 12.3088 23.9642 12.3088H21.7101C20.7357 10.5405 19.089 9.21788 17.1582 8.65144V1.09375C17.1582 1.00762 17.2283 0.9375 17.3145 0.9375H28.3003C28.3865 0.9375 28.4566 1.00762 28.4566 1.09375V12.1525C28.4566 12.2386 28.3865 12.3088 28.3003 12.3088H26.1764C25.9175 12.3088 25.7076 12.5186 25.7076 12.7775C25.7076 13.0364 25.9175 13.2463 26.1764 13.2463H28.3003C28.9034 13.2463 29.3941 12.7556 29.3941 12.1525V1.09375C29.3941 0.490687 28.9034 0 28.3003 0ZM20.6159 12.3088H17.3145C17.2283 12.3088 17.1582 12.2386 17.1582 12.1525V9.63469C18.5719 10.1144 19.7937 11.061 20.6159 12.3088Z" fill="#252525"/>
<path d="M28.3003 14.6118H17.3145C16.7114 14.6118 16.2207 15.1025 16.2207 15.7056V30.9062C16.2207 31.5093 16.7114 31.9999 17.3145 31.9999H28.3003C28.9034 31.9999 29.3941 31.5093 29.3941 30.9062V15.7056C29.3941 15.1025 28.9034 14.6118 28.3003 14.6118ZM28.4566 30.9062C28.4566 30.9923 28.3865 31.0624 28.3003 31.0624H17.3145C17.2283 31.0624 17.1582 30.9923 17.1582 30.9062V23.3476C18.2301 23.0327 19.2368 22.4759 20.0783 21.7299C20.2721 21.5582 20.29 21.2619 20.1182 21.0683C19.9465 20.8746 19.6501 20.8567 19.4565 21.0284C18.7873 21.6216 17.9995 22.0785 17.1583 22.3646V15.7056C17.1583 15.6194 17.2283 15.5493 17.3145 15.5493H21.7058C21.7158 15.6997 21.7211 15.8506 21.7211 15.9999C21.7211 17.2074 21.3959 18.3926 20.7807 19.4273C20.6484 19.6498 20.7215 19.9374 20.944 20.0698C21.0191 20.1144 21.1016 20.1356 21.1831 20.1356C21.343 20.1356 21.4988 20.0538 21.5865 19.9064C22.2878 18.7268 22.6585 17.376 22.6585 15.9999C22.6585 15.8506 22.6536 15.6998 22.6448 15.5493H28.3004C28.3866 15.5493 28.4566 15.6194 28.4566 15.7056V30.9062H28.4566Z" fill="#252525"/>
</svg>
