<?xml version="1.0" encoding="UTF-8" standalone="no"?>
<svg
   xmlns:dc="http://purl.org/dc/elements/1.1/"
   xmlns:cc="http://creativecommons.org/ns#"
   xmlns:rdf="http://www.w3.org/1999/02/22-rdf-syntax-ns#"
   xmlns:svg="http://www.w3.org/2000/svg"
   xmlns="http://www.w3.org/2000/svg"
   version="1.1"
   id="svg2"
   xml:space="preserve"
   width="15"
   height="15"
   viewBox="0 0 38.385414 42.666668"><metadata
     id="metadata8"><rdf:RDF><cc:Work
         rdf:about=""><dc:format>image/svg+xml</dc:format><dc:type
           rdf:resource="http://purl.org/dc/dcmitype/StillImage" /></cc:Work></rdf:RDF></metadata><defs
     id="defs6" /><g
     id="g10"
     transform="matrix(1.3333333,0,0,-1.3333333,0,42.666667)"><g
       id="g12"><path
         d="M 13.284625,32 H 1.09375 C 0.490687,32 0,31.509312 0,30.90625 V 11.385813 c 0,-0.258875 0.209812,-0.46875 0.46875,-0.46875 0.258937,0 0.46875,0.209875 0.46875,0.46875 v 1.354749 L 7.167687,13.46125 C 7.234625,13.270563 7.308688,13.082438 7.390625,12.897688 L 0.9375,7.270124 v 1.903439 c 0,0.258875 -0.209813,0.46875 -0.46875,0.46875 C 0.209812,9.642313 0,9.432438 0,9.173563 V 1.09375 C 0,0.490688 0.490687,0 1.09375,0 h 12.190875 c 0.603063,0 1.09375,0.490688 1.09375,1.09375 v 29.8125 C 14.378375,31.509312 13.887688,32 13.284625,32 Z M 2.870687,0.9375 10.339562,9.502125 C 10.6235,9.324625 10.918563,9.166374 11.222813,9.027937 L 10.669687,0.9375 Z M 7.673062,16 c 0,3.381374 2.458,6.188063 5.76775,6.653313 V 9.346687 C 10.130875,9.811874 7.673062,12.618 7.673062,16 Z M 0.9375,24.729876 7.390625,19.102312 C 7.30875,18.917562 7.234625,18.729437 7.167687,18.53875 L 0.9375,19.259438 Z m 9.732187,6.332624 0.553188,-8.090439 c -0.30425,-0.138435 -0.599313,-0.296686 -0.883251,-0.474186 L 2.870687,31.0625 Z m 2.771188,-0.15625 v -7.307812 c -0.444,-0.05513 -0.8795,-0.148626 -1.302063,-0.278564 L 11.609375,31.0625 h 1.67525 c 0.08619,0 0.15625,-0.07013 0.15625,-0.15625 z M 1.09375,31.0625 h 0.534375 c 0.004,-0.005 0.00762,-0.01025 0.011875,-0.01513 L 9.57325,21.950249 C 9.279625,21.712 9.001813,21.45125 8.743,21.168438 8.398812,20.792376 8.09625,20.386375 7.83675,19.957125 L 0.9375,25.973812 v 4.932438 c 0,0.08612 0.070062,0.15625 0.15625,0.15625 z M 0.9375,13.68425 v 4.631437 l 5.971812,-0.69075 C 6.79475,17.095436 6.735562,16.551188 6.735562,16 c 0,-0.551188 0.059126,-1.095499 0.173688,-1.624937 z m 0,-12.5905 v 4.932438 l 6.89925,6.016624 C 8.0965,11.613125 8.399563,11.206625 8.744187,10.830187 9.002625,10.547937 9.280063,10.287563 9.57325,10.049688 L 1.6305,0.941687 C 1.629313,0.940311 1.628375,0.938875 1.627187,0.9375 H 1.09375 C 1.007562,0.9375 0.9375,1.007626 0.9375,1.09375 Z M 13.284625,0.9375 h -1.67525 L 12.13875,8.680063 C 12.561375,8.550125 12.996813,8.456688 13.440875,8.401501 V 1.09375 c 0,-0.086124 -0.07006,-0.15625 -0.15625,-0.15625 z"
         style="fill:#252525;fill-opacity:1;fill-rule:nonzero;stroke:none"
         id="path14" /></g><g
       id="g16"
       transform="translate(15.615234,18.753906)"><path
         d="M 12.079624,13.246094 H 1.09375 C 0.490687,13.246094 0,12.755406 0,12.152344 V 1.093594 C 0,0.490531 0.490687,-1.56e-4 1.09375,-1.56e-4 H 7.7435 c 0.258938,0 0.46875,0.209875 0.46875,0.46875 0,0.258874 -0.209812,0.46875 -0.46875,0.46875 H 5.489374 C 4.514999,2.705593 2.86825,4.028218 0.9375,4.594656 v 7.557688 c 0,0.08613 0.070063,0.15625 0.15625,0.15625 h 10.985874 c 0.08619,0 0.15625,-0.07012 0.15625,-0.15625 V 1.093594 c 0,-0.086126 -0.07006,-0.15625 -0.15625,-0.15625 H 9.955687 c -0.258938,0 -0.46875,-0.209876 -0.46875,-0.46875 0,-0.258875 0.209812,-0.46875 0.46875,-0.46875 h 2.123937 c 0.603063,0 1.09375,0.490687 1.09375,1.09375 v 11.05875 c 0,0.603062 -0.490687,1.09375 -1.09375,1.09375 z M 4.395187,0.937344 H 1.09375 c -0.086187,0 -0.15625,0.070124 -0.15625,0.15625 V 3.611406 C 2.351187,3.131719 3.573,2.185094 4.395187,0.937344 Z"
         style="fill:#252525;fill-opacity:1;fill-rule:nonzero;stroke:none"
         id="path18" /></g><g
       id="g20"
       transform="translate(15.615234)"><path
         d="M 12.079624,17.387695 H 1.09375 C 0.490687,17.387695 0,16.897007 0,16.293945 V 1.093319 C 0,0.490257 0.490687,-4.31e-4 1.09375,-4.31e-4 h 10.985874 c 0.603063,0 1.09375,0.490688 1.09375,1.09375 v 15.200626 c 0,0.603062 -0.490687,1.09375 -1.09375,1.09375 z m 0.15625,-16.294376 c 0,-0.086124 -0.07006,-0.15625 -0.15625,-0.15625 H 1.09375 c -0.086187,0 -0.15625,0.070126 -0.15625,0.15625 v 7.558564 c 1.071938,0.314938 2.078624,0.87175 2.920124,1.617687 0.19375,0.17175 0.211625,0.468001 0.039875,0.661688 C 3.725749,11.124946 3.429436,11.14282 3.235811,10.97107 2.566624,10.377883 1.778749,9.921008 0.937561,9.634883 v 6.659062 c 0,0.08612 0.070063,0.15625 0.15625,0.15625 h 4.391314 c 0.00994,-0.150375 0.015249,-0.301313 0.015249,-0.450625 0,-1.2075 -0.325187,-2.392625 -0.940375,-3.427313 -0.132312,-0.222562 -0.059186,-0.510188 0.163313,-0.6425 0.075126,-0.04462 0.157625,-0.06587 0.239125,-0.06587 0.159875,0 0.315687,0.08188 0.403312,0.22925 0.701375,1.179563 1.072062,2.530374 1.072062,3.906437 0,0.149375 -0.00494,0.300126 -0.013687,0.450625 h 5.655563 c 0.08619,0 0.15625,-0.07013 0.15625,-0.15625 V 1.093323 h -6.3e-5 z"
         style="fill:#252525;fill-opacity:1;fill-rule:nonzero;stroke:none"
         id="path22" /></g></g></svg>
