<?xml version="1.0" encoding="UTF-8" standalone="no"?>
<svg
   xmlns:dc="http://purl.org/dc/elements/1.1/"
   xmlns:cc="http://creativecommons.org/ns#"
   xmlns:rdf="http://www.w3.org/1999/02/22-rdf-syntax-ns#"
   xmlns:svg="http://www.w3.org/2000/svg"
   xmlns="http://www.w3.org/2000/svg"
   version="1.1"
   id="svg2"
   xml:space="preserve"
   width="40"
   height="40"
   viewBox="0 0 42.5 42.505859"><metadata
     id="metadata8"><rdf:RDF><cc:Work
         rdf:about=""><dc:format>image/svg+xml</dc:format><dc:type
           rdf:resource="http://purl.org/dc/dcmitype/StillImage" /></cc:Work></rdf:RDF></metadata><defs
     id="defs6" /><g
     id="g10"
     transform="matrix(1.3333333,0,0,-1.3333333,0,42.50586)"><g
       id="g12"
       transform="translate(20,26.3125)"><path
         d="M 0.75,0 C 1.164214,0 1.5,0.335786 1.5,0.75 1.5,1.164214 1.164214,1.5 0.75,1.5 0.335786,1.5 0,1.164214 0,0.75 0,0.335786 0.335786,0 0.75,0 Z"
         style="fill:#252525;fill-opacity:1;fill-rule:nonzero;stroke:none"
         id="path14" /></g><g
       id="g16"
       transform="translate(0,-0.044434)"><path
         d="m 31.434702,27.396606 c -0.283264,0.282715 -0.659424,0.438263 -1.059509,0.438263 -10e-4,0 -0.0021,0 -0.0032,0 l -5.302185,-0.01093 -1.125735,1.442566 c -1.318298,1.689362 -3.30194,2.657318 -5.444397,2.657318 -0.0046,0 -0.15393,-2.75e-4 -0.15393,-2.75e-4 -0.742249,-0.0014 -1.458222,-0.116432 -2.132523,-0.326961 -0.03333,0.001 -0.06659,0.0024 -0.100082,0.0024 -0.845459,0 -1.640319,-0.329255 -2.238158,-0.927094 L 6.686286,23.483215 C 5.522162,22.319092 5.289618,20.51355 6.120857,19.092438 6.248313,18.874504 6.39756,18.672977 6.564292,18.488846 6.024017,17.855232 5.502875,17.203915 5.005317,16.533112 3.075873,13.931946 1.405036,10.967804 0.039313,7.722992 -0.067865,7.468475 0.051642,7.175323 0.306159,7.068176 0.369513,7.041504 0.435248,7.0289 0.499884,7.0289 c 0.195191,0 0.380616,0.11499 0.46106,0.306152 1.334778,3.171113 2.965698,6.065369 4.847534,8.602295 0.4861,0.655327 0.995217,1.291577 1.523133,1.910386 0.257424,-0.160344 0.535584,-0.289734 0.830201,-0.382309 0.522461,-0.164216 1.056763,-0.243531 1.585327,-0.243531 1.625122,0 3.195802,0.749756 4.200868,2.086426 1.274841,1.695435 2.222411,3.464447 2.816466,5.257904 0.08685,0.262146 -0.05524,0.545044 -0.317383,0.631867 -0.262207,0.08682 -0.545043,-0.0553 -0.631835,-0.317414 C 15.25538,23.19043 14.358224,21.517822 13.14869,19.909302 12.070931,18.4758 10.187508,17.876984 8.461617,18.419403 7.838509,18.615234 7.313789,19.033539 6.984016,19.597321 6.38227,20.62616 6.550605,21.933319 7.39344,22.776123 l 7.188722,7.188721 c 0.408935,0.408966 0.952697,0.634186 1.531005,0.634186 0.578369,0 1.122131,-0.22522 1.531067,-0.634186 0.195251,-0.195313 0.511779,-0.195313 0.707153,0 0.195251,0.195251 0.195251,0.511841 0,0.707092 -0.08781,0.08782 -0.180359,0.169098 -0.276215,0.245132 0.09035,0.0041 0.181183,0.0063 0.272492,0.0065 0,0 0.14801,2.75e-4 0.152038,2.75e-4 1.832093,0 3.528687,-0.827881 4.656067,-2.272552 l 1.276247,-1.635468 c 0.09473,-0.121429 0.240174,-0.192383 0.394165,-0.192383 h 0.001 l 2.383179,0.0049 v -0.540317 c 0,-0.549713 0.352539,-1.029175 0.877197,-1.193115 l 2.787537,-0.871052 v -0.58955 c 0,-0.745209 -0.534546,-1.368652 -1.271058,-1.482422 L 21.486275,20.89798 c -0.04424,-0.0068 -0.08637,-0.02105 -0.126709,-0.03906 -1.132111,0.01974 -2.124771,0.467442 -3.116577,1.40707 -0.20044,0.18982 -0.516846,0.181427 -0.706849,-0.0191 -0.189941,-0.20047 -0.181335,-0.516937 0.0191,-0.706848 0.932007,-0.882992 1.909745,-1.410557 2.966797,-1.60088 -0.419922,-0.55207 -0.822143,-1.182155 -1.210724,-1.896755 l 0.02255,0.50734 c 0.01459,0.328582 -0.166931,0.634246 -0.462463,0.778717 -0.295472,0.144439 -0.648194,0.09991 -0.898621,-0.113404 L 16.7649,18.185608 C 14.55854,16.305145 12.80433,13.896088 11.692024,11.218933 10.57972,8.541779 10.110298,5.598938 10.334541,2.708527 l 0.02899,-0.373536 c 0.04407,-0.56845 0.01032,-1.137939 -0.100342,-1.692657 -0.05402,-0.270813 0.121765,-0.534119 0.392517,-0.588135 0.271057,-0.054016 0.53418,0.121643 0.588196,0.392517 0.12854,0.644532 0.167786,1.305878 0.116577,1.965638 l -0.02899,0.373535 c -0.212037,2.733795 0.231933,5.517212 1.283997,8.049347 1.052063,2.532165 2.711181,4.810669 4.798095,6.589264 l 0.903503,0.77005 -0.121765,-2.738648 c -0.0019,-0.04234 -6.1e-4,-0.08411 0.0023,-0.125492 -3.97e-4,-0.002 -0.0011,-0.0039 -0.0014,-0.006 -0.06692,-0.355945 -0.172638,-0.655006 -0.31839,-0.902198 l -0.622422,-0.62241 c -0.230438,-0.1315 -0.501815,-0.216698 -0.817428,-0.257496 -0.273865,-0.0354 -0.467163,-0.286102 -0.431763,-0.559967 0.03259,-0.252136 0.24762,-0.435974 0.495239,-0.435974 0.02136,0 0.04297,0.0014 0.0647,0.0042 1.16156,0.15015 1.97641,0.772541 2.391952,1.814521 0.08272,-0.02661 0.169235,-0.04477 0.259354,-0.0507 0.574646,-0.03772 1.49884,-0.09949 2.420227,-0.161316 1.477051,-0.09909 2.68799,-1.23642 2.879457,-2.704284 l 0.148194,-1.136353 c 0.06879,-0.52655 0.503601,-0.927338 1.033935,-0.952942 L 26.95582,9.298706 C 27.291941,9.282471 27.596506,9.115784 27.791391,8.841431 27.986277,8.567078 28.043406,8.224579 27.948069,7.901794 L 27.3827,5.987915 C 27.166147,5.255035 26.535288,4.729095 25.775461,4.648071 L 21.798286,4.223846 C 21.23188,4.163422 20.73719,3.825317 20.474861,3.319427 20.213387,2.815033 20.221992,2.217834 20.498116,1.721741 c 0.03632,-0.065155 0.07202,-0.130371 0.107299,-0.19571 0.205506,-0.380737 0.398072,-0.777801 0.572388,-1.180236 0.08173,-0.18866 0.265747,-0.301392 0.459045,-0.301392 0.06635,0 0.13379,0.013275 0.198487,0.041321 0.253418,0.109741 0.369812,0.404144 0.260071,0.657532 -0.185669,0.42868 -0.390931,0.851837 -0.609986,1.257721 -0.03735,0.069274 -0.07526,0.138458 -0.113647,0.207336 -0.114014,0.204864 -0.11731,0.442078 -0.0091,0.650848 0.109008,0.210236 0.306457,0.345215 0.541687,0.370301 l 3.977174,0.424225 c 1.163025,0.124053 2.128723,0.929077 2.460144,2.050872 l 0.565369,1.913971 c 0.182861,0.619019 0.07336,1.275818 -0.300415,1.802033 -0.373779,0.526153 -0.957886,0.845825 -1.602478,0.876983 l -1.256592,0.06079 c -0.04651,0.0022 -0.0846,0.03738 -0.09064,0.0835 l -0.148193,1.136292 c -0.252869,1.93924 -1.852725,3.441772 -3.804079,3.572693 -0.921937,0.06189 -1.846619,0.123657 -2.421631,0.161438 -0.05206,0.0034 -0.091,0.04697 -0.08868,0.09918 l 0.0088,0.199047 c 0.05194,0.04662 0.0952,0.104519 0.124756,0.172749 0.776977,1.793365 1.591064,3.154297 2.485168,4.153381 l 7.943666,1.22699 c 1.227417,0.189605 2.118348,1.228698 2.118348,2.470703 v 2.700561 c 0,0.401246 -0.156433,0.778321 -0.44043,1.061737 v 0 z m -3.048889,-1.347229 c -0.10492,0.03281 -0.175415,0.128693 -0.175415,0.238648 v 0.542381 l 2.163696,0.0045 h 0.001 c 0.133361,0 0.258789,-0.05185 0.35321,-0.146087 0.09467,-0.09448 0.14679,-0.220154 0.14679,-0.353913 v -1.063358 l -2.489319,0.777866 z"
         style="fill:#252525;fill-opacity:1;fill-rule:nonzero;stroke:none"
         id="path18" /></g><g
       id="g20"
       transform="translate(20.625,10)"><path
         d="M 0.75,0 C 1.164214,0 1.5,0.335786 1.5,0.75 1.5,1.164214 1.164214,1.5 0.75,1.5 0.335786,1.5 0,1.164214 0,0.75 0,0.335786 0.335786,0 0.75,0 Z"
         style="fill:#252525;fill-opacity:1;fill-rule:nonzero;stroke:none"
         id="path22" /></g></g></svg>
