<?xml version="1.0" encoding="UTF-8" standalone="no"?>
<svg
   xmlns:dc="http://purl.org/dc/elements/1.1/"
   xmlns:cc="http://creativecommons.org/ns#"
   xmlns:rdf="http://www.w3.org/1999/02/22-rdf-syntax-ns#"
   xmlns:svg="http://www.w3.org/2000/svg"
   xmlns="http://www.w3.org/2000/svg"
   version="1.1"
   id="svg2"
   xml:space="preserve"
   width="40"
   height="40"
   viewBox="0 0 42.666668 21.958332"><metadata
     id="metadata8"><rdf:RDF><cc:Work
         rdf:about=""><dc:format>image/svg+xml</dc:format><dc:type
           rdf:resource="http://purl.org/dc/dcmitype/StillImage" /></cc:Work></rdf:RDF></metadata><defs
     id="defs6" /><g
     id="g10"
     transform="matrix(1.3333333,0,0,-1.3333333,0,21.958333)"><g
       id="g12"><path
         d="m 27.379349,8.018687 c 0.482687,-0.323313 1.054687,-0.5035 1.646812,-0.5035 1.63975,0 2.973812,1.334062 2.973812,2.973812 V 11.491 c 0,1.639751 -1.334062,2.973812 -2.973812,2.973812 -0.406313,0 -0.802938,-0.0845 -1.16975,-0.243812 l 0.05112,0.66425 c 0.03131,0.407126 -0.109812,0.8125 -0.387312,1.112063 -0.277438,0.299625 -0.67075,0.471437 -1.079125,0.471437 H 14.576968 c -0.408375,0 -0.801687,-0.171875 -1.079187,-0.471437 -0.277438,-0.299563 -0.418625,-0.704937 -0.387312,-1.112063 l 0.325186,-4.2275 c -0.702375,0.19725 -1.444124,0.299936 -2.192937,0.299936 h -0.02525 c -1.168,0 -2.319374,-0.24856 -3.329749,-0.718874 C 7.546599,10.08 7.320224,9.761749 7.274224,9.402812 5.421287,9.032562 4.136099,8.137062 3.520911,7.620437 3.102349,7.268937 3.014786,6.661687 3.317286,6.208062 L 3.434911,6.031625 2.166411,4.581874 C 1.880786,4.255436 1.676599,3.867126 1.564411,3.442563 H 0.468724 C 0.313161,3.442563 0.167786,3.365438 0.080599,3.236625 -0.006651,3.107812 -0.024214,2.944188 0.033536,2.79975 L 0.657599,1.239562 C 0.958786,0.486625 1.677411,6.1e-5 2.488349,6.1e-5 h 27.02325 c 0.810937,0 1.529562,0.486501 1.830749,1.239501 l 0.624064,1.560188 c 0.05775,0.144438 0.04019,0.308125 -0.04706,0.436875 -0.08719,0.128813 -0.232624,0.205938 -0.388125,0.205938 h -4.932811 c 0.299375,0.375063 0.493373,0.838375 0.532436,1.345625 l 0.248501,3.230499 z m 0.389686,5.065937 c 0.360438,0.286375 0.800627,0.442625 1.257126,0.442625 1.122812,0 2.036312,-0.913499 2.036312,-2.036312 v -1.002001 c 0,-1.122812 -0.9135,-2.036312 -2.036312,-2.036312 -0.60025,0 -1.170812,0.271688 -1.557062,0.733 z M 4.123849,6.902562 c 0.53375,0.44825 1.637312,1.218688 3.230312,1.559813 L 7.373036,8.305249 C 7.403849,8.048186 7.637349,7.865063 7.894286,7.895688 8.151349,7.926563 8.334661,8.159938 8.303848,8.416938 L 8.203786,9.250499 c -0.00687,0.057375 0.025062,0.113002 0.079562,0.138376 0.887313,0.413 1.901875,0.631311 2.934125,0.631311 h 0.02525 c 1.032251,0 2.046813,-0.218311 2.934062,-0.631311 0.0545,-0.025374 0.0865,-0.080937 0.07956,-0.1385 L 13.559536,3.4425 H 8.900723 L 8.551474,6.353436 C 8.520598,6.610436 8.287473,6.79375 8.030223,6.763 7.773223,6.732124 7.589849,6.49875 7.620661,6.24175 L 7.956536,3.4425 H 6.287786 L 4.097474,6.728063 C 4.059724,6.784688 4.070849,6.858062 4.123849,6.902562 Z M 2.872036,3.964625 3.973724,5.223687 5.161099,3.442624 H 2.551974 C 2.630161,3.633999 2.737036,3.810375 2.872036,3.964625 Z M 26.97291,14.957062 26.196098,4.860126 C 26.134911,4.06525 25.462536,3.442563 24.665348,3.442563 h -0.148125 c -0.258875,0 -0.46875,-0.209875 -0.46875,-0.46875 0,-0.258875 0.209875,-0.46875 0.46875,-0.46875 h 6.321625 L 30.47191,1.587687 C 30.31391,1.19275 29.936974,0.937499 29.511599,0.937499 H 2.488349 c -0.425375,0 -0.802313,0.255188 -0.960313,0.650188 L 1.161099,2.505063 h 21.351938 c 0.258875,0 0.46875,0.209875 0.46875,0.46875 0,0.258875 -0.209875,0.46875 -0.46875,0.46875 h -1.617188 c -0.112125,0.424563 -0.316376,0.812936 -0.602001,1.139374 l -1.268499,1.449688 0.117624,0.176437 c 0.302437,0.453688 0.214876,1.060875 -0.203625,1.412438 -0.615125,0.516562 -1.900375,1.412062 -3.753312,1.782312 -0.046,0.358937 -0.272376,0.677188 -0.6135,0.836 -0.05625,0.02619 -0.113063,0.05144 -0.170125,0.07619 l -0.357063,4.642062 c -0.01156,0.14975 0.03831,0.293001 0.140438,0.40325 0.102125,0.11025 0.241061,0.170938 0.391312,0.170938 h 11.864125 c 0.15025,0 0.289189,-0.06069 0.391251,-0.170938 0.102062,-0.110249 0.151935,-0.253438 0.140436,-0.40325 z M 18.362911,6.728126 16.172535,3.442563 h -1.668749 l 0.60225,5.019812 c 1.593063,-0.341125 2.696624,-1.111562 3.230375,-1.55975 0.05306,-0.044562 0.06419,-0.117937 0.0265,-0.174499 z M 18.48666,5.223624 19.588285,3.964625 c 0.134938,-0.15425 0.241812,-0.330624 0.320063,-0.522062 h -2.609062 z"
         style="fill:#252525;fill-opacity:1;fill-rule:nonzero;stroke:none"
         id="path14" /></g></g></svg>
