<?xml version="1.0" encoding="UTF-8" standalone="no"?>
<svg
   xmlns:dc="http://purl.org/dc/elements/1.1/"
   xmlns:cc="http://creativecommons.org/ns#"
   xmlns:rdf="http://www.w3.org/1999/02/22-rdf-syntax-ns#"
   xmlns:svg="http://www.w3.org/2000/svg"
   xmlns="http://www.w3.org/2000/svg"
   version="1.1"
   id="svg2"
   xml:space="preserve"
   width="40"
   height="40"
   viewBox="0 0 42.666668 37.489586"><metadata
     id="metadata8"><rdf:RDF><cc:Work
         rdf:about=""><dc:format>image/svg+xml</dc:format><dc:type
           rdf:resource="http://purl.org/dc/dcmitype/StillImage" /></cc:Work></rdf:RDF></metadata><defs
     id="defs6" /><g
     id="g10"
     transform="matrix(1.3333333,0,0,-1.3333333,0,37.489584)"><g
       id="g12"><path
         d="m 31.53125,2.879391 h -1.4725 V 7.21314 c 0,0.258937 -0.209812,0.46875 -0.46875,0.46875 -0.258938,0 -0.46875,-0.209813 -0.46875,-0.46875 V 2.879391 h -2.945625 v 14.593124 h 2.945688 v -8.21625 c 0,-0.258938 0.209812,-0.46875 0.46875,-0.46875 0.258938,0 0.46875,0.209812 0.46875,0.46875 v 8.21625 h 0.501812 c 0.258938,0 0.46875,0.209812 0.46875,0.46875 v 1.941876 c 0,0.258937 -0.209812,0.46875 -0.46875,0.46875 h -5.84 c -0.258938,0 -0.46875,-0.209813 -0.46875,-0.46875 0,-0.258938 0.209812,-0.46875 0.46875,-0.46875 h 5.371187 V 18.410015 H 14.527375 v 1.004376 H 22.6775 c 0.258938,0 0.46875,0.209812 0.46875,0.46875 0,0.258937 -0.209812,0.46875 -0.46875,0.46875 h -8.150125 v 0.501625 c 0,0.258937 -0.209875,0.46875 -0.46875,0.46875 H 6.293063 c -0.258875,0 -0.46875,-0.209813 -0.46875,-0.46875 V 20.351891 H 1.439375 c -0.258875,0 -0.46875,-0.209813 -0.46875,-0.46875 v -1.941876 c 0,-0.258938 0.209875,-0.46875 0.46875,-0.46875 H 1.941563 V 2.879391 H 0.46875 C 0.209875,2.879391 0,2.669579 0,2.410641 V 0.468765 C 0,0.209827 0.209875,1.5e-5 0.46875,1.5e-5 h 31.0625 C 31.790188,1.5e-5 32,0.209827 32,0.468765 v 1.941876 c 0,0.258875 -0.209812,0.46875 -0.46875,0.46875 z m -6.293125,1.94125 h -2.945 v 12.651874 h 2.944937 V 4.820641 Z m -3.8825,3.882437 H 18.41 v 8.769437 h 2.945688 V 8.703078 Z M 17.4725,17.472515 V 8.703078 h -2.945 v 8.769437 z M 10.644375,8.703078 v 2.9445 H 13.59 v -2.9445 z M 6.761813,4.820641 v 6.827 H 9.706875 V 4.820702 H 6.761813 Z m 6.828062,15.564186 V 12.585141 H 6.761813 v 7.799686 z M 1.908125,19.414391 H 5.824313 V 18.410267 L 1.908125,18.410015 Z M 2.879,17.472515 H 5.824313 V 2.879391 H 2.879 Z M 0.9375,1.941891 5.824375,1.941639 V 0.937515 H 0.9375 Z M 6.761875,0.937454 v 2.945687 h 8.15 c 0.258875,0 0.46875,0.209812 0.46875,0.46875 0,0.258937 -0.209875,0.46875 -0.46875,0.46875 h -4.2675 v 2.944937 h 10.71125 V 4.820641 H 16.955 c -0.258938,0 -0.46875,-0.209813 -0.46875,-0.46875 0,-0.258938 0.209812,-0.46875 0.46875,-0.46875 h 8.283125 V 0.937454 Z m 24.300625,0 H 26.175625 V 1.94183 H 31.0625 Z"
         style="fill:#252525;fill-opacity:1;fill-rule:nonzero;stroke:none"
         id="path14" /></g><g
       id="g16"
       transform="translate(15.132812,23.205078)"><path
         d="m 0.536643,0.891797 c -0.146688,-0.213313 -0.183063,-0.479875 0,-0.662875 0.220937,-0.183063 0.441937,-0.183125 0.662875,-6.3e-5 0.710625,0.7105 0.710561,1.894 6.1e-5,2.604563 -0.3525,0.352437 -0.352562,0.926 -1.87e-4,1.278562 0.183,0.183125 0.182938,0.479938 -1.87e-4,0.662875 C 1.016143,4.957922 0.719267,4.95786 0.53633,4.774672 -0.181358,4.056609 -0.176295,2.893234 0.536643,2.170422 c 0.456437,-0.46275 0.331937,-0.796063 0,-1.278625 z"
         style="fill:#252525;fill-opacity:1;fill-rule:nonzero;stroke:none"
         id="path18" /></g><g
       id="g20"
       transform="translate(9.337891,23.205078)"><path
         d="m 0.505561,0.891797 c -0.146688,-0.213313 -0.183063,-0.479875 0,-0.662875 0.220937,-0.183063 0.441938,-0.183125 0.662875,-6.3e-5 0.7105,0.7105 0.7105,1.894063 0,2.604563 -0.352437,0.352437 -0.3525,0.926 -1.25e-4,1.278562 0.183,0.183125 0.182938,0.479875 -1.25e-4,0.662875 -0.183187,0.183063 -0.479937,0.183001 -0.662937,-1.87e-4 -0.71775,-0.718063 -0.628188,-1.806875 3.12e-4,-2.60425 0.331937,-0.421063 0.331937,-0.796063 0,-1.278625 z"
         style="fill:#252525;fill-opacity:1;fill-rule:nonzero;stroke:none"
         id="path22" /></g><g
       id="g24"
       transform="translate(20.972656,23.205078)"><path
         d="M 0.520177,0.891797 C 0.339989,0.705859 0.337051,0.411922 0.520114,0.228922 0.741051,0.045859 0.962052,0.045797 1.18299,0.228859 c 0.710625,0.7105 0.710561,1.894 6.1e-5,2.604563 -0.3525,0.352437 -0.352562,0.925937 -1.87e-4,1.278562 0.183,0.183125 0.182938,0.479938 -1.87e-4,0.662875 C 0.999615,4.957922 0.702801,4.95786 0.519801,4.774672 -0.197886,4.056609 -0.148323,2.934547 0.520177,2.170422 c 0.331875,-0.379375 0.528062,-0.733563 0,-1.278625 z"
         style="fill:#252525;fill-opacity:1;fill-rule:nonzero;stroke:none"
         id="path26" /></g></g></svg>
