<?xml version="1.0" encoding="UTF-8" standalone="no"?>
<svg
   xmlns:dc="http://purl.org/dc/elements/1.1/"
   xmlns:cc="http://creativecommons.org/ns#"
   xmlns:rdf="http://www.w3.org/1999/02/22-rdf-syntax-ns#"
   xmlns:svg="http://www.w3.org/2000/svg"
   xmlns="http://www.w3.org/2000/svg"
   version="1.1"
   id="svg2"
   xml:space="preserve"
   width="15"
   height="15"
   viewBox="0 0 40.630207 42.666668"><metadata
     id="metadata8"><rdf:RDF><cc:Work
         rdf:about=""><dc:format>image/svg+xml</dc:format><dc:type
           rdf:resource="http://purl.org/dc/dcmitype/StillImage" /></cc:Work></rdf:RDF></metadata><defs
     id="defs6" /><g
     id="g10"
     transform="matrix(1.3333333,0,0,-1.3333333,0,42.666667)"><g
       id="g12"><path
         d="m 30.173452,19.16765 c -0.139875,0.163874 -0.31756,0.286186 -0.514623,0.359373 l 0.274374,1.722998 c 0.116062,0.729124 -0.192501,1.442497 -0.761437,1.864122 0.258625,0.421561 0.522312,0.805123 0.794625,1.155308 0.09662,0.124188 0.177875,0.260937 0.241438,0.406313 0.38231,0.874123 0.03325,1.929308 -0.794749,2.402308 -0.460249,0.262874 -0.991751,0.322374 -1.496937,0.167812 -0.498062,-0.1525 -0.915622,-0.507999 -1.145685,-0.975248 -0.05581,-0.113499 -0.100374,-0.232562 -0.132437,-0.353938 -0.202186,-0.76556 -0.489437,-1.546808 -0.891498,-2.421869 H 5.561936 c -0.345061,1.747248 -0.380874,3.524492 -0.104312,5.286364 l 0.00687,0.04363 C 5.589249,29.619755 5.360937,30.426441 4.837875,31.037876 4.314876,31.649313 3.55344,32 2.748754,32 1.850631,32 1.007695,31.560188 0.494009,30.823502 -0.019803,30.086817 -0.141178,29.143818 0.169259,28.301006 L 0.455446,27.523884 C 0.86082,26.423073 1.13807,25.274513 1.27932,24.110016 l 0.118624,-0.978062 c 5e-4,-0.0043 0.00106,-0.0086 0.00175,-0.01293 L 1.425132,22.94858 c 1.25e-4,-8.76e-4 3.75e-4,-0.0017 5e-4,-0.0026 1.25e-4,-6.88e-4 1.25e-4,-0.0014 1.87e-4,-0.002 L 1.959818,19.590462 C 1.666506,19.545212 1.397132,19.396774 1.20157,19.167587 0.964133,18.8894 0.860945,18.522587 0.918445,18.161339 L 1.03457,17.432028 c 0.097,-0.609373 0.615311,-1.051623 1.23231,-1.051623 H 2.470942 L 4.237064,5.288427 C 4.038377,5.208239 3.859377,5.080927 3.71669,4.913801 3.460441,4.613552 3.349066,4.217678 3.411128,3.827803 L 3.495753,3.296368 C 3.595815,2.667681 4.111627,2.204994 4.738501,2.165308 5.006063,0.901186 6.106123,1.24e-4 7.414996,1.24e-4 H 24.213778 V 6.1e-5 c 1.309934,0 2.410806,0.902685 2.676681,2.165184 0.626812,0.039812 1.142435,0.50256 1.242559,1.13106 l 0.08463,0.531498 c 0.06206,0.389812 -0.04931,0.785686 -0.305563,1.085998 -0.142624,0.167126 -0.321623,0.294438 -0.520373,0.374626 l 1.766434,11.094227 c 0.594687,0.02331 1.087874,0.456686 1.182249,1.049374 l 0.116125,0.729311 c 0.05756,0.361248 -0.04563,0.727999 -0.283064,1.006311 z m -9.36717,3.375305 h 3.758431 l -0.197499,-1.869119 -0.526062,-1.068501 h -3.190058 z m -4.516115,0 h 3.563055 l -0.155188,-2.93762 h -3.407867 z m -0.951687,0 v -2.93762 h -3.506806 l -0.155187,2.93762 z m -4.615116,0 0.155187,-2.93762 h -3.50418 l -0.310437,2.93762 z m -4.616304,0 0.310437,-2.93762 H 2.921004 l -0.467687,2.93762 z M 1.348507,27.852821 1.06232,28.629944 c -0.206,0.559311 -0.128562,1.160374 0.212312,1.649246 0.340874,0.488751 0.878249,0.769186 1.474247,0.769186 0.526124,0 1.023936,-0.229248 1.36581,-0.629124 0.341937,-0.399747 0.491312,-0.927185 0.409687,-1.446933 l -0.00687,-0.04362 C 4.233252,27.118073 4.258439,25.292137 4.592001,23.49464 H 2.312567 l -0.088562,0.73 C 2.073818,25.4622 1.779319,26.682947 1.348507,27.852821 Z M 2.266755,17.33209 c -0.146374,0 -0.269374,0.104937 -0.292374,0.249564 l -0.116125,0.729309 c -0.018688,0.117376 0.034062,0.199937 0.067187,0.23875 0.033125,0.03881 0.106438,0.103874 0.225187,0.103874 4.38e-4,0 0,0 4.38e-4,0 H 23.372654 L 22.722029,17.33209 H 20.029222 Z M 22.23378,16.380405 c -0.5045,-0.891687 -1.138872,-1.704246 -1.880871,-2.41612 l 0.127625,2.41612 z m -2.706246,0 -0.172435,-3.263931 c -0.748062,-0.5625 -1.575186,-1.036186 -2.465246,-1.404436 -0.205874,-0.08519 -0.405501,-0.182562 -0.599749,-0.288874 v 4.957302 h 3.23743 z M 13.039047,5.386301 H 12.583048 L 12.002111,16.380405 H 15.33848 V 10.780102 C 14.648669,10.214354 14.078107,9.500668 13.673358,8.678543 13.160921,7.637671 12.947672,6.503923 13.039047,5.386301 Z M 3.434503,16.380405 h 3.323744 l 0.168937,-1.598997 c 0.025812,-0.244373 0.232249,-0.425874 0.472623,-0.425874 0.016751,0 0.033626,8.73e-4 0.050563,0.0027 0.261312,0.02762 0.450812,0.261875 0.423187,0.523249 l -0.158375,1.498996 h 3.333743 L 11.629862,5.386377 H 8.876992 L 8.111431,12.6308 C 8.083806,12.892162 7.849245,13.081411 7.588183,13.053974 7.326871,13.02635 7.137371,12.792099 7.164996,12.530724 L 7.919994,5.386301 H 5.185062 Z M 4.825563,3.113117 C 4.63025,3.113054 4.466188,3.253056 4.435501,3.445993 L 4.350876,3.977428 c -0.024937,0.156563 0.045438,0.266751 0.089625,0.318501 0.044188,0.05175 0.141937,0.138624 0.3005,0.138624 4.37e-4,0 0,0 4.37e-4,0 2.5e-4,0 3.706617,0 3.706867,0 h 3.683306 1.060998 c 0.03219,-0.1325 0.06719,-0.2645 0.108311,-0.395374 0.101688,-0.323313 0.229563,-0.632126 0.379063,-0.926062 z M 7.41487,0.951809 c -0.781061,0 -1.448372,0.491875 -1.690434,1.20956 H 8.26093 l 0.127812,-1.20956 z m 1.930871,0 -0.127811,1.20956 h 2.582432 l 0.06387,-1.20956 H 9.345737 Z m 5.992802,0 h -6.3e-5 -2.521183 l -0.06387,1.20956 h 1.533122 c 0.304313,-0.387312 0.657187,-0.732185 1.051999,-1.027998 v -0.181562 0 z m 6.944426,0 h -0.329501 c 0.121001,0.077 0.239876,0.157062 0.355126,0.242187 l -0.02562,-0.242187 z m -2.672184,0.080313 c -0.0014,-2.5e-4 -0.0028,-5e-4 -0.0041,-7.5e-4 -0.07831,-0.014313 -0.156935,-0.02675 -0.235809,-0.03725 -0.0018,-2.5e-4 -0.0036,-4.37e-4 -0.0055,-6.87e-4 -0.0795,-0.0105 -0.15925,-0.019064 -0.239124,-0.025564 -6.3e-5,0 -6.3e-5,0 -1.26e-4,0 C 19.01741,0.958996 18.908787,0.953247 18.800348,0.951809 h -0.108062 c -0.702185,0.006437 -1.394248,0.167375 -2.035746,0.483189 -0.693248,0.341249 -1.278998,0.839746 -1.726685,1.454557 -0.01194,0.019001 -0.02494,0.03725 -0.03937,0.054375 -0.291999,0.413 -0.523061,0.876562 -0.681622,1.380748 -0.06931,0.220374 -0.122313,0.443875 -0.1615,0.668999 -0.0011,0.00619 -0.0021,0.012375 -0.0034,0.0185 -0.185937,1.090372 -0.02156,2.220434 0.483374,3.246057 0.576561,1.171122 1.544872,2.085371 2.726559,2.574369 1.034809,0.428126 1.991684,0.987998 2.848932,1.657748 0.0067,0.005 0.01319,0.01018 0.01962,0.0155 1.367185,1.072811 2.478994,2.42631 3.242056,3.976368 l 2.966432,6.02574 c 0.568186,1.15406 0.969624,2.189558 1.227434,3.165742 0.01594,0.06038 0.03825,0.119877 0.06619,0.17669 0.116188,0.236 0.318751,0.408372 0.5705,0.485498 0.09138,0.028 0.184561,0.04187 0.277187,0.04187 0.162186,0 0.322687,-0.0425 0.468937,-0.126062 0.411499,-0.235062 0.584997,-0.759747 0.394749,-1.19456 -0.032,-0.07312 -0.07256,-0.141561 -0.120688,-0.203437 -0.386562,-0.497248 -0.755562,-1.0535 -1.115247,-1.681872 -4.37e-4,-7.51e-4 -9.39e-4,-0.0014 -0.0014,-0.0022 -0.0037,-0.0064 -0.0073,-0.01313 -0.01094,-0.01956 -0.04394,-0.077 -0.08775,-0.155127 -0.131438,-0.234312 -0.005,-0.0091 -0.01,-0.018 -0.01494,-0.02706 -0.09431,-0.171686 -0.188124,-0.348686 -0.281437,-0.531061 -0.0091,-0.01781 -0.01825,-0.03556 -0.02731,-0.05344 -0.04537,-0.08919 -0.09068,-0.179188 -0.135872,-0.271 l -3.005682,-6.10549 C 23.246716,13.40016 22.980028,10.456728 23.740089,7.639608 24.073214,6.404861 23.939215,5.079865 23.362654,3.908741 23.144653,3.465929 22.871841,3.062368 22.554403,2.703993 21.779655,1.830996 20.727283,1.237558 19.610785,1.032122 Z M 28.99333,21.399521 28.707705,19.605274 H 27.36227 l 0.988249,2.00737 c 5.63e-4,0.0011 0.0011,0.0021 0.0016,0.0033 0.05206,0.105751 0.104624,0.209938 0.157374,0.31275 0.0057,0.01106 0.01138,0.02231 0.01706,0.03338 0.05244,0.101875 0.105188,0.202124 0.158001,0.300623 0.0026,0.0049 0.0052,0.0097 0.0078,0.0145 0.233563,-0.218624 0.353875,-0.545 0.300938,-0.877622 z M 24.213778,0.951809 h -0.973874 l 0.127812,1.20956 h 2.536869 C 25.66371,1.444807 24.995775,0.951809 24.213778,0.951809 Z M 27.277771,3.977428 27.193146,3.44593 C 27.162458,3.253056 26.998396,3.113056 26.803083,3.113056 h -2.788806 c 0.07069,0.122626 0.138999,0.246998 0.202125,0.375187 0.151249,0.307249 0.275061,0.623997 0.374186,0.94631 h 2.258871 c 2.5e-4,0 4.99e-4,-6.3e-5 8.12e-4,-6.3e-5 4.39e-4,0 9.39e-4,6.3e-5 0.0014,6.3e-5 h 0.036 c 0.158561,0 0.256313,-0.086813 0.300501,-0.138624 0.04419,-0.05175 0.114561,-0.161938 0.08962,-0.318501 z M 26.44371,5.386301 h -1.637499 c 0.120625,0.832623 0.07331,1.683247 -0.147312,2.50112 -0.699873,2.593807 -0.456249,5.299865 0.685875,7.619859 l 0.429812,0.873186 h 2.41962 z m 3.072993,12.924601 -0.116124,-0.729313 c -0.023,-0.144562 -0.146001,-0.249499 -0.292375,-0.249499 h -2.865118 l 0.650623,1.321497 h 2.21987 c 2.5e-4,0 5e-4,-6.1e-5 8.12e-4,-6.1e-5 4.37e-4,0 9.39e-4,6.1e-5 0.0014,6.1e-5 h 0.108562 c 0.118813,0 0.192125,-0.06506 0.22525,-0.103874 0.03306,-0.03881 0.08581,-0.121437 0.06712,-0.238811 z"
         style="fill:#252525;fill-opacity:1;fill-rule:nonzero;stroke:none"
         id="path14" /></g></g></svg>
