<?xml version="1.0" encoding="UTF-8" standalone="no"?>
<svg
   xmlns:dc="http://purl.org/dc/elements/1.1/"
   xmlns:cc="http://creativecommons.org/ns#"
   xmlns:rdf="http://www.w3.org/1999/02/22-rdf-syntax-ns#"
   xmlns:svg="http://www.w3.org/2000/svg"
   xmlns="http://www.w3.org/2000/svg"
   version="1.1"
   id="svg2"
   xml:space="preserve"
   width="42.666668"
   height="42.666668"
   viewBox="0 0 42.666668 42.666668"><metadata
     id="metadata8"><rdf:RDF><cc:Work
         rdf:about=""><dc:format>image/svg+xml</dc:format><dc:type
           rdf:resource="http://purl.org/dc/dcmitype/StillImage" /></cc:Work></rdf:RDF></metadata><defs
     id="defs6" /><g
     id="g10"
     transform="matrix(1.3333333,0,0,-1.3333333,0,42.666667)"><g
       id="g12"
       transform="translate(17.066406,5.357422)"><path
         d="M 5.592807,15.857443 5.250408,16.984377 C 4.815475,18.264509 3.425141,18.949642 2.145008,18.514709 1.424875,18.270042 0.85934,17.70451 0.614673,16.984377 L 0.272274,15.857443 c -0.288133,-0.9504 -0.3486,-1.955267 -0.176534,-2.933334 0.156934,-0.823466 0.679734,-1.530933 1.420801,-1.922666 L 1.133073,2.429176 C 1.08174,1.950708 1.23694,1.473043 1.55974,1.11611 2.25394,0.356777 3.43234,0.303976 4.191673,0.998177 4.23274,1.035709 4.272074,1.075043 4.309608,1.11611 c 0.3156,0.3468 0.470532,0.810467 0.426666,1.277334 l -0.3856,8.609065 c 0.740067,0.391934 1.262,1.098933 1.418667,1.9216 0.172067,0.978067 0.111599,1.982934 -0.176534,2.933334 z M 4.718673,13.109709 C 4.603207,12.518108 4.181606,12.032709 3.612006,11.835575 3.395806,11.754309 3.25654,11.54311 3.26694,11.312376 L 3.672274,2.309177 C 3.690941,2.132576 3.632675,1.956511 3.512275,1.825977 3.191142,1.508045 2.673939,1.508045 2.352806,1.825977 2.226406,1.967045 2.169007,2.156912 2.196007,2.344378 l 0.402134,8.967998 c 0.0104,0.230734 -0.128866,0.441933 -0.345066,0.523199 -0.5696,0.197134 -0.991201,0.682533 -1.106667,1.274134 -0.142667,0.812 -0.092402,1.6462 0.146665,2.4352 l 0.342401,1.127466 c 0.264934,0.716333 1.060401,1.082267 1.776801,0.817333 0.378733,-0.140066 0.677265,-0.438665 0.817332,-0.817333 l 0.342401,-1.127466 c 0.2388,-0.789067 0.289065,-1.6232 0.146665,-2.4352 z"
         style="fill:#252525;fill-opacity:1;fill-rule:nonzero;stroke:none"
         id="path14" /></g><g
       id="g16"
       transform="translate(9.066406,5.822754)"><path
         d="M 5.333333,18.177246 C 5.0388,18.177246 4.8,17.938446 4.8,17.643913 v -4.5792 L 3.356266,11.620979 C 3.249466,11.51458 3.192667,11.367846 3.2,11.217246 L 3.666667,1.883913 C 3.6778,1.682646 3.604733,1.485779 3.465067,1.340445 3.173133,1.045912 2.697667,1.043777 2.403067,1.335777 2.401467,1.337311 2.399933,1.338911 2.3984,1.340445 2.258667,1.485779 2.185667,1.682646 2.1968,1.883913 l 0.469867,9.333333 c 0.00747,0.150533 -0.049133,0.2972 -0.155733,0.403733 l -1.444267,1.443734 v 4.5792 c 0,0.294533 -0.2388,0.533333 -0.533334,0.533333 C 0.2388,18.177246 0,17.938446 0,17.643913 V 12.843912 C 0,12.702446 0.056266,12.566845 0.156266,12.466846 L 1.5888,11.033779 1.133866,1.935646 c -0.0484,-0.993801 0.718001,-1.838734 1.711801,-1.887134 0.9938,-0.048399 1.838734,0.718 1.887133,1.711799 0.00287,0.058401 0.00287,0.116867 0,0.175268 l -0.454933,9.098133 1.432534,1.433068 c 0.099999,0.1 0.156266,0.235599 0.156266,0.377065 v 4.800002 c 0,0.294599 -0.2388,0.533399 -0.533334,0.533399 z"
         style="fill:#252525;fill-opacity:1;fill-rule:nonzero;stroke:none"
         id="path18" /></g><g
       id="g20"
       transform="translate(10.667969,18.666504)"><path
         d="M 0.533333,5.333496 C 0.2388,5.333496 0,5.094696 0,4.800163 V 0.533496 C 0,0.238963 0.2388,1.63e-4 0.533333,1.63e-4 c 0.294534,0 0.533334,0.2388 0.533334,0.533333 v 4.266667 c 0,0.294533 -0.2388,0.533333 -0.533334,0.533333 z"
         style="fill:#252525;fill-opacity:1;fill-rule:nonzero;stroke:none"
         id="path22" /></g><g
       id="g24"
       transform="translate(12.265625,18.666504)"><path
         d="M 0.533333,5.333496 C 0.2388,5.333496 0,5.094696 0,4.800163 V 0.533496 C 0,0.238963 0.2388,1.63e-4 0.533333,1.63e-4 c 0.294534,0 0.533334,0.2388 0.533334,0.533333 v 4.266667 c 0,0.294533 -0.2388,0.533333 -0.533334,0.533333 z"
         style="fill:#252525;fill-opacity:1;fill-rule:nonzero;stroke:none"
         id="path26" /></g><g
       id="g28"><path
         d="M 16,32 C 7.163467,32 0,24.836533 0,16 0,7.163465 7.163467,0 16,0 24.836535,0 32,7.163465 32,16 31.99,24.832399 24.832401,31.99 16,32 Z M 16,1.066666 C 7.752534,1.066666 1.066667,7.752533 1.066667,16 1.066667,24.247467 7.752534,30.933332 16,30.933332 24.247467,30.933332 30.933334,24.247467 30.933334,16 30.923935,7.756466 24.243534,1.076065 16,1.066666 Z"
         style="fill:#252525;fill-opacity:1;fill-rule:nonzero;stroke:none"
         id="path30" /></g><g
       id="g32"
       transform="translate(14.273438,5.278809)"><path
         d="m 3.457085,0.709848 c -0.0286,0.293133 -0.289466,0.5076 -0.582666,0.479 C 2.867552,1.188181 2.860686,1.18738 2.85382,1.186447 l 0.00213,5.33e-4 c -0.750867,-0.0872 -1.5094,-0.0872 -2.260266,0 C 0.303019,1.221313 0.038019,1.011914 0.003685,0.719247 -0.030648,0.426581 0.178752,0.16158 0.471419,0.127247 c 0.832733,-0.097267 1.673933,-0.097267 2.506666,0 0.293134,0.028533 0.5076,0.289401 0.479,0.582601 z"
         style="fill:#252525;fill-opacity:1;fill-rule:nonzero;stroke:none"
         id="path34" /></g><g
       id="g36"
       transform="translate(22.621094,8.171875)"><path
         d="m 1.540359,14.700503 c -0.189267,0.225666 -0.525666,0.255201 -0.751333,0.06587 -7.33e-4,-6e-4 -0.001466,-0.0013 -0.002266,-0.0019 C 0.561626,14.574636 0.532958,14.238236 0.722758,14.013037 3.938425,10.195704 3.692427,4.551104 0.156893,1.02797 -0.051774,0.820037 -0.052375,0.482236 0.155559,0.27357 0.363492,0.064903 0.701293,0.064303 0.909959,0.272237 c 3.929134,3.9142 4.203133,10.186333 0.6304,14.428266 z"
         style="fill:#252525;fill-opacity:1;fill-rule:nonzero;stroke:none"
         id="path38" /></g><g
       id="g40"
       transform="translate(11.890625,24.747559)"><path
         d="M 6.623609,1.621137 C 4.539275,2.12067 2.353275,1.986403 0.345742,1.235537 0.070009,1.13187 -0.069391,0.82427 0.034275,0.548603 0.112409,0.340803 0.311076,0.20327 0.533009,0.20307 c 0.0638,3.33e-4 0.127,0.012 0.1866,0.0346 1.807866,0.676067 3.776401,0.7968 5.653334,0.346666 0.286334,-0.0692 0.574532,0.106734 0.643732,0.393067 0.0692,0.286334 -0.106733,0.574534 -0.393066,0.643734 z"
         style="fill:#252525;fill-opacity:1;fill-rule:nonzero;stroke:none"
         id="path42" /></g><g
       id="g44"
       transform="translate(5.332031,8.192871)"><path
         d="M 3.866886,1.033987 C 2.068952,2.828854 1.061285,5.266788 1.067419,7.807321 c -0.00527,2.029732 0.637667,4.008132 1.8352,5.646932 0.177,0.235467 0.1296,0.569801 -0.105867,0.746801 -0.235466,0.177 -0.5698,0.129599 -0.7468,-0.105868 -0.00313,-0.0042 -0.0062,-0.0084 -0.0092,-0.01267 -3.083533,-4.239199 -2.6298,-10.0906 1.0704,-13.803733 0.208533,-0.208666 0.546801,-0.2088 0.755467,-2.66e-4 0.208667,0.208533 0.2088,0.546799 2.67e-4,0.755466 z"
         style="fill:#252525;fill-opacity:1;fill-rule:nonzero;stroke:none"
         id="path46" /></g></g></svg>
