<?xml version="1.0" encoding="UTF-8" standalone="no"?>
<svg
   xmlns:dc="http://purl.org/dc/elements/1.1/"
   xmlns:cc="http://creativecommons.org/ns#"
   xmlns:rdf="http://www.w3.org/1999/02/22-rdf-syntax-ns#"
   xmlns:svg="http://www.w3.org/2000/svg"
   xmlns="http://www.w3.org/2000/svg"
   version="1.1"
   id="svg2"
   xml:space="preserve"
   width="42.666668"
   height="26.0306"
   viewBox="0 0 42.666668 26.0306"><metadata
     id="metadata8"><rdf:RDF><cc:Work
         rdf:about=""><dc:format>image/svg+xml</dc:format><dc:type
           rdf:resource="http://purl.org/dc/dcmitype/StillImage" /></cc:Work></rdf:RDF></metadata><defs
     id="defs6" /><g
     id="g10"
     transform="matrix(1.3333333,0,0,-1.3333333,0,26.030599)"><g
       id="g12"
       transform="translate(0,-0.257812)"><path
         d="M 31.53125,1.195112 H 30.969437 C 30.809,2.554111 29.961061,3.70505 28.783375,4.289488 l -6.029499,12.986561 c -0.251938,0.542688 -0.691815,0.975313 -1.238564,1.218313 l -2.5095,1.115312 c -0.965437,0.429062 -2.091938,0.025 -2.564375,-0.92 L 12.79625,11.3993 11.343562,12.229424 C 10.219749,12.87155 8.777124,12.530987 8.05925,11.454112 L 1.219937,1.195112 H 0.46875 C 0.209875,1.195112 0,0.985237 0,0.726362 0,0.467487 0.209875,0.257612 0.46875,0.257612 h 31.0625 c 0.258875,0 0.46875,0.209875 0.46875,0.46875 0,0.258875 -0.209875,0.46875 -0.46875,0.46875 z m -1.507063,0 h -19.03025 c 0.226063,1.453562 1.486125,2.569563 3.002,2.569563 0.551751,0 1.092125,-0.150438 1.56275,-0.435062 0.632437,-0.382563 1.456751,-0.205752 1.917313,0.411186 0.962187,1.28875 2.432875,2.027876 4.035,2.027876 1.416563,0 2.728874,-0.5755 3.695249,-1.620375 0.324875,-0.35125 0.818001,-0.510439 1.318814,-0.425564 0.164312,0.027813 0.331562,0.041876 0.497062,0.041876 1.516001,6.3e-5 2.775999,-1.115999 3.002062,-2.5695 z M 17.280001,18.270424 c 0.247812,0.495687 0.838688,0.707563 1.345125,0.482563 l 2.509498,-1.115313 c 0.339438,-0.150875 0.612563,-0.4195 0.768939,-0.756437 L 22.097,16.46455 21.179438,15.253424 c -0.16475,-0.217437 -0.465437,-0.275626 -0.699376,-0.13525 l -0.856187,0.51375 C 19.282,15.837049 18.881187,15.894612 18.495251,15.793737 18.109438,15.692924 17.788,15.446674 17.590187,15.100424 l -1.006811,-1.761875 c -0.143688,-0.251313 -0.466814,-0.342187 -0.720251,-0.202563 l -0.902,0.49675 z M 8.839313,10.934113 c 0.44575,0.668562 1.341437,0.880062 2.039124,0.481374 l 1.497938,-0.856 L 9.568625,4.94405 C 9.452813,4.712487 9.546687,4.430924 9.77825,4.315174 10.009812,4.199362 10.291375,4.293237 10.407125,4.524799 l 4.134375,8.268689 0.869312,-0.478751 c 0.222625,-0.122562 0.464625,-0.18075 0.703875,-0.18075 0.512562,0 1.012625,0.266875 1.282625,0.739375 l 1.006813,1.761938 c 0.07175,0.125499 0.18825,0.214811 0.328125,0.251312 0.139939,0.03656 0.28525,0.01569 0.409188,-0.05863 l 0.856187,-0.51375 C 20.643,13.927049 21.47225,14.087424 21.926624,14.6873 l 0.617188,0.814625 5.032562,-10.839312 c -0.18125,0.025437 -0.366123,0.039499 -0.554249,0.039499 -0.21775,0 -0.437624,-0.0185 -0.653499,-0.055063 C 26.180689,4.615299 26.003689,4.6668 25.894501,4.7848 24.765251,6.005799 23.1675,6.706112 21.511,6.706112 c -1.900812,0 -3.645312,-0.876374 -4.786249,-2.404499 -0.170563,-0.228501 -0.463313,-0.301501 -0.681,-0.169876 -0.617,0.373125 -1.325189,0.570375 -2.047939,0.570375 -2.033562,0 -3.714437,-1.535063 -3.94725,-3.507063 H 2.346625 Z"
         style="fill:#252525;fill-opacity:1;fill-rule:nonzero;stroke:none"
         id="path14" /></g></g></svg>
