<?xml version="1.0" encoding="UTF-8" standalone="no"?>
<svg
   xmlns:dc="http://purl.org/dc/elements/1.1/"
   xmlns:cc="http://creativecommons.org/ns#"
   xmlns:rdf="http://www.w3.org/1999/02/22-rdf-syntax-ns#"
   xmlns:svg="http://www.w3.org/2000/svg"
   xmlns="http://www.w3.org/2000/svg"
   version="1.1"
   id="svg2"
   xml:space="preserve"
   width="40"
   height="40"
   viewBox="0 0 42.664062 42.631512"><metadata
     id="metadata8"><rdf:RDF><cc:Work
         rdf:about=""><dc:format>image/svg+xml</dc:format><dc:type
           rdf:resource="http://purl.org/dc/dcmitype/StillImage" /></cc:Work></rdf:RDF></metadata><defs
     id="defs6" /><g
     id="g10"
     transform="matrix(1.3333333,0,0,-1.3333333,0,42.631511)"><g
       id="g12"
       transform="translate(2.058594)"><path
         d="m 25.198923,5.730393 c 1.760168,0.777722 2.68331,1.73236 2.68331,2.788736 0,1.34803 -1.479016,2.514956 -4.277062,3.374481 -2.588011,0.795032 -6.020105,1.232855 -9.664054,1.232855 -3.643948,0 -7.076047,-0.437823 -9.664056,-1.232855 C 1.479014,11.034085 0,9.867221 0,8.519129 0,7.283399 1.276663,6.405002 2.347662,5.885813 3.572331,5.292069 5.238574,4.803003 7.197469,4.459981 6.465805,2.661942 8.7456,1.483329 10.077757,1.00276 11.870234,0.356148 14.243893,6.6e-5 16.76141,6.6e-5 c 1.082248,0 2.144874,0.066054 3.158317,0.196352 0.799719,0.102863 0.279095,1.390962 -0.352644,0.901082 -0.90352,-0.106238 -1.846098,-0.160044 -2.805673,-0.160044 -2.411843,0 -4.672514,0.336335 -6.365566,0.947077 C 9.496387,2.208995 7.187157,3.216376 8.319963,4.498476 8.57587,4.788193 8.371894,5.221454 8.039183,5.272136 5.868,5.602597 4.041339,6.106475 2.756614,6.729277 1.583502,7.298085 0.93739,7.933698 0.93739,8.519129 c 0,0.856587 1.351404,1.783041 3.614951,2.478397 2.501207,0.768347 5.835567,1.191486 9.388776,1.191486 3.553209,0 6.887567,-0.423139 9.388774,-1.191486 2.263546,-0.695293 3.61495,-1.62181 3.61495,-2.478397 0,-0.760723 -1.115617,-1.609499 -2.984274,-2.270484 -0.386205,-0.136609 -0.415014,-0.689231 -0.04499,-0.865148 1.019505,-0.484818 1.604248,-1.063063 1.604248,-1.586378 0,-0.795906 -1.321781,-1.666053 -3.367416,-2.216676 -0.585119,-0.157544 -0.341524,-1.062813 0.243658,-0.905144 2.618818,0.70498 4.061087,1.813662 4.061087,3.121883 6.2e-5,0.520189 -0.240597,1.235293 -1.258227,1.933211 v 0 z"
         style="fill:#252525;fill-opacity:1;fill-rule:nonzero;stroke:none"
         id="path14" /></g><g
       id="g16"
       transform="translate(18.363281,1.821777)"><path
         d="M 6.151201,1.308347 C 6.079334,1.557006 5.819427,1.700364 5.570769,1.628373 4.148373,1.217046 2.331399,0.99051 0.454494,0.99051 c -0.605992,0 -0.605992,-0.93739 0,-0.93739 1.96252,0 3.871983,0.239597 5.376682,0.674796 0.248658,0.071929 0.391954,0.331773 0.320025,0.580431 z"
         style="fill:#252525;fill-opacity:1;fill-rule:nonzero;stroke:none"
         id="path18" /></g><g
       id="g20"
       transform="translate(25.089844,6.830566)"><path
         d="m 0.460493,0.275002 c 0.051869,0 0.104613,0.008686 0.156295,0.026934 C 1.804211,0.72195 2.397454,1.125027 2.645299,1.327878 3.114307,1.711645 2.520564,2.437186 2.051619,2.053293 1.890138,1.921121 1.396633,1.572037 0.304198,1.185645 -0.191056,1.010478 -0.040573,0.275002 0.460493,0.275002 Z"
         style="fill:#252525;fill-opacity:1;fill-rule:nonzero;stroke:none"
         id="path22" /></g><g
       id="g24"
       transform="translate(7.332031,9.267578)"><path
         d="M 0.328661,1.052933 C -0.250147,0.902701 0.003387,-5e-6 0.564196,0.145603 c 2.23805,0.580932 5.115275,0.900894 8.1018,0.900894 0.605991,0 0.605991,0.93739 0,0.93739 -3.063704,0 -6.024669,-0.330587 -8.337335,-0.930954 z"
         style="fill:#252525;fill-opacity:1;fill-rule:nonzero;stroke:none"
         id="path26" /></g><g
       id="g28"
       transform="translate(0,16.666016)"><path
         d="M 0.257055,0.196864 C 0.475092,0.086502 0.775869,0.183928 0.886981,0.403215 1.485848,1.585639 2.04397,2.789748 2.583657,3.959861 3.542795,3.51835 4.634604,3.496478 5.584368,3.979984 5.762847,3.61009 5.943576,3.241195 6.129741,2.878113 6.298222,2.547526 6.797913,2.534778 6.968831,2.886612 7.35566,3.683831 7.726929,4.488486 8.112947,5.28608 8.376978,5.831516 7.533202,6.240031 7.269233,5.69447 7.022137,5.184093 6.781228,4.670653 6.538319,4.158275 6.445829,4.348003 4.75534,7.952331 4.519493,8.43265 4.351012,8.777297 3.850509,8.774673 3.680216,8.438774 2.402241,5.93413 1.32118,3.33506 0.050641,0.826791 -0.066282,0.595881 0.026144,0.31385 0.257055,0.196864 Z M 2.98611,4.805387 4.098292,7.137927 C 4.466999,6.371516 4.81952,5.597544 5.18079,4.827634 4.3527,4.400934 3.581665,4.532856 2.98611,4.805387 Z"
         style="fill:#252525;fill-opacity:1;fill-rule:nonzero;stroke:none"
         id="path30" /></g><g
       id="g32"
       transform="translate(8.523438,16.263672)"><path
         d="M 0.25238,8.209257 C 0.481978,8.089771 0.764945,8.17901 0.884556,8.408609 1.072346,8.769317 1.255137,9.133961 1.434616,9.500044 2.8547,8.941235 4.419517,8.901989 5.838413,9.484983 6.274549,8.582026 6.718685,7.673008 7.173757,6.752241 7.346987,6.401407 7.871988,6.432716 8.024469,6.774364 8.212197,7.182003 8.404612,7.590392 8.598026,7.997595 9.549727,7.538023 10.644037,7.488404 11.603925,7.9546 11.802152,7.541711 11.999565,7.130884 12.195354,6.723495 13.144368,4.749039 14.12463,2.709465 15.071082,0.688765 15.343488,0.091459 15.826243,0.255253 16.116459,0.804189 16.522038,1.571223 16.927614,2.37113 17.299383,3.1661 18.647474,2.667533 20.123613,2.640973 21.468645,3.16485 21.836538,2.396503 22.21137,1.61047 22.577202,0.820313 22.831799,0.270439 23.682447,0.664268 23.42779,1.214203 22.991467,2.156529 19.974319,8.550655 19.771969,8.875116 19.559681,9.219514 19.132105,9.119588 18.946188,8.823123 18.373631,7.631638 15.930293,2.448996 15.607831,1.751015 14.757368,3.556991 10.519239,12.40939 10.519239,12.40939 c -0.16598,0.348022 -0.679671,0.347772 -0.846151,0 0,0 -1.748794,-3.640198 -2.090691,-4.365239 C 7.2345,8.753132 4.057434,15.465657 4.057434,15.465657 3.895078,15.801243 3.367265,15.77937 3.214283,15.471907 2.892071,14.820983 0.279626,9.276757 0.053028,8.841371 -0.066458,8.611835 0.022782,8.328743 0.25238,8.209257 Z M 17.698586,4.017499 c 0.553123,1.176612 1.114807,2.349163 1.674366,3.522713 L 21.056318,4.009937 C 19.973507,3.604609 18.8477,3.607297 17.698586,4.017499 Z M 9.00904,8.838808 c 0.361583,0.758287 0.723667,1.516323 1.086249,2.274109 0.365895,-0.77166 0.735039,-1.544632 1.102996,-2.312542 C 10.368944,8.399922 9.600471,8.552842 9.00904,8.838808 Z m -7.166097,1.507574 c 0.601742,1.267977 1.180175,2.546639 1.784291,3.813491 C 4.218478,12.882585 4.817595,11.611359 5.431336,10.331196 4.275908,9.869438 3.072674,9.874437 1.842943,10.346382 Z"
         style="fill:#252525;fill-opacity:1;fill-rule:nonzero;stroke:none"
         id="path34" /></g><g
       id="g36"
       transform="translate(0.007812,11.760254)"><path
         d="m 0.63518,0.226235 c 4.269874,1.718236 9.722861,2.6645 15.354451,2.6645 5.631589,0 11.084574,-0.946264 15.354449,-2.6645 0.541124,-0.217724 0.909769,0.644363 0.34996,0.869649 -4.378488,1.761919 -9.95577,2.732241 -15.704409,2.732241 -5.748639,0 -11.325923,-0.970322 -15.70441,-2.732241 C -0.276964,0.869661 0.07287,1.99e-4 0.63518,0.226235 Z"
         style="fill:#252525;fill-opacity:1;fill-rule:nonzero;stroke:none"
         id="path38" /></g><g
       id="g40"
       transform="translate(0.015625)"><path
         d="M 5.141445,0.9375 H 0.454494 c -0.605992,0 -0.605992,-0.93739 0,-0.93739 h 4.686951 c 0.605991,0 0.605991,0.93739 0,0.93739 z"
         style="fill:#252525;fill-opacity:1;fill-rule:nonzero;stroke:none"
         id="path42" /></g><g
       id="g44"
       transform="translate(3.921875,2.187012)"><path
         d="M 2.641737,0.9375 H 0.454494 c -0.605992,0 -0.605992,-0.93739 0,-0.93739 h 2.187243 c 0.605992,0 0.605992,0.93739 0,0.93739 z"
         style="fill:#252525;fill-opacity:1;fill-rule:nonzero;stroke:none"
         id="path46" /></g><g
       id="g48"
       transform="translate(28.886719)"><path
         d="M 2.641737,0.9375 H 0.454494 c -0.605992,0 -0.605992,-0.93739 0,-0.93739 h 2.187243 c 0.605992,0 0.605992,0.93739 0,0.93739 z"
         style="fill:#252525;fill-opacity:1;fill-rule:nonzero;stroke:none"
         id="path50" /></g></g></svg>
