<?xml version="1.0" encoding="UTF-8" standalone="no"?>
<svg
   xmlns:dc="http://purl.org/dc/elements/1.1/"
   xmlns:cc="http://creativecommons.org/ns#"
   xmlns:rdf="http://www.w3.org/1999/02/22-rdf-syntax-ns#"
   xmlns:svg="http://www.w3.org/2000/svg"
   xmlns="http://www.w3.org/2000/svg"
   version="1.1"
   id="svg2"
   xml:space="preserve"
   width="40"
   height="40"
   viewBox="0 0 42.666668 42.666668"><metadata
     id="metadata8"><rdf:RDF><cc:Work
         rdf:about=""><dc:format>image/svg+xml</dc:format><dc:type
           rdf:resource="http://purl.org/dc/dcmitype/StillImage" /></cc:Work></rdf:RDF></metadata><defs
     id="defs6" /><g
     id="g10"
     transform="matrix(1.3333333,0,0,-1.3333333,0,42.666667)"><g
       id="g12"
       transform="translate(0,9.519043)"><path
         d="m 31.53125,1.939453 c -1.382376,0 -2.082125,-0.27075 -2.758875,-0.532562 C 28.1485,1.165516 27.559124,0.937454 26.351812,0.937454 c -1.207374,0 -1.796688,0.227999 -2.420625,0.469437 -0.676688,0.261812 -1.376438,0.532562 -2.758875,0.532562 -1.381563,0 -2.080874,-0.270813 -2.757187,-0.532625 -0.623438,-0.241375 -1.212313,-0.469374 -2.418688,-0.469374 -1.206875,0 -1.795937,0.227999 -2.419562,0.469374 -0.676501,0.261875 -1.376001,0.532625 -2.757938,0.532625 -1.3815,0 -2.080812,-0.270813 -2.757125,-0.532625 C 7.438375,1.165453 6.849563,0.937454 5.643188,0.937454 4.437188,0.937454 3.8485,1.165453 3.22525,1.406828 2.549125,1.668703 1.85,1.939453 0.46875,1.939453 0.209875,1.939453 0,1.729578 0,1.470703 0,1.211828 0.209875,1.001953 0.46875,1.001953 c 1.206,0 1.794625,-0.227999 2.417938,-0.469374 0.676125,-0.261875 1.37525,-0.532625 2.7565,-0.532625 1.3815,0 2.080812,0.270813 2.757124,0.532625 0.623438,0.241375 1.21225,0.469374 2.418625,0.469374 1.206813,0 1.795876,-0.227999 2.419501,-0.469374 0.6765,-0.261875 1.376062,-0.532625 2.757999,-0.532625 1.381563,0 2.080875,0.270813 2.757189,0.532625 0.623438,0.241375 1.212311,0.469374 2.418686,0.469374 1.207311,0 1.796688,-0.227999 2.420563,-0.469437 0.67675,-0.261812 1.376501,-0.532562 2.758937,-0.532562 1.382437,0 2.082125,0.27075 2.758875,0.532562 0.623875,0.241375 1.213251,0.469437 2.420563,0.469437 0.258875,0 0.46875,0.209875 0.46875,0.46875 0,0.258875 -0.209875,0.46875 -0.46875,0.46875 z"
         style="fill:#252525;fill-opacity:1;fill-rule:nonzero;stroke:none"
         id="path14" /></g><g
       id="g16"
       transform="translate(27.554688,7.643066)"><path
         d="M 1.908409,1.043007 C 1.815284,1.284569 1.543846,1.404881 1.302408,1.311756 L 1.216972,1.278757 C 0.934785,1.16957 0.668222,1.066443 0.351034,0.984068 0.100472,0.918943 -0.049903,0.663069 0.01516,0.412506 c 0.054812,-0.211062 0.245,-0.351 0.453375,-0.351 0.039062,0 0.078687,0.004939 0.118187,0.015188 0.3695,0.096 0.674,0.213813 0.968563,0.327813 L 1.639597,0.437069 C 1.88116,0.530194 2.001534,0.801507 1.908409,1.043007 Z"
         style="fill:#252525;fill-opacity:1;fill-rule:nonzero;stroke:none"
         id="path18" /></g><g
       id="g20"
       transform="translate(5.511719,7.511719)"><path
         d="m 20.526009,0.946308 c -1.000063,0.036063 -1.537188,0.243875 -2.105875,0.463938 -0.676751,0.261812 -1.3765,0.532562 -2.758875,0.532562 -1.381563,0 -2.080875,-0.270811 -2.757187,-0.532623 -0.623438,-0.241375 -1.212313,-0.469376 -2.418688,-0.469376 -1.206875,0 -1.795875,0.227999 -2.419562,0.469437 -0.6765,0.261812 -1.376,0.532625 -2.757938,0.532625 -1.3815,0 -2.080812,-0.270813 -2.757125,-0.532625 C 1.983447,1.190558 1.447572,0.983122 0.451572,0.94656 0.192822,0.93706 -0.009178,0.719621 3.22e-4,0.460934 c 0.0095,-0.25875 0.227,-0.460188 0.485625,-0.45125 1.153375,0.042312 1.788875,0.288376 2.403375,0.526313 0.623438,0.241375 1.21225,0.469374 2.418625,0.469374 1.206813,0 1.795875,-0.227999 2.4195,-0.469437 0.6765,-0.261812 1.376063,-0.532625 2.758,-0.532625 1.381562,0 2.080874,0.270813 2.757187,0.532625 0.623438,0.241375 1.212313,0.469374 2.418688,0.469374 1.207311,0 1.796688,-0.227999 2.420562,-0.469436 0.615939,-0.238313 1.252814,-0.484751 2.410376,-0.526501 0.257063,-0.009188 0.476,0.192813 0.485311,0.451563 0.0093,0.25875 -0.192874,0.476062 -0.451562,0.485374 z"
         style="fill:#252525;fill-opacity:1;fill-rule:nonzero;stroke:none"
         id="path22" /></g><g
       id="g24"
       transform="translate(10.351562,5.51123)"><path
         d="M 10.822124,1.939453 C 9.440562,1.939453 8.74125,1.66864 8.064938,1.406828 7.4415,1.165453 6.852625,0.937452 5.64625,0.937452 4.439375,0.937452 3.850375,1.165453 3.226687,1.406828 2.550187,1.668703 1.850688,1.939453 0.46875,1.939453 0.209875,1.939453 0,1.729578 0,1.470703 0,1.211828 0.209875,1.001953 0.46875,1.001953 c 1.206813,0 1.795875,-0.228001 2.419562,-0.469375 0.6765,-0.261876 1.376,-0.532626 2.757938,-0.532626 1.381562,0 2.080876,0.270813 2.757189,0.532626 0.623437,0.241374 1.21231,0.469375 2.418685,0.469375 0.258875,0 0.46875,0.209875 0.46875,0.46875 0,0.258875 -0.209875,0.46875 -0.46875,0.46875 z"
         style="fill:#252525;fill-opacity:1;fill-rule:nonzero;stroke:none"
         id="path26" /></g><g
       id="g28"
       transform="translate(2.585938,7.64209)"><path
         d="M 1.507833,0.984242 C 1.18877,1.066929 0.921333,1.170554 0.638208,1.280241 0.396833,1.373741 0.12527,1.253866 0.03177,1.012491 -0.06173,0.771054 0.058145,0.499554 0.29952,0.406054 0.595145,0.291554 0.900833,0.173115 1.272583,0.076741 1.31202,0.066491 1.351583,0.061615 1.39052,0.061615 c 0.208438,0 0.398688,0.140127 0.453438,0.351252 0.065,0.250625 -0.0855,0.506375 -0.336125,0.571375 z"
         style="fill:#252525;fill-opacity:1;fill-rule:nonzero;stroke:none"
         id="path30" /></g><g
       id="g32"
       transform="translate(8.515625,12.525391)"><path
         d="M 13.625439,5.244325 C 12.225001,7.253263 9.928751,8.452637 7.482876,8.452637 3.356814,8.452637 0,5.095888 0,0.969763 -6.2e-5,0.7917 0.006251,0.612012 0.018751,0.435699 0.036188,0.1887 0.242001,-5e-5 0.485876,-5e-5 c 0.011125,0 0.02225,3.74e-4 0.0335,0.001187 0.25825,0.01825 0.452812,0.242375 0.434562,0.500625 C 0.943,0.656262 0.9375,0.8137 0.9375,0.969763 c 0,3.609125 2.936189,6.545374 6.545376,6.545374 2.139437,0 4.14825,-1.049312 5.373438,-2.806937 0.148062,-0.212313 0.440186,-0.264438 0.652624,-0.1165 0.212375,0.148062 0.2645,0.44025 0.116501,0.652625 z"
         style="fill:#252525;fill-opacity:1;fill-rule:nonzero;stroke:none"
         id="path34" /></g><g
       id="g36"
       transform="translate(3.007812,13.026367)"><path
         d="M 3.474813,0.9375 H 0.46875 C 0.209875,0.9375 0,0.727625 0,0.46875 0,0.209875 0.209875,0 0.46875,0 h 3.006063 c 0.258874,0 0.46875,0.209875 0.46875,0.46875 0,0.258875 -0.209876,0.46875 -0.46875,0.46875 z"
         style="fill:#252525;fill-opacity:1;fill-rule:nonzero;stroke:none"
         id="path38" /></g><g
       id="g40"
       transform="translate(15.53125,22.54541)"><path
         d="M 0.46875,3.943359 C 0.209875,3.943359 0,3.733484 0,3.474609 V 0.468547 c 0,-0.258938 0.209875,-0.46875 0.46875,-0.46875 0.258875,0 0.46875,0.209875 0.46875,0.46875 v 3.006062 c 0,0.258875 -0.209875,0.46875 -0.46875,0.46875 z"
         style="fill:#252525;fill-opacity:1;fill-rule:nonzero;stroke:none"
         id="path42" /></g><g
       id="g44"
       transform="translate(22.261719,19.711426)"><path
         d="m 2.925797,2.97159 c -0.183063,0.183062 -0.479876,0.183062 -0.662876,0 L 0.137297,0.845965 c -0.183063,-0.183062 -0.183063,-0.479875 0,-0.662875 0.0915,-0.0915 0.211436,-0.137313 0.331436,-0.137313 0.119937,0 0.239938,0.04575 0.331438,0.137313 l 2.125626,2.125625 c 0.183062,0.183062 0.183062,0.479875 0,0.662875 z"
         style="fill:#252525;fill-opacity:1;fill-rule:nonzero;stroke:none"
         id="path46" /></g><g
       id="g48"
       transform="translate(11.503906,21.757812)"><path
         d="M 1.285364,0.711056 0.901927,1.636806 C 0.802864,1.875993 0.528677,1.989494 0.28949,1.890494 0.050302,1.791431 -0.063261,1.517182 0.035802,1.278057 L 0.419239,0.352306 c 0.07475,-0.1805 0.249313,-0.289499 0.43325,-0.289499 0.059813,0 0.120563,0.011499 0.179188,0.035812 0.239188,0.099062 0.35275,0.373312 0.253687,0.612437 z"
         style="fill:#252525;fill-opacity:1;fill-rule:nonzero;stroke:none"
         id="path50" /></g><g
       id="g52"
       transform="translate(24.324219,16.605469)"><path
         d="M 1.827678,1.095284 C 1.728615,1.334409 1.454427,1.448035 1.21524,1.348972 L 0.289489,0.965534 c -0.239188,-0.099 -0.352749,-0.37325 -0.253687,-0.612437 0.07475,-0.1805 0.249313,-0.2895 0.43325,-0.2895 0.059813,0 0.120563,0.011499 0.179188,0.035812 L 1.573989,0.482847 C 1.813177,0.58191 1.92674,0.856159 1.827678,1.095284 Z"
         style="fill:#252525;fill-opacity:1;fill-rule:nonzero;stroke:none"
         id="path54" /></g><g
       id="g56"
       transform="translate(19.175781,21.757324)"><path
         d="M 1.031678,1.890956 C 0.792553,1.990018 0.518302,1.876456 0.41924,1.637268 L 0.035802,0.711518 C -0.063261,0.472393 0.050303,0.198206 0.289491,0.099081 0.348116,0.074769 0.408928,0.063269 0.468678,0.063269 c 0.183938,0 0.358499,0.108999 0.433249,0.289499 L 1.285365,1.278519 C 1.384428,1.517706 1.270866,1.791893 1.031678,1.890956 Z"
         style="fill:#252525;fill-opacity:1;fill-rule:nonzero;stroke:none"
         id="path58" /></g><g
       id="g60"
       transform="translate(5.8125,16.605469)"><path
         d="M 1.573989,0.965526 0.64824,1.348964 C 0.40899,1.448026 0.134864,1.334464 0.035802,1.095277 -0.063261,0.856089 0.050302,0.581901 0.28949,0.482838 L 1.21524,0.099401 C 1.273927,0.075089 1.334677,0.063589 1.394427,0.063589 c 0.183937,0 0.3585,0.109 0.43325,0.2895 0.099063,0.239188 -0.0145,0.513375 -0.253688,0.612437 z"
         style="fill:#252525;fill-opacity:1;fill-rule:nonzero;stroke:none"
         id="path62" /></g><g
       id="g64"
       transform="translate(2.003906,19.861328)"><path
         d="M 5.299875,3.621582 C 4.6075,3.621582 3.938938,3.390832 3.388063,2.966519 3.137125,3.045082 2.8785,3.084831 2.615937,3.084831 1.1735,3.084831 0,1.911332 0,0.468894 0,0.210019 0.209875,1.44e-4 0.46875,1.44e-4 h 7.515125 c 0.258875,0 0.46875,0.209875 0.46875,0.46875 0,1.738375 -1.414312,3.152688 -3.15275,3.152688 z M 1.004125,0.937707 c 0.203313,0.698062 0.848937,1.209624 1.611812,1.209624 0.230938,0 0.458188,-0.048624 0.675438,-0.144562 0.171187,-0.075562 0.370875,-0.042125 0.508063,0.085125 0.414625,0.3845 0.947562,0.59625 1.500499,0.59625 1.060688,0 1.949626,-0.749375 2.165376,-1.746437 z"
         style="fill:#252525;fill-opacity:1;fill-rule:nonzero;stroke:none"
         id="path66" /></g><g
       id="g68"
       transform="translate(18.035156,12.524902)"><path
         d="M 5.836687,3.084832 C 5.574124,3.084832 5.315501,3.045144 5.064564,2.966519 4.513689,3.390832 3.845062,3.621582 3.15275,3.621582 1.414312,3.621582 0,2.207271 0,0.468896 0,0.210021 0.209875,1.46e-4 0.46875,1.46e-4 h 7.515125 c 0.258875,0 0.46875,0.209875 0.46875,0.46875 0,1.442437 -1.1735,2.615936 -2.615938,2.615936 z M 0.987375,0.937646 c 0.215688,0.997062 1.104687,1.746437 2.165375,1.746437 0.552938,0 1.085812,-0.211751 1.5005,-0.596251 C 4.7905,1.960645 4.990064,1.92727 5.161251,2.00277 c 0.21725,0.095938 0.444499,0.144562 0.675436,0.144562 0.762875,0 1.408501,-0.511561 1.611876,-1.209686 H 0.987375 Z"
         style="fill:#252525;fill-opacity:1;fill-rule:nonzero;stroke:none"
         id="path70" /></g></g></svg>
