<?xml version="1.0" encoding="UTF-8" standalone="no"?>
<svg
   xmlns:dc="http://purl.org/dc/elements/1.1/"
   xmlns:cc="http://creativecommons.org/ns#"
   xmlns:rdf="http://www.w3.org/1999/02/22-rdf-syntax-ns#"
   xmlns:svg="http://www.w3.org/2000/svg"
   xmlns="http://www.w3.org/2000/svg"
   version="1.1"
   id="svg2"
   xml:space="preserve"
   width="15"
   height="15"
   viewBox="0 0 42.666668 30.073568"><metadata
     id="metadata8"><rdf:RDF><cc:Work
         rdf:about=""><dc:format>image/svg+xml</dc:format><dc:type
           rdf:resource="http://purl.org/dc/dcmitype/StillImage" /></cc:Work></rdf:RDF></metadata><defs
     id="defs6" /><g
     id="g10"
     transform="matrix(1.3333333,0,0,-1.3333333,0,30.073568)"><g
       id="g12"
       transform="translate(0,15.410645)"><path
         d="M 0.46875,0.510625 H 3.95 c 0.083062,0 0.165125,-0.013124 0.244063,-0.039062 L 5.30575,0.106001 C 5.480375,0.048563 5.66125,0.01975 5.842375,0.01975 c 0.150438,0 0.301062,0.019875 0.448375,0.059688 l 2.201187,0.594437 c 0.127,0.034313 0.261625,0.035938 0.389562,0.004563 L 9.808437,0.451376 c 0.251313,-0.061625 0.505188,0.092375 0.566813,0.34375 0.06156,0.251437 -0.09231,0.505187 -0.34375,0.566812 L 9.104625,1.589 C 8.823438,1.657875 8.527062,1.654313 8.247562,1.578938 L 6.046375,0.984501 C 5.898688,0.944625 5.743937,0.948813 5.598625,0.996563 L 4.486938,1.362125 C 4.313375,1.41925 4.13275,1.448125 3.95,1.448125 H 0.46875 C 0.209875,1.448125 0,1.23825 0,0.979375 0,0.7205 0.209875,0.510625 0.46875,0.510625 Z"
         style="fill:#252525;fill-opacity:1;fill-rule:nonzero;stroke:none"
         id="path14" /></g><g
       id="g16"
       transform="translate(0,6.65918)"><path
         d="M 0.322843,5.332338 C 0.568716,5.251714 0.833652,5.385714 0.914277,5.631774 L 1.366712,7.011891 C 1.399711,7.112453 1.496461,7.176203 1.601773,7.167078 L 4.185695,6.942267 C 4.24007,6.937517 4.290882,6.913392 4.32882,6.874142 L 5.199127,5.975834 C 5.439501,5.727648 5.775124,5.599836 6.119434,5.624712 L 8.560858,5.801649 C 8.643357,5.807836 8.722607,5.768148 8.767607,5.698711 L 9.221916,4.996902 C 9.437352,4.66403 9.802726,4.465281 10.199286,4.465281 h 1.558429 c 0.09838,0 0.185998,-0.064313 0.215873,-0.157437 L 12.51321,1.951982 c 0.255624,-1.116118 1.230181,-1.897363 2.373487,-1.905488 0.02662,-0.00175 0.07131,-0.003875 0.130436,-0.003875 0.321997,0 1.071618,0.062875 1.655614,0.59381 0.494747,0.449809 0.74562,1.106556 0.74562,1.952051 v 0.60137 c 0,0.258874 -0.20981,0.468747 -0.468746,0.468747 -0.258936,0 -0.468748,-0.209873 -0.468748,-0.468747 V 2.58848 c 0,-0.566934 -0.145874,-0.988746 -0.433622,-1.253682 -0.437247,-0.402622 -1.094305,-0.353372 -1.098243,-0.353059 -0.01475,0.001375 -0.02962,0.002124 -0.0445,0.002124 -0.711122,0 -1.318743,0.484123 -1.477492,1.177307 l -0.542872,2.370111 c -0.0017,0.00744 -0.0036,0.014875 -0.0056,0.022188 -0.140562,0.499997 -0.601434,0.849182 -1.120806,0.849182 h -1.558429 c -0.07719,0 -0.148374,0.038687 -0.190312,0.103498 L 9.554665,6.207958 C 9.323791,6.564706 8.916731,6.76708 8.493172,6.736581 L 6.051685,6.559644 c -0.067,-0.00469 -0.132375,0.02 -0.179187,0.068375 L 5.002253,7.526388 C 4.807317,7.727699 4.546194,7.851886 4.266945,7.876199 L 1.683085,8.10101 C 1.141775,8.147947 0.645216,7.820386 0.475904,7.30389 L 0.02347,5.923836 C -0.057217,5.677837 0.076844,5.413026 0.322843,5.332338 Z"
         style="fill:#252525;fill-opacity:1;fill-rule:nonzero;stroke:none"
         id="path18" /></g><g
       id="g20"
       transform="translate(0,-0.041016)"><path
         d="M 5.68813,2.183926 C 2.317505,1.518114 0.360318,0.966426 0.340943,0.960927 0.09188,0.890302 -0.052682,0.631176 0.01788,0.382113 0.07638,0.175801 0.264255,0.04105 0.46863,0.04105 c 0.042313,0 0.085376,0.005814 0.128063,0.017876 0.019063,0.005375 1.944062,0.547625 5.273125,1.20525 0.253937,0.050187 0.419187,0.296751 0.369,0.550751 C 6.188693,2.068864 5.942131,2.233989 5.68813,2.183926 Z"
         style="fill:#252525;fill-opacity:1;fill-rule:nonzero;stroke:none"
         id="path22" /></g><g
       id="g24"
       transform="translate(24.109375,7.07666)"><path
         d="M 1.541237,10.376025 1.330301,6.963358 C 1.326426,6.900858 1.30199,6.840233 1.26149,6.792546 L 0.659931,6.084425 C 0.490932,5.885364 0.391058,5.64249 0.371183,5.381929 L 0.001371,0.51977 C -0.018254,0.261646 0.175058,0.03646 0.433244,0.016835 0.445307,0.015898 0.45737,0.01546 0.469245,0.01546 c 0.242749,0 0.448184,0.187187 0.466933,0.433248 L 1.30599,5.310742 c 0.00469,0.061875 0.028374,0.119562 0.068498,0.166749 l 0.601559,0.708121 c 0.170687,0.200999 0.273687,0.456622 0.289937,0.71987 L 2.47692,10.31815 c 0.016,0.258373 -0.180562,0.48081 -0.438873,0.49681 -0.260748,0.01644 -0.480935,-0.180562 -0.49681,-0.438935 z"
         style="fill:#252525;fill-opacity:1;fill-rule:nonzero;stroke:none"
         id="path26" /></g><g
       id="g28"
       transform="translate(28.820312,10.349121)"><path
         d="M 0.46875,2.461914 C 0.209812,2.461914 0,2.252039 0,1.993164 V 0.468602 c 0,-0.258875 0.209812,-0.46875 0.46875,-0.46875 0.258937,0 0.46875,0.209875 0.46875,0.46875 v 1.524562 c 0,0.258875 -0.209813,0.46875 -0.46875,0.46875 z"
         style="fill:#252525;fill-opacity:1;fill-rule:nonzero;stroke:none"
         id="path30" /></g><g
       id="g32"
       transform="translate(22.070312,9.588379)"><path
         d="m 0.9375,0.747559 c 0,0.258875 -0.209813,0.46875 -0.46875,0.46875 C 0.209812,1.216309 0,1.006434 0,0.747559 V 0.468935 C 0,0.21006 0.209812,1.85e-4 0.46875,1.85e-4 c 0.258937,0 0.46875,0.209875 0.46875,0.46875 z"
         style="fill:#252525;fill-opacity:1;fill-rule:nonzero;stroke:none"
         id="path34" /></g><g
       id="g36"
       transform="translate(27.867188,13.733887)"><path
         d="M 0,0.872559 V 0.468934 C 0,0.210059 0.209812,1.84e-4 0.46875,1.84e-4 c 0.258937,0 0.46875,0.209875 0.46875,0.46875 v 0.403625 c 0,0.258875 -0.209813,0.46875 -0.46875,0.46875 C 0.209812,1.341309 0,1.131434 0,0.872559 Z"
         style="fill:#252525;fill-opacity:1;fill-rule:nonzero;stroke:none"
         id="path38" /></g><g
       id="g40"
       transform="translate(22.070312,7.327148)"><path
         d="M 0.46875,1.341309 C 0.209812,1.341309 0,1.131434 0,0.872559 V 0.468933 C 0,0.210058 0.209812,1.83e-4 0.46875,1.83e-4 c 0.258937,0 0.46875,0.209875 0.46875,0.46875 v 0.403626 c 0,0.258875 -0.209813,0.46875 -0.46875,0.46875 z"
         style="fill:#252525;fill-opacity:1;fill-rule:nonzero;stroke:none"
         id="path42" /></g><g
       id="g44"
       transform="translate(5.410156,6.895996)"><path
         d="M 0.46875,0.943848 C 0.209875,0.943848 0,0.733973 0,0.475098 V 0.46866 C 0,0.209785 0.209875,-9e-5 0.46875,-9e-5 c 0.258875,0 0.46875,0.209875 0.46875,0.46875 v 0.006438 c 0,0.258875 -0.209875,0.46875 -0.46875,0.46875 z"
         style="fill:#252525;fill-opacity:1;fill-rule:nonzero;stroke:none"
         id="path46" /></g><g
       id="g48"
       transform="translate(6.492188,6.163574)"><path
         d="M 0.46875,0.943848 C 0.209875,0.943848 0,0.733973 0,0.475098 V 0.468597 c 0,-0.258875 0.209875,-0.46875 0.46875,-0.46875 0.258875,0 0.46875,0.209875 0.46875,0.46875 v 0.006501 c 0,0.258937 -0.209875,0.46875 -0.46875,0.46875 z"
         style="fill:#252525;fill-opacity:1;fill-rule:nonzero;stroke:none"
         id="path50" /></g><g
       id="g52"
       transform="translate(18.808594,13.932617)"><path
         d="m 0.9375,0.468598 v 0.0065 c 0,0.258875 -0.209813,0.46875 -0.46875,0.46875 C 0.209812,0.943848 0,0.733973 0,0.475098 v -0.0065 c 0,-0.258875 0.209812,-0.46875 0.46875,-0.46875 0.258937,0 0.46875,0.209875 0.46875,0.46875 z"
         style="fill:#252525;fill-opacity:1;fill-rule:nonzero;stroke:none"
         id="path54" /></g><g
       id="g56"
       transform="translate(4.222656,10.67041)"><path
         d="M 0,0.475098 V 0.468597 c 0,-0.258875 0.209875,-0.46875 0.46875,-0.46875 0.258875,0 0.46875,0.209875 0.46875,0.46875 v 0.006501 c 0,0.258875 -0.209875,0.46875 -0.46875,0.46875 C 0.209875,0.943848 0,0.733973 0,0.475098 Z"
         style="fill:#252525;fill-opacity:1;fill-rule:nonzero;stroke:none"
         id="path58" /></g><g
       id="g60"
       transform="translate(0,1.628906)"><path
         d="m 31.53126,2.98781 c -0.417372,0 -0.831931,-0.00206 -1.24368,-0.00587 v 3.256608 c 0,0.258873 -0.20981,0.468747 -0.468746,0.468747 -0.258936,0 -0.468748,-0.209874 -0.468748,-0.468747 V 2.969691 C 29.2724,2.968437 29.194275,2.967373 29.116838,2.965998 28.582529,3.100746 27.971281,3.240372 27.285034,3.377247 l 0.567873,6.262525 c 0.02338,0.257812 -0.166687,0.485749 -0.424497,0.509123 -0.258311,0.02394 -0.48581,-0.166687 -0.509184,-0.424497 L 26.359415,3.551184 c -1.627802,0.288061 -3.613729,0.546871 -5.961464,0.697494 l 0.767683,7.406583 c 0.0087,0.06331 0.04369,0.120062 0.0965,0.156249 l 1.004055,0.687371 c 0.25506,0.174562 0.427621,0.437934 0.485809,0.741495 l 0.884933,4.616724 c 0.01731,0.09056 0.08694,0.160999 0.177187,0.179498 l 1.068993,0.218687 c 0.200874,0.04113 0.387873,0.134875 0.540747,0.271061 l 1.578178,1.405117 c 0.0415,0.037 0.09506,0.05731 0.150688,0.05731 h 0.58387 v -1.760301 c 0,-0.408373 0.224749,-0.779684 0.586497,-0.968996 l 1.005994,-0.526621 c 0.05169,-0.02706 0.08381,-0.08012 0.08381,-0.138438 v -2.027925 c 0,-0.437247 0.259436,-0.831557 0.660933,-1.004494 l 1.27168,-0.547872 c 0.0605,-0.02606 0.123373,-0.03837 0.185248,-0.03837 0.181499,0 0.354374,0.106124 0.430748,0.283373 0.102499,0.237749 -0.0072,0.513559 -0.244997,0.615933 l -1.271744,0.547936 c -0.05731,0.02469 -0.09437,0.081 -0.09437,0.143498 v 2.027925 c 0,0.40831 -0.224748,0.779622 -0.586496,0.968995 l -1.006058,0.526685 c -0.05162,0.02706 -0.08375,0.08006 -0.08375,0.138375 v 1.760301 h 2.85711 c 0.258935,0 0.468748,0.209873 0.468748,0.468746 0,0.258875 -0.209813,0.468749 -0.468748,0.468749 h -4.378474 c -0.285873,0 -0.560873,-0.104687 -0.774185,-0.294686 l -1.578239,-1.40518 c -0.02969,-0.02644 -0.06613,-0.04469 -0.105189,-0.05269 L 23.62612,18.95503 C 23.162373,18.860157 22.805187,18.498533 22.716,18.033661 l -0.255436,-1.332554 h -0.881932 c -0.310999,0 -0.603309,-0.121124 -0.823246,-0.341 L 20.28639,15.891111 c -0.04288,-0.04281 -0.09981,-0.06637 -0.160312,-0.06637 h -1.508366 c -0.688246,0 -1.327806,-0.39981 -1.629242,-1.018556 L 16.66391,14.14 c -0.119812,-0.245811 -0.183123,-0.520309 -0.183123,-0.793869 v -0.830558 l -1.566241,0.294123 c -0.1725,0.03238 -0.330811,0.123249 -0.445873,0.255873 l -0.734058,0.846058 c -0.234374,0.270185 -0.541872,0.457934 -0.889308,0.543058 l -0.618434,0.151501 c -0.251311,0.06169 -0.505184,-0.09231 -0.566808,-0.343748 -0.06156,-0.251436 0.09231,-0.505184 0.343747,-0.566809 l 0.618435,-0.1515 c 0.157874,-0.03869 0.297622,-0.123999 0.404184,-0.246874 l 0.734059,-0.846057 c 0.253124,-0.291748 0.601559,-0.491622 0.980995,-0.562872 l 1.739239,-0.326623 v -1.084181 c 0,-0.258874 0.209811,-0.468747 0.468747,-0.468747 0.258935,0 0.468748,0.209873 0.468748,0.468747 v 2.868546 c 0,0.132062 0.03056,0.26456 0.08837,0.383247 l 0.32456,0.666184 c 0.145563,0.298686 0.454311,0.491684 0.786497,0.491684 h 1.508366 c 0.310936,0 0.603246,0.121063 0.823246,0.340999 l 0.469059,0.469059 c 0.04281,0.04281 0.09975,0.06638 0.160249,0.06638 h 0.702246 l -0.44981,-2.346674 c -0.01131,-0.05912 -0.04494,-0.110438 -0.09463,-0.144437 l -1.004055,-0.687371 c -0.27575,-0.188749 -0.457247,-0.487248 -0.497935,-0.818996 -3.75e-4,-0.0029 -6.88e-4,-0.0058 -0.001,-0.0087 l -0.772677,-7.45539 c -1.082306,0.053563 -2.235798,0.083813 -3.461104,0.083813 -1.56399,0 -3.089044,-0.050249 -4.564723,-0.148998 L 10.911194,5.789171 C 10.803007,6.109732 10.547196,6.366166 10.226823,6.475103 L 8.924518,6.917789 8.68952,9.231338 C 8.663395,9.488898 8.432896,9.676585 8.175835,9.650335 7.918273,9.62421 7.730649,9.39415 7.756837,9.136651 L 7.945024,7.283788 7.228215,8.000595 C 7.021654,8.207156 6.746968,8.320906 6.454782,8.320906 H 4.752729 c -0.434497,0 -0.827807,-0.257186 -1.001993,-0.655247 L 2.398681,4.575989 C 2.254619,4.587427 2.117558,4.597616 1.987746,4.606678 l 0.45806,3.279418 c 0.016812,0.120312 0.075249,0.231998 0.164499,0.314436 l 0.377247,0.348373 c 0.299374,0.276436 0.471123,0.668683 0.471123,1.076118 v 0.663996 c 0,0.258874 -0.209874,0.468747 -0.468747,0.468747 -0.258874,0 -0.468748,-0.209873 -0.468748,-0.468747 V 9.625023 c 0,-0.146624 -0.061812,-0.28781 -0.169561,-0.387309 L 1.974371,8.88934 C 1.726372,8.660404 1.564123,8.350218 1.517374,8.015844 L 1.048626,4.660179 C 0.686378,4.675741 0.482942,4.67774 0.471192,4.677803 c -8.75e-4,0 -0.001687,0 -0.002562,0 C 0.211006,4.677803 0.001445,4.469616 7e-6,4.211679 -0.00143,3.952806 0.207256,3.741808 0.46613,3.740309 0.529192,3.739933 6.293034,3.680994 12.439873,1.648443 10.75182,1.411257 9.233703,1.165071 7.909961,0.930136 7.655025,0.884886 7.485088,0.641575 7.530338,0.386702 7.570713,0.159515 7.768337,-2.33e-4 7.991335,-2.33e-4 c 0.027188,0 0.05475,0.002375 0.082438,0.007313 5.252094,0.932182 13.585107,2.043362 23.457487,2.043362 0.258935,0 0.468748,0.209873 0.468748,0.468746 0,0.258875 -0.209813,0.468622 -0.468748,0.468622 z M 3.382863,4.486553 4.609543,7.289786 c 0.024875,0.056875 0.081062,0.093625 0.143186,0.093625 h 1.702365 c 0.04175,0 0.081,-0.016249 0.1105,-0.045749 L 7.306714,6.596541 C 7.424589,6.478667 7.570275,6.388041 7.728087,6.334354 L 9.925324,5.587483 C 9.971074,5.571921 10.007699,5.535296 10.023137,5.489485 L 10.470009,4.164804 C 9.498639,4.084494 8.550082,3.982805 7.628838,3.859055 6.012534,4.173428 4.554793,4.367117 3.382863,4.486553 Z m 11.07981,-2.56961 c -1.358554,0.52981 -2.721422,0.95762 -4.035227,1.30368 1.783053,0.151062 3.647416,0.227749 5.572405,0.227749 3.630417,0 6.61746,-0.268499 8.974323,-0.620749 C 21.087196,2.639126 17.543531,2.302441 14.462673,1.916943 Z"
         style="fill:#252525;fill-opacity:1;fill-rule:nonzero;stroke:none"
         id="path62" /></g><g
       id="g64"
       transform="translate(9.488281,8.978516)"><path
         d="M 0.416254,1.31782 C 0.159004,1.28882 -0.026058,1.056757 0.003004,0.799507 l 0.040313,-0.35725 c 0.027,-0.239437 0.229812,-0.41625 0.465187,-0.41625 0.017563,0 0.035251,0.001 0.053126,0.003 0.25725,0.029 0.442312,0.261063 0.41325,0.518313 L 0.934567,0.90457 c -0.029,0.257187 -0.26125,0.442187 -0.518313,0.41325 z"
         style="fill:#252525;fill-opacity:1;fill-rule:nonzero;stroke:none"
         id="path66" /></g></g></svg>
