<?xml version="1.0" encoding="UTF-8" standalone="no"?>
<svg
   xmlns:dc="http://purl.org/dc/elements/1.1/"
   xmlns:cc="http://creativecommons.org/ns#"
   xmlns:rdf="http://www.w3.org/1999/02/22-rdf-syntax-ns#"
   xmlns:svg="http://www.w3.org/2000/svg"
   xmlns="http://www.w3.org/2000/svg"
   version="1.1"
   id="svg2"
   xml:space="preserve"
   width="42.666668"
   height="33.207684"
   viewBox="0 0 42.666668 33.207684"><metadata
     id="metadata8"><rdf:RDF><cc:Work
         rdf:about=""><dc:format>image/svg+xml</dc:format><dc:type
           rdf:resource="http://purl.org/dc/dcmitype/StillImage" /></cc:Work></rdf:RDF></metadata><defs
     id="defs6" /><g
     id="g10"
     transform="matrix(1.3333333,0,0,-1.3333333,0,33.207683)"><g
       id="g12"
       transform="translate(0,-0.060059)"><path
         d="m 31.498188,0.9977 h -2.099501 v 1.673874 c 0.552876,0.010936 1.069626,0.068687 1.504376,0.37075 0.597875,0.415375 0.876375,1.183752 0.876375,2.418001 0,1.372063 -0.450874,2.971251 -1.111,4.090751 C 31.527813,10.427513 32,11.578763 32,12.813138 c 0,2.306188 -1.712749,4.284938 -3.988874,4.616126 -0.33475,0.688936 -0.874876,1.259874 -1.539938,1.634186 -0.268689,2.359251 -2.250187,4.131437 -4.634188,4.131437 -0.61825,0 -1.215813,-0.119186 -1.779875,-0.352686 -0.484375,0.889624 -0.987938,1.326811 -1.5235,1.326811 -0.543,0 -1.0455,-0.442436 -1.536,-1.352625 -0.389686,-0.722999 -0.772562,-1.748062 -1.107375,-2.964125 -0.230187,-0.836313 -0.429562,-1.734685 -0.594625,-2.65875 -0.830688,0.488438 -1.769625,0.744625 -2.749188,0.744625 -0.287124,0 -0.570312,-0.02269 -0.847687,-0.06637 v 3.545 c 0,1.570313 -0.991499,2.985249 -2.467312,3.520811 -0.243313,0.08831 -0.512188,-0.03737 -0.600563,-0.280687 -0.088313,-0.243374 0.037375,-0.512186 0.28075,-0.6005 1.106313,-0.401562 1.849625,-1.46225 1.849625,-2.639563 V 17.636391 C 9.854875,17.321512 9.047625,16.772449 8.422688,16.048077 v 0.76556 L 9.3235,17.714451 c 0.183062,0.183124 0.183062,0.479873 0,0.662937 -0.183063,0.183001 -0.479875,0.183001 -0.662875,0 L 8.422688,18.13945 v 2.856876 c 0,0.258936 -0.209876,0.46875 -0.46875,0.46875 -0.258875,0 -0.46875,-0.209814 -0.46875,-0.46875 v -0.700939 l -0.472751,0.472752 c -0.183062,0.182999 -0.479874,0.182999 -0.662874,0 -0.183063,-0.183127 -0.183063,-0.479876 0,-0.662937 L 7.48525,18.969513 v -3.635062 c -0.683625,0.985312 -1.487563,1.710625 -2.338562,1.799311 v 4.283001 c 0,1.173251 0.739749,2.232874 1.840875,2.636563 0.243062,0.08912 0.367812,0.358375 0.278687,0.601499 -0.089125,0.243063 -0.358312,0.367563 -0.6015,0.27875 C 5.196,24.395012 4.209125,22.981762 4.209125,21.416763 v -4.448 C 3.304812,16.56295 2.380188,15.46445 1.584625,13.819387 0.613063,11.810699 0.033125,9.3457 0.033125,7.225637 c 0,-2.170562 0.46675,-3.505874 1.468813,-4.202062 0.8225,-0.571501 1.875187,-0.623062 3.001187,-0.627188 V 0.9977 H 0.46875 C 0.209875,0.9977 0,0.787888 0,0.52895 0,0.270012 0.209875,0.0602 0.46875,0.0602 h 31.029438 c 0.258938,0 0.46875,0.209812 0.46875,0.46875 0,0.258938 -0.209875,0.46875 -0.46875,0.46875 z M 8.90575,3.433887 C 9.232313,3.384701 9.577,3.3717 9.932125,3.36845 V 0.997637 H 8.422563 v 2.011125 c 0.172249,0.117688 0.333812,0.258 0.483187,0.425125 z m 1.963937,-0.0655 c 0.421687,0.00369 0.828689,0.021 1.207938,0.096874 V 0.9977 h -1.207938 z m 4.934626,2.810688 C 16.248062,5.637388 16.787876,5.430386 17.357,5.351011 16.767126,4.975824 16.082687,4.774574 15.363438,4.774574 c -0.508688,0 -0.997813,0.100125 -1.457813,0.296376 0.180251,0.523187 0.267437,1.179624 0.267437,1.987749 0,0.0795 -0.0018,0.159876 -0.0039,0.240251 0.324562,0.101187 0.637375,0.233187 0.93675,0.393124 0.167313,-0.651188 0.398125,-1.146437 0.698375,-1.512999 v 0 z m -2.76925,-2.326189 c 0.158,0.109751 0.2985,0.239752 0.422624,0.390501 0.55775,-0.250562 1.150314,-0.386501 1.766501,-0.404251 V 0.9977 h -2.209001 l 0.01988,2.855186 z m 3.126562,0.052813 c 0.688625,0.117563 1.335562,0.386812 1.903187,0.792312 V 0.9977 h -1.903187 z m 2.840687,1.397564 c 0.365499,0.00562 0.730188,0.028686 1.077501,0.120186 V 0.9977 h -1.077501 z m 3.038063,0.603811 V 0.9977 h -1.022999 v 4.923563 c 0.08456,0.076313 0.166624,0.161562 0.245499,0.257812 0.09312,0.113688 0.1795,0.24 0.2595,0.379187 0.150999,-0.227188 0.323937,-0.464314 0.518,-0.651188 z m 0.9375,-0.629812 C 23.348,5.094011 23.750689,4.970823 24.171938,4.918074 V 0.9977 h -1.194063 z m 2.131563,-0.358938 c 0.336563,0.042249 0.664936,0.129812 0.976686,0.26025 0.04062,-1.070187 0.319752,-1.753563 0.870627,-2.13625 0.434749,-0.302063 0.951811,-0.361563 1.504373,-0.37175 V 0.997763 h -3.351749 v 3.920561 z m 5.258749,-1.106125 c -0.2255,-0.156626 -0.5665,-0.195187 -0.9695,-0.203749 v 0.849499 c 0.0087,0.0075 0.01744,0.014938 0.02569,0.023187 l 0.744312,0.744313 c 0.183061,0.183124 0.183061,0.479877 0,0.662939 -0.183125,0.183 -0.479876,0.183 -0.662937,0 L 29.398688,5.781324 v 1.33775 c 0,0.258938 -0.209812,0.46875 -0.46875,0.46875 -0.258937,0 -0.46875,-0.209812 -0.46875,-0.46875 v -3.51075 c -0.403499,0.00856 -0.743936,0.047064 -0.969499,0.203814 -0.318875,0.221563 -0.473875,0.760624 -0.473875,1.648124 0,1.026125 0.282125,2.222061 0.754625,3.199187 0.480938,0.994375 0.965187,1.364939 1.157499,1.364939 0.192313,0 0.676501,-0.370564 1.157439,-1.364939 C 30.559939,7.682323 30.842,6.486387 30.842,5.460262 c 0,-0.887438 -0.154999,-1.4265 -0.473812,-1.648063 v 0 z m 0.694313,9.000939 c 0,-0.932563 -0.337626,-1.805688 -0.95475,-2.490126 -0.367313,0.398501 -0.769251,0.638939 -1.177813,0.638939 -0.183687,0 -0.365999,-0.04856 -0.544437,-0.138189 v 4.974564 c 0,0.2065 -0.0175,0.408873 -0.04981,0.606375 1.58431,-0.442126 2.72681,-1.907563 2.72681,-3.591563 z m -9.16675,3.639812 c 0.335375,1.210376 1.487251,2.152687 2.744938,2.152687 1.548,0 2.807312,-1.259312 2.807312,-2.807311 V 9.947013 c -0.664499,-0.927 -1.171375,-2.353501 -1.321751,-3.696626 -0.0023,-0.00131 -0.0046,-0.00237 -0.0068,-0.00375 -0.3095,-0.192249 -0.652687,-0.319563 -1.010061,-0.379812 V 8.616199 L 26.0102,9.517013 c 0.183062,0.183124 0.183062,0.479874 0,0.662937 -0.183124,0.182999 -0.479875,0.182999 -0.662937,0 L 25.109388,9.942075 v 2.856813 c 0,0.258938 -0.209812,0.46875 -0.46875,0.46875 -0.258938,0 -0.46875,-0.209812 -0.46875,-0.46875 v -0.700937 l -0.472689,0.47275 c -0.183061,0.183062 -0.479873,0.183124 -0.662874,6.2e-5 -0.183124,-0.183063 -0.183124,-0.479876 -6.3e-5,-0.662876 l 1.135689,-1.135749 V 5.86545 c -1.00975,0.169937 -1.860563,0.880812 -2.193876,1.875374 -8.13e-4,0.00244 -0.0019,0.00462 -0.0028,0.00706 0.225001,0.906875 0.330376,2.110062 0.330376,3.684188 0,1.587499 -0.145374,3.328313 -0.41,5.020875 v 0 z m -3.362188,6.778501 c 0.109375,0 0.656002,-0.393125 1.332063,-2.3165 0.08581,-0.244188 0.353125,-0.372688 0.597687,-0.28675 0.244188,0.08581 0.372626,0.353374 0.286751,0.597686 -0.097,0.275875 -0.194563,0.531313 -0.292751,0.767876 0.437812,0.174875 0.900875,0.263626 1.379688,0.263626 1.733499,0 3.200874,-1.172188 3.612812,-2.803251 -0.26075,0.05769 -0.531248,0.089 -0.809124,0.089 -1.217625,0 -2.332937,-0.594561 -3.024313,-1.537938 -0.07075,0.345128 -0.145876,0.685814 -0.226313,1.019251 -0.06075,0.251625 -0.313875,0.406563 -0.565624,0.345751 -0.251625,-0.06075 -0.406439,-0.313938 -0.345751,-0.565626 0.565314,-2.343626 0.8895,-5.030813 0.8895,-7.3725 0,-2.452688 -0.271687,-3.976562 -0.830624,-4.658813 C 20.178001,6.334324 19.719936,6.2547 19.002312,6.241512 v 2.399563 l 1.520689,1.520688 c 0.183061,0.183125 0.183061,0.479875 0,0.662937 -0.183125,0.183 -0.479878,0.183 -0.662939,0 l -0.85775,-0.85775 v 3.906625 c 0,0.258938 -0.209812,0.46875 -0.46875,0.46875 -0.258938,0 -0.46875,-0.209812 -0.46875,-0.46875 v -0.979937 l -0.666687,0.666688 c -0.183125,0.182999 -0.479876,0.182999 -0.662937,0 -0.183062,-0.183125 -0.183062,-0.479876 0,-0.662938 L 18.063375,11.5692 c 5e-4,-5e-4 10e-4,-8.75e-4 0.0014,-0.0013 V 6.241525 C 17.34715,6.254713 16.889026,6.3344 16.529525,6.773275 15.970588,7.455526 15.6989,8.9794 15.6989,11.432088 c 0,2.625562 0.409437,5.680314 1.095125,8.171376 0.820999,2.982437 1.592561,3.628 1.7395,3.628 v 0 z m -5.987187,-6.230814 c 0.934876,0 1.825,-0.281624 2.584188,-0.814999 -0.238,-1.604126 -0.369126,-3.247437 -0.369126,-4.753624 0,-1.092938 0.05094,-2.006691 0.157251,-2.767128 -0.259937,-0.1615 -0.53425,-0.295 -0.820126,-0.399812 -0.151063,1.262749 -0.527499,2.568188 -1.083437,3.718188 v 1.1365 L 14.003,14.107638 c 0.183063,0.183063 0.183063,0.479812 0,0.662875 -0.183062,0.182999 -0.479875,0.183062 -0.662875,-6.2e-5 l -0.324938,-0.324938 v 0.541125 c 0,0.258938 -0.209875,0.46875 -0.46875,0.46875 -0.258875,0 -0.46875,-0.209812 -0.46875,-0.46875 V 13.491763 C 11.531938,14.151888 10.953188,14.5107 10.401,14.5107 c -0.663563,0 -1.282749,-0.486437 -1.81325,-1.189874 -0.094812,0.216687 -0.1955,0.432187 -0.301375,0.644436 0.626187,1.815626 2.337937,3.035375 4.26,3.035375 z M 2.036875,3.793449 c -0.45775,0.318062 -1.06625,1.019814 -1.06625,3.432188 0,1.985626 0.545,4.298001 1.457937,6.185626 0.821125,1.697875 1.819438,2.795 2.543376,2.795 0.756812,0 2.0295,-1.325312 3.002,-3.858125 C 7.68,11.798888 7.432063,11.204262 7.243125,10.639512 7.161,10.394012 7.293437,10.128387 7.538938,10.046325 c 0.2455,-0.082375 0.511125,0.05031 0.59325,0.295812 0.667625,1.99575 1.697437,3.231063 2.268687,3.231063 0.387188,0 1.106063,-0.62475 1.769438,-1.996438 0.667,-1.379187 1.065187,-3.068188 1.065187,-4.518 0,-1.295313 -0.240562,-2.092125 -0.735437,-2.435938 -0.388312,-0.269751 -0.961187,-0.31 -1.630438,-0.316563 V 5.7397 l 1.520687,1.520687 c 0.183063,0.183125 0.183063,0.479876 0,0.662938 -0.183062,0.183 -0.479874,0.183 -0.662874,0 L 10.869625,7.065512 v 2.294877 c 0,0.258938 -0.209875,0.46875 -0.46875,0.46875 -0.258875,0 -0.46875,-0.209812 -0.46875,-0.46875 V 4.305887 C 9.26275,4.312012 8.69,4.352951 8.301687,4.622763 7.806812,4.966576 7.56625,5.763386 7.56625,7.058699 c 0,0.378936 0.0265,0.776064 0.078812,1.180376 C 7.67825,8.495762 7.497063,8.730824 7.240313,8.764074 6.9835,8.796886 6.7485,8.616076 6.715312,8.359262 6.657875,7.915262 6.62875,7.477699 6.62875,7.058638 6.62875,5.410887 6.990375,4.3922 7.76675,3.852762 7.804812,3.826324 7.843688,3.801949 7.882875,3.778324 7.286062,3.377575 6.448625,3.3382 5.440625,3.334074 v 4.894564 l 0.71975,0.719749 c 0.183063,0.183125 0.183063,0.479876 0,0.662938 -0.183062,0.183 -0.479875,0.183 -0.662875,0 L 5.440625,9.55445 v 1.290438 c 0,0.258938 -0.209875,0.46875 -0.46875,0.46875 -0.258875,0 -0.46875,-0.209812 -0.46875,-0.46875 V 6.835075 L 3.912937,7.425262 c -0.183062,0.183001 -0.479874,0.183001 -0.662875,0 C 3.067,7.242138 3.067,6.945387 3.250062,6.762325 L 4.436937,5.575449 C 4.457625,5.554762 4.479938,5.536762 4.503188,5.520761 V 3.33395 C 3.4985,3.33795 2.633938,3.378761 2.036875,3.793449 Z m 3.40375,-1.396812 c 0.723562,0.003 1.421,0.025686 2.044438,0.193562 V 0.9977 H 5.440625 Z"
         style="fill:#252525;fill-opacity:1;fill-rule:nonzero;stroke:none"
         id="path14" /></g></g></svg>
