<?xml version="1.0" encoding="UTF-8" standalone="no"?>
<svg
   xmlns:dc="http://purl.org/dc/elements/1.1/"
   xmlns:cc="http://creativecommons.org/ns#"
   xmlns:rdf="http://www.w3.org/1999/02/22-rdf-syntax-ns#"
   xmlns:svg="http://www.w3.org/2000/svg"
   xmlns="http://www.w3.org/2000/svg"
   version="1.1"
   id="svg2"
   xml:space="preserve"
   width="42.666668"
   height="33.649738"
   viewBox="0 0 42.666668 33.649738"><metadata
     id="metadata8"><rdf:RDF><cc:Work
         rdf:about=""><dc:format>image/svg+xml</dc:format><dc:type
           rdf:resource="http://purl.org/dc/dcmitype/StillImage" /></cc:Work></rdf:RDF></metadata><defs
     id="defs6" /><g
     id="g10"
     transform="matrix(1.3333333,0,0,-1.3333333,0,33.64974)"><g
       id="g12"><path
         d="m 31.457691,1.054352 h -6.826425 v 3.236994 c 1.490684,0.200498 2.811868,1.131498 3.580118,2.542932 1.020685,0.233313 1.947933,0.824249 2.633869,1.684185 C 31.589876,9.452024 32,10.645145 32,11.87808 c 0,1.875559 -0.960371,3.611493 -2.471432,4.513178 -0.157436,3.127682 -2.568495,5.621554 -5.504926,5.621554 -0.924311,0 -1.838873,-0.251562 -2.644745,-0.727499 -0.25075,-0.148064 -0.333998,-0.471312 -0.185936,-0.721999 0.148124,-0.250812 0.471435,-0.334001 0.722059,-0.185937 0.643623,0.380123 1.372747,0.580999 2.108622,0.580999 2.453933,0 4.454053,-2.190809 4.458679,-4.88368 3.74e-4,-0.198436 0.112062,-0.379873 0.289123,-0.469498 1.320748,-0.668436 2.174059,-2.131371 2.174059,-3.727055 0,-2.013871 -1.363809,-3.757492 -3.172432,-4.055805 C 27.603697,7.794338 27.458572,7.685776 27.38401,7.53109 26.818386,6.358091 25.796389,5.565155 24.631266,5.358719 v 4.665301 l 2.594745,2.386059 c 0.214312,0.197124 0.228312,0.530624 0.03119,0.744936 -0.197187,0.214313 -0.530624,0.228374 -0.744938,0.03119 l -1.880994,-1.729683 v 3.519493 c 0,0.291187 -0.236061,0.527249 -0.527249,0.527249 -0.291187,0 -0.52725,-0.236062 -0.52725,-0.527249 V 8.594779 l -1.880997,1.729682 c -0.214311,0.197188 -0.547874,0.183125 -0.744936,-0.03119 -0.197124,-0.214312 -0.183122,-0.547811 0.03119,-0.744937 L 23.576834,7.162277 V 5.334032 c -1.243246,0.160187 -2.339684,0.982809 -2.927996,2.227558 -0.07031,0.148812 -0.206123,0.256249 -0.367059,0.290373 -1.749497,0.371687 -3.019246,2.064871 -3.019246,4.02618 0,1.546497 0.779875,2.946181 2.035248,3.652617 0.167999,0.09456 0.270998,0.273249 0.268622,0.465936 -1.24e-4,0.01463 -6.22e-4,0.02913 -0.0011,0.04356 -3.11e-4,0.0084 -6.25e-4,0.01669 -6.25e-4,0.025 0,1.098312 0.324125,2.136059 0.937311,3.000933 0.168438,0.237562 0.112375,0.566686 -0.125124,0.734998 -0.237562,0.168501 -0.566689,0.112313 -0.735001,-0.125124 -0.698561,-0.985248 -1.086309,-2.152433 -1.127809,-3.388242 -1.429871,-0.932437 -2.30587,-2.593247 -2.30587,-4.409743 0,-2.362746 1.499996,-4.420864 3.602367,-4.996364 0.791311,-1.490309 2.190933,-2.454745 3.76643,-2.60912 V 1.05435 H 23.243047 C 23.165331,2.434162 22.222145,3.634535 20.90871,4.039846 20.496586,4.916658 19.696087,5.552406 18.754776,5.75853 18.446152,7.161341 17.183342,8.207401 15.711783,8.207401 14.577035,8.207401 13.5481,7.597527 12.9996,6.62678 11.919415,6.585716 10.948229,6.008656 10.390355,5.114656 10.042668,6.071156 9.152044,6.76759 8.109297,6.842464 v 1.386187 c 1.423309,0.197874 2.683619,1.088121 3.419993,2.434868 0.978186,0.226 1.866559,0.793499 2.524245,1.617997 0.716124,0.897686 1.110499,2.044997 1.110499,3.230495 0,1.799245 -0.919311,3.465055 -2.366746,4.333992 -0.157062,3.000681 -2.472745,5.391302 -5.292365,5.391302 -1.08156,0 -2.121871,-0.348812 -3.008556,-1.008873 -0.2335,-0.173813 -0.281938,-0.504187 -0.108126,-0.737749 0.173813,-0.2335 0.504124,-0.281937 0.737749,-0.108124 0.703249,0.523622 1.525873,0.80031 2.378933,0.80031 2.336933,0 4.241804,-2.087372 4.246241,-4.653116 3.76e-4,-0.198437 0.112064,-0.379874 0.289126,-0.4695 1.256997,-0.636186 2.069121,-2.028995 2.069121,-3.548242 0,-1.917183 -1.297623,-3.576993 -3.018432,-3.860806 -0.169313,-0.028 -0.314499,-0.136562 -0.389061,-0.291249 C 10.167856,10.252458 9.20667,9.50071 8.109172,9.29696 v 4.429992 l 2.476995,2.277683 c 0.214312,0.197124 0.22825,0.530624 0.03119,0.744936 -0.197062,0.214374 -0.530624,0.228374 -0.744937,0.03119 L 8.109174,15.159389 v 3.318369 c 0,0.291187 -0.236062,0.52725 -0.527249,0.52725 -0.291187,0 -0.527249,-0.236063 -0.527249,-0.52725 V 12.419583 L 5.291492,14.040954 C 5.077116,14.238138 4.743616,14.224075 4.546554,14.009763 4.34943,13.795451 4.36343,13.46189 4.577742,13.264828 l 2.47687,-2.277684 V 9.272273 c -1.172248,0.160375 -2.204496,0.940435 -2.760433,2.116558 -0.070312,0.148812 -0.206124,0.25625 -0.367061,0.290374 -1.66456,0.353812 -2.872745,1.965622 -2.872745,3.832806 0,1.472559 0.742186,2.805057 1.936996,3.47743 0.167875,0.0945 0.270875,0.272875 0.268625,0.4655 -1.25e-4,0.01425 -5.63e-4,0.0285 -0.00106,0.04269 -1.87e-4,0.0077 -5.62e-4,0.01531 -5.62e-4,0.02313 0,0.652124 0.120187,1.282747 0.357187,1.874307 0.070499,0.175751 0.151687,0.348376 0.241499,0.513251 0.13925,0.255749 0.044875,0.575872 -0.210874,0.715124 C 3.390431,22.76281 3.070244,22.668373 2.931057,22.412622 2.82162,22.211624 2.72262,22.001247 2.63687,21.787249 2.37712,21.139063 2.233183,20.453564 2.207996,19.746315 0.838561,18.848379 0,17.254633 0,15.512011 0,13.243453 1.438622,11.266644 3.455993,10.70952 4.214617,9.287335 5.550177,8.364588 7.054674,8.21015 V 6.702091 C 6.477675,6.500465 5.983863,6.101843 5.666176,5.566406 4.385804,5.493593 3.351243,4.54797 3.150744,3.300848 2.206433,2.881474 1.504372,2.049725 1.245873,1.054476 H 0.527249 C 0.236062,1.054476 0,0.818415 0,0.527227 0,0.23604 0.236062,-2.1e-5 0.527249,-2.1e-5 h 1.154998 11.902103 9.115294 8.758047 c 0.291186,0 0.527249,0.236061 0.527249,0.527248 0,0.291188 -0.236124,0.527125 -0.527249,0.527125 z m -29.106008,0 c 0.2515,0.640936 0.780561,1.151497 1.45456,1.36981 0.212062,0.068687 0.357999,0.263248 0.364562,0.485998 0.026562,0.900686 0.753373,1.606249 1.654684,1.606249 0.036125,0 0.075625,-0.00169 0.124187,-0.00525 0.225875,-0.016314 0.437187,0.112686 0.524874,0.32156 0.24575,0.584625 0.814186,0.962437 1.448185,0.962437 0.814123,0 1.501373,-0.635125 1.564622,-1.445935 0.02025,-0.258812 0.225811,-0.464437 0.484686,-0.484688 0.14375,-0.011186 0.28275,-0.042747 0.414374,-0.090873 5.63e-4,-1.87e-4 0.0011,-5e-4 0.0016,-6.89e-4 0.02444,-0.009 0.0485,-0.018686 0.07238,-0.028812 0.0051,-0.00219 0.01031,-0.00437 0.01544,-0.00662 0.02231,-0.00969 0.04438,-0.019875 0.06606,-0.030562 0.0074,-0.00369 0.01462,-0.0075 0.02194,-0.011249 0.03006,-0.015376 0.0595,-0.03175 0.08837,-0.048937 0.01575,-0.00944 0.03163,-0.018564 0.047,-0.028563 0.01169,-0.0075 0.02294,-0.015564 0.03431,-0.02325 0.01731,-0.011813 0.0345,-0.023814 0.05138,-0.036312 0.0096,-0.00713 0.019,-0.01425 0.02831,-0.021563 0.02037,-0.015875 0.0405,-0.032251 0.06006,-0.049189 0.0054,-0.00463 0.01088,-0.00906 0.01625,-0.01375 0.05194,-0.045999 0.100875,-0.095562 0.146437,-0.148187 0.0042,-0.00488 0.0083,-0.00975 0.01244,-0.014687 0.01919,-0.022688 0.03769,-0.046 0.05563,-0.069813 0.0034,-0.00456 0.007,-0.00906 0.01037,-0.013687 0.04094,-0.05575 0.07825,-0.114498 0.111751,-0.175812 0.0044,-0.00812 0.0086,-0.016437 0.013,-0.024688 0.01187,-0.022688 0.02319,-0.045813 0.034,-0.06925 0.0043,-0.00925 0.0086,-0.0185 0.01275,-0.027813 0.01331,-0.030375 0.02594,-0.061186 0.03738,-0.092499 4.38e-4,-0.00112 8.12e-4,-0.00212 0.0012,-0.00325 0.06181,-0.17075 0.207189,-0.297686 0.384689,-0.335936 0.04712,-0.010126 0.09331,-0.022501 0.138748,-0.036438 0.01481,-0.00456 0.02919,-0.010126 0.04387,-0.015062 0.03025,-0.010126 0.06038,-0.020437 0.08981,-0.032187 0.017,-0.00681 0.03356,-0.014499 0.05025,-0.021812 0.02631,-0.0115 0.0525,-0.023188 0.07813,-0.035938 0.01725,-0.00856 0.034,-0.017813 0.05087,-0.026938 0.02425,-0.013063 0.04825,-0.026564 0.07169,-0.04075 0.01669,-0.010064 0.03313,-0.020499 0.04944,-0.031125 0.02275,-0.014812 0.04519,-0.03025 0.06719,-0.046125 0.01569,-0.011312 0.03119,-0.022625 0.04644,-0.034437 0.02181,-0.016874 0.04294,-0.034437 0.06387,-0.05225 0.01419,-0.012062 0.02856,-0.024063 0.04238,-0.036564 0.02144,-0.019499 0.04194,-0.039812 0.06238,-0.060249 0.01206,-0.012062 0.02456,-0.023875 0.03625,-0.036375 0.023,-0.024437 0.04475,-0.049937 0.06631,-0.075562 0.008,-0.00956 0.0165,-0.018564 0.02431,-0.028251 0.02875,-0.035874 0.05619,-0.072749 0.08206,-0.110812 0.0054,-0.00794 0.01013,-0.016435 0.01538,-0.024437 0.01994,-0.030374 0.03937,-0.061063 0.05744,-0.092624 0.0081,-0.014313 0.01544,-0.029187 0.02319,-0.043749 0.014,-0.026125 0.02775,-0.052315 0.04044,-0.079127 0.0079,-0.016687 0.01488,-0.03375 0.02219,-0.050624 0.01113,-0.025689 0.02187,-0.051375 0.03175,-0.077624 0.0068,-0.017999 0.01294,-0.036188 0.01913,-0.054437 0.0088,-0.026001 0.01706,-0.052187 0.02469,-0.078688 0.0054,-0.018749 0.01037,-0.037624 0.01519,-0.056562 0.0067,-0.026875 0.01256,-0.053938 0.018,-0.081189 0.0038,-0.018999 0.0075,-0.037998 0.01069,-0.057249 0.0015,-0.00894 0.0023,-0.017999 0.0036,-0.027 H 2.351684 v 0 z m 11.76629,-6.3e-5 v 6.3e-5 c -4.37e-4,0.005 -0.0015,0.00994 -0.0019,0.014875 -0.0061,0.062937 -0.01388,0.125498 -0.02419,0.187311 -6.25e-4,0.00363 -0.0014,0.00725 -0.0021,0.010876 -0.01075,0.063063 -0.02356,0.1255 -0.03856,0.18725 -6.25e-4,0.00269 -0.0011,0.00537 -0.0018,0.00794 -0.01506,0.061187 -0.0325,0.1215 -0.0515,0.181125 -0.0021,0.00638 -0.0039,0.012936 -0.0061,0.019312 -0.01875,0.057375 -0.03962,0.113875 -0.06206,0.169749 -0.0033,0.00806 -0.0064,0.016187 -0.0097,0.024187 -0.0225,0.054687 -0.04681,0.108438 -0.07269,0.161375 -0.0041,0.00838 -0.0081,0.016689 -0.01231,0.025001 -0.02637,0.052626 -0.05425,0.104374 -0.08375,0.155125 -0.0045,0.00769 -0.009,0.015251 -0.01356,0.022938 -0.03038,0.051187 -0.06219,0.101436 -0.09575,0.150499 -0.0041,0.006 -0.0083,0.011812 -0.01244,0.017687 -0.035,0.050375 -0.07131,0.099813 -0.109437,0.147751 -0.0024,0.003 -0.0049,0.00587 -0.0073,0.00894 -0.03988,0.049749 -0.08125,0.098249 -0.124438,0.145187 -4.99e-4,5e-4 -9.37e-4,0.00106 -0.0014,0.00156 -0.04275,0.046373 -0.08731,0.091187 -0.133125,0.134686 -0.004,0.00381 -0.0079,0.00775 -0.01187,0.011499 -0.04406,0.041313 -0.08969,0.081062 -0.136438,0.119562 -0.0063,0.00513 -0.01244,0.010378 -0.01875,0.015564 -0.046,0.037188 -0.09325,0.072876 -0.141688,0.107187 -0.0075,0.00531 -0.015,0.010626 -0.0225,0.015875 -0.04838,0.033625 -0.09794,0.06575 -0.148564,0.096312 -0.0079,0.00475 -0.01594,0.0095 -0.02387,0.014189 -0.05131,0.030311 -0.103562,0.059124 -0.156875,0.086187 -0.0073,0.00375 -0.01475,0.00719 -0.02212,0.010813 -0.055,0.027187 -0.110876,0.052999 -0.167938,0.076624 -0.0051,0.00212 -0.01019,0.00394 -0.01525,0.006 -0.05981,0.024313 -0.1205,0.047001 -0.182374,0.067188 -1.88e-4,6.3e-5 -4.38e-4,1.85e-4 -6.88e-4,3.11e-4 -0.0027,0.00544 -0.0058,0.0105 -0.0084,0.015875 -0.02131,0.042687 -0.04363,0.084625 -0.06712,0.125876 -0.012,0.021061 -0.02481,0.041626 -0.03731,0.062376 -0.01519,0.024936 -0.0305,0.04981 -0.04644,0.074249 -0.01531,0.023561 -0.03106,0.046686 -0.04719,0.069685 -0.014,0.019937 -0.02838,0.039564 -0.04288,0.059126 -0.01825,0.024688 -0.03656,0.049249 -0.05569,0.07325 -0.01125,0.014062 -0.02306,0.027563 -0.03456,0.041313 -0.04444,0.053438 -0.09088,0.104999 -0.139437,0.154749 -0.0084,0.00856 -0.01638,0.017437 -0.02481,0.025875 -0.02412,0.024 -0.04906,0.047001 -0.07406,0.070062 -0.01444,0.013314 -0.02881,0.026562 -0.04356,0.039563 -0.02388,0.021 -0.04813,0.041626 -0.07287,0.061876 -0.018,0.014749 -0.03631,0.028936 -0.05469,0.043249 -0.02294,0.017687 -0.04569,0.035563 -0.06925,0.052563 -0.03313,0.024 -0.067,0.046875 -0.10125,0.069313 -0.0091,0.006 -0.01781,0.012625 -0.02706,0.018499 0.38425,0.649124 1.087624,1.06181 1.864747,1.06181 0.04756,0 0.09919,-0.00219 0.162438,-0.00681 0.225562,-0.016814 0.437124,0.112749 0.52481,0.321559 0.322563,0.767624 1.068937,1.263625 1.901373,1.263625 1.068935,0 1.971244,-0.834 2.054244,-1.898623 0.02019,-0.258812 0.225813,-0.464435 0.484688,-0.484625 0.804186,-0.062687 1.501309,-0.593624 1.776058,-1.352684 0.06181,-0.170749 0.20719,-0.297687 0.38469,-0.335937 0.972748,-0.209625 1.69437,-1.046122 1.775432,-2.026745 h -8.068922 v 1.87e-4 z"
         style="fill:#252525;fill-opacity:1;fill-rule:nonzero;stroke:none"
         id="path14" /></g></g></svg>
