<svg width="32" height="28" viewBox="0 0 32 28" fill="none" xmlns="http://www.w3.org/2000/svg">
<path d="M31.9639 26.7627L31.1013 24.6925C31.1007 24.6909 31.1 24.6893 31.0993 24.6878L24.1983 8.12523C24.1256 7.95054 23.9548 7.83679 23.7657 7.83679H21.4852C21.2262 7.83679 21.0164 8.04667 21.0164 8.30554C21.0164 8.56441 21.2262 8.77429 21.4852 8.77429H23.4532L29.9653 24.4036H15.4497L8.93756 8.77429H19.6121C19.871 8.77429 20.0809 8.56441 20.0809 8.30554C20.0809 8.04667 19.871 7.83679 19.6121 7.83679H8.70319V5.66792H13.9292C14.1881 5.66792 14.398 5.45805 14.398 5.19917V1.5753C14.398 1.31643 14.1881 1.10655 13.9292 1.10655H8.70319V1.05762C8.70319 0.798742 8.49331 0.588867 8.23444 0.588867C7.97556 0.588867 7.76569 0.798742 7.76569 1.05762V1.5753V5.19917V8.21179L2.35407 21.1998L0.13089 23.5119C-0.04611 23.6959 -0.043235 23.9878 0.137327 24.1683L0.829013 24.86L0.0362023 26.7627C-0.0240475 26.9074 -0.00804756 27.0726 0.0788898 27.203C0.165827 27.3334 0.312202 27.4118 0.468889 27.4118H3.5747C3.57638 27.4118 3.57807 27.4118 3.57976 27.4118H12.8924C12.8929 27.4118 12.8935 27.4119 12.894 27.4119C12.8948 27.4119 12.8957 27.4118 12.8965 27.4118H15.9985C15.999 27.4118 15.9996 27.4119 16.0002 27.4119C16.001 27.4119 16.0019 27.4118 16.0027 27.4118H31.5312C31.688 27.4118 31.8343 27.3334 31.9212 27.203C32.0082 27.0726 32.0242 26.9074 31.9639 26.7627ZM8.70319 2.04405H13.4605V4.73042H8.70319V2.04405ZM1.17208 26.4743L1.54595 25.5768L2.44345 26.4743H1.17208ZM3.4117 26.1166L1.7182 24.4232C1.7172 24.4221 1.71614 24.4211 1.71514 24.4201L1.12533 23.8304L6.84113 17.8859L3.4117 26.1166ZM4.27832 26.4743L8.23456 16.9793L12.1907 26.4743H4.27832ZM13.2064 26.4743L8.66719 15.5802C8.66706 15.58 8.66694 15.5798 8.66687 15.5795C8.65869 15.56 8.64894 15.5411 8.638 15.5227C8.63581 15.519 8.63356 15.5154 8.63131 15.5118C8.62156 15.4962 8.61087 15.481 8.59906 15.4665C8.59737 15.4643 8.59587 15.4621 8.59412 15.46C8.58331 15.4471 8.57181 15.4346 8.55937 15.4226C8.55712 15.4204 8.55462 15.4186 8.55237 15.4165C8.5485 15.4129 8.54444 15.4095 8.54037 15.4061C8.52762 15.3951 8.5145 15.3849 8.501 15.3755C8.49769 15.3732 8.49456 15.3707 8.49119 15.3685C8.47387 15.3572 8.45612 15.3471 8.43781 15.3383C8.43512 15.337 8.43231 15.3359 8.42962 15.3347C8.41294 15.327 8.39587 15.3204 8.37856 15.3148C8.37494 15.3137 8.37131 15.3123 8.36769 15.3113C8.34812 15.3055 8.32825 15.301 8.30819 15.2978C8.30444 15.2972 8.30056 15.2969 8.29675 15.2963C8.27862 15.2939 8.26044 15.2926 8.24219 15.2923C8.23962 15.2922 8.23712 15.2917 8.23456 15.2917C8.23337 15.2917 8.23225 15.292 8.23106 15.292C8.21069 15.2921 8.19037 15.2937 8.17019 15.2965C8.16562 15.2972 8.16112 15.298 8.15662 15.2988C8.13819 15.3018 8.11987 15.3059 8.10187 15.3112C8.09994 15.3118 8.09787 15.3122 8.09594 15.3128C8.07631 15.3188 8.05713 15.3265 8.03831 15.3352C8.03475 15.3368 8.03125 15.3386 8.02769 15.3403C8.01094 15.3486 7.99462 15.3577 7.97875 15.368C7.97687 15.3692 7.97494 15.3703 7.97306 15.3715C7.95637 15.3828 7.94037 15.3953 7.925 15.4088C7.92119 15.4122 7.91762 15.4158 7.91394 15.4193C7.90812 15.4247 7.90212 15.4298 7.89656 15.4356L4.14626 19.3359L7.76569 10.6493V12.4472C7.76569 12.7061 7.97556 12.916 8.23444 12.916C8.49331 12.916 8.70319 12.7061 8.70319 12.4472V10.6493C10.2105 14.2668 13.2227 21.4962 14.7044 25.0522C14.705 25.0537 14.7056 25.0553 14.7063 25.0568C14.9487 25.6384 15.15 26.1217 15.2969 26.4743H13.2064ZM16.3125 26.4743L15.8403 25.3411H30.3559L30.8281 26.4743H16.3125Z" fill="#202228"/>
</svg>
