<?xml version="1.0" encoding="UTF-8" standalone="no"?>
<svg
   xmlns:dc="http://purl.org/dc/elements/1.1/"
   xmlns:cc="http://creativecommons.org/ns#"
   xmlns:rdf="http://www.w3.org/1999/02/22-rdf-syntax-ns#"
   xmlns:svg="http://www.w3.org/2000/svg"
   xmlns="http://www.w3.org/2000/svg"
   version="1.1"
   id="svg2"
   xml:space="preserve"
   width="42.666668"
   height="34.771484"
   viewBox="0 0 42.666668 34.771484"><metadata
     id="metadata8"><rdf:RDF><cc:Work
         rdf:about=""><dc:format>image/svg+xml</dc:format><dc:type
           rdf:resource="http://purl.org/dc/dcmitype/StillImage" /></cc:Work></rdf:RDF></metadata><defs
     id="defs6" /><g
     id="g10"
     transform="matrix(1.3333333,0,0,-1.3333333,0,34.771484)"><g
       id="g12"
       transform="translate(0,14.368652)"><path
         d="M 31.503164,4.03246 C 32.258789,3.094336 32.148788,1.629335 31.200665,0.84621 30.330664,0.128085 29.12129,0.286836 28.431915,1.143711 c -3.1525,3.9175 -7.665624,6.164374 -12.382499,6.164374 h -0.07125 C 11.233164,7.285585 6.715039,4.99621 3.581289,1.026835 2.894414,0.15621 1.683789,-3.9e-5 0.817539,0.701836 c -0.965,0.781874 -1.075,2.246875 -0.33375,3.185 3.7925,4.801875 9.33,7.79375 15.473751,7.823125 h 0.08937 c 2.974375,0 5.847502,-0.68625 8.540001,-2.03875 0.231251,-0.11625 0.324373,-0.398124 0.208124,-0.629375 -0.116188,-0.23125 -0.397438,-0.324375 -0.62875,-0.208125 -2.560625,1.28625 -5.292499,1.93875 -8.119375,1.93875 H 15.96128 C 10.319414,10.745586 4.945664,8.024336 1.219414,3.305586 0.773164,2.741211 0.873164,1.86371 1.406289,1.431835 c 0.4625,-0.375 1.07625,-0.283749 1.439375,0.175626 3.31125,4.195 8.096251,6.614375 13.127501,6.638124 h 0.07625 c 5.001875,0 9.78125,-2.374374 13.113124,-6.514374 0.368187,-0.457501 0.98375,-0.54 1.439375,-0.16375 0.534375,0.44125 0.619999,1.319375 0.17125,1.876875 -1.377501,1.71125 -2.978125,3.16625 -4.7575,4.325624 -0.216875,0.141251 -0.278126,0.431876 -0.136875,0.648751 0.141312,0.216875 0.431875,0.278125 0.648813,0.136875 1.862438,-1.213125 3.536186,-2.735001 4.975561,-4.523126 v 0 z"
         style="fill:#252525;fill-opacity:1;fill-rule:nonzero;stroke:none"
         id="path14" /></g><g
       id="g16"
       transform="translate(5.070312,10.256836)"><path
         d="m 21.304131,4.052996 c 0.834375,-0.95 0.718751,-2.472562 -0.238749,-3.263125 -0.828751,-0.684375 -2.000626,-0.576875 -2.728064,0.249374 -1.96125,2.226875 -4.576873,3.451814 -7.369999,3.451814 -0.015,0 -0.03,0 -0.045,0 C 8.112318,4.477934 5.490443,3.227308 3.539819,0.969808 2.820444,0.137308 1.649193,0.017935 0.815443,0.69356 L 0.814194,0.694809 c -0.965625,0.782562 -1.093751,2.30375 -0.269376,3.260624 2.63,3.053125 6.31125,4.918125 10.356875,4.937501 4.071813,0.018187 7.761813,-1.831188 10.402438,-4.839938 z M 20.467257,1.511747 c 0.553125,0.456937 0.6175,1.370624 0.132499,1.923124 -2.559999,2.916875 -5.980062,4.520625 -9.635,4.520625 -0.01938,0 -0.03875,0 -0.05812,0 -3.677499,-0.0175 -7.105,-1.655 -9.65125,-4.61125 -0.2325,-0.27 -0.34625,-0.640625 -0.3125,-1.016938 0.0325,-0.363125 0.200625,-0.692499 0.46125,-0.903749 0,0 0,-6.26e-4 6.25e-4,-6.26e-4 l 6.25e-4,-6.24e-4 c 0.43875,-0.355062 1.038125,-0.288125 1.425,0.160563 2.130625,2.465625 5.0025,3.831249 8.0875,3.845624 h 0.04944 c 3.06625,0 5.931876,-1.3375 8.07375,-3.77 0.391188,-0.44425 0.991188,-0.506124 1.426188,-0.146749 v 0 z"
         style="fill:#252525;fill-opacity:1;fill-rule:nonzero;stroke:none"
         id="path18" /></g><g
       id="g20"
       transform="translate(10.1875,6.163086)"><path
         d="m 10.880713,4.112743 c 0.47125,-0.41375 0.741877,-1.03 0.741877,-1.69 0,-0.694375 -0.291938,-1.33375 -0.800688,-1.75375 -0.76875,-0.635 -1.808687,-0.573812 -2.524999,0.045563 -0.421875,0.365 -0.894939,0.629374 -1.406876,0.784374 -0.248126,0.075625 -0.388125,0.337501 -0.3125,0.585001 0.074999,0.2475 0.336936,0.3875 0.584436,0.3125 0.638125,-0.19375 1.226876,-0.52125 1.748126,-0.972563 0.386249,-0.33375 0.914375,-0.363126 1.315,-0.032501 0.601875,0.4975 0.61375,1.510626 0.03688,2.016876 C 8.985714,4.528306 7.45259,5.12018 5.829464,5.12018 h -0.03 C 4.163839,5.11268 2.626339,4.505805 1.351339,3.366367 0.770089,2.846992 0.812588,1.831994 1.407588,1.350119 1.808213,1.025806 2.336339,1.054555 2.721339,1.394493 c 0.59125,0.52125 1.294375,0.891938 2.03375,1.070625 0.25125,0.06125 0.504999,-0.093751 0.565625,-0.345001 0.06125,-0.251875 -0.09375,-0.505 -0.345,-0.566313 C 4.384464,1.410679 3.818839,1.112555 3.341339,0.691305 2.623839,0.05818 1.584464,5.4e-5 0.817589,0.621992 c -1.060625,0.858688 -1.0875,2.551814 -0.09125,3.443127 1.4275,1.27625 3.2275,1.983686 5.068125,1.992498 h 0.035 c 1.8275,1.25e-4 3.621875,-0.690436 5.051249,-1.944874 z"
         style="fill:#252525;fill-opacity:1;fill-rule:nonzero;stroke:none"
         id="path22" /></g><g
       id="g24"
       transform="translate(13.578125)"><path
         d="m 2.4225,4.861328 c 1.336249,0 2.4225,-1.090624 2.4225,-2.430687 C 4.845,1.090016 3.758749,1.5e-5 2.4225,1.5e-5 1.086875,1.5e-5 0,1.089954 0,2.430641 c 0,1.34 1.086875,2.430687 2.4225,2.430687 z m 1.485,-2.430687 c 0,0.823125 -0.66625,1.493187 -1.485,1.493187 -0.81875,0 -1.485,-0.670062 -1.485,-1.493187 0,-0.82375 0.66625,-1.493126 1.485,-1.493126 0.81875,0 1.485,0.669376 1.485,1.493126 z"
         style="fill:#252525;fill-opacity:1;fill-rule:nonzero;stroke:none"
         id="path26" /></g></g></svg>
