<?xml version="1.0" encoding="UTF-8" standalone="no"?>
<svg
   xmlns:dc="http://purl.org/dc/elements/1.1/"
   xmlns:cc="http://creativecommons.org/ns#"
   xmlns:rdf="http://www.w3.org/1999/02/22-rdf-syntax-ns#"
   xmlns:svg="http://www.w3.org/2000/svg"
   xmlns="http://www.w3.org/2000/svg"
   version="1.1"
   id="svg2"
   xml:space="preserve"
   width="42.666668"
   height="40.503254"
   viewBox="0 0 42.666668 40.503254"><metadata
     id="metadata8"><rdf:RDF><cc:Work
         rdf:about=""><dc:format>image/svg+xml</dc:format><dc:type
           rdf:resource="http://purl.org/dc/dcmitype/StillImage" /></cc:Work></rdf:RDF></metadata><defs
     id="defs6" /><g
     id="g10"
     transform="matrix(1.3333333,0,0,-1.3333333,0,40.503255)"><g
       id="g12"><path
         d="m 15.281834,17.721458 v 3.591614 c 0,0.02683 -0.0028,0.05296 -0.0071,0.07853 0.938751,0.243054 1.634073,1.097258 1.634073,2.11097 v 0.108742 c 0,0.259601 -0.210465,0.470066 -0.470066,0.470066 h -1.156925 v 0.834774 h 0.736999 c 0.544712,0 0.98789,0.443176 0.98789,0.987888 v 2.182673 c 0,1.263097 -1.027626,2.290723 -2.290723,2.290723 H 2.747108 c -1.263097,0 -2.290724,-1.027626 -2.290724,-2.290723 v -2.182734 c 0,-0.544712 0.443178,-0.98789 0.98789,-0.98789 H 2.114588 V 17.720952 C 0.923522,17.567589 0,16.547733 0,15.315598 v -0.0038 -0.04814 -0.925528 C 0,11.220137 1.690356,8.48987 4.202512,7.014364 l 0.00332,-0.98908 c 0,-0.758059 -0.183702,-1.511543 -0.5313,-2.179035 C 3.257492,3.045319 3.037,2.141666 3.037,1.232998 V 0.470114 C 3.037,0.210512 3.247464,4.8e-5 3.507066,4.8e-5 h 10.386193 c 0.259602,0 0.470066,0.210464 0.470066,0.470066 v 0.762945 c 0,0.908606 -0.220492,1.81226 -0.637534,2.61319 -0.347535,0.667492 -0.5313,1.420976 -0.5313,2.179035 v 0.987139 c 2.514037,1.475065 4.205898,4.206398 4.205898,7.325815 v 0.848249 c 0,0.01304 -8.78e-4,0.02582 -0.0019,0.03861 0.0011,0.01279 0.0019,0.02557 0.0019,0.03861 v 0.05183 c 6.3e-5,1.233578 -0.92553,2.254311 -2.118555,2.405922 v 0 z m -0.553236,4.540959 h -1.073756 v 0.878773 h 2.260201 C 15.759984,22.63308 15.286785,22.262417 14.728598,22.262417 Z M 3.668142,24.916094 c 0.259601,0 0.470065,0.210464 0.470065,0.470066 0,0.259601 -0.210464,0.470064 -0.470065,0.470064 h -2.22385 c -0.026323,0 -0.047758,0.02144 -0.047758,0.04776 v 2.182734 c 0,0.744709 0.605883,1.350591 1.350592,1.350591 H 14.716 c 0.744709,0 1.350593,-0.605882 1.350593,-1.350591 v -2.182734 c 0,-0.02632 -0.02144,-0.04776 -0.04776,-0.04776 H 5.548404 c -0.259601,0 -0.470066,-0.210463 -0.470066,-0.470064 0,-0.259602 0.210465,-0.470066 0.470066,-0.470066 h 8.793298 V 24.08132 H 13.59549 c -0.485672,0 -0.880779,-0.395106 -0.880779,-0.880778 v -1.013649 c 0,-0.476772 0.387899,-0.864608 0.86467,-0.864608 h 0.762822 c -6.3e-5,-0.0031 -5.01e-4,-0.0061 -5.01e-4,-0.0092 V 17.741651 H 3.054737 v 7.174456 H 3.668142 Z M 2.42604,16.801508 h 12.54837 c 0.674137,0 1.244859,-0.451326 1.425992,-1.067677 H 1.000049 c 0.181069,0.61629 0.751792,1.067677 1.425991,1.067677 z M 12.891957,3.412033 c 0.347535,-0.667429 0.5313,-1.420914 0.5313,-2.179035 v -0.29282 h -9.446 v 0.29282 c 0,0.758058 0.183701,1.511606 0.531236,2.179035 0.417043,0.800993 0.637535,1.704647 0.637535,2.61319 V 6.536528 C 6.172087,6.095356 7.301749,5.850483 8.48763,5.850483 h 0.42519 c 1.185881,0 2.315544,0.24481 3.341603,0.686045 V 6.025223 c 0,-0.90848 0.220492,-1.812134 0.637534,-2.61319 z M 8.91282,6.790739 H 8.48763 c -4.16171,0 -7.547499,3.38579 -7.547499,7.547499 V 14.7937 H 16.46032 v -0.455462 c 0,-4.161709 -3.385789,-7.547499 -7.5475,-7.547499 z"
         style="fill:#252525;fill-opacity:1;fill-rule:nonzero;stroke:none"
         id="path14" /></g><g
       id="g16"
       transform="translate(20.625,18.647949)"><path
         d="M 10.50628,9.311695 H 9.500715 v 0.819732 c 0,0.452266 -0.367967,0.820233 -0.820233,0.820233 H 2.695481 c -0.452266,0 -0.820234,-0.367967 -0.820234,-0.820233 V 9.311695 H 0.869685 C 0.390155,9.311695 0,8.921541 0,8.442011 V 7.365937 C 0,6.886407 0.390155,6.496253 0.869685,6.496253 H 1.875247 V 0.887492 c 0,-0.489432 0.398178,-0.887546 0.887611,-0.887546 h 1.216968 c 0.259602,0 0.470066,0.210464 0.470066,0.470066 0,0.259601 -0.210464,0.470065 -0.470066,0.470065 H 2.815317 V 5.005769 H 8.560584 V 0.940077 H 5.860088 c -0.259601,0 -0.470065,-0.210464 -0.470065,-0.470065 0,-0.259602 0.210464,-0.470066 0.470065,-0.470066 h 2.753081 c 0.489432,0 0.88761,0.398177 0.88761,0.887546 v 5.608823 h 1.005563 c 0.479529,0 0.869684,0.390155 0.869684,0.869685 v 1.076011 c -6.3e-5,0.47953 -0.390154,0.869684 -0.869746,0.869684 z M 0.940131,7.436447 V 8.371564 H 1.875247 V 7.436447 Z M 2.815317,6.966381 v 1.875248 1.1699 H 8.560584 V 8.841567 6.966319 5.945837 H 2.815317 Z m 7.620515,0.470066 H 9.500715 v 0.935117 h 0.935117 z"
         style="fill:#252525;fill-opacity:1;fill-rule:nonzero;stroke:none"
         id="path18" /></g></g></svg>
