<?xml version="1.0" encoding="UTF-8" standalone="no"?>
<svg
   xmlns:dc="http://purl.org/dc/elements/1.1/"
   xmlns:cc="http://creativecommons.org/ns#"
   xmlns:rdf="http://www.w3.org/1999/02/22-rdf-syntax-ns#"
   xmlns:svg="http://www.w3.org/2000/svg"
   xmlns="http://www.w3.org/2000/svg"
   version="1.1"
   id="svg2"
   xml:space="preserve"
   width="40"
   height="40"
   viewBox="0 0 42.666668 38.666668"><metadata
     id="metadata8"><rdf:RDF><cc:Work
         rdf:about=""><dc:format>image/svg+xml</dc:format><dc:type
           rdf:resource="http://purl.org/dc/dcmitype/StillImage" /></cc:Work></rdf:RDF></metadata><defs
     id="defs6" /><g
     id="g10"
     transform="matrix(1.3333333,0,0,-1.3333333,0,38.666667)"><g
       id="g12"
       transform="translate(0,-0.074219)"><path
         d="M 29.360001,7.951435 C 30.015625,10.51931 28.320187,13.073936 26,13.073936 c -0.06219,0 0.0028,0.0086 -1.183937,-0.205751 C 24.932001,13.433872 25,14.044435 25,14.698935 c 0,4.871812 -3.451,9.598312 -3.597813,9.797124 -0.240688,0.325564 -0.748748,0.244252 -0.876499,-0.139 -0.542063,-1.626186 -1.191688,-2.300498 -1.64125,-2.57975 -0.256501,-0.159374 -0.4725,-0.207061 -0.611063,-0.218563 -1.211251,1.830502 -1.34375,4.040501 -0.393063,6.572876 0.09012,0.24025 0.127439,0.339688 0.118689,0.474688 -0.02106,0.324438 -0.34125,0.541937 -0.649563,0.444437 -0.106001,-0.0335 -2.625876,-0.844936 -5.173563,-3.014687 C 10.674937,24.757811 9.47825,23.271685 8.618937,21.618874 6.858375,18.232748 6.2985,13.13581 8.096313,9.849623 L 3.446563,9.009872 C 1.54125,8.976997 0,7.196623 0,5.011497 c 0,-2.205625 1.570063,-4 3.5,-4 0.074563,0 0.484687,0.079251 5.055312,0.904625 C 9.178499,0.809248 10.265187,0.073997 11.5,0.073997 h 17 c 1.929937,0 3.5,1.794375 3.5,4 0,1.866562 -1.124561,3.43825 -2.639999,3.877438 z m -3.317625,4.122126 c 1.730625,-0.03469 2.87606,-2.105625 2.314998,-3.999564 h -6.204311 c 1.125875,1.094313 1.918312,2.382 2.373375,3.72575 z M 12.79575,25.250498 c 1.464875,1.253687 2.944688,2.035749 3.878938,2.455938 -0.7535,-2.440063 -0.554626,-4.860813 0.918436,-6.923063 0.06931,-0.09712 0.171065,-0.166126 0.286814,-0.19475 0.08438,-0.02094 1.916498,-0.432751 3.239874,2.533125 C 22.073563,21.612185 24,18.136997 24,14.698997 24,13.308872 23.674562,12.431499 23.655624,12.340374 23.1215,10.584812 21.908314,9.005873 20.608126,8.073997 h -0.415877 c 1.4965,3.726626 0.575127,6.595563 -0.508249,8.384064 -1.239437,2.046124 -2.917749,3.119187 -2.988562,3.163874 -0.332563,0.209625 -0.766751,-0.02975 -0.766751,-0.422938 0,-2.269248 -0.65825,-3.12025 -0.988687,-3.404438 -0.48975,0.455813 -0.51125,1.395251 -0.511313,1.404438 0,0.415375 -0.479125,0.64975 -0.806937,0.394625 -2.967938,-2.308374 -3.229563,-6.047687 -1.941688,-9.519625 -0.124062,0 -0.229874,0 -0.354125,0 C 11.11375,8.15906 10.401062,8.486748 9.69875,9.284561 8.587437,10.547062 8,12.41931 8,14.698997 c 0,4.277937 1.6135,7.827939 4.79575,10.551501 z M 18.002937,8.073997 c 0.317375,0.42025 0.505938,0.942875 0.505938,1.508938 0,1.223187 -1.764937,3.487313 -2.11875,3.92875 -0.199875,0.249501 -0.58025,0.249688 -0.78025,0 -0.353812,-0.441437 -2.11875,-2.705563 -2.11875,-3.92875 0,-0.566 0.188563,-1.088688 0.505938,-1.508938 H 12.755 c -0.21325,0.515812 -0.641063,1.690377 -0.76875,3.075877 -0.192062,2.085375 0.344375,3.787311 1.596125,5.071874 0.157562,-0.532626 0.476688,-1.147001 1.122688,-1.470001 0.118687,-0.05931 0.255937,-0.06906 0.38175,-0.02719 0.170688,0.05694 1.543251,0.6035 1.800438,3.494125 0.547937,-0.471561 1.310625,-1.237375 1.941437,-2.278812 1.441938,-2.380438 1.535123,-5.0255 0.278686,-7.865937 h -1.104437 v 6.1e-5 z m -3.511875,1.508877 c 0,0.542 0.788813,1.817562 1.508938,2.794562 0.720062,-0.977 1.508938,-2.252562 1.508938,-2.794562 0,-0.832061 -0.676876,-1.508938 -1.508938,-1.508938 -0.832063,0 -1.508938,0.676938 -1.508938,1.508938 z M 3.457625,2.011936 C 2.098562,2.039124 1,3.374186 1,5.011497 c 0,1.65425 1.1215,3 2.5,3 1.8155,0 2.86875,-2.144874 2.37425,-3.945562 C 5.643813,3.224373 5.088687,2.480185 4.273687,2.159122 Z M 6.238062,2.513811 C 7.510875,4.345373 7.151,7.028936 5.444188,8.335749 5.415375,8.357811 5.067187,8.286373 8.688125,8.940311 9.073125,8.441187 9.512437,8.020748 9.990937,7.682499 8.420813,6.821436 7.632625,4.769499 8.16475,2.861687 Z M 26.187313,1.073997 H 11.5 c -1.3785,0 -2.5,1.345751 -2.5,3 0,1.65425 1.1215,3 2.5,3 h 14.687313 c -1.032188,-1.039688 -1.390625,-2.605875 -1.076563,-4 H 23.5 c -0.276125,0 -0.5,-0.223875 -0.5,-0.5 0,-0.276124 0.223875,-0.5 0.5,-0.5 h 1.970688 c 0.188375,-0.371875 0.428312,-0.709562 0.716625,-1 z m 2.312687,0 c -0.942812,0 -1.765186,0.629752 -2.190937,1.556939 -0.01063,0.093563 -0.04719,0.179062 -0.102188,0.249687 C 25.492001,4.851124 26.70125,7.07406 28.5,7.07406 c 1.3785,0 2.5,-1.34575 2.5,-3 0,-1.654249 -1.1215,-3.000063 -2.5,-3.000063 z"
         style="fill:#252525;fill-opacity:1;fill-rule:nonzero;stroke:none"
         id="path14" /></g><g
       id="g16"
       transform="translate(19,5)"><path
         d="M 3,1 H 0.5 C 0.223875,1 0,0.776125 0,0.5 0,0.223875 0.223875,0 0.5,0 H 3 C 3.276125,0 3.5,0.223875 3.5,0.5 3.5,0.776125 3.276125,1 3,1 Z"
         style="fill:#252525;fill-opacity:1;fill-rule:nonzero;stroke:none"
         id="path18" /></g><g
       id="g20"
       transform="translate(16.5,2)"><path
         d="M 3,1 H 0.5 C 0.223875,1 0,0.776125 0,0.5 0,0.223875 0.223875,0 0.5,0 H 3 C 3.276125,0 3.5,0.223875 3.5,0.5 3.5,0.776125 3.276125,1 3,1 Z"
         style="fill:#252525;fill-opacity:1;fill-rule:nonzero;stroke:none"
         id="path22" /></g><g
       id="g24"
       transform="translate(11.5,3.4375)"><path
         d="M 3,1 H 0.5 C 0.223875,1 0,0.776125 0,0.5 0,0.223875 0.223875,0 0.5,0 H 3 C 3.276125,0 3.5,0.223875 3.5,0.5 3.5,0.776125 3.276125,1 3,1 Z"
         style="fill:#252525;fill-opacity:1;fill-rule:nonzero;stroke:none"
         id="path26" /></g></g></svg>
