<svg width="40" height="40" viewBox="0 0 20 24" fill="none" xmlns="http://www.w3.org/2000/svg">
<path d="M19.4099 10.9819C19.4099 10.0874 19.1311 9.2351 18.6035 8.51634L15.6286 4.1001C15.5413 3.97044 15.3952 3.89271 15.2389 3.89271C15.0825 3.89271 14.9364 3.97044 14.8491 4.1001L13.5955 5.96099L9.71958 0.207392C9.63226 0.0777311 9.48615 0 9.32984 0C9.17353 0 9.02742 0.0777311 8.9401 0.207392L2.28663 10.0842C1.17649 11.5928 0.589844 13.3822 0.589844 15.26C0.589844 20.0792 4.51061 24 9.32984 24C14.1491 24 18.0698 20.0792 18.0698 15.26C18.0698 14.8753 18.0441 14.4899 17.9942 14.1105C18.8616 13.3456 19.4099 12.2267 19.4099 10.9819ZM15.2389 5.20384L17.8239 9.04124C17.829 9.04923 17.8345 9.05708 17.8402 9.06478C18.2522 9.62276 18.47 10.2857 18.47 10.9819C18.47 12.7635 17.0205 14.2129 15.2389 14.2129C13.4572 14.2129 12.0078 12.7635 12.0078 10.9819C12.0078 10.2857 12.2256 9.62276 12.6376 9.06478C12.643 9.05741 12.6483 9.04989 12.6533 9.04213L13.9844 7.06619C13.9868 7.06258 13.9893 7.059 13.9917 7.05529L15.2389 5.20384ZM17.1299 15.26C17.1299 19.561 13.6308 23.0601 9.32979 23.0601C5.02878 23.0601 1.52971 19.561 1.52971 15.26C1.52971 13.5802 2.0556 11.9797 3.05059 10.6318C3.05628 10.6242 3.06178 10.6161 3.06709 10.6079L9.32984 1.31109L13.0289 6.80217L11.8742 8.51639C11.3467 9.2351 11.0679 10.0874 11.0679 10.9819C11.0679 13.2818 12.939 15.1529 15.2389 15.1529C15.9114 15.1529 16.5471 14.9927 17.1102 14.7088C17.123 14.8921 17.1299 15.0761 17.1299 15.26Z" fill="black"/>
</svg>
