<svg  width="15"
   height="15" viewBox="0 0 32 32" fill="none" xmlns="http://www.w3.org/2000/svg">
<g clip-path="url(#clip0_1766_4067)">
<path d="M31.998 25.0495C31.9285 23.7663 29.8538 23.6008 27.6572 23.4255C26.8396 23.3603 26.0674 23.2987 25.4546 23.1845C25.1944 23.136 24.4107 23.0877 24.5575 22.6597C24.6765 22.3128 25.3939 22.3134 25.6811 22.264C26.4621 22.1297 27.4327 21.9234 27.6292 21.0205C27.8688 19.9194 26.7156 19.4286 25.8452 19.2117C24.8431 18.9619 23.3781 18.8268 21.4875 18.8091C21.7415 17.5134 21.5238 16.1594 20.8337 14.964L16.4058 7.29469C16.2307 6.99144 15.7703 6.98919 15.5939 7.29469L14.4941 9.19968C14.1931 9.72092 15.0046 10.1904 15.3059 9.66842L15.9999 8.46649L20.0218 15.4327C20.8613 16.8867 20.8613 18.6227 20.0218 20.0767C19.1824 21.5307 17.6789 22.3987 15.9999 22.3987C14.321 22.3987 12.8175 21.5307 11.978 20.0767C11.1386 18.6227 11.1386 16.8867 11.978 15.4327L14.0069 11.9184C14.3079 11.3972 13.4964 10.9277 13.1951 11.4497L11.1661 14.964C10.476 16.1594 10.2582 17.5134 10.5123 18.809C8.62173 18.8267 7.15673 18.9618 6.15461 19.2116C5.28312 19.4288 4.13225 19.9192 4.37063 21.0204C4.56612 21.9234 5.53856 22.1298 6.31874 22.264C6.56761 22.3068 7.43673 22.3602 7.46629 22.7503C7.49073 23.0727 6.76074 23.1443 6.54524 23.1845C5.93243 23.2987 5.16018 23.3603 4.34256 23.4255C2.14601 23.6008 0.0713381 23.7663 0.00183847 25.0494C-0.0157864 25.375 0.093588 25.6761 0.318087 25.9202C0.986645 26.6471 2.61489 26.8369 5.02531 26.9078C5.69199 26.9274 6.3788 26.9208 7.04298 26.9144C8.16798 26.9037 9.2306 26.8936 9.99484 27.0123C10.2573 27.0531 11.0495 27.1584 10.9286 27.5813C10.8432 27.8801 10.1469 27.9479 9.92853 27.9956C9.15485 28.1643 7.98567 28.4194 7.98567 29.6506C7.98567 30.4976 8.88529 31.1069 10.7359 31.5134C12.1534 31.8247 14.0456 31.9963 16.0641 31.9963C18.0649 31.9963 19.929 31.8266 21.3133 31.5185C23.1306 31.1139 24.0141 30.5029 24.0141 29.6506C24.0141 28.4194 22.8448 28.1643 22.0712 27.9956C21.8426 27.9457 21.1521 27.8804 21.073 27.5731C20.9653 27.1549 21.7471 27.0523 22.0049 27.0122C22.7692 26.8935 23.8318 26.9038 24.9568 26.9144C25.6209 26.9208 26.3077 26.9274 26.9744 26.9078C27.5761 26.89 27.5491 25.9516 26.9469 25.9706C26.2985 25.9898 25.6209 25.9831 24.9658 25.977C23.8011 25.9657 22.7013 25.9553 21.861 26.0859C21.1424 26.1975 20.2502 26.49 20.1332 27.3211C19.9839 28.3826 21.0393 28.73 21.8713 28.9116C22.8513 29.1254 23.0766 29.2635 23.0766 29.6506C23.0766 29.8287 22.6655 30.2571 21.1095 30.6034C19.7902 30.897 17.9984 31.0588 16.0641 31.0588C14.1395 31.0588 12.2708 30.8908 10.937 30.5978C9.34397 30.2478 8.9231 29.8252 8.9231 29.6506C8.9231 29.2635 9.14835 29.1254 10.1283 28.9116C10.9604 28.7299 12.0158 28.3826 11.8665 27.3211C11.7495 26.4901 10.8573 26.1975 10.1387 26.0859C9.29841 25.9554 8.1986 25.9658 7.03392 25.977C6.37868 25.9832 5.70124 25.9898 5.05275 25.9706C4.09294 25.9425 1.54333 25.8676 1.00796 25.2855C0.95352 25.2263 0.933833 25.1743 0.937895 25.1C0.942458 25.0151 1.13633 24.8289 1.83364 24.67C2.53439 24.5101 3.49151 24.4338 4.41706 24.36C5.35768 24.2849 6.24618 24.214 6.94317 24.0601C7.53004 23.9305 8.29329 23.6825 8.40548 22.9978C8.59279 21.8545 7.34811 21.4897 6.47755 21.34C6.1813 21.289 5.24137 21.2259 5.27912 20.7358C5.30918 20.3454 6.10837 20.1892 6.38124 20.1212C7.35748 19.8779 8.83885 19.7516 10.7833 19.7449C10.8887 20.0177 11.016 20.2853 11.1661 20.5453C12.175 22.2929 13.982 23.3361 15.9999 23.3361C18.0177 23.3361 19.8247 22.2929 20.8337 20.5453C20.9838 20.2853 21.111 20.0177 21.2165 19.7449C23.1609 19.7516 24.6423 19.8779 25.6185 20.1212C25.894 20.1899 26.6967 20.3462 26.7206 20.7358C26.7509 21.2275 25.8175 21.2892 25.5222 21.34C24.7319 21.4759 23.756 21.6927 23.5968 22.6325C23.4441 23.534 24.3355 23.9009 25.0566 24.0601C25.7536 24.214 26.6421 24.2849 27.5827 24.36C28.5082 24.4338 29.4654 24.5101 30.1661 24.67C30.8634 24.8289 31.0572 25.015 31.0618 25.1C31.0785 25.4068 30.4416 25.6666 29.3146 25.8127C28.7174 25.8901 28.8369 26.8209 29.4352 26.7424C30.1561 26.6491 32.0712 26.4008 31.998 25.0495Z" fill="#252525"/>
<path d="M19.21 19.6095C19.3394 19.3853 19.2626 19.0986 19.0384 18.9691C18.8142 18.8397 18.5276 18.9165 18.3981 19.1407C17.8976 20.0077 17.0011 20.5253 16 20.5253C15.7411 20.5253 15.5312 20.7351 15.5312 20.994C15.5312 21.253 15.7411 21.4628 16 21.4628C17.34 21.4628 18.54 20.77 19.21 19.6095Z" fill="#252525"/>
<path d="M21.3755 9.96656C22.3697 9.96656 23.26 9.4525 23.7571 8.59156C24.2542 7.73056 24.2542 6.7025 23.7571 5.84156L21.7814 2.41969C21.6063 2.11644 21.1459 2.11419 20.9696 2.41969L18.9939 5.84156C18.4968 6.7025 18.4968 7.73056 18.9939 8.59156C19.491 9.4525 20.3813 9.96656 21.3755 9.96656ZM19.8058 6.31031L21.3755 3.59156L22.9452 6.31031C23.2728 6.87775 23.2728 7.55531 22.9452 8.12281C22.6176 8.69025 22.0308 9.02906 21.3755 9.02906C20.7203 9.02906 20.1334 8.69025 19.8058 8.12281C19.4783 7.55531 19.4782 6.87775 19.8058 6.31031Z" fill="#252525"/>
<path d="M12.7493 5.71656C13.4949 5.71656 14.1626 5.33106 14.5355 4.68531C14.9083 4.03956 14.9083 3.26856 14.5355 2.62281L13.1553 0.232188C12.9801 -0.0710617 12.5198 -0.0733117 12.3434 0.232188L10.9632 2.62281C10.5904 3.26856 10.5904 4.03956 10.9632 4.68531C11.3359 5.33106 12.0036 5.71656 12.7493 5.71656ZM11.775 3.09156L12.7493 1.40406L13.7235 3.09156C13.9268 3.44381 13.9268 3.86431 13.7235 4.21656C13.5201 4.56881 13.156 4.77906 12.7493 4.77906C12.3426 4.77906 11.9784 4.56881 11.775 4.21656C11.5716 3.86431 11.5716 3.44375 11.775 3.09156Z" fill="#252525"/>
</g>
<defs>
<clipPath id="clip0_1766_4067">
<rect width="32" height="32" fill="white"/>
</clipPath>
</defs>
</svg>
