<?xml version="1.0" encoding="UTF-8" standalone="no"?>
<svg
   xmlns:dc="http://purl.org/dc/elements/1.1/"
   xmlns:cc="http://creativecommons.org/ns#"
   xmlns:rdf="http://www.w3.org/1999/02/22-rdf-syntax-ns#"
   xmlns:svg="http://www.w3.org/2000/svg"
   xmlns="http://www.w3.org/2000/svg"
   version="1.1"
   id="svg2"
   xml:space="preserve"
   width="40"
   height="40"
   viewBox="0 0 41.210938 42.666668"><metadata
     id="metadata8"><rdf:RDF><cc:Work
         rdf:about=""><dc:format>image/svg+xml</dc:format><dc:type
           rdf:resource="http://purl.org/dc/dcmitype/StillImage" /></cc:Work></rdf:RDF></metadata><defs
     id="defs6" /><g
     id="g10"
     transform="matrix(1.3333333,0,0,-1.3333333,0,42.666667)"><g
       id="g12"
       transform="translate(11.523438,22.825195)"><path
         d="M 0.713255,1.126618 C 0.591505,1.095243 0.464505,1.060117 0.33588,1.022055 0.08763,0.948555 -0.054057,0.687804 0.01938,0.439554 0.093005,0.190867 0.35413,0.049742 0.60188,0.123055 0.719817,0.157992 0.835879,0.190117 0.946942,0.21868 1.197692,0.28318 1.34863,0.538743 1.28413,0.789493 1.21963,1.040243 0.964192,1.191368 0.713255,1.126618 Z"
         style="fill:#252525;fill-opacity:1;fill-rule:nonzero;stroke:none"
         id="path14" /></g><g
       id="g16"
       transform="translate(6.761719,20.494141)"><path
         d="M 0.789594,1.365526 C 0.593594,1.243464 0.397656,1.116526 0.207156,0.988338 -0.007656,0.843776 -0.064656,0.552526 0.079907,0.337776 0.224407,0.122964 0.515719,0.065963 0.730469,0.210525 0.911969,0.33265 1.098719,0.453588 1.285344,0.5699 1.505094,0.706775 1.572219,0.995901 1.435281,1.215588 1.298344,1.435338 1.009219,1.502464 0.789594,1.365526 Z"
         style="fill:#252525;fill-opacity:1;fill-rule:nonzero;stroke:none"
         id="path18" /></g><g
       id="g20"
       transform="translate(9.058594,21.820801)"><path
         d="M 0.89237,1.314429 C 0.682683,1.221242 0.470808,1.122304 0.262808,1.020492 0.030245,0.906679 -0.066005,0.625929 0.04787,0.393429 0.161807,0.160617 0.442745,0.064679 0.674932,0.178492 c 0.19775,0.096812 0.399,0.190749 0.598188,0.279312 0.236562,0.105187 0.343125,0.382125 0.238,0.618687 C 1.405995,1.313117 1.128808,1.419617 0.89237,1.314429 Z"
         style="fill:#252525;fill-opacity:1;fill-rule:nonzero;stroke:none"
         id="path22" /></g><g
       id="g24"
       transform="translate(4.671875,18.88623)"><path
         d="M 0.679594,1.38152 C 0.502532,1.233458 0.326031,1.08027 0.155031,0.926208 -0.037344,0.752958 -0.052781,0.45652 0.120469,0.264208 c 0.173562,-0.192688 0.47,-0.207563 0.662,-0.034563 0.162562,0.146375 0.33025,0.292 0.498562,0.43275 0.198625,0.166062 0.224938,0.461688 0.058813,0.66025 C 1.173719,1.521333 0.878032,1.547583 0.679594,1.38152 Z"
         style="fill:#252525;fill-opacity:1;fill-rule:nonzero;stroke:none"
         id="path26" /></g><g
       id="g28"
       transform="translate(2.84375,16.965332)"><path
         d="M 1.217976,1.447752 C 1.023976,1.619314 0.727726,1.601127 0.556289,1.407315 0.403101,1.234127 0.251476,1.05569 0.105539,0.876877 -0.058086,0.676252 -0.028149,0.381002 0.172414,0.217314 0.373101,0.053627 0.668414,0.083752 0.831976,0.28419 0.970039,0.45344 1.113539,0.622252 1.258414,0.786065 1.430039,0.980002 1.411914,1.276252 1.217976,1.447752 Z"
         style="fill:#252525;fill-opacity:1;fill-rule:nonzero;stroke:none"
         id="path30" /></g><g
       id="g32"
       transform="translate(1.492188,15.022461)"><path
         d="M 0.915155,1.316846 C 0.69628,1.454908 0.406717,1.389408 0.268592,1.170408 0.20053,1.062471 0.13253,0.951845 0.066592,0.84147 -0.066345,0.619282 0.005967,0.331471 0.228155,0.198596 0.449592,0.065908 0.737905,0.13747 0.87103,0.360158 0.933342,0.46422 0.997405,0.568596 1.061592,0.670283 1.199717,0.889221 1.134155,1.178721 0.915155,1.316846 Z"
         style="fill:#252525;fill-opacity:1;fill-rule:nonzero;stroke:none"
         id="path34" /></g><g
       id="g36"
       transform="translate(11.511719,25.140625)"><path
         d="M 0.804075,1.024716 C 0.676888,1.014529 0.543951,1.000591 0.409013,0.983216 0.152263,0.950279 -0.029174,0.715341 0.003888,0.458528 0.036951,0.201341 0.27245,0.020216 0.528575,0.053404 c 0.120188,0.015437 0.238125,0.027812 0.3505,0.036875 0.258063,0.020625 0.450438,0.246625 0.429751,0.504687 -0.02075,0.258 -0.245938,0.451375 -0.504751,0.42975 z"
         style="fill:#252525;fill-opacity:1;fill-rule:nonzero;stroke:none"
         id="path38" /></g><g
       id="g40"
       transform="translate(4.320312,22.154297)"><path
         d="M 1.277739,0.508278 C 1.495926,0.647653 1.559738,0.937527 1.420363,1.155652 1.280926,1.373902 0.990926,1.437591 0.772988,1.298278 0.581551,1.175903 0.389863,1.048841 0.203238,0.920591 -0.010074,0.773903 -0.064137,0.482091 0.082488,0.268778 0.173363,0.136528 0.320051,0.065465 0.469238,0.065465 c 0.198625,6.3e-5 0.224063,0.069313 0.808501,0.442813 z"
         style="fill:#252525;fill-opacity:1;fill-rule:nonzero;stroke:none"
         id="path42" /></g><g
       id="g44"
       transform="translate(6.566406,23.422852)"><path
         d="M 0.68099,0.182567 C 0.873365,0.280255 1.070552,0.376067 1.267115,0.467442 1.501865,0.576567 1.603677,0.85538 1.494552,1.09013 1.385427,1.324818 1.106677,1.42663 0.871864,1.317568 0.665614,1.221693 0.458677,1.121068 0.256677,1.018568 0.025865,0.901443 -0.066323,0.619255 0.050865,0.388443 0.168115,0.15738 0.450302,0.065317 0.68099,0.182567 Z"
         style="fill:#252525;fill-opacity:1;fill-rule:nonzero;stroke:none"
         id="path46" /></g><g
       id="g48"
       transform="translate(8.972656,24.460449)"><path
         d="m 0.620019,0.137916 c 0.206313,0.07025 0.414187,0.136438 0.617937,0.196563 0.248313,0.073312 0.390188,0.334 0.316876,0.58225 C 1.481519,1.164979 1.220645,1.306979 0.972582,1.233604 0.75652,1.169791 0.536207,1.099729 0.317769,1.025354 0.072707,0.941854 -0.058294,0.675541 0.025144,0.430479 0.108519,0.185729 0.374644,0.054416 0.620019,0.137916 Z"
         style="fill:#252525;fill-opacity:1;fill-rule:nonzero;stroke:none"
         id="path50" /></g><g
       id="g52"
       transform="translate(2.269531,20.490234)"><path
         d="M 1.273673,0.659276 C 1.47136,0.826464 1.496047,1.122214 1.328797,1.319839 1.161672,1.517464 0.86586,1.542151 0.668235,1.374964 0.495548,1.228901 0.322485,1.077276 0.15386,0.924338 -0.03789,0.750463 -0.05239,0.454026 0.121485,0.262214 0.295672,0.070089 0.592235,0.056213 0.78361,0.229838 0.944235,0.375651 1.109173,0.520089 1.273673,0.659276 Z"
         style="fill:#252525;fill-opacity:1;fill-rule:nonzero;stroke:none"
         id="path54" /></g><g
       id="g56"
       transform="translate(0.648438,18.827637)"><path
         d="M 1.0293,1.207924 C 0.836425,1.380799 0.540112,1.364424 0.367362,1.171862 0.282175,1.076862 0.197487,0.980612 0.113487,0.883049 -0.055388,0.686862 -0.033263,0.390924 0.162987,0.221987 0.359237,0.053049 0.655237,0.075361 0.82405,0.271486 0.903862,0.364174 0.984362,0.455674 1.0653,0.546049 1.238237,0.738799 1.22205,1.035174 1.0293,1.207924 Z"
         style="fill:#252525;fill-opacity:1;fill-rule:nonzero;stroke:none"
         id="path58" /></g><g
       id="g60"
       transform="translate(11.507812,27.427246)"><path
         d="m 0.476184,0.005903 c 0.121937,0.002 0.240125,0.001 0.351312,-0.002812 0.005438,-2.5e-4 0.010938,-3.13e-4 0.016376,-3.13e-4 0.251375,0 0.459499,0.199375 0.468124,0.452688 0.00894,0.25875 -0.193624,0.475625 -0.452374,0.4845 C 0.732934,0.944341 0.598747,0.945403 0.461309,0.943278 0.202434,0.939215 -0.004004,0.725965 5.9e-5,0.467153 0.004246,0.208278 0.219871,0.001028 0.476184,0.005903 Z"
         style="fill:#252525;fill-opacity:1;fill-rule:nonzero;stroke:none"
         id="path62" /></g><g
       id="g64"
       transform="translate(8.914062,27.000977)"><path
         d="m 0.573304,0.097409 c 0.214188,0.048938 0.428437,0.093375 0.636875,0.132 0.254562,0.047125 0.422688,0.29175 0.3755,0.54625 -0.047187,0.254625 -0.292,0.423 -0.54625,0.3755 C 0.818242,1.110222 0.591116,1.063159 0.364429,1.011347 0.112054,0.953659 -0.045758,0.702347 0.011867,0.449972 0.069367,0.198534 0.319679,0.039659 0.573304,0.097409 Z"
         style="fill:#252525;fill-opacity:1;fill-rule:nonzero;stroke:none"
         id="path66" /></g><g
       id="g68"
       transform="translate(4.023438,25.09082)"><path
         d="m 0.691624,0.189436 c 0.191313,0.103312 0.386688,0.20475 0.580813,0.301562 0.231687,0.1155 0.325937,0.396938 0.210375,0.628625 C 1.367437,1.35131 1.085937,1.445623 0.854187,1.329998 0.650874,1.228686 0.446249,1.122436 0.246062,1.014248 0.018249,0.891186 -0.066626,0.606748 0.056437,0.379061 0.179624,0.150998 0.464312,0.066623 0.691624,0.189436 Z"
         style="fill:#252525;fill-opacity:1;fill-rule:nonzero;stroke:none"
         id="path70" /></g><g
       id="g72"
       transform="translate(1.800781,23.703125)"><path
         d="m 0.743214,0.216387 c 0.176,0.127125 0.3565,0.253 0.536563,0.374125 0.214812,0.1445 0.271812,0.435812 0.12725,0.650562 C 1.262464,1.455824 0.971214,1.51295 0.756464,1.368325 0.567777,1.24145 0.378652,1.109512 0.194277,0.976387 -0.015536,0.824762 -0.062786,0.531762 0.088777,0.321887 0.240339,0.112074 0.533214,0.064762 0.743214,0.216387 Z"
         style="fill:#252525;fill-opacity:1;fill-rule:nonzero;stroke:none"
         id="path74" /></g><g
       id="g76"
       transform="translate(6.40625,26.19873)"><path
         d="M 0.636567,0.151156 C 0.839442,0.228843 1.046129,0.30403 1.250942,0.37453 1.495754,0.458843 1.625816,0.725593 1.541566,0.970343 1.457254,1.215155 1.190629,1.345218 0.945754,1.260968 0.730817,1.186905 0.513941,1.108093 0.301129,1.026468 0.059379,0.933843 -0.061496,0.662781 0.031191,0.421031 0.123941,0.178843 0.395629,0.058531 0.636567,0.151156 Z"
         style="fill:#252525;fill-opacity:1;fill-rule:nonzero;stroke:none"
         id="path78" /></g><g
       id="g80"
       transform="translate(0,22.25293)"><path
         d="M 1.057945,0.474562 C 1.251632,0.646375 1.26932,0.942625 1.097507,1.136312 0.925695,1.33 0.629445,1.347562 0.435757,1.175874 0.340382,1.091249 0.245382,1.005312 0.150882,0.918187 -0.039368,0.742624 -0.051305,0.446062 0.124195,0.255749 0.299757,0.065499 0.596257,0.053562 0.786632,0.229062 c 0.09,0.083 0.180438,0.164875 0.271313,0.2455 z"
         style="fill:#252525;fill-opacity:1;fill-rule:nonzero;stroke:none"
         id="path82" /></g><g
       id="g84"
       transform="translate(11.507812,29.630371)"><path
         d="m 0.461248,0.00934 c 0.1275,-0.002 0.249625,-0.00525 0.365875,-0.00925 0.005625,-2.5e-4 0.011125,-3.13e-4 0.016688,-3.13e-4 0.251312,0 0.459375,0.19925 0.468125,0.452375 0.00906,0.25875 -0.193438,0.475813 -0.452063,0.484813 -0.121937,0.00425 -0.249937,0.007625 -0.383687,0.00975 -0.002562,6.2e-5 -0.005062,6.2e-5 -0.007562,6.2e-5 -0.255438,0 -0.464501,-0.205 -0.468563,-0.461312 -0.004125,-0.258813 0.202312,-0.472 0.461187,-0.476125 z"
         style="fill:#252525;fill-opacity:1;fill-rule:nonzero;stroke:none"
         id="path86" /></g><g
       id="g88"
       transform="translate(2.21875,27.106445)"><path
         d="m 0.716136,0.202791 c 0.226313,0.1405 0.459375,0.276376 0.692625,0.403813 0.22725,0.124125 0.31075,0.408937 0.186625,0.636125 C 1.471261,1.469979 1.186511,1.553416 0.959261,1.429354 0.710699,1.293541 0.462573,1.148854 0.221574,0.999166 0.001574,0.862604 -0.065989,0.573604 0.070636,0.353729 0.207386,0.133479 0.496699,0.066354 0.716136,0.202791 Z"
         style="fill:#252525;fill-opacity:1;fill-rule:nonzero;stroke:none"
         id="path90" /></g><g
       id="g92"
       transform="translate(8.277344,29.399902)"><path
         d="M 1.755997,0.651 C 1.728372,0.908375 1.498373,1.09525 1.239873,1.067 0.958123,1.03675 0.674873,1 0.397998,0.957687 0.14206,0.918562 -0.033628,0.679437 0.005435,0.4235 c 0.035437,-0.231938 0.235188,-0.398 0.46275,-0.398 0.023563,0 0.047437,0.001749 0.071437,0.005437 0.263125,0.04025 0.532438,0.075188 0.800375,0.103938 0.257375,0.027687 0.443625,0.25875 0.416,0.516125 z"
         style="fill:#252525;fill-opacity:1;fill-rule:nonzero;stroke:none"
         id="path94" /></g><g
       id="g96"
       transform="translate(5.132812,28.525879)"><path
         d="m 0.626351,0.141711 c 0.249938,0.089125 0.506875,0.173375 0.763875,0.2505 0.248,0.074312 0.388751,0.335687 0.314313,0.583625 -0.074375,0.248 -0.335938,0.38875 -0.583625,0.314312 -0.272187,-0.081625 -0.544562,-0.170875 -0.8095,-0.265375 -0.243812,-0.087 -0.371,-0.355125 -0.284063,-0.599 0.087,-0.243875 0.355125,-0.371 0.599,-0.284062 z"
         style="fill:#252525;fill-opacity:1;fill-rule:nonzero;stroke:none"
         id="path98" /></g><g
       id="g100"
       transform="translate(0,25.445312)"><path
         d="m 0.786686,0.229451 c 0.088812,0.082 0.179625,0.163626 0.269937,0.242876 C 1.251248,0.643014 1.270686,0.939201 1.099936,1.133826 0.929311,1.328452 0.633123,1.347764 0.438436,1.177139 0.342248,1.092702 0.245498,1.005702 0.150873,0.918389 -0.039377,0.742827 -0.051314,0.446264 0.124248,0.256014 0.299998,0.065639 0.596686,0.054014 0.786686,0.229451 Z"
         style="fill:#252525;fill-opacity:1;fill-rule:nonzero;stroke:none"
         id="path102" /></g><g
       id="g104"
       transform="translate(13.980469,-0.040039)"><path
         d="m 13.9995,18.829727 c -0.24625,0.07919 -0.510439,-0.05694 -0.589313,-0.303501 -0.07894,-0.246498 0.05694,-0.510374 0.303501,-0.589312 1.361875,-0.435998 2.276874,-1.688188 2.276874,-3.116001 V 0.977665 H 14.92325 v 13.843187 c 0,0.600437 -0.237875,1.162062 -0.669687,1.58125 -0.431687,0.419124 -1.001939,0.640062 -1.601189,0.622186 C 11.473562,16.989164 10.5145,15.984163 10.5145,14.783852 V 4.249289 C 10.5145,2.434727 9.031875,0.953476 7.191813,0.977976 5.415875,1.0051 3.971062,2.498039 3.971062,4.30604 V 7.866852 C 4.047624,7.853228 4.137813,7.845539 4.213688,7.845539 H 4.75025 c 0.09225,0 0.193624,0.010187 0.288187,0.030438 V 4.249289 c 0,-1.245438 1.0315,-2.242001 2.27075,-2.203375 1.178812,0.035062 2.137937,1.040064 2.137937,2.240375 V 14.76404 c 0,1.46875 0.968626,2.78256 2.355563,3.194998 0.248187,0.07381 0.389438,0.33469 0.315689,0.582876 -0.07369,0.248125 -0.334439,0.389875 -0.582876,0.315687 C 9.753875,18.32785 8.509624,16.644539 8.509624,14.76404 V 4.286289 c 0,-0.698499 -0.551,-1.283125 -1.22825,-1.303249 C 6.569874,2.960728 5.975937,3.533602 5.975937,4.249289 V 8.61129 c 0.086812,0.173813 0.139062,0.367374 0.143875,0.572311 0.129313,5.490939 1.481813,8.876625 2.276564,10.406063 0.554437,1.067063 0.847561,2.278313 0.847561,3.502751 v 1.849312 c 0,0.258938 -0.209813,0.46875 -0.46875,0.46875 -0.258938,0 -0.46875,-0.209812 -0.46875,-0.46875 v -1.849312 c 0,-1.074627 -0.256499,-2.136376 -0.741936,-3.0705 C 6.732376,18.420477 5.316375,14.885727 5.182625,9.205601 5.177187,8.973164 4.981875,8.783039 4.750313,8.783039 H 4.213751 c -0.219938,0 -0.425375,0.172562 -0.432688,0.418562 -0.058625,1.977625 -0.028938,6.9235 1.510187,10.130312 0.344188,0.717125 0.524001,1.509689 0.520001,2.292252 -0.0035,0.674247 -0.487875,1.237373 -1.123938,1.361124 v 7.594938 h 1.055561 c 1.413563,0 2.563625,-1.150126 2.563625,-2.563875 l 6.3e-5,-0.887188 c 6.3e-5,-0.258875 0.209938,-0.468687 0.468876,-0.468624 0.258875,6.3e-5 0.468687,0.209936 0.468624,0.468874 l -6.3e-5,0.886938 c 0,1.930687 -1.570562,3.501375 -3.501125,3.501375 -0.62925,0 -2.340311,0 -2.970436,0 -0.104,0.303312 -0.391314,0.522312 -0.729439,0.522312 H 0.771438 C 0.346063,32.040039 0,31.694038 0,31.268663 v -8.946312 c 0,-0.425375 0.346063,-0.771375 0.771438,-0.771375 h 1.271561 c 0.338125,0 0.625438,0.219002 0.729313,0.522312 h 1.651875 c 0.2465,0 0.448188,-0.203686 0.449438,-0.453999 0.00331,-0.64125 -0.144562,-1.291938 -0.42775,-1.88175 C 2.817688,16.345289 2.783125,11.219913 2.84375,9.173727 2.850938,8.932602 2.919563,8.708914 3.033438,8.515976 V 4.305977 c 0,-2.317125 1.858936,-4.230562 4.143999,-4.265438 2.334938,-0.040436 4.2745,1.849687 4.2745,4.208687 v 10.534626 c 0,0.698499 0.550937,1.283125 1.228187,1.303312 0.345375,0.01187 0.672189,-0.116751 0.920376,-0.35775 0.248438,-0.241062 0.385187,-0.563812 0.385187,-0.908562 V 0.898102 c 0,-0.473126 0.384876,-0.858063 0.858063,-0.858063 h 1.226313 c 0.473062,0 0.857999,0.384874 0.857999,0.858063 v 13.92275 c 0,1.837187 -1.176874,3.448187 -2.928562,4.008875 z M 1.876875,22.488539 H 0.937562 v 8.614 h 0.939313 v -0.05356 -8.506813 -0.05363 z m 0.9375,0.522314 v 7.569374 H 3.74975 V 23.010914 H 2.814375 Z"
         style="fill:#252525;fill-opacity:1;fill-rule:nonzero;stroke:none"
         id="path106" /></g></g></svg>
