<?xml version="1.0" encoding="UTF-8" standalone="no"?>
<svg
   xmlns:dc="http://purl.org/dc/elements/1.1/"
   xmlns:cc="http://creativecommons.org/ns#"
   xmlns:rdf="http://www.w3.org/1999/02/22-rdf-syntax-ns#"
   xmlns:svg="http://www.w3.org/2000/svg"
   xmlns="http://www.w3.org/2000/svg"
   version="1.1"
   id="svg2"
   xml:space="preserve"
   width="40"
   height="40"
   viewBox="0 0 42.666668 30.183594"><metadata
     id="metadata8"><rdf:RDF><cc:Work
         rdf:about=""><dc:format>image/svg+xml</dc:format><dc:type
           rdf:resource="http://purl.org/dc/dcmitype/StillImage" /></cc:Work></rdf:RDF></metadata><defs
     id="defs6" /><g
     id="g10"
     transform="matrix(1.3333333,0,0,-1.3333333,0,30.183593)"><g
       id="g12"><path
         d="m 31.971798,13.33044 c -0.148497,0.712361 -0.849108,1.171164 -1.561531,1.022917 -2.321642,-0.483865 -4.702347,-0.798922 -7.075987,-0.936419 -0.02856,-0.0016 -0.05625,-0.0063 -0.08312,-0.01269 -0.524927,0.695612 -1.358099,1.146167 -2.294707,1.146167 h -1.071416 c -0.927044,0 -1.752404,-0.441617 -2.278204,-1.125104 -3.261938,0.198559 -6.513249,0.729673 -9.664812,1.579844 l -3.026379,0.816359 v 3.975109 c 0,1.049605 0.853921,1.903589 1.903526,1.903589 1.049605,0 1.903525,-0.853922 1.903525,-1.903589 0,-0.02225 0.00206,-0.044 0.00513,-0.06543 H 7.939651 c -0.981043,0 -1.779215,-0.798172 -1.779215,-1.779215 v -0.605112 c 0,-0.258871 0.209808,-0.468743 0.46874,-0.468743 h 5.084402 c 0.258932,0 0.46874,0.209872 0.46874,0.468743 v 0.605112 c 0,0.981043 -0.798172,1.779215 -1.779278,1.779215 H 9.655117 c 0.003,0.02144 0.00512,0.04319 0.00512,0.06543 0,1.566532 -1.274475,2.84107 -2.841007,2.84107 -1.566531,0 -2.841007,-1.274475 -2.841007,-2.84107 V 16.074385 L 1.664081,16.698622 C 0.961218,16.887745 0.235545,16.470253 0.046111,15.767893 -0.0457,15.427524 5.49e-4,15.071718 0.176296,14.766099 0.352105,14.460418 0.636287,14.241548 0.97678,14.149736 L 1.902887,13.899928 2.922429,6.887877 C 3.047552,6.027832 3.378046,5.199785 3.878348,4.493237 3.888161,4.479362 3.898911,4.466488 3.90991,4.453987 3.895723,4.290741 3.897848,4.124369 3.918223,3.956997 L 4.140156,2.131533 C 2.455001,1.889288 2.419877,0.489189 2.419689,0.47369 2.418439,0.348568 2.467314,0.228134 2.555312,0.139198 2.643373,0.050262 2.763308,2.63e-4 2.88843,2.63e-4 h 3.004254 c 0.181997,0 0.347556,0.105374 0.424617,0.270182 L 7.255282,2.276468 C 7.62615,2.198969 8.007142,2.159409 8.388135,2.159409 h 3.117877 c 0.258932,0 0.468741,0.209871 0.468741,0.46874 0,0.258871 -0.209809,0.46874 -0.468741,0.46874 H 8.388135 c -0.279995,0 -0.559614,0.027062 -0.833546,0.0775 0.179684,0.879106 0.059499,1.81015 -0.35793,2.617323 C 6.838603,6.484135 6.007681,6.762319 5.30482,6.42495 L 5.257446,6.402199 C 4.865142,6.21389 4.542773,5.928396 4.310652,5.584654 4.080094,6.03377 3.922972,6.521574 3.850036,7.022751 l -0.961231,6.611058 4.365602,-1.177603 c 3.182376,-0.858421 6.463938,-1.408472 9.756936,-1.63728 v -0.483679 c 0,-0.25887 0.209808,-0.46874 0.46874,-0.46874 0.258933,0 0.468741,0.20987 0.468741,0.46874 v 1.341413 c 0,1.067604 0.868544,1.936149 1.936148,1.936149 h 1.071416 c 1.067605,0 1.93615,-0.868545 1.93615,-1.936149 V 6.535448 c 0,-0.102123 -0.08306,-0.185184 -0.185183,-0.185184 h -4.573348 c -0.102124,0 -0.185183,0.083061 -0.185183,0.185184 v 1.924899 c 0,0.258869 -0.209808,0.468741 -0.468741,0.468741 -0.258932,0 -0.46874,-0.209872 -0.46874,-0.468741 V 6.535448 c 0,-0.619051 0.503675,-1.122665 1.122664,-1.122665 h 4.573348 c 0.619051,0 1.122666,0.503614 1.122666,1.122665 v 4.267228 c 1.554157,0.10056 3.110939,0.273495 4.652908,0.516177 L 27.954502,7.017626 C 27.927317,6.832254 27.887505,6.649007 27.838194,6.468699 27.158581,6.73413 26.389345,6.450762 26.048477,5.791588 25.707672,5.132475 25.565924,4.390802 25.622797,3.662254 24.94956,3.292511 24.188513,3.096827 23.417278,3.096827 H 13.380913 c -0.258933,0 -0.468742,-0.20987 -0.468742,-0.468741 0,-0.258869 0.209809,-0.46874 0.468742,-0.46874 h 10.036365 c 0.831608,0 1.653782,0.188621 2.399079,0.547926 0.04644,-0.138123 0.100372,-0.274184 0.162559,-0.407181 L 26.927959,0.270382 C 27.00502,0.105511 27.17058,2e-4 27.352577,2e-4 h 3.004317 c 0.125122,0 0.245056,0.05 0.333116,0.138935 0.088,0.088936 0.136812,0.20937 0.135624,0.334492 -1.87e-4,0.015499 -0.03531,1.415598 -1.720528,1.657843 l 0.221995,1.825527 c 0.08987,0.739736 -0.169621,1.460348 -0.672674,1.969587 0.104311,0.311869 0.181058,0.634611 0.228557,0.961293 5e-4,0.00344 0.001,0.00681 0.0014,0.010251 l 0.562926,4.582037 c 0.502678,0.089 1.003483,0.184996 1.501535,0.288806 0.345181,0.07194 0.641674,0.273995 0.834858,0.568926 0.193247,0.29487 0.259993,0.647424 0.18812,0.992543 v 0 z M 11.244829,17.951912 V 17.81554 H 7.097973 v 0.136372 c 0,0.464117 0.377618,0.841734 0.841733,0.841734 h 2.46339 c 0.464116,0 0.841733,-0.377617 0.841733,-0.841734 z M 5.663251,5.556904 5.710625,5.579653 C 5.953371,5.696213 6.240302,5.600027 6.363925,5.360907 6.790979,4.53511 6.810853,3.539318 6.417111,2.697084 L 5.594378,0.937555 H 3.610729 c 0.184933,0.157936 0.503927,0.291807 1.054229,0.291807 0.134122,0 0.261869,0.057501 0.350868,0.157937 0.088998,0.100435 0.130623,0.234182 0.114435,0.367366 L 4.848767,4.069994 C 4.773456,4.689358 5.100762,5.286909 5.663251,5.556904 Z M 1.2209,15.054719 c -0.098623,0.02662 -0.180996,0.09 -0.231933,0.178559 -0.050936,0.08856 -0.064311,0.191683 -0.037749,0.290369 0.054937,0.203495 0.265557,0.324432 0.468928,0.26962 l 6.277752,-1.693405 c 3.079628,-0.830733 6.252629,-1.362348 9.439004,-1.583282 -0.07375,-0.240808 -0.11606,-0.495052 -0.123497,-0.757985 -3.2115,0.227184 -6.411251,0.765423 -9.514877,1.602657 z M 29.63447,0.937618 h -1.983585 l -0.822672,1.759529 c -0.393805,0.842173 -0.373932,1.837963 0.05312,2.663823 0.123686,0.23912 0.410744,0.335243 0.653364,0.218746 l 0.04737,-0.022749 C 28.144495,5.286972 28.471802,4.689421 28.39649,4.070057 L 28.114937,1.754791 c -0.01619,-0.133184 0.02544,-0.266933 0.114435,-0.367368 0.089,-0.100436 0.216745,-0.157935 0.350868,-0.157935 0.550303,-6.1e-5 0.869358,-0.133934 1.05423,-0.29187 z m 1.123104,11.749085 c -2.27433,-0.473991 -4.604725,-0.79136 -6.929178,-0.944482 -0.0059,0.263121 -0.04706,0.517615 -0.119435,0.75886 2.313206,0.149248 4.630347,0.463053 6.892426,0.934482 0.206497,0.04306 0.409618,-0.08994 0.452618,-0.296369 0.043,-0.206434 -0.08994,-0.409492 -0.296431,-0.452491 z"
         style="fill:#252525;fill-opacity:1;fill-rule:nonzero;stroke:none"
         id="path14" /></g></g></svg>
