<?xml version="1.0" encoding="UTF-8" standalone="no"?>
<svg
   xmlns:dc="http://purl.org/dc/elements/1.1/"
   xmlns:cc="http://creativecommons.org/ns#"
   xmlns:rdf="http://www.w3.org/1999/02/22-rdf-syntax-ns#"
   xmlns:svg="http://www.w3.org/2000/svg"
   xmlns="http://www.w3.org/2000/svg"
   version="1.1"
   id="svg2"
   xml:space="preserve"
   width="42.666668"
   height="30.635416"
   viewBox="0 0 42.666668 30.635416"><metadata
     id="metadata8"><rdf:RDF><cc:Work
         rdf:about=""><dc:format>image/svg+xml</dc:format><dc:type
           rdf:resource="http://purl.org/dc/dcmitype/StillImage" /></cc:Work></rdf:RDF></metadata><defs
     id="defs6" /><g
     id="g10"
     transform="matrix(1.3333333,0,0,-1.3333333,0,30.635416)"><g
       id="g12"
       transform="translate(0,-0.012207)"><path
         d="M 30.78125,9.852458 H 26.826437 L 24.7155,14.684332 h 1.298876 c 0.620687,0.0215 0.620187,0.916187 0,0.9375 H 25.11025 l 1.517437,1.5625 h 2.234126 c 0.08619,0 0.15625,-0.07013 0.15625,-0.15625 v -1.25 c 0,-0.08612 -0.07006,-0.15625 -0.15625,-0.15625 h -0.66 c -0.620688,-0.0215 -0.620188,-0.916187 0,-0.9375 h 0.66 c 0.603061,0 1.09375,0.490687 1.09375,1.09375 v 1.25 c 0,0.603063 -0.490689,1.09375 -1.09375,1.09375 h -2.432501 c -1.87e-4,0 -3.74e-4,0 -6.24e-4,0 h -1.4 v 0.738188 h 0.768124 c 0.6455,0 1.170626,0.525125 1.170626,1.170625 v 0.72625 c 0,0.6455 -0.525126,1.170626 -1.170626,1.170626 h -0.768124 v 0.342499 c 0,0.396312 -0.322437,0.71875 -0.71875,0.71875 h -2.891876 c -0.396313,0 -0.71875,-0.322438 -0.71875,-0.71875 v -4.148188 h -9.398687 v 4.148125 c 0,0.396312 -0.322437,0.71875 -0.71875,0.71875 H 7.69 c -0.396313,0 -0.71875,-0.322438 -0.71875,-0.71875 V 21.927458 H 6.203125 c -0.6455,0 -1.170625,-0.525126 -1.170625,-1.170626 v -0.72625 c 0,-0.6455 0.525125,-1.170623 1.170625,-1.170623 H 6.97125 v -0.73819 h -1.4 c -1.87e-4,0 -3.75e-4,0 -6.25e-4,0 h -2.4325 c -0.603063,0 -1.09375,-0.490686 -1.09375,-1.09375 V 15.77802 c 0,-0.603063 0.490687,-1.09375 1.09375,-1.09375 H 7.28425 L 5.173438,9.852395 H 1.21875 C 0.54675,9.852395 0,9.305645 0,8.633645 V 7.540521 C 0,7.144208 0.322437,6.82177 0.71875,6.82177 H 3.8495 L 1.467312,1.368706 C 1.181625,0.745956 1.670187,-2.29e-4 2.355,0.012333 h 1.20375 c 0.385375,0 0.733812,0.227873 0.887687,0.580498 L 4.737688,1.259708 C 4.841312,1.496958 4.733,1.773272 4.49575,1.876896 4.258375,1.98052 3.982125,1.872145 3.878562,1.634956 L 3.58725,0.967957 C 3.58244,0.956957 3.57125,0.949833 3.55875,0.949833 H 2.355 c -0.006,0 -0.017063,0 -0.02625,0.014 -0.00913,0.014 -0.00469,0.024187 -0.00231,0.029625 L 8.149938,14.324019 9.027375,13.42052 4.754188,3.639519 C 4.6505,3.40233 4.758812,3.125956 4.996062,3.022331 5.227562,2.919456 5.5095,3.02458 5.61325,3.264206 L 7.1675,6.821831 h 2.116188 c 0.396312,0 0.71875,0.322438 0.71875,0.718751 v 1.093126 c 0,0.672 -0.54675,1.21875 -1.21875,1.21875 H 8.4915 l 1.241438,2.841624 5.392687,-5.55275 c 0.455312,-0.489625 1.29325,-0.489625 1.748562,0 l 5.392687,5.55275 1.241438,-2.841624 h -0.292124 c -0.672,0 -1.21875,-0.54675 -1.21875,-1.21875 V 7.540582 c 0,-0.396313 0.322438,-0.718751 0.71875,-0.718751 h 2.116124 l 2.721187,-6.228688 c 0.153876,-0.35275 0.502314,-0.580684 0.887688,-0.580684 H 29.645 c 0.328063,0 0.631125,0.163748 0.810626,0.438061 0.179561,0.274313 0.208375,0.617565 0.07706,0.918376 l -2.38225,5.453 h 3.130812 C 31.677563,6.821896 32,7.144332 32,7.540645 v 1.093124 c 0,0.672 -0.546749,1.218689 -1.21875,1.218689 z m -21.9975,-0.9375 c 0.155062,0 0.28125,-0.126187 0.28125,-0.28125 V 7.759332 H 7.577125 L 8.082,8.914958 Z m 17.013125,12.075 c 0.128563,0 0.233126,-0.104563 0.233126,-0.233126 v -0.72625 c 0,-0.128562 -0.104626,-0.233125 -0.233126,-0.233125 h -0.768126 v 1.192501 z m -4.16,1.061249 h 2.454374 V 18.121769 H 21.636875 Z M 6.203125,19.797457 C 6.074563,19.797457 5.97,19.90202 5.97,20.030582 v 0.72625 c 0,0.128563 0.104563,0.233126 0.233125,0.233126 H 6.97125 v -1.192501 z m 1.705625,2.25375 h 2.454375 V 18.121769 H 7.90875 Z M 2.981875,15.778082 v 1.25 c 0,0.08612 0.070125,0.15625 0.15625,0.15625 h 2.234063 l 1.517437,-1.5625 h -3.7515 c -0.086125,0 -0.15625,0.07013 -0.15625,0.15625 z M 0.9375,7.759332 v 0.874376 c 0,0.155063 0.126188,0.28125 0.28125,0.28125 H 4.763875 L 4.259062,7.759332 Z m 15.264313,0.035125 c -0.105063,-0.112937 -0.2985,-0.112999 -0.403563,0 l -9.119125,9.389875 h 18.641813 z m 6.733186,-0.035125 v 0.874376 c 0,0.155063 0.126189,0.28125 0.28125,0.28125 h 0.701689 l 0.504875,-1.155626 z m 6.73625,-6.795373 c -0.0092,-0.014 -0.02025,-0.014 -0.02625,-0.014 h -1.20375 c -0.01244,0 -0.02362,0.007063 -0.0285,0.018249 l -5.440124,12.452437 0.877248,0.903312 5.823752,-13.330312 c 0.0023,-0.005438 0.0068,-0.015686 -0.0024,-0.029686 z M 31.0625,7.759332 H 27.740875 L 27.236,8.914958 h 3.54525 c 0.155062,0 0.28125,-0.126187 0.28125,-0.28125 z"
         style="fill:#252525;fill-opacity:1;fill-rule:nonzero;stroke:none"
         id="path14" /></g></g></svg>
