<?xml version="1.0" encoding="UTF-8" standalone="no"?>
<svg
   xmlns:dc="http://purl.org/dc/elements/1.1/"
   xmlns:cc="http://creativecommons.org/ns#"
   xmlns:rdf="http://www.w3.org/1999/02/22-rdf-syntax-ns#"
   xmlns:svg="http://www.w3.org/2000/svg"
   xmlns="http://www.w3.org/2000/svg"
   version="1.1"
   id="svg2"
   xml:space="preserve"
   width="15"
   height="15"
   viewBox="0 0 27.773438 42.666668"><metadata
     id="metadata8"><rdf:RDF><cc:Work
         rdf:about=""><dc:format>image/svg+xml</dc:format><dc:type
           rdf:resource="http://purl.org/dc/dcmitype/StillImage" /></cc:Work></rdf:RDF></metadata><defs
     id="defs6" /><g
     id="g10"
     transform="matrix(1.3333333,0,0,-1.3333333,0,42.666667)"><g
       id="g12"><path
         d="M 20.31715,0.937561 H 9.030233 L 3.716431,8.584795 c -5e-4,7.5e-4 -8.76e-4,0.00156 -0.00138,0.00231 -0.00625,0.00944 -0.012812,0.018625 -0.019687,0.027563 -1.804184,2.341058 -2.75787,5.145052 -2.75787,8.108984 0,3.366243 1.260373,6.578298 3.548869,9.044357 2.171371,2.339745 5.07749,3.80818 8.225172,4.167866 0.144562,-0.561936 0.578123,-1.00881 1.131934,-1.172997 V 26.08707 C 11.552291,25.313576 9.55092,23.99408 8.036486,22.253519 6.432676,20.41021 5.497489,18.238527 5.332052,15.973408 5.266302,15.073034 5.321614,14.140722 5.496489,13.202662 c 0.581999,-3.132618 2.404872,-5.896239 4.64393,-7.040486 0.745499,-0.381187 1.552683,-0.638124 2.371619,-0.805937 0.40375,-0.082748 0.814937,-0.149875 1.226687,-0.176061 0.825998,-0.052563 1.655872,-0.00181 2.463183,0.186311 0.864874,0.201563 1.687433,0.560124 2.429619,1.047247 0.590437,0.387562 1.129435,0.852938 1.604935,1.374874 0.04856,0.053313 0.09644,0.107188 0.143688,0.161688 0.439936,0.507748 0.568436,1.21781 0.335373,1.853184 0,0 -5.933238,16.17828 -5.934551,16.180718 v 2.778743 c 0.683624,0.202626 1.183811,0.835999 1.183811,1.584498 C 15.964783,31.25869 15.223471,32 14.312222,32 13.588724,32 12.972789,31.532501 12.749539,30.883877 9.323795,30.527815 6.156738,28.946131 3.799243,26.405762 1.349247,23.765766 0,20.327272 0,16.723717 0,13.557285 1.017061,10.560917 2.94137,8.057423 L 5.50224,4.37199 3.578555,0.937561 H 1.702997 c -0.258937,0 -0.468749,-0.209812 -0.468749,-0.468748 0,-0.258938 0.209812,-0.46875 0.468749,-0.46875 h 7.081549 c 3.76e-4,0 6.87e-4,-6.1e-5 0.00106,-6.1e-5 2.51e-4,0 5.63e-4,6.1e-5 8.13e-4,6.1e-5 h 11.530792 c 0.258936,0 0.468748,0.209812 0.468748,0.46875 0,0.258936 -0.209938,0.468748 -0.468811,0.468748 v 0 z M 6.267113,15.905157 c 0.255437,3.499304 2.582746,6.700987 6.011302,8.496733 -0.241687,-0.283312 -0.491749,-0.596688 -0.742686,-0.940373 -0.152687,-0.209062 -0.107001,-0.502311 0.102124,-0.654937 0.08338,-0.06094 0.180126,-0.09025 0.276063,-0.09025 0.144562,0 0.287186,0.06669 0.378935,0.192376 0.343875,0.470873 0.684874,0.880184 1.00206,1.229246 -0.656561,-2.174746 -1.128934,-5.053053 -0.704435,-8.37542 0.342312,-2.679121 1.17356,-4.936867 2.120684,-6.750112 -0.40225,0.015312 -0.803498,0.069437 -1.19756,0.164249 -1.27581,0.307123 -2.399621,1.001436 -3.241245,1.97562 -0.387812,1.227562 -0.63631,2.636246 -0.601561,4.20368 0.046375,2.093871 0.594124,4.10993 1.62806,5.992113 0.124625,0.226937 0.04175,0.511876 -0.185125,0.636563 -0.226874,0.124748 -0.511936,0.04175 -0.636561,-0.185126 C 9.369858,19.783836 8.783234,17.622904 8.733546,15.37672 8.717359,14.644909 8.758984,13.945662 8.845171,13.2806 8.294109,13.818224 7.500048,14.070349 6.706487,13.913912 L 6.342926,13.842224 C 6.244489,14.54216 6.21805,15.234221 6.267113,15.905157 Z M 19.512775,8.482296 c -0.553247,-0.57106 -1.348371,-1.276623 -2.258432,-1.743685 -0.32375,0.428437 -0.661062,0.913061 -0.996248,1.452873 0.904247,0.167187 1.779497,0.506123 2.568182,1.008061 0.06119,0.038937 0.126436,0.07 0.193874,0.092436 0.328249,0.108938 0.507063,-0.12681 0.554062,-0.201622 0.100313,-0.15975 0.136875,-0.403439 -0.06144,-0.608063 z m -3.15743,-2.106247 c -0.025,-0.00737 -0.04988,-0.014313 -0.07475,-0.021313 -0.01244,-0.0035 -0.025,-0.00725 -0.03744,-0.010687 -1.074561,-0.29556 -1.99931,-0.253997 -2.400497,-0.230873 -0.01519,8.74e-4 -0.340185,0.021687 -0.782997,0.096125 -0.531312,0.60256 -1.329935,1.632935 -2.018872,3.032118 0.680437,-0.447811 1.439872,-0.78056 2.253433,-0.976435 C 13.930349,8.11186 14.58291,8.050171 15.231659,8.076172 15.606095,7.44286 15.98747,6.875923 16.355345,6.376049 Z m -5.96899,0.718063 c -2.085246,1.173998 -3.355619,3.563303 -3.873242,5.82605 1.530434,0.375498 2.140871,-0.885372 2.790244,-2.057245 0.787562,-1.42131 1.276186,-2.939056 2.257685,-4.28093 -0.400937,0.135437 -0.804687,0.304062 -1.174687,0.512125 z m 9.185607,3.105118 c -0.267748,0.07894 -0.56056,0.07756 -0.847122,-0.01756 -0.140436,-0.04662 -0.275562,-0.110876 -0.401811,-0.19125 -0.784811,-0.499437 -1.667498,-0.813562 -2.573621,-0.930687 -0.987374,1.790558 -1.877996,4.073679 -2.229058,6.821488 -0.441062,3.452118 0.133437,6.401735 0.844185,8.527857 z m -5.25974,20.863272 c 0.394312,0 0.715063,-0.320812 0.715063,-0.715061 0,-0.394249 -0.320813,-0.715061 -0.715063,-0.715061 -0.394248,0 -0.715061,0.320812 -0.715061,0.715061 0,0.394249 0.320751,0.715061 0.715061,0.715061 z M 6.097176,3.51568 7.888609,0.937561 H 4.653116 Z"
         style="fill:#252525;fill-opacity:1;fill-rule:nonzero;stroke:none"
         id="path14" /></g></g></svg>
