<?xml version="1.0" encoding="UTF-8" standalone="no"?>
<svg
   xmlns:dc="http://purl.org/dc/elements/1.1/"
   xmlns:cc="http://creativecommons.org/ns#"
   xmlns:rdf="http://www.w3.org/1999/02/22-rdf-syntax-ns#"
   xmlns:svg="http://www.w3.org/2000/svg"
   xmlns="http://www.w3.org/2000/svg"
   version="1.1"
   id="svg2"
   xml:space="preserve"
   width="42.666668"
   height="29.166668"
   viewBox="0 0 42.666668 29.166668"><metadata
     id="metadata8"><rdf:RDF><cc:Work
         rdf:about=""><dc:format>image/svg+xml</dc:format><dc:type
           rdf:resource="http://purl.org/dc/dcmitype/StillImage" /></cc:Work></rdf:RDF></metadata><defs
     id="defs6" /><g
     id="g10"
     transform="matrix(1.3333333,0,0,-1.3333333,0,29.166667)"><g
       id="g12"
       transform="translate(0,-0.082031)"><path
         d="m 2.687673,18.206882 c -0.066062,0 -0.131374,-0.0034 -0.196185,-0.0084 L 1.209003,21.554905 C 1.085692,21.87734 0.724571,22.038961 0.402075,21.915651 0.079641,21.792465 -0.081857,21.431219 0.041329,21.108723 l 1.267673,-3.317772 c -0.675117,-0.44812 -1.1213,-1.2148 -1.1213,-2.08404 0,-1.322484 1.032426,-2.407721 2.333473,-2.493783 C 2.827921,11.948143 3.427227,9.922167 4.482152,7.861379 4.638587,7.555632 5.014458,7.431821 5.323267,7.589819 5.630513,7.747129 5.752075,8.123688 5.594826,8.430935 4.612276,10.350349 4.046407,12.241389 3.751098,13.44575 3.814222,13.47544 3.876034,13.50756 3.936408,13.5425 7.708927,9.812856 11.585381,7.485632 15.772269,6.434582 18.850483,5.662216 21.981947,5.634592 25.09366,6.257147 22.777311,2.988436 19.724724,1.332081 15.999955,1.332081 13.223988,1.332081 10.79489,2.26832 8.780164,4.114737 8.525666,4.348045 8.130297,4.330671 7.897112,4.076237 7.663928,3.821802 7.681115,3.42643 7.935549,3.193247 c 2.252599,-2.064415 4.965817,-3.111151 8.064343,-3.111151 7.343414,0 11.750112,5.993428 13.47878,13.131032 1.301109,0.086 2.333534,1.171299 2.333534,2.493783 0,0.86924 -0.446182,1.635981 -1.121299,2.08404 l 1.267671,3.317772 c 0.123186,0.322435 -0.03831,0.683679 -0.360744,0.806928 -0.322558,0.123249 -0.683743,-0.03831 -0.806929,-0.360746 l -1.282484,-3.356461 c -0.06481,0.0051 -0.13006,0.0084 -0.196184,0.0084 -1.378485,0 -2.499972,-1.121486 -2.499972,-2.499971 0,-0.471119 0.12831,-0.919989 0.36862,-1.308735 C 24.689226,11.861356 21.186518,8.937828 15.929893,7.685281 12.027188,8.696519 8.389918,10.90143 4.82996,14.416889 c 0.232998,0.384432 0.357559,0.826678 0.357559,1.289984 1.25e-4,1.378546 -1.121363,2.499971 -2.499846,2.499971 v 0 z M 1.437688,15.706911 c 0,0.689241 0.560743,1.249987 1.249985,1.249987 0.689242,0 1.249985,-0.560746 1.249985,-1.249987 0,-0.631555 -0.462869,-1.131236 -1.031925,-1.230547 -0.00169,-3.13e-4 -0.0035,-6.25e-4 -0.00519,-9.38e-4 -0.738928,-0.135498 -1.462857,0.441307 -1.462857,1.231485 v 0 z m 27.874673,1.249987 c 0.689241,0 1.249985,-0.560746 1.249985,-1.249987 0,-0.689241 -0.560744,-1.249985 -1.249985,-1.249985 -0.674681,0 -1.249987,0.545681 -1.249987,1.249985 0,0.689241 0.560743,1.249987 1.249987,1.249987 z M 28.082188,13.53175 c 0.05456,-0.031 0.110187,-0.05981 0.166811,-0.0865 -0.338246,-1.380672 -1.005051,-3.557834 -2.206475,-5.689497 -2.514471,-0.645117 -4.996256,-0.834739 -7.41004,-0.568055 4.252013,1.533607 7.23523,4.087514 9.449704,6.344051 z"
         style="fill:#252525;fill-opacity:1;fill-rule:nonzero;stroke:none"
         id="path14" /></g><g
       id="g16"
       transform="translate(5.8125,5)"><path
         d="M 0.625,0 C 0.970178,0 1.25,0.279822 1.25,0.625 1.25,0.970178 0.970178,1.25 0.625,1.25 0.279822,1.25 0,0.970178 0,0.625 0,0.279822 0.279822,0 0.625,0 Z"
         style="fill:#252525;fill-opacity:1;fill-rule:nonzero;stroke:none"
         id="path18" /></g></g></svg>
