<svg width="32" height="28" viewBox="0 0 32 28" fill="none" xmlns="http://www.w3.org/2000/svg">
<path d="M25.1086 7.46049C25.3755 7.32674 25.7015 7.43512 25.8353 7.70187C25.9148 7.86043 26.0769 7.96056 26.2543 7.96056C26.4317 7.96056 26.5939 7.86043 26.6734 7.70187C26.8072 7.43499 27.1331 7.32668 27.3999 7.46049C27.6313 7.57637 27.9131 7.48287 28.0291 7.25149C28.145 7.02006 28.0514 6.73837 27.8201 6.62237C27.4669 6.44537 27.0661 6.41649 26.6911 6.54099C26.5309 6.59424 26.3835 6.67281 26.2536 6.77293C25.8178 6.43837 25.2116 6.36018 24.6884 6.62237C24.4571 6.73837 24.3635 7.02006 24.4794 7.25149C24.5955 7.48293 24.8771 7.57643 25.1086 7.46049Z" fill="#252525"/>
<path d="M15.5149 4.88282C15.7818 4.74901 16.1077 4.85732 16.2414 5.1242C16.3209 5.28276 16.4831 5.38288 16.6605 5.38288C16.8379 5.38288 17.0001 5.28276 17.0796 5.1242C17.2133 4.85726 17.5392 4.74876 17.8063 4.88282C18.0374 4.99876 18.3193 4.90526 18.4353 4.67376C18.5513 4.44232 18.4577 4.1607 18.2263 4.0447C17.7031 3.78251 17.0969 3.86082 16.6612 4.1952C16.5313 4.09513 16.3839 4.01657 16.2236 3.96332C15.8488 3.83882 15.4478 3.86782 15.0947 4.0447C14.8633 4.1607 14.7698 4.44238 14.8857 4.67382C15.0016 4.90526 15.2834 4.99876 15.5149 4.88282Z" fill="#252525"/>
<path d="M21.1984 1.9048C21.4652 1.77118 21.7912 1.87937 21.9251 2.14618C22.0045 2.30474 22.1667 2.40487 22.3441 2.40487C22.5215 2.40487 22.6837 2.30474 22.7632 2.14618C22.8279 2.01693 22.9392 1.92062 23.0765 1.87499C23.2138 1.82943 23.3605 1.83993 23.4897 1.9048C23.7209 2.02074 24.0028 1.92724 24.1188 1.69587C24.2348 1.46449 24.1413 1.1828 23.9098 1.0668C23.5568 0.889741 23.1559 0.860803 22.7809 0.985303C22.6209 1.03849 22.4738 1.1168 22.3441 1.21662C22.2143 1.1168 22.0672 1.03843 21.9072 0.985303C21.5323 0.860803 21.1313 0.889741 20.7783 1.0668C20.5468 1.1828 20.4533 1.46449 20.5693 1.69587C20.6853 1.9273 20.9672 2.02093 21.1984 1.9048Z" fill="#252525"/>
<path d="M31.9841 24.4824C31.9312 23.6573 31.3346 22.9778 30.5494 22.8C30.5064 22.6539 30.4413 22.5172 30.3587 22.3931V21.4446C30.3587 17.3877 28.6298 13.5011 25.6152 10.7816C25.4231 10.6082 25.1267 10.6233 24.9533 10.8156C24.7798 11.0078 24.7951 11.3042 24.9873 11.4776C25.3514 11.8061 25.695 12.1531 26.0181 12.516H23.3004C23.0737 12.0751 22.8293 11.6524 22.5673 11.2504C21.9119 10.2448 21.1749 9.40849 20.3788 8.75561C21.4064 9.10993 22.3917 9.58974 23.3137 10.1899C23.5308 10.3312 23.8211 10.2698 23.9622 10.0529C24.1035 9.83586 24.0421 9.54555 23.8252 9.4043C21.4976 7.88911 18.794 7.08774 16.0064 7.08655C16.0042 7.08655 16.0021 7.08643 16.0001 7.08643C16.0001 7.08643 16.0001 7.08643 16 7.08643H15.9999C15.997 7.08643 15.9941 7.08661 15.9911 7.08661C12.2158 7.08893 8.65181 8.5443 5.95475 11.1853C3.314 13.7712 1.79256 17.2102 1.65356 20.8908C0.945438 20.9891 0.391937 21.5775 0.350812 22.3021C0.123375 22.6016 0 22.9657 0 23.3465V26.6221C0 26.881 0.209812 27.0908 0.46875 27.0908H24.5081C24.7671 27.0908 24.9769 26.881 24.9769 26.6221C24.9769 26.3631 24.7671 26.1533 24.5081 26.1533H0.9375V25.0702H8.92875C9.18769 25.0702 9.3975 24.8604 9.3975 24.6014C9.3975 24.3425 9.18769 24.1327 8.92875 24.1327H8.6715C8.71006 24.0079 8.73144 23.8757 8.73144 23.7384C8.73144 23.2476 8.46969 22.8094 8.05769 22.5751C7.97763 22.3429 7.82606 22.1445 7.62981 22.0051V21.4449C7.62981 20.2206 7.73225 19.022 7.93 17.873H12.1734C12.0979 19.0254 12.0588 20.2234 12.0588 21.4448V24.1327H11.1163C10.8573 24.1327 10.6475 24.3425 10.6475 24.6014C10.6475 24.8604 10.8573 25.0702 11.1163 25.0702H14.567C14.5683 25.0702 14.5694 25.0704 14.5706 25.0704C14.5718 25.0704 14.573 25.0702 14.5743 25.0702H17.4256C17.4269 25.0702 17.4281 25.0704 17.4293 25.0704C17.4304 25.0704 17.4316 25.0702 17.4329 25.0702H31.0625V26.1533H26.6956C26.4367 26.1533 26.2269 26.3631 26.2269 26.6221C26.2269 26.881 26.4367 27.0908 26.6956 27.0908H31.5312C31.7902 27.0908 32 26.881 32 26.6221C32 26.6221 31.9941 24.5204 31.9841 24.4824ZM30.9193 24.1327H22.472C22.6315 23.8692 22.92 23.6921 23.2499 23.6921C23.5088 23.6921 23.7186 23.4822 23.7186 23.2233C23.7186 22.9118 23.9721 22.6583 24.2836 22.6583C24.5425 22.6583 24.7523 22.4485 24.7523 22.1896C24.7523 21.6881 25.1603 21.2801 25.6619 21.2801C25.9208 21.2801 26.1306 21.0702 26.1306 20.8113C26.1306 20.4998 26.3841 20.2463 26.6956 20.2463C27.0071 20.2463 27.2606 20.4997 27.2606 20.8112C27.2606 21.0701 27.4704 21.28 27.7292 21.28C28.2308 21.2801 28.6389 21.6881 28.6389 22.1896C28.6389 22.4485 28.8487 22.6583 29.1076 22.6583C29.4191 22.6583 29.6726 22.9118 29.6726 23.2233C29.6726 23.4822 29.8824 23.6921 30.1414 23.6921C30.4712 23.6921 30.7598 23.8692 30.9193 24.1327ZM12.861 12.516H9.76363C9.88613 12.2971 10.0131 12.083 10.1454 11.8751C11.3115 10.0426 12.7493 8.81855 14.3047 8.30218C13.8459 9.0393 13.4399 10.1094 13.0898 11.5096C13.0091 11.8326 12.9328 12.1686 12.861 12.516ZM13.9993 11.737C14.6839 8.99861 15.5038 8.02555 15.9987 8.02393H16H16.0011C16.4959 8.02543 17.316 8.99843 18.0006 11.737C18.0636 11.9886 18.1236 12.2487 18.1809 12.516H13.8189C13.8763 12.2487 13.9364 11.9887 13.9993 11.737ZM18.3649 13.4535C18.5574 14.5262 18.7087 15.6973 18.8157 16.9355H13.1843C13.2913 15.6973 13.4426 14.5262 13.6351 13.4535H18.3649ZM19.3167 13.4535H22.7161C23.2144 14.5219 23.6071 15.6937 23.8843 16.9355H19.7563C19.6518 15.7026 19.5043 14.5322 19.3167 13.4535ZM24.0694 17.873C24.2367 18.8443 24.3353 19.8514 24.362 20.8791C24.1168 21.1222 23.9391 21.4333 23.8603 21.7816C23.3716 21.9253 22.9856 22.3113 22.8419 22.8C22.1708 22.9519 21.6373 23.4702 21.4633 24.1327H19.9412V21.4448C19.9412 20.2233 19.9021 19.0254 19.8266 17.873H24.0694ZM29.4212 21.4446V21.4514C29.1886 20.9204 28.7142 20.5186 28.1373 20.3879C27.9541 19.7649 27.3771 19.3087 26.6956 19.3087C26.0414 19.3087 25.4845 19.7296 25.2788 20.3143C25.2372 19.4841 25.1499 18.6679 25.0191 17.8729H28.9345C29.2539 19.0267 29.4212 20.2273 29.4212 21.4446ZM26.7791 13.4535C27.568 14.5189 28.1943 15.693 28.6382 16.9355H24.8427C24.5809 15.7042 24.2118 14.5339 23.7432 13.4535H26.7791ZM21.7819 11.7622C21.9404 12.0054 22.0919 12.2571 22.2368 12.516H19.1389C19.0671 12.1686 18.9909 11.8326 18.9101 11.5096C18.5603 10.1101 18.1544 9.0403 17.6959 8.30318C19.2178 8.80961 20.6296 9.99418 21.7819 11.7622ZM11.6251 8.75174C10.7959 9.43124 10.0306 10.3093 9.3545 11.3717C9.12181 11.7374 8.90381 12.1197 8.69994 12.5161H5.98019C6.18219 12.2899 6.392 12.0692 6.61062 11.8552C8.05456 10.4412 9.76463 9.39155 11.6251 8.75174ZM5.21556 13.4535H8.25638C7.78713 14.5349 7.41769 15.7048 7.15619 16.9355H3.35356C3.7955 15.6932 4.42131 14.5213 5.21556 13.4535ZM7.79394 23.7384C7.79394 23.9334 7.65444 24.0962 7.46994 24.1327H0.9375V23.3466C0.9375 23.1409 1.01612 22.9458 1.15887 22.7971C1.25156 22.7006 1.29856 22.5689 1.288 22.4354C1.28675 22.42 1.28581 22.4044 1.28581 22.3887C1.28581 22.0351 1.60944 21.7532 1.97156 21.823C2.22544 21.8715 2.47056 21.7056 2.51988 21.4521C2.59206 21.0806 2.91969 20.8109 3.29894 20.8109C3.31088 20.8109 3.32281 20.8113 3.33463 20.8119C3.57337 20.8227 3.78031 20.6549 3.81931 20.4206C3.86563 20.1422 4.10456 19.9401 4.3875 19.9401C4.70525 19.9401 4.96375 20.1986 4.96375 20.5163C4.96375 20.5652 4.95762 20.6137 4.94569 20.6603C4.89594 20.8537 4.97419 21.0574 5.14056 21.1677C5.27362 21.2559 5.36487 21.3961 5.391 21.5522C5.42812 21.7742 5.61775 21.9386 5.84281 21.9436C6.15869 21.9507 6.44006 22.1445 6.55969 22.4371C6.62831 22.6051 6.78762 22.7184 6.96887 22.7279C7.08319 22.7339 7.17531 22.8245 7.18313 22.9386C7.19631 23.1317 7.32681 23.2967 7.51162 23.3542C7.6805 23.4068 7.79394 23.5612 7.79394 23.7384ZM6.69394 21.2399C6.54519 21.1535 6.38331 21.089 6.21306 21.0499C6.1385 20.8772 6.03206 20.7193 5.89975 20.585C5.90081 20.5621 5.90125 20.5392 5.90125 20.5162C5.90125 19.6816 5.22219 19.0025 4.3875 19.0025C3.77581 19.0025 3.24219 19.3627 3.00456 19.8986C2.88438 19.9193 2.76831 19.9532 2.65725 19.9977C2.73431 19.2751 2.86856 18.5649 3.05844 17.8729H6.98006C6.80119 18.9616 6.70425 20.09 6.69394 21.2399ZM8.11512 16.9355C8.39219 15.6946 8.78456 14.5231 9.28369 13.4535H12.6832C12.4956 14.5322 12.3481 15.7026 12.2437 16.9355H8.11512ZM12.9963 21.4448C12.9963 20.2213 13.036 19.0231 13.1126 17.873H18.8873C18.9639 19.0231 19.0036 20.2213 19.0036 21.4448V24.1327H17.8981V22.776C17.8981 21.7294 17.0466 20.8779 16 20.8779C14.9534 20.8779 14.1019 21.7294 14.1019 22.776V24.1327H12.9963V21.4448H12.9963ZM16.9606 24.1327H15.0394V22.776C15.0394 22.2463 15.4704 21.8154 16 21.8154C16.5296 21.8154 16.9606 22.2464 16.9606 22.776V24.1327Z" fill="#252525"/>
</svg>
