<?xml version="1.0" encoding="UTF-8" standalone="no"?>
<svg
   xmlns:dc="http://purl.org/dc/elements/1.1/"
   xmlns:cc="http://creativecommons.org/ns#"
   xmlns:rdf="http://www.w3.org/1999/02/22-rdf-syntax-ns#"
   xmlns:svg="http://www.w3.org/2000/svg"
   xmlns="http://www.w3.org/2000/svg"
   version="1.1"
   id="svg2"
   xml:space="preserve"
   width="34.096355"
   height="42.665363"
   viewBox="0 0 34.096355 42.665363"><metadata
     id="metadata8"><rdf:RDF><cc:Work
         rdf:about=""><dc:format>image/svg+xml</dc:format><dc:type
           rdf:resource="http://purl.org/dc/dcmitype/StillImage" /></cc:Work></rdf:RDF></metadata><defs
     id="defs6" /><g
     id="g10"
     transform="matrix(1.3333333,0,0,-1.3333333,0,42.665364)"><g
       id="g12"
       transform="translate(19.21875,17.837402)"><path
         d="M 0.002363,0.007161 C 0.006613,0.007036 0.010926,0.00666 0.015176,0.006535 0.055239,0.019598 -0.013263,0.009848 0.002363,0.007161 Z"
         style="fill:#252525;fill-opacity:1;fill-rule:nonzero;stroke:none"
         id="path14" /></g><g
       id="g16"
       transform="translate(6.523438,17.834473)"><path
         d="m 0.012859,0.009195 c 0.051563,-5e-4 -0.046375,0.015813 0,0 z"
         style="fill:#252525;fill-opacity:1;fill-rule:nonzero;stroke:none"
         id="path18" /></g><g
       id="g20"
       transform="translate(0.519531,9.289551)"><path
         d="m 5.466334,7.623457 c 0,-1.805195 0,-4.228392 0,-5.050459 0,-0.818689 0.666004,-1.484693 1.484631,-1.484693 h 7.025278 c 0.25975,0 0.470253,0.210502 0.470253,0.470253 0,0.259752 -0.210503,0.470251 -0.470253,0.470251 H 6.950902 c -0.2625,0 -0.482189,0.186939 -0.533001,0.434627 -0.015063,0.073376 -0.011125,0.0135 -0.011125,1.189068 H 18.315071 V 2.572998 c 0,-0.300001 -0.244125,-0.544189 -0.544126,-0.544189 H 15.62725 c -0.259751,0 -0.470252,-0.210499 -0.470252,-0.470251 0,-0.259751 0.210501,-0.470253 0.470252,-0.470253 h 2.143695 c 0.818628,0 1.48463,0.666004 1.48463,1.484693 0,0.823692 0,3.257265 0,5.045397 3.174074,0.247438 5.568148,2.964448 5.522585,5.987022 6.3e-5,0.0043 1.87e-4,0.0087 1.87e-4,0.01306 0,3.715516 -3.369764,6.56009 -7.054527,5.898087 C 15.457747,23.797832 9.3551,23.753395 7.120028,19.505255 3.423076,20.20932 0,17.369495 0,13.618418 c 0,-0.0043 1.88e-4,-0.0087 1.88e-4,-0.01306 C 1.88e-4,13.601231 0,13.597105 0,13.592917 0,10.465968 2.407572,7.891146 5.466334,7.623457 Z m 0.599315,11.033606 c 0.201938,-0.0057 0.475502,-0.01225 0.67444,-0.04169 -0.199626,-0.596627 -0.308064,-1.234568 -0.308064,-1.897446 -6.2e-5,-0.259688 0.210502,-0.470251 0.47019,-0.470251 0.259689,0 0.470252,0.210563 0.470252,0.470251 0,3.808452 4.02764,6.1789 7.339529,4.503017 1.66182,-0.845939 2.765572,-2.564821 2.765572,-4.503017 0,-0.259688 0.210502,-0.470251 0.470253,-0.470251 0.25975,0 0.470251,0.210563 0.470251,0.470251 0,0.666254 -0.109438,1.307381 -0.311003,1.90657 0.176876,0.02394 0.427565,0.02744 0.605692,0.03269 2.781572,0 5.117769,-2.271259 5.124832,-5.051396 -0.0069,-2.780135 -2.343323,-5.051393 -5.125082,-5.051393 -0.0065,0 -0.0105,2.48e-4 -0.01281,6.24e-4 -0.693378,0.020875 -1.432069,0.167875 -2.057197,0.461065 -0.234938,0.110249 -0.515188,0.00912 -0.625439,-0.226064 -0.110312,-0.235127 -0.0091,-0.515127 0.226063,-0.62544 0.656689,-0.308001 1.351755,-0.490877 2.071945,-0.546252 V 4.59307 h -2.370194 v 1.474005 c 0,0.25975 -0.210502,0.470253 -0.470253,0.470253 -0.259752,0 -0.470251,-0.210503 -0.470251,-0.470253 V 4.59307 h -2.27176 v 1.474005 c 0,0.25975 -0.210501,0.470253 -0.470251,0.470253 -0.25969,0 -0.470253,-0.210503 -0.470253,-0.470253 V 4.59307 H 9.520477 v 1.474005 c 0,0.25975 -0.210563,0.470253 -0.470252,0.470253 -0.259688,0 -0.470252,-0.210503 -0.470252,-0.470253 V 4.59307 H 6.40684 v 3.021448 c 0.74044,0.05 1.454756,0.234001 2.128508,0.550065 C 8.770473,8.274897 8.87166,8.554897 8.76141,8.790024 8.651034,9.025149 8.370971,9.126275 8.13597,9.016088 7.49203,8.714086 6.730027,8.567648 6.015024,8.554585 3.261888,8.582211 0.947816,10.854033 0.940941,13.60573 c 0.006938,2.780073 2.343072,5.051333 5.124708,5.051333 z"
         style="fill:#252525;fill-opacity:1;fill-rule:nonzero;stroke:none"
         id="path22" /></g><g
       id="g24"
       transform="translate(6.574219,27.931641)"><path
         d="m 0.012698,0.014648 c -0.04575,-0.014875 0.05075,0 0,0 z"
         style="fill:#252525;fill-opacity:1;fill-rule:nonzero;stroke:none"
         id="path26" /></g><g
       id="g28"
       transform="translate(19.21875,27.931152)"><path
         d="m 0.015208,0.015137 c -0.050813,0 0.045875,-0.014938 0,0 z"
         style="fill:#252525;fill-opacity:1;fill-rule:nonzero;stroke:none"
         id="path30" /></g><g
       id="g32"
       transform="translate(0,-0.650391)"><path
         d="m 25.27519,10.098198 c -1.38713,2.402697 -6.2579,0.845503 -6.4009,-1.932446 L 13.151832,4.86199 7.596748,8.069128 7.657561,8.17444 C 8.066813,8.883381 7.822936,9.793135 7.114058,10.202448 L 3.368294,12.365144 C 3.143292,12.494957 2.855729,12.418019 2.725853,12.193018 2.595978,11.96808 2.673041,11.680517 2.897979,11.550642 L 6.643807,9.387944 C 6.90362,9.237881 6.992996,8.904442 6.842995,8.644691 6.426868,7.923876 6.552868,8.142191 6.25393,7.624439 L 2.017975,10.069948 C 1.793037,10.199698 1.505473,10.122824 1.375598,9.897822 1.245723,9.672884 1.322786,9.38532 1.547724,9.255444 L 5.783616,6.809935 C 5.688241,6.644809 5.414927,6.171308 5.194676,5.789743 5.04455,5.529993 4.711049,5.440554 4.451235,5.590555 L 0.705471,7.753126 C 0.480532,7.882939 0.192906,7.806002 0.063093,7.581001 -0.066783,7.356062 0.01028,7.068498 0.235219,6.938622 4.29161,4.596738 4.193297,4.577426 4.720861,4.577426 c 0.51344,0 1.013629,0.266314 1.288318,0.742003 L 6.069867,5.424555 10.276071,2.99617 c -0.64044,-1.024629 0.102126,-2.338261 1.29363,-2.338261 0.500877,0 0.721128,0.180877 1.582131,0.677942 L 13.971398,0.86266 c 1.368193,-0.790002 2.891574,0.782254 2.06232,2.126008 l 1.694069,0.943192 c 0.226938,0.126313 0.308437,0.41269 0.182062,0.639628 -0.126375,0.226939 -0.41275,0.308564 -0.639625,0.182063 l -2.000946,-1.114066 -1.177005,0.679565 5.488394,3.1687 c 0.154877,0.0895 0.245629,0.259001 0.234067,0.437502 -0.129313,2.006946 3.723512,3.300512 4.645765,1.702756 0.924192,-1.600506 -2.127506,-4.284891 -3.797512,-3.172011 -0.148813,0.09925 -0.341004,0.105374 -0.495878,0.016061 L 18.638727,5.589681 C 18.41379,5.459805 18.33679,5.172241 18.466602,4.947302 18.596415,4.722301 18.884104,4.645426 19.108978,4.775177 l 1.292006,0.74594 c 2.481197,-1.266942 6.259649,2.177946 4.874206,4.577081 z M 11.861952,1.676976 C 11.321074,1.364412 10.727197,2.012791 11.091449,2.52523 l 1.119817,-0.646565 z m 3.439325,0.659502 c 0.09975,-0.371689 -0.180562,-0.738251 -0.567251,-0.738251 -0.201814,0 -0.194938,0.022501 -1.34638,0.687253 0,0 -2.097384,1.210879 -2.113883,1.220503 -6.3e-5,0 -1.25e-4,6.3e-5 -1.25e-4,6.3e-5 l -4.733582,2.732888 0.58644,1.015689 c 8.639283,-4.987957 8.087406,-4.591706 8.174781,-4.918145 z"
         style="fill:#252525;fill-opacity:1;fill-rule:nonzero;stroke:none"
         id="path34" /></g></g></svg>
