<?xml version="1.0" encoding="UTF-8" standalone="no"?>
<svg
   xmlns:dc="http://purl.org/dc/elements/1.1/"
   xmlns:cc="http://creativecommons.org/ns#"
   xmlns:rdf="http://www.w3.org/1999/02/22-rdf-syntax-ns#"
   xmlns:svg="http://www.w3.org/2000/svg"
   xmlns="http://www.w3.org/2000/svg"
   version="1.1"
   id="svg2"
   xml:space="preserve"
   width="40"
   height="40"
   viewBox="0 0 26.044271 42.619141"><metadata
     id="metadata8"><rdf:RDF><cc:Work
         rdf:about=""><dc:format>image/svg+xml</dc:format><dc:type
           rdf:resource="http://purl.org/dc/dcmitype/StillImage" /></cc:Work></rdf:RDF></metadata><defs
     id="defs6" /><g
     id="g10"
     transform="matrix(1.3333333,0,0,-1.3333333,0,42.61914)"><g
       id="g12"
       transform="translate(12.027344,13.923828)"><path
         d="m 0.905509,6.3e-5 h 0.003 3.98975 c 0.241875,9.99e-4 0.468938,0.096126 0.639375,0.267813 0.170375,0.17175 0.263688,0.399561 0.262688,0.639623 v 14.245126 c -0.002,0.489813 -0.442313,0.902063 -0.960688,0.902063 -0.00125,0 -0.0025,0 -0.00381,0 H 0.845075 C 0.361198,16.05275 -0.002116,15.654938 9e-6,15.13125 V 0.886126 c 0.001,-0.2455 0.099188,-0.47275 0.2765,-0.639813 0.168875,-0.158875 0.392062,-0.24625 0.629,-0.24625 z m 0.029188,15.12 H 4.83701 c 0.00725,-4.38e-4 0.019124,-0.0055 0.028749,-0.01144 V 0.934624 H 0.934697 v 14.185437 z"
         style="fill:#252525;fill-opacity:1;fill-rule:nonzero;stroke:none"
         id="path14" /></g><g
       id="g16"
       transform="translate(4.402344,7.876465)"><path
         d="m 0.469191,-1.79e-4 9.792439,0.039186 c 0.258062,0.001063 0.466437,0.211064 0.465437,0.469189 -0.0011,0.257437 -0.210062,0.465437 -0.467312,0.465437 -6.25e-4,0 -0.0013,0 -0.0019,0 L 0.465441,0.934444 C 0.207316,0.933382 -0.001058,0.72332 4e-6,0.465258 0.001067,0.207758 0.210066,-1.79e-4 0.467316,-1.79e-4 Z"
         style="fill:#252525;fill-opacity:1;fill-rule:nonzero;stroke:none"
         id="path18" /></g><g
       id="g20"><path
         d="M 18.639,31.964355 H 0.894938 C 0.401438,31.964355 0,31.562855 0,31.069355 V 6.840607 C 0,6.582544 0.20925,6.373293 0.467313,6.373293 c 0.258062,0 0.467312,0.209251 0.467312,0.467314 V 9.98723 H 18.599312 V 2.802044 H 0.934625 v 1.847437 c 0,0.258062 -0.20925,0.467312 -0.467312,0.467312 C 0.20925,5.116793 0,4.907543 0,4.649481 L 0.005938,0.972231 C 0.008125,0.43523 0.445625,-1.9e-5 0.982063,-1.9e-5 h 0.004 L 2.5365,0.006168 C 2.932688,0.00773 3.2845,0.244606 3.435188,0.610481 L 3.98725,1.867355 H 15.548687 L 16.113625,0.600294 C 16.2665,0.236544 16.618439,0.002542 17.013313,0.002542 h 0.0039 l 1.550499,0.00619 c 0.534937,0.002188 0.968376,0.44181 0.966188,0.978185 v 30.082438 c 0,0.4935 -0.401437,0.895 -0.894937,0.895 v 0 z M 2.576875,0.980606 C 2.574875,0.976044 2.572938,0.971481 2.571063,0.966856 2.56475,0.951105 2.549687,0.940857 2.532687,0.940794 L 0.982188,0.934607 C 0.97275,0.935482 0.960937,0.938606 0.952812,0.946669 0.94475,0.954668 0.940562,0.964542 0.940562,0.974043 v 0.893312 h 2.025751 z m 16.022437,0.004437 c 6.3e-5,-0.020001 -0.01094,-0.041562 -0.03531,-0.041624 L 17.0135,0.937231 h -1.26e-4 c -0.01694,0 -0.03194,0.010063 -0.03837,0.025688 -0.0018,0.00425 -0.0036,0.008499 -0.0054,0.012686 l -0.397625,0.89175 h 2.027374 V 0.985043 Z M 9.21175,31.029669 h 1.110499 V 30.295605 H 9.21175 Z m 0,-1.668688 h 1.110499 V 14.569918 H 9.21175 Z m 0,-15.72575 h 1.110499 V 12.910107 H 9.21175 Z M 0.934625,31.029669 H 8.277062 V 12.910107 H 0.934625 Z M 18.599312,12.910107 h -1.9 c -0.258062,0 -0.467312,-0.209252 -0.467312,-0.467314 0,-0.258062 0.20925,-0.467312 0.467312,-0.467312 h 1.9 V 10.921793 H 0.934625 v 1.053688 h 13.532 c 0.258063,0 0.467312,0.20925 0.467312,0.467312 0,0.258062 -0.209249,0.467314 -0.467312,0.467314 h -3.20975 v 1.19125 c 0,4.36e-4 6.2e-5,8.1e-4 6.2e-5,0.0012 v 15.72575 c 0,4.37e-4 -6.2e-5,8.12e-4 -6.2e-5,0.0012 v 1.200188 h 7.342437 V 12.910133 Z"
         style="fill:#252525;fill-opacity:1;fill-rule:nonzero;stroke:none"
         id="path22" /></g><g
       id="g24"
       transform="translate(1.835938,17.820312)"><path
         d="M 4.641188,8.261719 H 4.641 0.828375 0.828187 C 0.3715,8.261719 0,7.890156 0,7.433531 V 7.433343 0.828406 C 0,0.371593 0.371625,-3.1e-5 0.828438,-3.1e-5 H 4.641 c 0.456812,0 0.828438,0.371624 0.828438,0.828437 v 6.604875 1.88e-4 c -6.3e-5,0.456687 -0.371563,0.82825 -0.82825,0.82825 z M 4.53475,0.934594 H 0.934625 v 3.802125 h 0.814813 c 0.278,0 0.523625,0.167062 0.62575,0.425687 L 2.526563,5.545844 H 2.942875 L 3.094188,5.162531 C 3.19625,4.903844 3.441875,4.736719 3.719937,4.736719 H 4.53475 Z m 0,4.736749 H 3.898063 L 3.74675,6.054718 C 3.644687,6.313344 3.399063,6.480469 3.121,6.480469 H 2.348313 c -0.278125,0 -0.523813,-0.167188 -0.62575,-0.425751 L 1.57125,5.671343 H 0.934625 V 7.327094 H 4.534813 V 5.671343 Z"
         style="fill:#252525;fill-opacity:1;fill-rule:nonzero;stroke:none"
         id="path26" /></g></g></svg>
