<?xml version="1.0" encoding="UTF-8" standalone="no"?>
<svg
   xmlns:dc="http://purl.org/dc/elements/1.1/"
   xmlns:cc="http://creativecommons.org/ns#"
   xmlns:rdf="http://www.w3.org/1999/02/22-rdf-syntax-ns#"
   xmlns:svg="http://www.w3.org/2000/svg"
   xmlns="http://www.w3.org/2000/svg"
   version="1.1"
   id="svg2"
   xml:space="preserve"
   width="42.666668"
   height="42.666668"
   viewBox="0 0 42.666668 42.666668"><metadata
     id="metadata8"><rdf:RDF><cc:Work
         rdf:about=""><dc:format>image/svg+xml</dc:format><dc:type
           rdf:resource="http://purl.org/dc/dcmitype/StillImage" /></cc:Work></rdf:RDF></metadata><defs
     id="defs6" /><g
     id="g10"
     transform="matrix(1.3333333,0,0,-1.3333333,0,42.666667)"><g
       id="g12"
       transform="translate(0.863281,7.351562)"><path
         d="M 29.19957,1.98e-4 H 1.070703 C 0.786805,4.27e-4 0.514601,0.113308 0.313855,0.314053 0.113108,0.514799 2.29e-4,0.787004 0,1.070902 v 17.750486 c 2.29e-4,0.283898 0.113108,0.556101 0.313855,0.756848 0.200746,0.200746 0.47295,0.313625 0.756848,0.313854 H 29.19957 c 0.283897,-2.29e-4 0.556099,-0.113108 0.756845,-0.313854 0.200747,-0.200747 0.313627,-0.47295 0.313856,-0.756848 V 1.070902 C 30.270042,0.787004 30.157162,0.514799 29.956415,0.314053 29.755669,0.113308 29.483467,4.27e-4 29.19957,1.98e-4 Z M 1.070703,19.027225 c -0.054592,0 -0.106948,-0.02169 -0.14555,-0.06029 -0.038602,-0.0386 -0.060288,-0.09096 -0.060288,-0.145548 V 1.070901 c 0,-0.054592 0.021686,-0.106949 0.060288,-0.14555 C 0.963755,0.886748 1.016111,0.865062 1.070703,0.865062 H 29.19957 c 0.05459,0 0.106945,0.021686 0.145546,0.060289 0.0386,0.038601 0.06029,0.090958 0.06029,0.14555 v 17.750486 c 0,0.05459 -0.02169,0.106945 -0.06029,0.145548 -0.0386,0.0386 -0.09096,0.06029 -0.145546,0.06029 z"
         style="fill:#252525;fill-opacity:1;fill-rule:nonzero;stroke:none"
         id="path14" /></g><g
       id="g16"
       transform="translate(3.457031,9.945801)"><path
         d="M 18.821188,-6.5e-5 H 1.070703 C 0.786805,1.64e-4 0.5146,0.113043 0.313854,0.313789 0.113108,0.514535 2.29e-4,0.78674 0,1.070638 v 12.561296 c 2.29e-4,0.283898 0.113108,0.556102 0.313854,0.756849 0.200746,0.200745 0.472951,0.313625 0.756849,0.313854 h 17.750485 c 0.283897,-2.29e-4 0.556103,-0.113109 0.756849,-0.313854 0.200745,-0.200747 0.313626,-0.472951 0.313854,-0.756849 V 1.070638 C 19.891663,0.78674 19.778782,0.514535 19.578037,0.313789 19.377291,0.113043 19.105085,1.64e-4 18.821188,-6.5e-5 Z M 1.070703,13.837772 c -0.054592,0 -0.106947,-0.02169 -0.145549,-0.06029 -0.038603,-0.0386 -0.060289,-0.09096 -0.060289,-0.145549 V 1.070637 c 0,-0.054591 0.021686,-0.106948 0.060289,-0.145551 C 0.963756,0.886485 1.016111,0.864799 1.070703,0.864799 h 17.750485 c 0.05459,0 0.106949,0.021686 0.14555,0.060288 0.0386,0.038603 0.06029,0.09096 0.06029,0.145551 v 12.561296 c 0,0.05459 -0.02169,0.106947 -0.06029,0.145549 -0.0386,0.0386 -0.09096,0.06029 -0.14555,0.06029 H 1.070703 Z"
         style="fill:#252525;fill-opacity:1;fill-rule:nonzero;stroke:none"
         id="path18" /></g><g
       id="g20"
       transform="translate(24.644531,19.416504)"><path
         d="M 2.16562,0.042865 C 1.73769,0.042181 1.319182,0.168495 0.963087,0.405813 0.606991,0.643131 0.329324,0.980779 0.165247,1.376004 0.001169,1.771228 -0.041939,2.206253 0.041378,2.625994 0.124695,3.045734 0.330692,3.431312 0.633284,3.733904 0.935876,4.036496 1.321454,4.242493 1.741194,4.325809 2.160935,4.409127 2.595958,4.366017 2.991183,4.20194 3.386407,4.037862 3.724055,3.760196 3.961373,3.4041 4.198691,3.048005 4.325005,2.629497 4.324321,2.201567 4.323406,1.629325 4.09568,1.080782 3.691043,0.676145 3.286406,0.271508 2.737862,0.043779 2.16562,0.042865 Z m 0,3.459459 C 1.90904,3.503007 1.658019,3.42759 1.444301,3.28561 1.230583,3.143631 1.063766,2.941465 0.964946,2.704678 0.866125,2.467891 0.839738,2.207117 0.889124,1.955333 0.938509,1.70355 1.061448,1.472067 1.242393,1.290154 1.423339,1.10824 1.654165,0.984069 1.905681,0.933341 2.157197,0.882613 2.418108,0.907608 2.655418,1.005165 2.892729,1.102721 3.095784,1.268457 3.238901,1.481415 3.382019,1.694372 3.458771,1.944988 3.459456,2.201567 3.459911,2.371931 3.426806,2.540716 3.362031,2.698286 3.297255,2.855855 3.20208,2.999123 3.081935,3.11991 2.961791,3.240696 2.819032,3.336636 2.661811,3.40225 2.504589,3.467865 2.335983,3.50187 2.16562,3.502324 Z"
         style="fill:#252525;fill-opacity:1;fill-rule:nonzero;stroke:none"
         id="path22" /></g><g
       id="g24"
       transform="translate(26.378906,22.225586)"><path
         d="M 0.864865,1.125977 H 0 V -7.8e-5 h 0.864865 z"
         style="fill:#252525;fill-opacity:1;fill-rule:nonzero;stroke:none"
         id="path26" /></g><g
       id="g28"
       transform="translate(24.648438,12.972168)"><path
         d="m 2.162162,3.76e-4 c -0.573441,0 -1.123395,0.227799 -1.528879,0.633283 C 0.227799,1.039143 0,1.589097 0,2.162538 0,2.73598 0.227799,3.285934 0.633283,3.691418 1.038767,4.096902 1.588721,4.3247 2.162162,4.3247 h 0.00605 C 2.451383,4.325401 2.731877,4.269921 2.993456,4.161474 3.255035,4.053028 3.492502,3.893769 3.692109,3.692917 4.096319,3.286469 4.322818,2.736292 4.321926,2.163068 4.321034,1.589844 4.092824,1.040376 3.687352,0.635186 3.487496,0.434096 3.249866,0.274492 2.98812,0.165549 2.726374,0.056606 2.445675,4.72e-4 2.162162,3.76e-4 Z m 0.00476,3.45946 H 2.162162 C 1.862975,3.459427 1.573182,3.355309 1.342145,3.165215 1.111108,2.975122 0.953119,2.710813 0.895087,2.417307 0.837055,2.123802 0.882571,1.819254 1.023881,1.555541 1.165191,1.291827 1.393554,1.085259 1.670074,0.971022 1.946593,0.856784 2.254165,0.841944 2.540399,0.929028 2.826632,1.016112 3.073822,1.199735 3.239865,1.448618 3.405908,1.697502 3.480535,1.996252 3.45103,2.293982 3.421525,2.591711 3.289714,2.870004 3.078053,3.081457 2.958705,3.201588 2.816739,3.296878 2.660351,3.361823 2.503963,3.426768 2.336257,3.460081 2.16692,3.459836 v 0 z"
         style="fill:#252525;fill-opacity:1;fill-rule:nonzero;stroke:none"
         id="path30" /></g><g
       id="g32"
       transform="rotate(45,-3.9891126,41.1499)"><path
         d="M 1.126054,1.407715 H 0 V 0.54285 h 1.126054 z"
         style="fill:#252525;fill-opacity:1;fill-rule:nonzero;stroke:none"
         id="path34" /></g><g
       id="g36"
       transform="translate(24.214844,5.188965)"><path
         d="M 3.891892,1.32e-4 H 1.297297 c -0.344064,0 -0.674036,0.13668 -0.917327,0.37997 C 0.13668,0.623393 0,0.953365 0,1.297429 V 2.594727 H 0.864865 V 1.297429 c 0,-0.114688 0.045559,-0.224679 0.126656,-0.305776 C 1.072618,0.910556 1.182609,0.864997 1.297297,0.864997 h 2.594595 c 0.114688,0 0.224679,0.045559 0.305776,0.126656 0.081097,0.081097 0.126657,0.191088 0.126657,0.305776 V 2.594727 H 5.189189 V 1.297429 C 5.189189,0.953365 5.052511,0.623393 4.809221,0.380102 4.56593,0.136812 4.235957,1.32e-4 3.891892,1.32e-4 Z"
         style="fill:#252525;fill-opacity:1;fill-rule:nonzero;stroke:none"
         id="path38" /></g><g
       id="g40"
       transform="translate(2.59375,5.188965)"><path
         d="M 3.891892,1.32e-4 H 1.297297 c -0.344064,0 -0.674037,0.13668 -0.917327,0.37997 C 0.136679,0.623393 0,0.953365 0,1.297429 V 2.594727 H 0.864865 V 1.297429 c 0,-0.114688 0.04556,-0.224679 0.126656,-0.305776 C 1.072618,0.910556 1.182609,0.864997 1.297297,0.864997 h 2.594595 c 0.114688,0 0.224679,0.045559 0.305776,0.126656 0.081097,0.081097 0.126657,0.191088 0.126657,0.305776 V 2.594727 H 5.189189 V 1.297429 C 5.189189,0.953365 5.05251,0.623393 4.80922,0.380102 4.565929,0.136812 4.235957,1.32e-4 3.891892,1.32e-4 Z"
         style="fill:#252525;fill-opacity:1;fill-rule:nonzero;stroke:none"
         id="path42" /></g><g
       id="g44"
       transform="rotate(45,-16.593912,17.773054)"><path
         d="M 3.05773,2.773438 H 0 V 1.908573 h 3.05773 z"
         style="fill:#252525;fill-opacity:1;fill-rule:nonzero;stroke:none"
         id="path46" /></g><g
       id="g48"
       transform="rotate(46.761025,-5.3715663,18.071679)"><path
         d="M 9.993514,7.872559 H 0 V 7.007694 h 9.993514 z"
         style="fill:#252525;fill-opacity:1;fill-rule:nonzero;stroke:none"
         id="path50" /></g><g
       id="g52"
       transform="translate(20.324219,13.837891)"><path
         d="M 2.594595,2.12e-4 H 1.297297 c -0.344064,0 -0.674036,0.136679 -0.917327,0.37997 C 0.13668,0.623472 0,0.953444 0,1.297509 V 6.054265 C 0,6.39833 0.13668,6.728302 0.37997,6.971593 0.623261,7.214883 0.953233,7.351562 1.297297,7.351562 H 2.594595 V 6.486698 H 1.297297 c -0.114688,0 -0.224679,-0.04556 -0.305776,-0.126656 C 0.910424,6.278945 0.864865,6.168953 0.864865,6.054265 V 1.297509 c 0,-0.114689 0.045559,-0.22468 0.126656,-0.305776 C 1.072618,0.910635 1.182609,0.865076 1.297297,0.865076 h 1.297298 z"
         style="fill:#252525;fill-opacity:1;fill-rule:nonzero;stroke:none"
         id="path54" /></g></g></svg>
