<?xml version="1.0" encoding="UTF-8" standalone="no"?>
<svg
   xmlns:dc="http://purl.org/dc/elements/1.1/"
   xmlns:cc="http://creativecommons.org/ns#"
   xmlns:rdf="http://www.w3.org/1999/02/22-rdf-syntax-ns#"
   xmlns:svg="http://www.w3.org/2000/svg"
   xmlns="http://www.w3.org/2000/svg"
   version="1.1"
   id="svg2"
   xml:space="preserve"
   width="40"
   height="40"
   viewBox="0 0 40.005207 37.293621"><metadata
     id="metadata8"><rdf:RDF><cc:Work
         rdf:about=""><dc:format>image/svg+xml</dc:format><dc:type
           rdf:resource="http://purl.org/dc/dcmitype/StillImage" /></cc:Work></rdf:RDF></metadata><defs
     id="defs6" /><g
     id="g10"
     transform="matrix(1.3333333,0,0,-1.3333333,0,37.29362)"><g
       id="g12"
       transform="translate(4,4.375)"><path
         d="M 1.353975,0.90342 C 0.777376,1.984841 0.91202,3.381204 1.733157,4.835245 c 0.862,1.526367 2.361999,2.913879 4.223693,3.906798 2.602509,1.388246 5.524201,1.739688 7.443422,0.895386 l 0.40271,0.915283 C 11.580051,11.530801 8.393191,11.174966 5.486238,9.624368 3.458864,8.543072 1.816744,7.016883 0.862398,5.326946 -0.132781,3.564739 -0.271575,1.82664 0.47159,0.432963 Z"
         style="fill:#252525;fill-opacity:1;fill-rule:nonzero;stroke:none"
         id="path14" /></g><g
       id="g16"
       transform="translate(17.003906,16.470215)"><path
         d="M 0.5,0 C 0.776142,0 1,0.223858 1,0.5 1,0.776142 0.776142,1 0.5,1 0.223858,1 0,0.776142 0,0.5 0,0.223858 0.223858,0 0.5,0 Z"
         style="fill:#252525;fill-opacity:1;fill-rule:nonzero;stroke:none"
         id="path18" /></g><g
       id="g20"
       transform="translate(27.003906,24.970215)"><path
         d="M 0.5,0 C 0.776142,0 1,0.223858 1,0.5 1,0.776142 0.776142,1 0.5,1 0.223858,1 0,0.776142 0,0.5 0,0.223858 0.223858,0 0.5,0 Z"
         style="fill:#252525;fill-opacity:1;fill-rule:nonzero;stroke:none"
         id="path22" /></g><g
       id="g24"
       transform="translate(19.003906,15.470215)"><path
         d="M 0.5,0 C 0.776142,0 1,0.223858 1,0.5 1,0.776142 0.776142,1 0.5,1 0.223858,1 0,0.776142 0,0.5 0,0.223858 0.223858,0 0.5,0 Z"
         style="fill:#252525;fill-opacity:1;fill-rule:nonzero;stroke:none"
         id="path26" /></g><g
       id="g28"
       transform="translate(0,-0.121582)"><path
         d="m 27.382284,28.091787 c -0.344374,9.43e-4 -0.685516,-0.06643 -1.003677,-0.198215 -0.318161,-0.131788 -0.607025,-0.325371 -0.849869,-0.569546 l -1.530334,-1.530334 c -0.611975,-0.613421 -1.073552,-1.360253 -1.348542,-2.181944 l -0.241209,-0.723635 c -0.225725,-0.674498 -0.604614,-1.287546 -1.106966,-1.791075 -0.674265,-0.676746 -1.544189,-1.124439 -2.486784,-1.279785 l -1.299659,-0.216598 c -0.571118,0.169252 -1.156329,0.286686 -1.748529,0.350874 C 13.131827,20.245352 10.162466,19.623404 7.405966,18.199392 4.649435,16.775381 2.423696,14.71392 1.138723,12.394767 -0.182597,10.010061 -0.36027,7.632072 0.638387,5.698906 0.887454,5.216974 1.204481,4.773333 1.579748,4.381584 L 2.43517,3.405388 C 3.471917,2.221468 4.783178,1.309851 6.254073,0.750406 7.724968,0.190962 9.310614,7.61e-4 10.87209,0.196465 l 0.900483,0.112548 c 2.030953,0.253861 3.974908,0.977103 5.67791,2.112444 1.703003,1.135342 3.118275,2.6516 4.133734,4.428694 0.753859,1.319004 1.184849,2.797697 1.257738,4.315184 0.07289,1.517484 -0.214395,3.030677 -0.838363,4.415864 v 0.619355 c 7e-6,0.812595 0.243495,1.606548 0.699056,2.279438 0.455561,0.672886 1.102291,1.193836 1.85676,1.495647 l 0.759735,0.303831 c 0.637335,0.254107 1.216055,0.635704 1.700684,1.121399 l 2.216003,2.216004 c 0.366597,0.366602 0.616251,0.833677 0.717394,1.342165 0.101143,0.508487 0.04924,1.035549 -0.149166,1.514534 -0.1984,0.478985 -0.534378,0.888382 -0.96545,1.176422 -0.431072,0.288038 -0.937874,0.441784 -1.456324,0.441793 z M 2.013418,11.910149 c 1.190368,2.148373 3.268463,4.066405 5.851532,5.400817 2.168395,1.120177 4.466216,1.712098 6.592162,1.712098 0.40046,4.42e-4 0.800634,-0.02138 1.19867,-0.06537 2.12065,-0.236727 3.758563,-1.097855 4.680741,-2.444641 0.02184,-0.0318 0.04269,-0.06415 0.06409,-0.09621 0.08199,-0.126451 0.158438,-0.256592 0.227951,-0.391159 0.840271,-1.626527 0.66748,-3.669434 -0.486572,-5.752258 C 18.951651,8.125053 16.873554,6.207024 14.290488,4.872612 11.707512,3.538261 8.940971,2.953236 6.499625,3.225883 4.13314,3.490044 2.367088,4.531303 1.526816,6.15789 0.686574,7.784414 0.859395,9.827263 2.013418,11.910149 Z M 20.715994,7.346245 C 19.777533,5.703968 18.469597,4.302742 16.895769,3.253531 15.32194,2.204319 13.525444,1.535938 11.648549,1.301323 L 10.748067,1.188774 C 8.754607,0.938639 6.73639,1.392727 5.042169,2.472572 5.485123,2.36236 5.934976,2.282005 6.388692,2.232048 6.822268,2.184124 7.258171,2.160324 7.694387,2.160759 c 2.286469,0 4.745574,0.630312 7.055084,1.823425 2.75653,1.424011 4.98227,3.485474 6.267243,5.804625 0.350355,0.62474 0.630184,1.286487 0.834335,1.973053 0.02494,-1.547085 -0.367137,-3.072342 -1.135055,-4.415617 z m 7.812744,16.977781 -2.216003,-2.215999 c -0.388964,-0.389826 -0.85344,-0.696114 -1.36496,-0.900086 L 24.18804,20.904108 c -0.785803,-0.314451 -1.480368,-0.82065 -2.020333,-1.472422 -0.539964,-0.651771 -0.90814,-1.428367 -1.070945,-2.258945 -0.50214,0.694523 -1.146172,1.274376 -1.889405,1.701122 1.061919,0.22065 2.035874,0.747717 2.801423,1.51602 0.611974,0.613421 1.073551,1.360252 1.348541,2.181946 l 0.241211,0.723633 c 0.225723,0.674497 0.604614,1.287546 1.106964,1.791074 l 1.530334,1.530335 c 0.304051,0.304058 0.716435,0.47488 1.146433,0.474886 0.429999,6e-6 0.842386,-0.170805 1.146445,-0.474856 0.304058,-0.30405 0.47488,-0.716434 0.474885,-1.146431 6e-6,-0.429998 -0.170805,-0.842388 -0.474855,-1.146446 z"
         style="fill:#252525;fill-opacity:1;fill-rule:nonzero;stroke:none"
         id="path30" /></g></g></svg>
