<?xml version="1.0" encoding="UTF-8" standalone="no"?>
<svg
   xmlns:dc="http://purl.org/dc/elements/1.1/"
   xmlns:cc="http://creativecommons.org/ns#"
   xmlns:rdf="http://www.w3.org/1999/02/22-rdf-syntax-ns#"
   xmlns:svg="http://www.w3.org/2000/svg"
   xmlns="http://www.w3.org/2000/svg"
   version="1.1"
   id="svg2"
   xml:space="preserve"
   width="40"
   height="40"
   viewBox="0 0 42.666668 42.666668"><metadata
     id="metadata8"><rdf:RDF><cc:Work
         rdf:about=""><dc:format>image/svg+xml</dc:format><dc:type
           rdf:resource="http://purl.org/dc/dcmitype/StillImage" /></cc:Work></rdf:RDF></metadata><defs
     id="defs6" /><g
     id="g10"
     transform="matrix(1.3333333,0,0,-1.3333333,0,42.666667)"><g
       id="g12"
       transform="translate(17.347656,19.870117)"><path
         d="M 1.099744,2.292151 C 0.99512,2.396713 0.937557,2.535775 0.937557,2.683712 c 0,0.147937 0.057563,0.286999 0.162187,0.391561 0.183062,0.183062 0.183062,0.479873 0,0.662934 C 0.91662,3.921269 0.619871,3.921207 0.43681,3.73827 0.155123,3.456584 0,3.082085 0,2.683712 0,2.285338 0.155123,1.91084 0.436747,1.629216 0.652683,1.41328 0.652684,1.061905 0.43681,0.845969 c -0.183,-0.183 -0.182999,-0.47981 6.3e-5,-0.662872 0.091499,-0.091499 0.211499,-0.137312 0.331436,-0.137312 0.119937,0 0.239936,0.04575 0.331435,0.137312 0.581498,0.581435 0.581498,1.527556 0,2.109054 z"
         style="fill:#252525;fill-opacity:1;fill-rule:nonzero;stroke:none"
         id="path14" /></g><g
       id="g16"
       transform="translate(21.964844,19.870605)"><path
         d="M 1.09895,2.292011 C 0.994388,2.396635 0.936763,2.535697 0.936763,2.683634 c 0,0.147937 0.057625,0.286999 0.162187,0.391623 0.183062,0.183062 0.183062,0.479873 0,0.662935 -0.183062,0.183062 -0.479874,0.183062 -0.662874,0 -0.581435,-0.581435 -0.581435,-1.527556 0,-2.108991 0.104563,-0.104687 0.162187,-0.243749 0.162187,-0.391686 0,-0.147937 -0.057625,-0.286999 -0.16225,-0.391561 -0.183061,-0.183062 -0.183061,-0.479873 0,-0.662935 0.091563,-0.0915 0.211501,-0.137312 0.3315,-0.137312 0.119937,0 0.239937,0.04575 0.331437,0.13725 0.281686,0.281686 0.43681,0.656184 0.43681,1.054495 0,0.398311 -0.155186,0.772872 -0.43681,1.054559 z"
         style="fill:#252525;fill-opacity:1;fill-rule:nonzero;stroke:none"
         id="path18" /></g><g
       id="g20"
       transform="translate(5.226562)"><path
         d="m 20.523483,17.029621 h -0.612434 c 0.0038,0.03631 0.0059,0.07312 0.0059,0.110438 v 0.862245 c 0,0.577812 -0.470122,1.047934 -1.047932,1.047934 h -0.71406 c -0.258873,0 -0.468748,-0.209875 -0.468748,-0.468748 0,-0.258873 0.209875,-0.468749 0.468748,-0.468749 h 0.71406 c 0.06087,0 0.110433,-0.0495 0.110433,-0.110437 v -0.862245 c 0,-0.06087 -0.04956,-0.110438 -0.110433,-0.110438 H 10.08755 c -0.06087,0 -0.110438,0.0495 -0.110438,0.110438 v 0.862245 c 0,0.06088 0.049501,0.110437 0.110438,0.110437 h 5.855289 c 0.258875,0 0.468748,0.209876 0.468748,0.468749 0,0.258873 -0.209873,0.468748 -0.468748,0.468748 H 10.08755 c -0.57781,0 -1.047934,-0.470061 -1.047934,-1.047934 v -0.862245 c 0,-0.03731 0.00213,-0.07413 0.00594,-0.110438 H 4.992573 c -0.029188,0.094 -0.067125,0.184124 -0.112437,0.269812 l 10.982457,10.982456 c 0.398873,0.398874 0.398873,1.04781 0,1.446682 l -0.503811,0.503811 C 14.219007,31.372253 12.70345,32 11.091394,32 9.479338,32 7.963782,31.372252 6.823911,30.232319 L 6.230351,29.63876 5.883227,29.985882 c -0.434373,0.434374 -1.113371,0.462187 -1.513744,0.06188 L 2.436241,28.114515 C 2.03593,27.714205 2.063679,27.035145 2.498115,26.600771 L 2.845239,26.253647 2.251616,25.660025 c -2.294116,-2.294178 -2.35049,-5.99029 -0.171311,-8.354716 -0.11875,-0.222126 -0.18625,-0.475498 -0.18625,-0.744434 0,-0.712687 0.472999,-1.316872 1.121496,-1.515495 0.00331,-0.08137 0.00806,-0.162438 0.014625,-0.242937 H 1.311057 C 0.588185,14.802443 0,14.214319 0,13.491385 0,12.768513 0.588123,12.180391 1.311057,12.180391 H 3.877173 C 4.657982,10.889334 5.908602,9.912775 7.390471,9.489714 L 5.957914,3.942986 C 5.893165,3.692299 6.043914,3.436613 6.294538,3.371925 6.33385,3.361738 6.373288,3.356926 6.4121,3.356926 c 0.208561,0 0.398937,0.14031 0.453499,0.351622 L 8.310656,9.303839 C 8.551467,9.274464 8.796529,9.25909 9.045153,9.25909 h 0.30606 L 7.300722,1.319807 C 7.242597,1.094746 7.040098,0.937622 6.808224,0.937622 c -0.042812,0 -0.085875,0.005501 -0.128,0.016438 C 6.548537,0.98806 6.437913,1.071373 6.368851,1.18856 6.299788,1.305746 6.280413,1.442808 6.314476,1.574558 L 6.4986,2.287491 C 6.563349,2.538177 6.4126,2.793863 6.161976,2.858551 5.911102,2.923302 5.655603,2.772615 5.590916,2.521929 L 5.406792,1.808992 C 5.310167,1.434807 5.364979,1.045372 5.561291,0.712437 5.75754,0.379499 6.071664,0.142939 6.445725,0.046314 6.56435,0.015627 6.686349,6.5e-5 6.808286,6.5e-5 c 0.659373,0 1.235183,0.44631 1.400245,1.085245 l 0.691747,2.678364 h 6.762223 l 0.20925,-0.807621 C 15.721438,2.674366 15.635877,2.353054 15.635877,2.012056 15.635877,0.902622 16.538498,0 17.64793,0 c 1.109495,0 2.012119,0.902622 2.012119,2.012056 0,0.742936 -0.405061,1.392681 -1.005622,1.741179 L 17.168245,9.49015 c 1.558369,0.4455 2.860741,1.503308 3.629675,2.895239 0.01781,0.02613 0.03294,0.05413 0.04525,0.08362 0.448685,0.843373 0.703434,1.804932 0.703434,2.825052 v 0.712498 c -1.24e-4,0.564184 -0.459061,1.023058 -1.023121,1.023058 z m -17.42437,10.422022 1.93318,1.93318 c 0.019375,0.01925 0.110312,0.01587 0.187999,-0.06181 L 5.567416,28.975887 3.508112,26.916582 3.160988,27.263706 c -0.05925,0.05925 -0.069437,0.118187 -0.071125,0.140749 -0.00156,0.0215 0.00206,0.04 0.00925,0.04719 z m -0.184624,-2.454491 4.572295,4.572295 c 0.962871,0.962808 2.24299,1.493057 3.60461,1.493057 1.36162,0 2.64174,-0.530249 3.604549,-1.493057 l 0.503811,-0.503811 c 0.03331,-0.03331 0.03331,-0.08756 0,-0.120875 L 4.217297,17.962305 c -0.220687,0.116812 -0.471999,0.183249 -0.73856,0.183249 -0.264312,0 -0.513436,-0.06537 -0.732747,-0.180249 -1.816993,1.998118 -1.761056,5.102291 0.168499,7.031847 z M 1.310995,13.117887 c -0.205937,0 -0.373561,0.167561 -0.373561,0.373498 0,0.205936 0.167562,0.373561 0.373561,0.373561 h 1.87043 C 3.2438,13.609198 3.322299,13.359762 3.416174,13.117887 Z m 2.167742,2.795802 c -0.356874,0 -0.647185,0.290374 -0.647185,0.647186 0,0.356872 0.290374,0.647182 0.647185,0.647182 0.356873,0 0.647184,-0.290372 0.647184,-0.647182 C 4.125984,16.204 3.83561,15.913689 3.478737,15.913689 Z M 9.14234,4.701294 9.405464,5.719978 h 5.750226 l 0.263875,-1.018684 z m 0.505248,1.956181 0.671935,2.601615 h 3.91936 L 14.91288,6.657475 Z m 9.0749,-4.645295 c 0,-0.592498 -0.482059,-1.074558 -1.074619,-1.074558 -0.592497,0 -1.074558,0.48206 -1.074558,1.074558 0,0.59256 0.482061,1.074622 1.074558,1.074622 0.59256,0 1.074619,-0.482062 1.074619,-1.074622 z m -1.10662,2.011305 C 17.258556,4.01786 16.923683,3.918798 16.63456,3.749424 l -1.427307,5.509603 h 0.304061 c 0.249312,0 0.495125,0.0155 0.736624,0.045001 z m -2.104554,6.173102 H 9.045153 c -1.638931,0 -3.098739,0.778308 -4.03186,1.983804 h 14.529943 c -0.933184,-1.205496 -2.392927,-1.983804 -4.031922,-1.983804 z m 4.608607,2.9213 H 4.436545 c -0.280061,0.590685 -0.450123,1.243119 -0.482873,1.931117 0.494561,0.155687 0.885247,0.547748 1.038934,1.043184 h 15.530877 c 0.04713,0 0.08544,-0.03831 0.08544,-0.08544 v -0.712561 h 6.1e-5 c 0,-0.778183 -0.175938,-1.515867 -0.489061,-2.176302 z"
         style="fill:#252525;fill-opacity:1;fill-rule:nonzero;stroke:none"
         id="path22" /></g><g
       id="g24"
       transform="translate(19.65625,19.870117)"><path
         d="M 1.098948,2.29201 C 0.994386,2.396634 0.936761,2.535697 0.936761,2.683633 c 0,0.147937 0.057625,0.287 0.162187,0.391624 0.183062,0.183062 0.183062,0.479873 0,0.662935 -0.183062,0.183062 -0.479872,0.183062 -0.662872,0 -0.581435,-0.581435 -0.581435,-1.527557 0,-2.108992 0.104625,-0.104625 0.16225,-0.243686 0.16225,-0.391623 0,-0.147937 -0.057625,-0.286999 -0.16225,-0.391561 -0.183061,-0.183124 -0.183062,-0.479873 -6.3e-5,-0.662997 0.091563,-0.0915 0.211501,-0.137313 0.3315,-0.137313 0.119937,0 0.239935,0.04575 0.331435,0.13725 0.281686,0.281686 0.436812,0.656185 0.436812,1.054496 0,0.398311 -0.155126,0.772871 -0.436812,1.054558 z"
         style="fill:#252525;fill-opacity:1;fill-rule:nonzero;stroke:none"
         id="path26" /></g></g></svg>
