<?xml version="1.0" encoding="UTF-8" standalone="no"?>
<svg
   xmlns:dc="http://purl.org/dc/elements/1.1/"
   xmlns:cc="http://creativecommons.org/ns#"
   xmlns:rdf="http://www.w3.org/1999/02/22-rdf-syntax-ns#"
   xmlns:svg="http://www.w3.org/2000/svg"
   xmlns="http://www.w3.org/2000/svg"
   version="1.1"
   id="svg2"
   xml:space="preserve"
   width="41.166668"
   height="27.057293"
   viewBox="0 0 41.166668 27.057293"><metadata
     id="metadata8"><rdf:RDF><cc:Work
         rdf:about=""><dc:format>image/svg+xml</dc:format><dc:type
           rdf:resource="http://purl.org/dc/dcmitype/StillImage" /></cc:Work></rdf:RDF></metadata><defs
     id="defs6" /><g
     id="g10"
     transform="matrix(1.3333333,0,0,-1.3333333,0,27.057292)"><g
       id="g12"><path
         d="m 21.982269,16.828594 c 0,-0.241625 -0.195875,-0.4375 -0.4375,-0.4375 H 9.329583 c -0.241625,0 -0.4375,0.195875 -0.4375,0.4375 0,0.241625 0.195875,0.4375 0.4375,0.4375 h 12.215125 c 0.241688,0 0.437561,-0.195875 0.437561,-0.4375 z M 30.618208,8.818718 C 30.528334,7.598093 29.594458,6.67753 28.446083,6.67753 H 2.428208 c -1.148438,0 -2.08225,0.920563 -2.17225,2.141251 -0.34275,4.639 -0.341312,7.923876 0.004563,10.042436 0.139687,0.856377 0.741062,1.431752 1.4965,1.431752 h 27.360125 c 0.755312,0 1.35675,-0.575375 1.4965,-1.431752 0.345937,-2.11856 0.347436,-5.403436 0.0046,-10.042499 z M 26.67152,10.02128 c 0,0.301563 -0.245312,0.546875 -0.546875,0.546875 H 4.749646 c -0.301563,0 -0.546875,-0.245312 -0.546875,-0.546875 V 7.55253 H 26.67152 Z m 3.078688,8.698939 c -0.05256,0.321874 -0.249874,0.69775 -0.633,0.69775 H 1.757083 c -0.383187,0 -0.580437,-0.375876 -0.633,-0.697687 C 0.789458,16.670469 0.790958,13.452781 1.128646,8.883156 1.185395,8.112093 1.731958,7.55253 2.428208,7.55253 H 3.32777 v 2.46875 c 0,0.784001 0.637876,1.421875 1.421876,1.421875 h 21.374999 c 0.784001,0 1.421875,-0.637874 1.421875,-1.421875 V 7.55253 h 0.899626 c 0.696188,0 1.24275,0.559563 1.2995,1.330563 0.337686,4.569625 0.339187,7.787376 0.0046,9.837126 v 0 z M 15.437145,4.67753 c -0.241625,0 -0.4375,-0.195875 -0.4375,-0.4375 V 0.437717 c 0,-0.241624 0.195875,-0.4375 0.4375,-0.4375 0.241625,0 0.4375,0.195876 0.4375,0.4375 V 4.24003 c 0,0.241625 -0.195875,0.4375 -0.4375,0.4375 z M 11.67927,4.677156 C 11.437895,4.667281 11.250208,4.463469 11.260083,4.222094 11.314396,2.897844 10.938083,1.616655 10.22752,0.707031 10.07877,0.516657 10.112583,0.241718 10.30302,0.092968 10.382958,0.030531 10.477833,2.8e-4 10.572021,2.8e-4 c 0.130062,0 0.258811,0.057751 0.345062,0.168188 0.836312,1.070626 1.279938,2.561186 1.21725,4.089562 -0.0099,0.241375 -0.214063,0.428689 -0.455063,0.419126 z M 7.763458,4.676905 C 7.52252,4.69003 7.316333,4.504031 7.303833,4.262781 7.23477,2.937281 6.739021,1.682093 5.943771,0.818968 5.780021,0.641281 5.791333,0.364531 5.969021,0.200781 6.053146,0.123281 6.159396,0.084969 6.265333,0.084969 c 0.118,0 0.235625,0.047437 0.321813,0.141061 C 7.518333,1.236593 8.098083,2.69128 8.17752,4.217155 8.190145,4.45853 8.004707,4.664342 7.763458,4.676905 Z M 19.614271,4.222094 c 0.0099,0.241375 -0.177812,0.445187 -0.419187,0.455062 -0.242001,0.00963 -0.445189,-0.177812 -0.455063,-0.419187 -0.06275,-1.52825 0.380998,-3.018875 1.217312,-4.089563 0.08631,-0.110501 0.215,-0.168189 0.345062,-0.168189 0.09419,0 0.189001,0.030251 0.269001,0.092688 0.190437,0.14875 0.224249,0.423689 0.0755,0.614063 -0.710624,0.90975 -1.086935,2.190937 -1.032623,3.515126 v 0 z m 3.956312,0.040687 C 23.558022,4.504093 23.35202,4.689967 23.110958,4.676905 22.869646,4.664342 22.684271,4.458531 22.696833,4.217281 c 0.0795,-1.525875 0.65925,-2.980562 1.590376,-3.991125 0.08625,-0.093624 0.203874,-0.141063 0.321811,-0.141063 0.105938,0 0.21225,0.03825 0.296313,0.115812 0.177686,0.163687 0.188999,0.440502 0.02525,0.618189 -0.795126,0.862938 -1.290874,2.118187 -1.359999,3.443687 v 0 z m 2.474186,13.159624 c -0.326999,0 -0.59375,-0.26675 -0.59375,-0.59375 0,-0.327062 0.266751,-0.59375 0.59375,-0.59375 0.327063,0 0.59375,0.266751 0.59375,0.59375 0,0.327 -0.266687,0.59375 -0.59375,0.59375 z"
         style="fill:#252525;fill-opacity:1;fill-rule:evenodd;stroke:none"
         id="path14" /></g></g></svg>
