<?xml version="1.0" encoding="UTF-8" standalone="no"?>
<svg
   xmlns:dc="http://purl.org/dc/elements/1.1/"
   xmlns:cc="http://creativecommons.org/ns#"
   xmlns:rdf="http://www.w3.org/1999/02/22-rdf-syntax-ns#"
   xmlns:svg="http://www.w3.org/2000/svg"
   xmlns="http://www.w3.org/2000/svg"
   version="1.1"
   id="svg2"
   xml:space="preserve"
   width="15"
   height="15"
   viewBox="0 0 38.601562 38.666668"><metadata
     id="metadata8"><rdf:RDF><cc:Work
         rdf:about=""><dc:format>image/svg+xml</dc:format><dc:type
           rdf:resource="http://purl.org/dc/dcmitype/StillImage" /></cc:Work></rdf:RDF></metadata><defs
     id="defs6" /><g
     id="g10"
     transform="matrix(1.3333333,0,0,-1.3333333,0,38.666667)"><g
       id="g12"
       transform="translate(0,-0.009766)"><path
         d="m 27.476034,3.939766 v 18.07 c 0,0.132608 -0.05268,0.259784 -0.146446,0.353553 -0.09377,0.09377 -0.220945,0.146447 -0.353554,0.146447 -0.132608,0 -0.259785,-0.05268 -0.353554,-0.146447 -0.09377,-0.09377 -0.146446,-0.220945 -0.146446,-0.353553 v -18 h -3.5 v 10.5 c 0,2.254341 -0.895532,4.416347 -2.489591,6.010406 -1.594059,1.594059 -3.75607,2.489594 -6.010409,2.489594 -2.25434,0 -4.416348,-0.895535 -6.010407,-2.489594 C 6.871568,18.926113 5.976034,16.764107 5.976034,14.509766 v -0.5 c 0,-0.132609 0.052678,-0.259786 0.146446,-0.353554 0.093769,-0.09377 0.220945,-0.146446 0.353554,-0.146446 0.132608,0 0.259785,0.05268 0.353553,0.146446 0.093769,0.09377 0.146447,0.220945 0.146447,0.353554 v 0.5 c 0,1.989124 0.790177,3.896778 2.196699,5.3033 1.406523,1.406523 3.314178,2.1967 5.303301,2.1967 1.989124,0 3.896778,-0.790177 5.303301,-2.1967 1.406523,-1.406522 2.196699,-3.314176 2.196699,-5.3033 v -10.5 h -4.370001 c 0.293007,0.38433 0.550721,0.794328 0.770001,1.225 0.815,1.629999 0.69,3.054998 -0.365,4.109999 -2,2 -2.035,6.125001 -2.035,6.165001 0,0.09286 -0.02586,0.183878 -0.07467,0.262866 -0.04882,0.07899 -0.118667,0.14282 -0.20172,0.184347 -0.08305,0.04153 -0.176028,0.05911 -0.268509,0.05077 -0.09248,-0.0083 -0.180812,-0.04227 -0.255096,-0.09798 -3.2,-2.399999 -4.925,-4.964998 -5.110001,-7.594999 -0.099368,-1.52516 0.312316,-3.039946 1.17,-4.305 h -4.26 v 8 c 0,0.132608 -0.052678,0.259784 -0.146447,0.353553 -0.093768,0.09377 -0.220945,0.146447 -0.353553,0.146447 -0.132609,0 -0.259785,-0.05268 -0.353554,-0.146447 -0.093772,-0.09377 -0.14645,-0.220949 -0.14645,-0.353557 v -8 h -3.5 v 21 h 24 v -1 c 0,-0.132609 0.05268,-0.259785 0.146446,-0.353554 0.09377,-0.09377 0.220946,-0.146446 0.353554,-0.146446 0.132609,0 0.259785,0.05268 0.353554,0.146446 0.09377,0.09377 0.146446,0.220945 0.146446,0.353554 v 1.069999 c 0.465733,0.126433 0.870045,0.416998 1.138373,0.818112 0.268327,0.401113 0.382572,0.885721 0.321664,1.36445 -0.06091,0.478729 -0.292858,0.919293 -0.653076,1.240439 -0.360218,0.321146 -0.824407,0.501217 -1.306961,0.507 h -25 C 1.49348,29.003983 1.029291,28.823912 0.669073,28.502766 0.308855,28.18162 0.076904,27.741056 0.015997,27.262327 -0.04491,26.783598 0.069335,26.29899 0.337662,25.897877 0.605989,25.496763 1.010301,25.206198 1.476034,25.079765 V 3.939766 C 1.010301,3.813335 0.605989,3.522768 0.337662,3.121655 0.069335,2.720541 -0.04491,2.235933 0.015997,1.757204 0.076904,1.278475 0.308855,0.837912 0.669073,0.516766 1.029291,0.19562 1.49348,0.015549 1.976034,0.009766 h 3.5 c 0.132608,0 0.259785,0.052677 0.353553,0.146446 0.093768,0.093769 0.146447,0.220945 0.146447,0.353554 0,0.132608 -0.052679,0.259784 -0.146447,0.353553 C 5.735819,0.957088 5.608642,1.009766 5.476034,1.009766 h -3.5 c -0.265217,0 -0.519571,0.105356 -0.707107,0.292892 -0.187536,0.187536 -0.292893,0.441891 -0.292893,0.707108 0,0.265216 0.105357,0.519571 0.292893,0.707107 0.187536,0.187536 0.44189,0.292893 0.707107,0.292893 h 25 c 0.265217,0 0.519571,-0.105357 0.707108,-0.292893 0.187536,-0.187536 0.292892,-0.441891 0.292892,-0.707107 0,-0.265217 -0.105356,-0.519572 -0.292892,-0.707108 C 27.495605,1.115122 27.241251,1.009766 26.976034,1.009766 h -18.5 C 8.343426,1.009766 8.216249,0.957088 8.12248,0.863319 8.028712,0.76955 7.976034,0.642374 7.976034,0.509766 7.976034,0.377157 8.028712,0.249981 8.12248,0.156212 8.216249,0.062443 8.343426,0.009766 8.476034,0.009766 h 18.5 c 0.482554,0.005783 0.946743,0.185854 1.306961,0.507 0.360218,0.321146 0.592169,0.761709 0.653076,1.240438 0.06091,0.478729 -0.05334,0.963337 -0.321664,1.364451 -0.268328,0.401113 -0.67264,0.69168 -1.138373,0.818111 z m -26.5,23.07 c 0,0.265216 0.105357,0.519571 0.292893,0.707107 0.187536,0.187536 0.44189,0.292893 0.707107,0.292893 h 25 c 0.265217,0 0.519571,-0.105357 0.707108,-0.292893 0.187536,-0.187536 0.292892,-0.441891 0.292892,-0.707107 0,-0.265217 -0.105356,-0.51957 -0.292892,-0.707108 -0.187537,-0.187536 -0.441891,-0.292892 -0.707108,-0.292892 h -25 c -0.265217,0 -0.519571,0.105356 -0.707107,0.292892 -0.187536,0.187538 -0.292893,0.441891 -0.292893,0.707108 z m 12.63,-23 c -0.39295,0.512867 -0.588182,1.150032 -0.55,1.795 0.065,0.864999 0.57,1.729999 1.5,2.584999 0.107146,-0.949049 0.499383,-1.84335 1.125,-2.564999 0.56,-0.555 -0.104999,-1.460001 -0.4,-1.815 z m -2.54,4.229999 c 0.15,2.130001 1.5,4.240002 3.975001,6.280001 0.135,-1.47 0.604999,-4.23 2.264999,-5.885 1.280001,-1.280001 0.195002,-3.119999 -0.539999,-4.084999 0.139797,0.326898 0.178787,0.688095 0.111977,1.037296 -0.06681,0.349201 -0.236382,0.670498 -0.486977,0.922703 -0.915,0.924999 -0.915001,2.844999 -0.915001,2.864999 0,0.092856 -0.02586,0.183878 -0.07467,0.262865 -0.04882,0.078988 -0.118667,0.142823 -0.20172,0.18435 -0.08305,0.041526 -0.176028,0.059104 -0.268509,0.050766 -0.09248,-0.00834 -0.180812,-0.042267 -0.255096,-0.097981 -1.635,-1.23 -2.500001,-2.544998 -2.615001,-3.914999 -0.04051,-0.587421 0.06783,-1.175571 0.315,-1.710001 -0.930691,1.152912 -1.3994,2.61072 -1.315,4.09 h 0.005 z m -3.59,-7.729999 C 7.476034,0.410875 7.44671,0.314205 7.391769,0.231981 7.336828,0.149757 7.258738,0.08567 7.167375,0.047827 7.076012,0.009983 6.975479,8e-5 6.878488,0.019373 6.781497,0.038666 6.692406,0.086287 6.62248,0.156212 6.552554,0.226137 6.504934,0.315229 6.485641,0.41222 6.466348,0.509211 6.47625,0.609743 6.514094,0.701107 c 0.037844,0.091364 0.10193,0.169453 0.184154,0.224394 0.082225,0.054941 0.178895,0.084265 0.277786,0.084265 0.132608,0 0.259785,-0.052678 0.353553,-0.146447 C 7.423356,0.76955 7.476034,0.642374 7.476034,0.509766 Z"
         style="fill:#252525;fill-opacity:1;fill-rule:nonzero;stroke:none"
         id="path14" /></g></g></svg>
