<?xml version="1.0" encoding="UTF-8" standalone="no"?>
<svg
   xmlns:dc="http://purl.org/dc/elements/1.1/"
   xmlns:cc="http://creativecommons.org/ns#"
   xmlns:rdf="http://www.w3.org/1999/02/22-rdf-syntax-ns#"
   xmlns:svg="http://www.w3.org/2000/svg"
   xmlns="http://www.w3.org/2000/svg"
   version="1.1"
   id="svg2"
   xml:space="preserve"
   width="42.583332"
   height="42.666668"
   viewBox="0 0 42.583332 42.666668"><metadata
     id="metadata8"><rdf:RDF><cc:Work
         rdf:about=""><dc:format>image/svg+xml</dc:format><dc:type
           rdf:resource="http://purl.org/dc/dcmitype/StillImage" /></cc:Work></rdf:RDF></metadata><defs
     id="defs6" /><g
     id="g10"
     transform="matrix(1.3333333,0,0,-1.3333333,0,42.666667)"><g
       id="g12"
       transform="translate(14.925781)"><path
         d="M 10.82821,13.73877 V 28.12793 C 10.82821,30.262939 9.091149,32 6.95614,32 4.820886,32 3.083825,30.262939 3.083825,28.12793 V 13.73877 C 1.702965,12.891602 0.630456,11.611572 0.042809,10.098877 -0.082191,9.7771 0.077233,9.414795 0.399011,9.289795 0.720544,9.165039 1.082848,9.324463 1.207848,9.64624 c 0.526612,1.354981 1.520997,2.48584 2.800294,3.183838 0.200927,0.109375 0.325683,0.319824 0.325683,0.548584 V 28.12793 c 0,1.4458 1.17627,2.62207 2.622315,2.62207 1.4458,0 2.62207,-1.17627 2.62207,-2.62207 V 13.378662 c 0,-0.22876 0.125,-0.439209 0.325683,-0.548584 C 11.888024,11.747559 13.12069,9.672363 13.12069,7.414551 13.12069,4.015381 10.355065,1.25 6.955895,1.25 4.392419,1.25 2.136071,2.793701 1.207848,5.183105 1.082848,5.504883 0.720788,5.664307 0.399011,5.539307 0.077233,5.414307 -0.082435,5.052246 0.042565,4.730469 0.586266,3.331299 1.528405,2.143555 2.767419,1.295898 4.006433,0.448242 5.454919,0 6.95614,0 c 4.088378,0 7.41455,3.326172 7.41455,7.414551 0,2.589599 -1.348144,4.979492 -3.54248,6.324219 z"
         style="fill:#252525;fill-opacity:1;fill-rule:evenodd;stroke:none"
         id="path14" /></g><g
       id="g16"
       transform="translate(17.566406,3.099609)"><path
         d="m 4.314941,23.439453 c -0.345214,0 -0.625,-0.279785 -0.625,-0.625 V 8.584473 C 1.605713,8.280518 0,6.482178 0,4.315186 0,1.936035 1.935547,2.44e-4 4.314941,2.44e-4 c 2.379151,0 4.314942,1.935791 4.314942,4.314942 0,2.166992 -1.605957,3.965332 -3.689942,4.269287 v 14.22998 c 0,0.345215 -0.279785,0.625 -0.625,0.625 z M 7.379883,4.315186 c 0,-1.689942 -1.375,-3.064942 -3.064942,-3.064942 -1.690185,0 -3.064941,1.375 -3.064941,3.064942 0,1.690185 1.374756,3.065185 3.064941,3.065185 1.689942,0 3.064942,-1.375 3.064942,-3.065185 z"
         style="fill:#252525;fill-opacity:1;fill-rule:evenodd;stroke:none"
         id="path18" /></g><g
       id="g20"
       transform="translate(27.488281,24.813477)"><path
         d="m 0.625,0 h 3.24707 c 0.345215,0 0.625,0.279785 0.625,0.625 0,0.345215 -0.279785,0.625 -0.625,0.625 H 0.625 C 0.279785,1.25 0,0.970215 0,0.625 0,0.279785 0.279785,0 0.625,0 Z"
         style="fill:#252525;fill-opacity:1;fill-rule:evenodd;stroke:none"
         id="path22" /></g><g
       id="g24"
       transform="translate(27.488281,21.926758)"><path
         d="M 3.87207,1.25 H 0.625 C 0.279785,1.25 0,0.970215 0,0.625 0,0.280029 0.279785,0 0.625,0 h 3.24707 c 0.345215,0 0.625,0.280029 0.625,0.625 0,0.345215 -0.279785,0.625 -0.625,0.625 z"
         style="fill:#252525;fill-opacity:1;fill-rule:evenodd;stroke:none"
         id="path26" /></g><g
       id="g28"
       transform="translate(27.488281,19.040039)"><path
         d="M 3.87207,1.25 H 0.625 C 0.279785,1.25 0,0.970215 0,0.625 0,0.279785 0.279785,0 0.625,0 h 3.24707 c 0.345215,0 0.625,0.279785 0.625,0.625 0,0.345215 -0.279785,0.625 -0.625,0.625 z"
         style="fill:#252525;fill-opacity:1;fill-rule:evenodd;stroke:none"
         id="path30" /></g><g
       id="g32"
       transform="translate(27.488281,16.15332)"><path
         d="M 3.87207,1.25 H 0.625 C 0.279785,1.25 0,0.969971 0,0.625 0,0.279785 0.279785,0 0.625,0 h 3.24707 c 0.345215,0 0.625,0.279785 0.625,0.625 0,0.345215 -0.279785,0.625 -0.625,0.625 z"
         style="fill:#252525;fill-opacity:1;fill-rule:evenodd;stroke:none"
         id="path34" /></g><g
       id="g36"
       transform="translate(4.574219,16.413574)"><path
         d="M 3.927069,9.390137 C 2.423407,9.390137 0.999579,8.661133 0.118231,7.44043 -0.083673,7.160645 -0.020685,6.77002 0.2591,6.567871 0.53913,6.365967 0.929755,6.428955 1.131659,6.70874 c 0.647217,0.89624 1.692139,1.431397 2.79541,1.431397 1.899414,0 3.444824,-1.54541 3.444824,-3.445069 C 7.371893,2.79541 5.826483,1.25 3.927069,1.25 2.823554,1.25 1.778632,1.785156 1.131659,2.681396 0.929755,2.961182 0.53913,3.02417 0.2591,2.822266 -0.020685,2.620117 -0.083673,2.229492 0.118231,1.949707 0.999579,0.72876 2.423407,0 3.927069,0 c 2.588623,0 4.694824,2.106201 4.694824,4.695068 0,2.588868 -2.105957,4.695069 -4.694824,4.695069 z"
         style="fill:#252525;fill-opacity:1;fill-rule:evenodd;stroke:none"
         id="path38" /></g><g
       id="g40"
       transform="translate(7.875,26.879883)"><path
         d="m 0.625,2.44e-4 c 0.345215,0 0.625,0.279785 0.625,0.625 v 1.479248 c 0,0.344971 -0.279785,0.625 -0.625,0.625 C 0.279785,2.729492 0,2.449463 0,2.104492 V 0.625244 c 0,-0.345215 0.279785,-0.625 0.625,-0.625 z"
         style="fill:#252525;fill-opacity:1;fill-rule:evenodd;stroke:none"
         id="path42" /></g><g
       id="g44"
       transform="translate(2.308594,24.945801)"><path
         d="M 1.229004,0.244141 C 1.351074,0.12207 1.510986,0.061035 1.670898,0.061035 c 0.159913,0 0.319825,0.061035 0.441895,0.183106 0.244141,0.243896 0.244141,0.639648 0,0.883789 L 1.066895,2.173828 c -0.244141,0.244141 -0.639893,0.244141 -0.88379,0 -0.24414,-0.243896 -0.24414,-0.639648 0,-0.883789 z"
         style="fill:#252525;fill-opacity:1;fill-rule:evenodd;stroke:none"
         id="path46" /></g><g
       id="g48"
       transform="translate(14.273438,20.483398)"><path
         d="M 0,0.625 C 0,0.279785 0.279785,0 0.625,0 h 1.479248 c 0.345215,0 0.625,0.279785 0.625,0.625 0,0.345215 -0.279785,0.625 -0.625,0.625 H 0.625 C 0.279785,1.25 0,0.970215 0,0.625 Z"
         style="fill:#252525;fill-opacity:1;fill-rule:evenodd;stroke:none"
         id="path50" /></g><g
       id="g52"
       transform="translate(12.398438,24.945801)"><path
         d="m 0.625,0.061035 c 0.159912,0 0.319824,0.061035 0.441895,0.182861 l 1.045898,1.046143 c 0.244141,0.243897 0.244141,0.639649 0,0.883789 -0.243897,0.244141 -0.639648,0.244141 -0.883789,0 L 0.183105,1.12793 c -0.24414,-0.244141 -0.24414,-0.639893 0,-0.884034 C 0.304932,0.12207 0.465088,0.061035 0.625,0.061035 Z"
         style="fill:#252525;fill-opacity:1;fill-rule:evenodd;stroke:none"
         id="path54" /></g><g
       id="g56"
       transform="translate(0,20.483398)"><path
         d="m 2.729248,0.625 c 0,0.345215 -0.279785,0.625 -0.625,0.625 H 0.625 C 0.279785,1.25 0,0.970215 0,0.625 0,0.279785 0.279785,0 0.625,0 h 1.479248 c 0.345215,0 0.625,0.279785 0.625,0.625 z"
         style="fill:#252525;fill-opacity:1;fill-rule:evenodd;stroke:none"
         id="path58" /></g><g
       id="g60"
       transform="translate(7.875,12.607422)"><path
         d="M 0.625,2.729492 C 0.279785,2.729492 0,2.449707 0,2.104492 V 0.625244 c 0,-0.345215 0.279785,-0.625 0.625,-0.625 0.345215,0 0.625,0.279785 0.625,0.625 v 1.479248 c 0,0.345215 -0.279785,0.625 -0.625,0.625 z"
         style="fill:#252525;fill-opacity:1;fill-rule:evenodd;stroke:none"
         id="path62" /></g><g
       id="g64"
       transform="translate(12.398438,14.853027)"><path
         d="M 2.112793,1.12793 1.066895,2.173828 c -0.244141,0.244141 -0.639893,0.244141 -0.88379,0 -0.24414,-0.24414 -0.24414,-0.639892 0,-0.884033 L 1.229004,0.243896 C 1.351074,0.12207 1.510986,0.061035 1.670898,0.061035 c 0.159913,0 0.319825,0.061035 0.441895,0.182861 0.244141,0.244141 0.244141,0.639893 0,0.884034 z"
         style="fill:#252525;fill-opacity:1;fill-rule:evenodd;stroke:none"
         id="path66" /></g><g
       id="g68"
       transform="translate(2.308594,14.853027)"><path
         d="M 1.229004,2.173828 0.183105,1.12793 c -0.24414,-0.243897 -0.24414,-0.639649 0,-0.883789 C 0.304932,0.12207 0.465088,0.061035 0.625,0.061035 c 0.159912,0 0.319824,0.061035 0.441895,0.183106 l 1.045898,1.045898 c 0.244141,0.243897 0.244141,0.639649 0,0.883789 -0.244141,0.244141 -0.639648,0.244141 -0.883789,0 z"
         style="fill:#252525;fill-opacity:1;fill-rule:evenodd;stroke:none"
         id="path70" /></g><g
       id="g72"
       transform="translate(14.464844,6.789551)"><path
         d="m 1.250244,0.625 c 0,0.344238 -0.280762,0.625 -0.625,0.625 C 0.281006,1.25 0,0.969238 0,0.625 0,0.280762 0.281006,0 0.625244,0 c 0.344238,0 0.625,0.280762 0.625,0.625 z"
         style="fill:#252525;fill-opacity:1;fill-rule:evenodd;stroke:none"
         id="path74" /></g><g
       id="g76"
       transform="translate(3.804688,20.483398)"><path
         d="M 0,0.625 C 0,0.280762 0.280762,0 0.625,0 0.969238,0 1.25,0.280762 1.25,0.625 1.25,0.969238 0.969238,1.25 0.625,1.25 0.280762,1.25 0,0.969238 0,0.625 Z"
         style="fill:#252525;fill-opacity:1;fill-rule:evenodd;stroke:none"
         id="path78" /></g></g></svg>
