<?xml version="1.0" encoding="UTF-8" standalone="no"?>
<svg
   xmlns:dc="http://purl.org/dc/elements/1.1/"
   xmlns:cc="http://creativecommons.org/ns#"
   xmlns:rdf="http://www.w3.org/1999/02/22-rdf-syntax-ns#"
   xmlns:svg="http://www.w3.org/2000/svg"
   xmlns="http://www.w3.org/2000/svg"
   version="1.1"
   id="svg2"
   xml:space="preserve"
   width="42.666668"
   height="42.666668"
   viewBox="0 0 42.666668 42.666668"><metadata
     id="metadata8"><rdf:RDF><cc:Work
         rdf:about=""><dc:format>image/svg+xml</dc:format><dc:type
           rdf:resource="http://purl.org/dc/dcmitype/StillImage" /></cc:Work></rdf:RDF></metadata><defs
     id="defs6" /><g
     id="g10"
     transform="matrix(1.3333333,0,0,-1.3333333,0,42.666667)"><g
       id="g12"
       transform="translate(2.5,5.525391)"><path
         d="M 0.5,2 C 0.223875,2 0,1.776125 0,1.5 v -1 C 0,0.223875 0.223875,0 0.5,0 0.776125,0 1,0.223875 1,0.5 v 1 C 1,1.776125 0.776125,2 0.5,2 Z"
         style="fill:#252525;fill-opacity:1;fill-rule:nonzero;stroke:none"
         id="path14" /></g><g
       id="g16"
       transform="translate(5,5.525391)"><path
         d="M 0.5,2 C 0.223875,2 0,1.776125 0,1.5 v -1 C 0,0.223875 0.223875,0 0.5,0 0.776125,0 1,0.223875 1,0.5 v 1 C 1,1.776125 0.776125,2 0.5,2 Z"
         style="fill:#252525;fill-opacity:1;fill-rule:nonzero;stroke:none"
         id="path18" /></g><g
       id="g20"
       transform="translate(7.5,5.525391)"><path
         d="M 0.5,2 C 0.223875,2 0,1.776125 0,1.5 v -1 C 0,0.223875 0.223875,0 0.5,0 0.776125,0 1,0.223875 1,0.5 v 1 C 1,1.776125 0.776125,2 0.5,2 Z"
         style="fill:#252525;fill-opacity:1;fill-rule:nonzero;stroke:none"
         id="path22" /></g><g
       id="g24"
       transform="translate(10,5.525391)"><path
         d="M 0.5,2 C 0.223875,2 0,1.776125 0,1.5 v -1 C 0,0.223875 0.223875,0 0.5,0 0.776125,0 1,0.223875 1,0.5 v 1 C 1,1.776125 0.776125,2 0.5,2 Z"
         style="fill:#252525;fill-opacity:1;fill-rule:nonzero;stroke:none"
         id="path26" /></g><g
       id="g28"
       transform="translate(12.5,5.525391)"><path
         d="M 0.5,2 C 0.223875,2 0,1.776125 0,1.5 v -1 C 0,0.223875 0.223875,0 0.5,0 0.776125,0 1,0.223875 1,0.5 v 1 C 1,1.776125 0.776125,2 0.5,2 Z"
         style="fill:#252525;fill-opacity:1;fill-rule:nonzero;stroke:none"
         id="path30" /></g><g
       id="g32"
       transform="translate(15.5,5.525391)"><path
         d="M 0.5,2 C 0.223875,2 0,1.776125 0,1.5 v -1 C 0,0.223875 0.223875,0 0.5,0 0.776125,0 1,0.223875 1,0.5 v 1 C 1,1.776125 0.776125,2 0.5,2 Z"
         style="fill:#252525;fill-opacity:1;fill-rule:nonzero;stroke:none"
         id="path34" /></g><g
       id="g36"
       transform="translate(18,5.525391)"><path
         d="M 0.5,2 C 0.223875,2 0,1.776125 0,1.5 v -1 C 0,0.223875 0.223875,0 0.5,0 0.776125,0 1,0.223875 1,0.5 v 1 C 1,1.776125 0.776125,2 0.5,2 Z"
         style="fill:#252525;fill-opacity:1;fill-rule:nonzero;stroke:none"
         id="path38" /></g><g
       id="g40"
       transform="translate(20.5,5.525391)"><path
         d="M 0.5,2 C 0.223875,2 0,1.776125 0,1.5 v -1 C 0,0.223875 0.223875,0 0.5,0 0.776125,0 1,0.223875 1,0.5 v 1 C 1,1.776125 0.776125,2 0.5,2 Z"
         style="fill:#252525;fill-opacity:1;fill-rule:nonzero;stroke:none"
         id="path42" /></g><g
       id="g44"
       transform="translate(23,5.525391)"><path
         d="M 0.5,2 C 0.223875,2 0,1.776125 0,1.5 v -1 C 0,0.223875 0.223875,0 0.5,0 0.776125,0 1,0.223875 1,0.5 v 1 C 1,1.776125 0.776125,2 0.5,2 Z"
         style="fill:#252525;fill-opacity:1;fill-rule:nonzero;stroke:none"
         id="path46" /></g><g
       id="g48"
       transform="translate(25.5,5.525391)"><path
         d="M 0.5,2 C 0.223875,2 0,1.776125 0,1.5 v -1 C 0,0.223875 0.223875,0 0.5,0 0.776125,0 1,0.223875 1,0.5 v 1 C 1,1.776125 0.776125,2 0.5,2 Z"
         style="fill:#252525;fill-opacity:1;fill-rule:nonzero;stroke:none"
         id="path50" /></g><g
       id="g52"
       transform="translate(24,8.525391)"><path
         d="m 2.5,1 h -2 C 0.223875,1 0,0.776125 0,0.5 0,0.223875 0.223875,0 0.5,0 h 2 C 2.776125,0 3,0.223875 3,0.5 3,0.776125 2.776125,1 2.5,1 Z"
         style="fill:#252525;fill-opacity:1;fill-rule:nonzero;stroke:none"
         id="path54" /></g><g
       id="g56"
       transform="translate(0,1.182129)"><path
         d="m 30.635,17.343151 c -0.0017,0 -0.0033,0 -0.005,0 h -1.629999 v 0.5 c 0,2.485314 -2.014687,4.5 -4.5,4.5 h -2.5 v 1.585001 c 0.599625,0.212 1.000313,0.779062 1,1.415001 v 0.529999 c 8.75e-4,1.096437 -0.712749,2.065437 -1.76,2.390001 -4.368063,1.372437 -9.051937,1.372437 -13.42,0 h -0.06 C 6.71275,27.938652 5.999125,26.969589 6,25.873152 V 25.343153 C 5.999688,24.707214 6.400437,24.140152 7,23.928152 V 22.343151 H 4.5 c -2.485312,0 -4.5,-2.014686 -4.5,-4.5 V 3.843153 c 0,-0.828438 0.671562,-1.5 1.5,-1.5 h 1.19 l 0.725,-1.445 C 3.583875,0.55834 3.9305,0.34334 4.31,0.343153 h 1.38 c 0.3795,1.87e-4 0.726125,0.215187 0.895,0.555 l 0.725,1.445 h 14.380001 l 0.725,-1.445 C 22.583876,0.55834 22.9305,0.34334 23.309999,0.343153 h 1.380002 c 0.379499,1.87e-4 0.726123,0.215187 0.894998,0.555 l 0.725,1.445 H 27.5 c 0.828438,0 1.5,0.671562 1.5,1.5 v 1.5 c 0.828438,0 1.5,0.671562 1.5,1.5 v 2 c 0,0.828438 -0.671562,1.5 -1.5,1.5 v 3.639998 l 2.065001,0.690001 c 0.557125,0.186563 0.933248,0.7075 0.934999,1.295 0.0027,0.756625 -0.608376,1.372249 -1.365,1.374999 z M 7,25.873152 c 0.00106,0.656126 0.428438,1.235376 1.055,1.43 h 0.06 c 4.177625,1.312876 8.657375,1.312876 12.835001,0 0.624563,-0.196438 1.049623,-0.775249 1.049999,-1.43 v -0.529999 c 0,-0.276125 -0.223875,-0.500002 -0.5,-0.500002 -0.276125,0 -0.5,-0.223873 -0.5,-0.5 v -4 H 8 v 4 c 0,0.276127 -0.223875,0.5 -0.5,0.5 -0.276125,0 -0.5,0.223877 -0.5,0.500002 z M 5.69,1.343153 H 4.31 l -0.5,1 h 2.38 z m 19.000001,0 h -1.380002 l -0.5,1 h 2.380002 z m 3.309999,8 v -5.5 c 0,-0.276125 -0.223875,-0.5 -0.5,-0.5 h -26 c -0.276125,0 -0.5,0.223875 -0.5,0.5 v 3.5 h 21.5 c 0.276125,0 0.5,0.223875 0.5,0.5 0,0.276125 -0.223875,0.5 -0.5,0.5 H 1 v 9.499998 c 0,1.933001 1.567,3.5 3.5,3.5 H 7 v -1 H 4.5 c -0.276125,0 -0.5,-0.223873 -0.5,-0.5 0,-0.276123 0.223875,-0.5 0.5,-0.5 h 20 c 0.276125,0 0.5,0.223877 0.5,0.5 0,0.276127 -0.223875,0.5 -0.5,0.5 H 22 v 1 h 2.5 c 1.933001,0 3.5,-1.566999 3.5,-3.5 z m 1.5,-0.5 v -2 c 0,-0.276125 -0.223875,-0.5 -0.5,-0.5 v 3 c 0.276125,0 0.5,-0.223875 0.5,-0.5 z m 1.5,7.124999 c -7.5e-4,-0.159437 -0.103498,-0.300438 -0.254999,-0.35 L 29,15.038152 v 1.304999 h 1.629999 C 30.834373,16.343151 31,16.177528 31,15.973152 Z"
         style="fill:#252525;fill-opacity:1;fill-rule:nonzero;stroke:none"
         id="path58" /></g><g
       id="g60"
       transform="translate(3,15.525391)"><path
         d="M 1.5,3 C 0.671562,3 0,2.328438 0,1.5 0,0.671562 0.671562,0 1.5,0 2.328438,0 3,0.671562 3,1.5 3,2.328438 2.328438,3 1.5,3 Z m 0,-2.145 C 1.14375,0.855 0.855,1.14375 0.855,1.5 0.855,1.85625 1.14375,2.145 1.5,2.145 1.85625,2.145 2.145,1.85625 2.145,1.5 2.145,1.14375 1.85625,0.855 1.5,0.855 Z"
         style="fill:#252525;fill-opacity:1;fill-rule:nonzero;stroke:none"
         id="path62" /></g><g
       id="g64"
       transform="translate(10,23.525391)"><path
         d="m 1.5,1 h -1 C 0.223875,1 0,0.776125 0,0.5 0,0.223875 0.223875,0 0.5,0 h 1 C 1.776125,0 2,0.223875 2,0.5 2,0.776125 1.776125,1 1.5,1 Z"
         style="fill:#252525;fill-opacity:1;fill-rule:nonzero;stroke:none"
         id="path66" /></g><g
       id="g68"
       transform="translate(14,26.525391)"><path
         d="m 1.5,1 h -1 C 0.223875,1 0,0.776125 0,0.5 0,0.223875 0.223875,0 0.5,0 h 1 C 1.776125,0 2,0.223875 2,0.5 2,0.776125 1.776125,1 1.5,1 Z"
         style="fill:#252525;fill-opacity:1;fill-rule:nonzero;stroke:none"
         id="path70" /></g><g
       id="g72"
       transform="translate(7,16.525391)"><path
         d="m 2.5,1 h -2 C 0.223875,1 0,0.776125 0,0.5 0,0.223875 0.223875,0 0.5,0 h 2 C 2.776125,0 3,0.223875 3,0.5 3,0.776125 2.776125,1 2.5,1 Z"
         style="fill:#252525;fill-opacity:1;fill-rule:nonzero;stroke:none"
         id="path74" /></g><g
       id="g76"
       transform="translate(16,22.525391)"><path
         d="m 1.5,1 h -1 C 0.223875,1 0,0.776125 0,0.5 0,0.223875 0.223875,0 0.5,0 h 1 C 1.776125,0 2,0.223875 2,0.5 2,0.776125 1.776125,1 1.5,1 Z"
         style="fill:#252525;fill-opacity:1;fill-rule:nonzero;stroke:none"
         id="path78" /></g></g></svg>
