<?xml version="1.0" encoding="UTF-8" standalone="no"?>
<svg
   xmlns:dc="http://purl.org/dc/elements/1.1/"
   xmlns:cc="http://creativecommons.org/ns#"
   xmlns:rdf="http://www.w3.org/1999/02/22-rdf-syntax-ns#"
   xmlns:svg="http://www.w3.org/2000/svg"
   xmlns="http://www.w3.org/2000/svg"
   version="1.1"
   id="svg2"
   xml:space="preserve"
   width="42.666668"
   height="42.666668"
   viewBox="0 0 42.666668 42.666668"><metadata
     id="metadata8"><rdf:RDF><cc:Work
         rdf:about=""><dc:format>image/svg+xml</dc:format><dc:type
           rdf:resource="http://purl.org/dc/dcmitype/StillImage" /></cc:Work></rdf:RDF></metadata><defs
     id="defs6" /><g
     id="g10"
     transform="matrix(1.3333333,0,0,-1.3333333,0,42.666667)"><g
       id="g12"
       transform="translate(0,4.508789)"><path
         d="M 30.52931,22.981934 H 1.470753 C 0.659814,22.981934 0,22.322119 0,21.511181 V 3.474831 C 0,2.66383 0.659814,2.004078 1.470753,2.004078 H 9.229457 L 8.696205,0.937576 H 6.981827 c -0.258876,0 -0.468751,-0.209877 -0.468751,-0.468752 0,-0.258875 0.209875,-0.46875 0.468751,-0.46875 h 18.03635 c 0.258875,0 0.46875,0.209875 0.46875,0.46875 0,0.258875 -0.209875,0.468752 -0.46875,0.468752 h -1.71438 l -0.533251,1.066502 h 7.758703 C 31.340252,2.004078 32,2.663893 32,3.474831 v 18.03635 c 6.5e-5,0.810938 -0.65975,1.470753 -1.47069,1.470753 z M 31.062563,4.945646 h -1.535317 c -0.258874,0 -0.46875,-0.209875 -0.46875,-0.468752 0,-0.258875 0.209876,-0.46875 0.46875,-0.46875 h 1.535317 V 3.474831 c 0,-0.294062 -0.239252,-0.533312 -0.533253,-0.533312 H 12.993776 c -0.258876,0 -0.468751,-0.209875 -0.468751,-0.468752 0,-0.258875 0.209875,-0.46875 0.468751,-0.46875 H 21.72242 L 22.255671,0.937513 H 9.744332 l 0.533251,1.066504 h 0.712377 c 0.258876,0 0.468751,0.209875 0.468751,0.46875 0,0.258877 -0.209875,0.468752 -0.468751,0.468752 H 1.470753 c -0.294063,0 -0.533251,0.239248 -0.533251,0.533249 v 0.533313 h 26.585991 c 0.258877,0 0.468752,0.209876 0.468752,0.46875 0,0.258877 -0.209875,0.468752 -0.468752,0.468752 H 0.937502 v 16.565598 c 0,0.294062 0.23925,0.533251 0.533251,0.533251 H 30.52931 c 0.294064,0 0.533253,-0.23925 0.533253,-0.533251 V 4.945646 Z"
         style="fill:#252525;fill-opacity:1;fill-rule:nonzero;stroke:none"
         id="path14" /></g><g
       id="g16"
       transform="translate(10.519531,11.477051)"><path
         d="m 12.824385,12.870507 c -0.183063,0.183064 -0.479876,0.183064 -0.662938,6.3e-5 L 0.137297,0.846296 c -0.183063,-0.183062 -0.183063,-0.479876 0,-0.662877 0.0915,-0.0915 0.211501,-0.137313 0.331439,-0.137313 0.119938,0 0.239937,0.04575 0.331438,0.137313 l 12.024211,12.024212 c 0.183063,0.183064 0.183063,0.479877 0,0.662876 z"
         style="fill:#252525;fill-opacity:1;fill-rule:nonzero;stroke:none"
         id="path18" /></g><g
       id="g20"
       transform="translate(11.023438,15.485352)"><path
         d="m 7.814312,7.860261 c -0.183062,0.183063 -0.479875,0.183063 -0.662875,0 L 0.137297,0.846122 c -0.183063,-0.183063 -0.183063,-0.479877 0,-0.662877 0.0915,-0.091563 0.2115,-0.137312 0.331438,-0.137312 0.119938,0 0.239938,0.045749 0.331439,0.137312 l 7.014138,7.01414 c 0.183063,0.183063 0.183063,0.479876 0,0.662876 z"
         style="fill:#252525;fill-opacity:1;fill-rule:nonzero;stroke:none"
         id="path22" /></g></g></svg>
