<svg width="33" height="30" viewBox="0 0 33 30" fill="none" xmlns="http://www.w3.org/2000/svg">
<path d="M32.2951 21.3318L31.2547 20.623C30.8806 20.3682 30.3971 20.368 30.0231 20.623L29.3345 21.092C29.2811 21.1284 29.212 21.1284 29.1586 21.092L29.0777 21.0369V20.2183C29.0777 19.9594 28.8678 19.7496 28.6089 19.7496H27.7031V10.2115C28.1866 10.1359 28.6896 10.0546 29.2149 9.96693C29.6003 9.90268 29.9146 9.64681 30.0554 9.28249C30.1963 8.91793 30.1359 8.517 29.8938 8.20993C28.6088 6.58031 24.918 2.56963 18.4141 0.528262C18.0765 0.422199 17.7195 0.422262 17.3818 0.528199C10.878 2.56963 7.18711 6.58031 5.90211 8.20993C5.65999 8.517 5.59955 8.918 5.74055 9.28249C5.88136 9.64681 6.19561 9.90268 6.58099 9.96693C7.11255 10.0556 7.61524 10.1369 8.09286 10.2117V11.6196H5.97505C5.5313 11.6196 5.10218 11.8047 4.79768 12.1275L3.08387 13.9444C2.86975 14.1715 2.81125 14.5034 2.93487 14.79C3.05431 15.0668 3.32118 15.2485 3.62056 15.2605V20.2183C3.62056 20.4772 3.83043 20.687 4.08931 20.687H4.44762V21.2504H0.968749C0.709875 21.2504 0.5 21.4602 0.5 21.7192C0.5 21.9781 0.709875 22.1879 0.968749 22.1879H4.44762V23.236H3.64374C3.38487 23.236 3.17499 23.4458 3.17499 23.7048C3.17499 23.9637 3.38487 24.1735 3.64374 24.1735H5.54424C5.80311 24.1735 6.01299 23.9637 6.01299 23.7048C6.01299 23.4458 5.80311 23.236 5.54424 23.236H5.38512V22.1879L6.71824 22.2027V28.6135H5.11212C4.85324 28.6135 4.64337 28.8233 4.64337 29.0823C4.64337 29.3412 4.85324 29.551 5.11212 29.551H11.6889C11.9094 29.551 12.1224 29.4853 12.3048 29.3611L13.1855 28.7608C13.239 28.7245 13.308 28.7245 13.3615 28.7608L14.0495 29.2297C14.4235 29.4847 14.9071 29.4847 15.2813 29.2298L15.9695 28.7608C16.0229 28.7243 16.092 28.7245 16.1455 28.7608L17.1857 29.4696C17.2664 29.5247 17.3583 29.5511 17.4492 29.5511C17.599 29.5511 17.7462 29.4794 17.837 29.3463C17.9828 29.1323 17.9275 28.8407 17.7135 28.6949L16.6733 27.9861C16.2991 27.7312 15.8157 27.7312 15.4415 27.9861L14.7533 28.4551C14.6999 28.4915 14.6308 28.4915 14.5773 28.4551L13.8893 27.9862C13.5152 27.7313 13.0316 27.7313 12.6575 27.9862L11.7769 28.5864C11.7628 28.596 11.7473 28.6026 11.7312 28.6072V27.0294H26.3741V28.6136H25.314C25.0551 28.6136 24.8453 28.8234 24.8453 29.0823C24.8453 29.3413 25.0551 29.5511 25.314 29.5511H29.4276C29.6864 29.5511 29.8963 29.3413 29.8963 29.0823C29.8963 28.8234 29.6864 28.6136 29.4276 28.6136H29.0777V25.5223C29.0777 25.2633 28.8678 25.0535 28.6089 25.0535C28.3501 25.0535 28.1402 25.2633 28.1402 25.5223V26.0919H21.5476V22.6714H28.1401V23.5613C28.1401 23.8203 28.35 24.0301 28.6089 24.0301C28.8678 24.0301 29.0776 23.8203 29.0776 23.5613C29.0776 23.5613 29.0776 22.0989 29.0776 22.0777V22.0443C29.3461 22.0867 29.626 22.0277 29.8623 21.8667L30.5509 21.3977C30.6043 21.3612 30.6733 21.3613 30.7268 21.3977L31.7672 22.1065C31.8479 22.1616 31.9398 22.188 32.0307 22.188C32.1805 22.188 32.3277 22.1163 32.4185 21.9831C32.5643 21.7692 32.5091 21.4776 32.2951 21.3318ZM26.7656 19.7497H25.937V10.4737C26.2061 10.4362 26.4821 10.3964 26.7656 10.3544V19.7497ZM6.61493 8.94443C6.60286 8.91325 6.58986 8.85181 6.6383 8.79037C7.86942 7.22912 11.4081 3.38582 17.6627 1.42263C17.8166 1.37432 17.9793 1.37438 18.1333 1.4227C24.388 3.38582 27.9265 7.22912 29.1576 8.79037C29.206 8.85181 29.1931 8.91325 29.181 8.94443C29.169 8.97543 29.1374 9.02943 29.0606 9.04224C26.8546 9.41043 25.0347 9.66912 23.4971 9.83306C23.2396 9.86049 23.0532 10.0915 23.0807 10.3489C23.1081 10.6064 23.3394 10.7927 23.5965 10.7653C24.0402 10.718 24.5076 10.6626 24.9996 10.5995V19.7496H22.1084V17.76C22.1084 17.3073 21.8766 16.9079 21.5256 16.6736V14.41C21.5256 14.1511 21.3157 13.9413 21.0568 13.9413H19.5773C19.3185 13.9413 19.1086 14.1511 19.1086 14.41V16.4544H16.2098V11.0264C16.7716 11.0383 17.3241 11.0412 17.8981 11.0412C19.2425 11.0412 20.3371 11.0237 21.638 10.9369C21.8963 10.9196 22.0918 10.6962 22.0745 10.4379C22.0573 10.1797 21.8339 9.9833 21.5756 10.0015C20.3007 10.0866 19.2233 10.1037 17.8981 10.1037C14.997 10.1037 12.6527 10.0299 6.73536 9.04237C6.65849 9.02943 6.62693 8.97543 6.61493 8.94443ZM20.6101 21.734H18.5369V20.6872H20.6101V21.734ZM20.6101 23.7185H18.5369V22.6715H20.6101V23.7185ZM10.7937 23.915H7.65574V22.6715H10.7937V23.915ZM7.65574 24.8525H10.7937V26.092H7.65574V24.8525ZM7.65574 21.734V20.6872H17.5994V21.734H7.65574ZM15.2722 10.9974V11.3316H10.7964V10.6002C12.6226 10.8347 14.0094 10.9457 15.2722 10.9974ZM16.2097 19.7497V19.1936H21.1708V19.7497H16.2097ZM15.2722 15.535H10.7964V15.0714H15.2722V15.535ZM15.2722 14.1339H10.7964V13.6702H15.2722V14.1339ZM10.7964 16.4725H15.2722V16.9362H10.7964V16.4725ZM15.2722 12.7327H10.7964V12.2691H15.2722V12.7327ZM10.7964 17.8737H15.2722V18.3374H10.7964V17.8737ZM20.588 16.4544H20.046V14.8788H20.588V16.4544ZM20.8025 17.3919C21.0056 17.3919 21.1708 17.557 21.1708 17.7601V18.2561H16.2097V17.3919H20.8025V17.3919ZM10.7964 19.2748H15.2722V19.7497H10.7964V19.2748ZM9.85892 10.4742V19.7496H9.03036V18.1302C9.03036 17.8713 8.82048 17.6615 8.56161 17.6615C8.30273 17.6615 8.09286 17.8713 8.09286 18.1302V19.7496H4.55805V15.0406H8.0928V16.1694C8.0928 16.4284 8.30267 16.6382 8.56155 16.6382C8.82042 16.6382 9.0303 16.4284 9.0303 16.1694V10.3547C9.31592 10.3971 9.59198 10.4369 9.85892 10.4742ZM5.47968 12.7708C5.6078 12.6349 5.78836 12.5571 5.97505 12.5571H8.0928V14.1031H4.22299L5.47968 12.7708ZM5.38512 21.2505V20.6871H6.71824V21.2505H5.38512ZM7.65574 27.0295H10.7937V28.6136H7.65574V27.0295ZM11.7312 22.6715H17.5994V24.597H14.0868C13.8279 24.597 13.618 24.8068 13.618 25.0657C13.618 25.3246 13.8279 25.5345 14.0868 25.5345H17.5994V26.092H11.7312V22.6715ZM28.1401 27.0295V28.6136H27.3116V27.0295H28.1401ZM18.5369 26.092V24.6559H20.6101V26.092H18.5369ZM21.5476 21.734V20.6872H28.1401V21.734H21.5476Z" fill="#252525"/>
</svg>
