<?xml version="1.0" encoding="UTF-8" standalone="no"?>
<svg
   xmlns:dc="http://purl.org/dc/elements/1.1/"
   xmlns:cc="http://creativecommons.org/ns#"
   xmlns:rdf="http://www.w3.org/1999/02/22-rdf-syntax-ns#"
   xmlns:svg="http://www.w3.org/2000/svg"
   xmlns="http://www.w3.org/2000/svg"
   version="1.1"
   id="svg2"
   xml:space="preserve"
   width="15"
   height="15"
   viewBox="0 0 42.666668 42.666668"><metadata
     id="metadata8"><rdf:RDF><cc:Work
         rdf:about=""><dc:format>image/svg+xml</dc:format><dc:type
           rdf:resource="http://purl.org/dc/dcmitype/StillImage" /></cc:Work></rdf:RDF></metadata><defs
     id="defs6" /><g
     id="g10"
     transform="matrix(1.3333333,0,0,-1.3333333,0,42.666667)"><g
       id="g12"
       transform="translate(14.558594,24.299805)"><path
         d="m 0.137344,0.229203 c 0.183125,-0.183062 0.479875,-0.183 0.662875,0 l 1.949124,1.949126 c 0.183063,0.183125 0.183063,0.479874 0,0.662937 -0.183,0.183 -0.479812,0.183 -0.662874,0 L 0.137344,0.892141 c -0.183125,-0.183063 -0.183125,-0.479813 0,-0.662938 z"
         style="fill:#252525;fill-opacity:1;fill-rule:nonzero;stroke:none"
         id="path14" /></g><g
       id="g16"
       transform="translate(1.894531)"><path
         d="m 27.738625,26.1875 c 0.258874,0 0.46875,0.209812 0.46875,0.46875 v 2.531626 C 28.207375,30.738438 26.945812,32 25.395187,32 h -22.583 C 1.261562,32 0,30.738438 0,29.187876 V 21.690687 C 0,20.619938 0.83725,19.741501 1.891375,19.6745 V 4.853624 C 0.815188,4.644499 0,3.695312 0,2.558937 V 1.227375 C 0,0.550625 0.550625,0 1.227375,0 h 25.752562 c 0.676813,0 1.227375,0.550625 1.227375,1.227375 v 1.331562 c 0,1.136438 -0.815125,2.085625 -1.891375,2.294687 V 19.6745 c 1.054125,0.067 1.891375,0.945438 1.891375,2.016187 v 2.76475 c 0,0.258938 -0.209875,0.46875 -0.46875,0.46875 -0.258875,0 -0.46875,-0.209812 -0.46875,-0.46875 v -2.76475 c 0,-0.597313 -0.485937,-1.08325 -1.08325,-1.08325 H 2.02075 c -0.597312,0 -1.08325,0.485937 -1.08325,1.08325 v 7.497189 c 0,1.033687 0.841,1.874624 1.874687,1.874624 h 22.583 c 1.033688,0 1.874688,-0.840937 1.874688,-1.874624 V 26.65625 c 0,-0.258938 0.209875,-0.46875 0.46875,-0.46875 z M 13.08875,16.608313 h 2.029876 V 15.72175 c 0,-0.03425 -0.02788,-0.06213 -0.06219,-0.06213 h -1.905562 c -0.03425,0 -0.06212,0.02788 -0.06212,0.06213 v 0.886563 z m -1.1065,0.9375 c -0.393312,0 -0.713375,0.319999 -0.713375,0.713312 v 1.410751 h 5.669624 v -1.410751 c 0,-0.393313 -0.319999,-0.713312 -0.713375,-0.713312 z m 0,-0.9375 h 0.169062 V 15.72175 c 0,-0.551187 0.448438,-0.999626 0.999625,-0.999626 h 1.905562 c 0.551188,0 0.999688,0.448439 0.999688,0.999626 v 0.886563 h 0.169063 c 0.91025,0 1.650875,0.740562 1.650875,1.650812 v 1.410751 h 7.502499 V 4.896875 h -7.342249 l 0.143686,0.946062 h 1.145001 c 0.579624,0 1.086063,0.391875 1.231563,0.953 l 0.476124,1.836376 c 0.09956,0.384001 0.01744,0.784187 -0.225311,1.097875 -0.24275,0.313689 -0.609501,0.493624 -1.00625,0.493624 h -0.955813 l 0.103874,0.683813 c 0.162501,1.069876 -0.666626,2.032688 -1.747312,2.032688 h -6.196375 c -1.082125,0 -1.909561,-0.964313 -1.747312,-2.032688 L 9.443937,9.684687 10.171062,4.896875 H 2.828875 v 14.773062 h 7.5025 v -1.410749 c 0,-0.910313 0.740563,-1.650875 1.650875,-1.650875 z M 11.119249,4.896938 10.452624,9.286375 h 0.759188 c 0.258875,0 0.46875,0.209812 0.46875,0.46875 0,0.258938 -0.209875,0.46875 -0.46875,0.46875 h -0.901563 l -0.125187,0.824562 c -0.07631,0.502438 0.313,0.954437 0.820438,0.954437 h 6.196376 c 0.508188,0 0.896623,-0.452749 0.820436,-0.954437 l -0.125187,-0.824562 c -1.657249,0 -3.549812,0 -4.493812,0 -0.258875,0 -0.46875,-0.209812 -0.46875,-0.46875 0,-0.258938 0.209875,-0.46875 0.46875,-0.46875 h 4.351436 L 17.088188,4.896938 Z m 7.583689,4.389437 h 1.098187 c 0.142936,0 0.227249,-0.081375 0.264749,-0.129875 0.0375,-0.0485 0.09512,-0.150562 0.05931,-0.288937 L 19.649063,7.03125 C 19.61075,6.883625 19.477499,6.780437 19.324999,6.780437 H 18.322374 Z M 27.269875,2.558874 V 1.227312 c 0,-0.159876 -0.130063,-0.289875 -0.289875,-0.289875 H 1.227375 C 1.0675,0.937437 0.9375,1.067436 0.9375,1.227312 v 1.331562 c 0,0.772188 0.62825,1.400501 1.4005,1.400501 h 23.531312 c 0.77225,6.3e-5 1.400563,-0.628252 1.400563,-1.400501 z"
         style="fill:#252525;fill-opacity:1;fill-rule:nonzero;stroke:none"
         id="path18" /></g><g
       id="g20"
       transform="translate(12.226562,22.0625)"><path
         d="M 0,3.772547 C 0,1.692485 1.69225,2.35e-4 3.772312,2.35e-4 c 2.080063,0 3.772312,1.69225 3.772312,3.772312 0,2.080063 -1.692249,3.772375 -3.772312,3.772375 C 1.69225,7.544922 0,5.852672 0,3.772547 Z m 6.607124,0 c 0,-1.563125 -1.271687,-2.834812 -2.834812,-2.834812 -1.563125,0 -2.834812,1.27175 -2.834812,2.834812 0,1.563062 1.271687,2.834875 2.834812,2.834875 1.563125,0 2.834812,-1.27175 2.834812,-2.834875 z"
         style="fill:#252525;fill-opacity:1;fill-rule:nonzero;stroke:none"
         id="path22" /></g><g
       id="g24"
       transform="translate(4.410156,23.986816)"><path
         d="M 1.105625,3.696289 C 0.496,3.696289 0,3.200226 0,2.590601 V 1.105414 C 0,0.495726 0.496,-2.11e-4 1.105625,-2.11e-4 h 3.95625 c 0.609687,0 1.105687,0.496 1.105687,1.105625 v 1.485125 c 0,0.609688 -0.496,1.105688 -1.105687,1.105688 H 1.105625 Z M 5.230062,2.590539 V 1.105351 c 0,-0.092687 -0.075437,-0.168124 -0.168187,-0.168124 h -3.95625 c -0.092687,0 -0.168125,0.075437 -0.168125,0.168124 v 1.485188 c 0,0.09275 0.075438,0.168188 0.168125,0.168188 h 3.95625 c 0.09275,6.2e-5 0.168187,-0.075375 0.168187,-0.168188 z"
         style="fill:#252525;fill-opacity:1;fill-rule:nonzero;stroke:none"
         id="path26" /></g><g
       id="g28"
       transform="translate(21.421875,23.986816)"><path
         d="M 5.061937,3.696289 H 1.105686 C 0.495999,3.696289 0,3.200226 0,2.590601 V 1.105414 C 0,0.495726 0.495999,-2.11e-4 1.105686,-2.11e-4 h 3.956251 c 0.609625,0 1.105625,0.496 1.105625,1.105625 v 1.485125 c 6.3e-5,0.609688 -0.495937,1.10575 -1.105625,1.10575 z M 5.230125,1.105414 C 5.230125,1.012726 5.154688,0.937289 5.062,0.937289 H 1.105749 c -0.09275,0 -0.168186,0.075437 -0.168186,0.168125 v 1.485125 c 0,0.09275 0.075436,0.168188 0.168186,0.168188 H 5.062 c 0.092688,0 0.168125,-0.075438 0.168125,-0.168188 z"
         style="fill:#252525;fill-opacity:1;fill-rule:nonzero;stroke:none"
         id="path30" /></g></g></svg>
