<?xml version="1.0" encoding="UTF-8" standalone="no"?>
<svg
   xmlns:dc="http://purl.org/dc/elements/1.1/"
   xmlns:cc="http://creativecommons.org/ns#"
   xmlns:rdf="http://www.w3.org/1999/02/22-rdf-syntax-ns#"
   xmlns:svg="http://www.w3.org/2000/svg"
   xmlns="http://www.w3.org/2000/svg"
   version="1.1"
   id="svg2"
   xml:space="preserve"
   width="40.0625"
   height="42.666668"
   viewBox="0 0 40.0625 42.666668"><metadata
     id="metadata8"><rdf:RDF><cc:Work
         rdf:about=""><dc:format>image/svg+xml</dc:format><dc:type
           rdf:resource="http://purl.org/dc/dcmitype/StillImage" /></cc:Work></rdf:RDF></metadata><defs
     id="defs6" /><g
     id="g10"
     transform="matrix(1.3333333,0,0,-1.3333333,0,42.666667)"><g
       id="g12"
       transform="translate(0,-0.165527)"><path
         d="m 3.854502,28.66264 -1.72791,1.011547 C 1.903158,29.804998 1.616037,29.729874 1.485227,29.506439 1.354416,29.283007 1.42954,28.995886 1.652974,28.865074 l 1.727848,-1.011482 c 0.219559,-0.12875 0.50918,-0.058 0.641365,0.167747 0.13081,0.22337 0.055687,0.510554 -0.167685,0.641301 z m 0.512992,1.158107 c 0.17356,-0.192997 0.470055,-0.20762 0.661989,-0.03506 0.192435,0.173123 0.208185,0.469492 0.035063,0.66199 L 3.659193,32.010278 C 3.486133,32.20271 3.189763,32.2184 2.997203,32.045338 2.804769,31.872215 2.789019,31.575846 2.962141,31.383348 Z M 2.622084,26.839355 0.571553,27.29985 C 0.318557,27.356787 0.068186,27.197788 0.0115,26.94523 -0.045249,26.692608 0.11356,26.441864 0.366119,26.385176 L 2.41665,25.924683 c 0.034624,-0.0078 0.069124,-0.01156 0.103123,-0.01156 0.214497,0 0.407931,0.148125 0.45693,0.36612 0.05675,0.252685 -0.10206,0.503368 -0.354619,0.560115 z M 29.5301,18.804169 c -0.796799,1.883972 -2.391337,3.251262 -4.374806,3.751316 L 13.021671,25.614502 9.605975,29.46644 C 9.194231,29.930933 8.493617,29.987869 8.011,29.596188 7.089264,28.848513 6.307964,27.959589 5.688848,26.954166 4.963735,25.776436 4.484742,24.481518 4.265121,23.105415 4.167435,22.493299 4.567303,21.91637 5.175419,21.791811 l 5.043422,-1.032045 1.68491,-1.735663 c 0.180498,-0.185873 0.47718,-0.190058 0.662802,-0.0099 0.18581,0.180372 0.190185,0.477117 0.0099,0.662803 l -1.539038,1.585351 1.958281,3.39182 11.930314,-3.007764 c 1.695912,-0.427557 3.059265,-1.596665 3.740567,-3.207451 0.681303,-1.610787 0.570428,-3.403384 -0.303996,-4.917984 -0.874486,-1.514603 -2.371463,-2.506901 -4.107124,-2.722334 -1.735535,-0.215622 -3.429758,0.380743 -4.647989,1.635662 l -5.694286,5.865721 c -0.180309,0.185871 -0.476992,0.190185 -0.662739,0.0099 -0.185809,-0.180374 -0.190185,-0.47712 -0.0099,-0.662804 L 17.031985,13.74156 C 16.273933,13.611689 15.598756,13.151634 15.2082,12.474644 14.859705,11.870779 14.767018,11.167416 14.947391,10.494112 15.153575,9.724438 15.719692,9.090197 16.442118,8.74864 L 14.328838,5.088572 C 13.890533,4.329458 13.774096,3.445034 14.001031,2.598423 c 0.226871,-0.84655 0.769801,-1.553976 1.528665,-1.991907 0.761175,-0.439243 1.648349,-0.553553 2.489709,-0.328119 0.84655,0.226808 1.554163,0.769737 1.992531,1.528976 l 3.717756,6.439211 c 0.129435,0.224184 0.05262,0.510868 -0.17156,0.640305 -0.224121,0.129434 -0.510931,0.052747 -0.640304,-0.171563 L 19.200075,2.275991 c -0.31312,-0.542305 -0.818613,-0.930173 -1.423229,-1.09217 -0.604677,-0.16206 -1.236168,-0.078812 -1.778347,0.234434 -0.542054,0.31287 -0.92986,0.818111 -1.09192,1.422788 -0.16206,0.60468 -0.07894,1.236357 0.234183,1.778662 l 4.011626,6.947952 c 1.206482,-1.134107 2.766269,-1.74991 4.40393,-1.74991 0.269808,0 0.541867,0.01675 0.814675,0.050625 2.029907,0.251932 3.780754,1.412479 4.803487,3.183887 1.022734,1.77141 1.152358,3.868002 0.35562,5.75191 z m -19.312635,2.912893 -4.854049,0.993296 c -0.115124,0.02356 -0.190935,0.132248 -0.17256,0.247434 0.200059,1.253605 0.63624,2.432837 1.296292,3.504883 0.563554,0.915299 1.274918,1.724661 2.114467,2.405588 0.041124,0.03337 0.090498,0.04975 0.139498,0.04975 0.060436,0 0.120373,-0.02488 0.163373,-0.07344 l 3.287511,-3.70738 -1.974532,-3.420134 z M 16.910923,9.560438 16.63224,9.721249 c -0.79855,0.460867 -1.07317,1.485788 -0.612053,2.284776 0.297808,0.516117 0.853424,0.836737 1.450165,0.836737 0.175684,0 0.34812,-0.02787 0.514055,-0.08231 l 0.48543,-0.499992 z m 10.308214,4.651991 c 0.976111,1.690599 0.351057,3.825378 -1.276916,4.765362 -1.657475,0.956985 -3.814879,0.369495 -4.765364,-1.276854 -0.961798,-1.665849 -0.389057,-3.803566 1.276854,-4.765426 1.645036,-0.949734 3.793567,-0.406432 4.765426,1.276918 z m -5.230356,3.019829 c 0.695677,1.204979 2.271778,1.633974 3.484758,0.933672 1.196108,-0.690489 1.628161,-2.281903 0.933735,-3.484759 -0.703302,-1.218231 -2.266714,-1.636974 -3.484821,-0.933734 -1.218168,0.703363 -1.636974,2.266651 -0.933672,3.484821 z m -2.3414,-11.482823 c 0.362869,0.097249 0.666115,0.329871 0.853861,0.655241 0.187809,0.325245 0.237745,0.704239 0.140497,1.066983 -0.09725,0.362869 -0.32987,0.666115 -0.655115,0.853861 -0.325369,0.187871 -0.704302,0.23781 -1.067108,0.140499 -0.362807,-0.097248 -0.666052,-0.329871 -0.853861,-0.655241 -0.387682,-0.67149 -0.156748,-1.533224 0.514679,-1.920843 0.216684,-0.125123 0.457182,-0.188998 0.700865,-0.188998 0.122123,0 0.245122,0.016062 0.366182,0.048498 z m -0.598305,0.952424 c -0.223808,0.129186 -0.300808,0.416494 -0.17156,0.640302 0.06262,0.108437 0.163687,0.18606 0.284685,0.218434 0.04038,0.010812 0.08131,0.016124 0.121998,0.016124 0.08125,0 0.161434,-0.021311 0.233682,-0.062998 0.108374,-0.062624 0.185999,-0.163686 0.218373,-0.284622 0.03238,-0.120935 0.01575,-0.247244 -0.04687,-0.35568 v -6.3e-5 C 19.626757,6.764982 19.525694,6.687359 19.404758,6.654985 19.283886,6.62261 19.157513,6.639297 19.049076,6.701859 Z m 5.948095,7.710941 c 0.129437,0.224184 0.05263,0.510868 -0.171558,0.640302 l -1.723848,0.995236 c -0.22431,0.129373 -0.510992,0.05269 -0.640303,-0.17156 -0.129435,-0.224184 -0.05262,-0.510867 0.17156,-0.640301 l 1.723849,-0.995236 c 0.220121,-0.127248 0.509428,-0.055 0.6403,0.171559 z M 18.408962,3.602594 16.685114,4.59783 C 16.460743,4.727264 16.174122,4.650517 16.044811,4.42627 15.915375,4.202085 15.992188,3.915403 16.216372,3.785967 L 17.94022,2.790733 c 0.07387,-0.042625 0.154434,-0.062875 0.233932,-0.062875 0.161999,0 0.319559,0.084062 0.406371,0.234434 0.129434,0.224121 0.05256,0.510805 -0.171561,0.640302 z m 5.161545,13.257731 1.723848,-0.995299 c 0.220185,-0.127433 0.509491,-0.05493 0.640303,0.171563 0.129435,0.224184 0.05262,0.510866 -0.17156,0.640302 l -1.723849,0.995297 c -0.224121,0.129434 -0.510929,0.05269 -0.640302,-0.17156 -0.129498,-0.224185 -0.05262,-0.510867 0.17156,-0.640303 z"
         style="fill:#252525;fill-opacity:1;fill-rule:nonzero;stroke:none"
         id="path14" /></g></g></svg>
