<?xml version="1.0" encoding="UTF-8" standalone="no"?>
<svg
   xmlns:dc="http://purl.org/dc/elements/1.1/"
   xmlns:cc="http://creativecommons.org/ns#"
   xmlns:rdf="http://www.w3.org/1999/02/22-rdf-syntax-ns#"
   xmlns:svg="http://www.w3.org/2000/svg"
   xmlns="http://www.w3.org/2000/svg"
   version="1.1"
   id="svg2"
   xml:space="preserve"
   width="40"
   height="40"
   viewBox="0 0 42.666668 42.666668"><metadata
     id="metadata8"><rdf:RDF><cc:Work
         rdf:about=""><dc:format>image/svg+xml</dc:format><dc:type
           rdf:resource="http://purl.org/dc/dcmitype/StillImage" /></cc:Work></rdf:RDF></metadata><defs
     id="defs6" /><g
     id="g10"
     transform="matrix(1.3333333,0,0,-1.3333333,0,42.666667)"><g
       id="g12"><path
         d="m 32,21.758125 c 0,0.86875 -0.338249,1.685063 -0.952063,2.298125 -0.613437,0.61425 -1.42975,0.952501 -2.2985,0.952501 h -5.060625 c -1.669061,0 -3.026874,1.357874 -3.026874,3.026874 0,0.808625 0.314811,1.568812 0.886499,2.140437 0.571501,0.571626 1.331688,0.886438 2.140312,0.886438 H 31.53125 C 31.790125,31.0625 32,31.272375 32,31.53125 32,31.790125 31.790125,32 31.53125,32 h -7.842501 c -1.059063,0 -2.054624,-0.412312 -2.803312,-1.161062 -0.748688,-0.748688 -1.161062,-1.74425 -1.161062,-2.803313 0,-2.185937 1.778436,-3.964374 3.964374,-3.964374 h 5.060625 c 0.618126,0 1.198876,-0.240627 1.635563,-0.677939 0.436938,-0.436374 0.677563,-1.017061 0.677563,-1.635187 0,-0.539812 -0.189875,-1.06525 -0.534813,-1.479625 l -1.394062,-1.676375 c -0.49275,0.170313 -1.061813,0.06075 -1.455126,-0.331938 l -0.566124,-0.566124 c -1.27,0.02625 -2.693626,-0.24625 -3.926313,-0.464187 -0.254938,-0.04506 -0.42506,-0.288313 -0.379936,-0.543188 0.04506,-0.254938 0.288311,-0.424939 0.543186,-0.379938 1.183874,0.209375 2.399502,0.3605 3.613064,0.449062 0.480062,0.03538 0.927061,-0.274563 1.061561,-0.736248 0.114187,-0.391876 2.939186,-10.010439 3.033312,-10.410938 0.03112,-0.132437 -0.04612,-0.228751 -0.181999,-0.228751 -1.424126,0 -2.565125,-0.97875 -3.028999,-2.2805 H 7.823062 c -0.258874,0 -0.46875,-0.209812 -0.46875,-0.46875 0,-0.258938 0.209876,-0.46875 0.46875,-0.46875 H 28.30975 c 0.340313,0 0.617187,-0.276875 0.617187,-0.617187 C 28.926937,1.214375 28.65,0.9375 28.309687,0.9375 H 1.003062 C 1.207125,1.649437 1.864,2.171875 2.640563,2.171875 H 5.948 c 0.258875,0 0.46875,0.209812 0.46875,0.46875 0,0.258938 -0.209875,0.46875 -0.46875,0.46875 H 3.139 c 3.903875,6.974874 10.743938,11.064186 18.423626,12.842875 0.252188,0.05844 0.409311,0.310188 0.350874,0.562437 C 21.85513,16.766876 21.603251,16.924 21.351063,16.865562 16.874062,15.828125 12.3765,13.924875 8.759,11.077688 l -0.629438,0.629374 c -0.539687,0.547001 -1.447437,0.542375 -1.989124,6.25e-4 -0.539438,-0.539499 -0.5455,-1.447876 0,-1.987938 L 6.643625,9.216562 C 4.801937,7.406624 3.26225,5.321564 2.016,3.034063 0.860563,2.752687 0,1.709625 0,0.46875 0,0.209812 0.209875,0 0.46875,0 h 27.840937 c 0.85725,0 1.554687,0.697437 1.554687,1.554688 0,0.671874 -0.428436,1.245437 -1.026499,1.462186 0.328938,0.848313 1.118937,1.435564 2.037375,1.435564 0.717687,0 1.268877,0.712561 1.088188,1.406874 -0.0011,0.00444 -0.0024,0.00887 -0.0036,0.013187 l -2.866062,9.836939 0.572687,0.572251 c 0.459938,0.456436 0.540249,1.193309 0.199812,1.735122 l 1.382189,1.662064 C 31.733063,20.26125 32,20.999626 32,21.758125 Z M 6.803375,11.044813 c 0.08875,0.08881 0.206563,0.137688 0.331688,0.137688 0.124937,0 0.242312,-0.04869 0.331,-0.137751 L 8.029437,10.481375 C 7.790375,10.278687 7.555562,10.071938 7.324812,9.86125 l -0.5215,0.5215 c -0.1825,0.1825 -0.1825,0.479501 6.3e-5,0.662063 z m 22.200312,5.899874 -0.249125,-0.248936 c -0.156,0.278813 -0.377311,0.512688 -0.639562,0.685063 L 28.341188,17.607 c 0.182875,0.182501 0.48,0.182625 0.662375,2.5e-4 0.08881,-0.08881 0.137688,-0.206375 0.137688,-0.331062 0,-0.125 -0.04888,-0.242813 -0.137564,-0.331501 z M 15.518375,11.021938 c -0.864,-0.478313 -1.40075,-1.389686 -1.40075,-2.3785 0,-0.749187 0.313688,-1.472688 0.860687,-1.984876 0.504125,-0.472063 1.174251,-0.734749 1.861625,-0.734686 0.05875,0 9.442501,0.614874 9.442501,0.614874 0.431938,0.028375 0.826563,0.244751 1.082625,0.593626 0.256,0.348688 0.344188,0.789812 0.242,1.210125 l -1.221126,5.020187 C 26.197374,14.137938 25.437,14.613499 24.655125,14.445749 22.77425,14.041624 20.918438,13.471127 19.139126,12.750126 17.903625,12.2495 16.685438,11.668064 15.518375,11.021938 Z M 22.2225,7.211374 18.008125,6.934313 v 1.105062 c 0,0.014876 0.01262,0.0275 0.0275,0.0275 H 22.195 c 0.01519,0 0.0275,-0.012311 0.0275,-0.0275 z m 2.629438,6.317814 c 0.03831,0.0082 0.07644,0.01219 0.113938,0.01219 0.238374,0 0.450624,-0.159937 0.509061,-0.400186 L 26.696062,8.121 C 26.73325,7.968124 26.702436,7.814062 26.609312,7.68725 26.516062,7.560249 26.378124,7.484625 26.220875,7.474251 L 23.16,7.273062 v 0.766313 c 0,0.532126 -0.432875,0.965 -0.965,0.965 h -4.159375 c -0.532125,0 -0.965,-0.432937 -0.965,-0.965 V 6.872688 L 16.955,6.865063 c -0.497313,-0.032376 -0.972,0.136999 -1.335938,0.477812 -0.363687,0.340562 -0.564,0.802438 -0.564,1.300563 0,0.647938 0.351501,1.245062 0.917313,1.558312 1.13425,0.627937 2.318126,1.193001 3.518813,1.679563 1.729126,0.700688 3.532812,1.255188 5.36075,1.647875 z"
         style="fill:#252525;fill-opacity:1;fill-rule:nonzero;stroke:none"
         id="path14" /></g></g></svg>
