<?xml version="1.0" encoding="UTF-8" standalone="no"?>
<svg
   xmlns:dc="http://purl.org/dc/elements/1.1/"
   xmlns:cc="http://creativecommons.org/ns#"
   xmlns:rdf="http://www.w3.org/1999/02/22-rdf-syntax-ns#"
   xmlns:svg="http://www.w3.org/2000/svg"
   xmlns="http://www.w3.org/2000/svg"
   version="1.1"
   id="svg2"
   xml:space="preserve"
   width="40"
   height="40"
   viewBox="0 0 42.666668 38.222656"><metadata
     id="metadata8"><rdf:RDF><cc:Work
         rdf:about=""><dc:format>image/svg+xml</dc:format><dc:type
           rdf:resource="http://purl.org/dc/dcmitype/StillImage" /></cc:Work></rdf:RDF></metadata><defs
     id="defs6" /><g
     id="g10"
     transform="matrix(1.3333333,0,0,-1.3333333,0,38.222656)"><g
       id="g12"
       transform="translate(8.925781,3.791992)"><path
         d="M 7.072938,14.145996 C 3.172938,14.145996 0,10.973122 0,7.073059 0,3.172997 3.172938,1.83e-4 7.072938,1.83e-4 c 3.900001,0 7.072937,3.172876 7.072937,7.072876 0,3.9 -3.172936,7.072937 -7.072937,7.072937 z m 0,-13.208313 c -3.383063,0 -6.135438,2.752312 -6.135438,6.135437 0,3.383125 2.752313,6.135438 6.135438,6.135438 3.383125,0 6.135437,-2.752313 6.135437,-6.135438 0,-3.383125 -2.752375,-6.135437 -6.135437,-6.135437 z"
         style="fill:#252525;fill-opacity:1;fill-rule:nonzero;stroke:none"
         id="path14" /></g><g
       id="g16"
       transform="translate(11.324219,6.19043)"><path
         d="m 6.546,6.545848 v 2.023 c 0,0.430812 -0.350438,0.78125 -0.78125,0.78125 H 3.5855 c -0.430813,0 -0.78125,-0.350438 -0.78125,-0.78125 v -2.023 h -2.023 C 0.350437,6.545848 0,6.195411 0,5.764598 V 3.585347 C 0,3.154535 0.350437,2.804097 0.78125,2.804097 h 2.023 V 0.781098 c 0,-0.430812 0.350437,-0.78125 0.78125,-0.78125 h 2.17925 c 0.430812,0 0.78125,0.350438 0.78125,0.78125 v 2.022999 h 2.023 c 0.430813,0 0.78125,0.350438 0.78125,0.78125 v 2.179251 c 0,0.430813 -0.350437,0.78125 -0.78125,0.78125 z M 8.41275,3.741597 h -2.3355 c -0.258875,0 -0.46875,-0.209875 -0.46875,-0.46875 V 0.937348 H 3.74175 v 2.335499 c 0,0.258875 -0.209875,0.46875 -0.46875,0.46875 H 0.9375 V 5.608348 H 3.273 c 0.258875,0 0.46875,0.209875 0.46875,0.46875 v 2.3355 H 5.6085 v -2.3355 c 0,-0.258875 0.209875,-0.46875 0.46875,-0.46875 h 2.3355 z"
         style="fill:#252525;fill-opacity:1;fill-rule:nonzero;stroke:none"
         id="path18" /></g><g
       id="g20"><path
         d="M 31.53125,7.401117 C 31.790125,7.401117 32,7.610992 32,7.869867 v 11.767062 c 0,1.154501 -0.939251,2.09375 -2.09375,2.09375 h -2.310749 v 0.537437 c 0,0.53075 -0.431812,0.962564 -0.962563,0.962564 h -2.515876 c -0.0085,0 -0.01669,-0.0011 -0.02512,-0.0013 l 6.1e-5,3.606564 c 0,1.009561 -0.814875,1.830936 -1.816437,1.830936 h -8.933937 c -0.258875,0 -0.46875,-0.209875 -0.46875,-0.46875 0,-0.258875 0.209875,-0.46875 0.46875,-0.46875 h 8.933874 c 0.484625,0 0.878939,-0.400812 0.878939,-0.893436 l -6.3e-5,-5.105314 h -1.163126 v 3.531751 c 0,0.706499 -0.570875,1.28125 -1.272625,1.28125 h -9.437311 c -0.70175,0 -1.272625,-0.574751 -1.272625,-1.28125 V 21.730694 H 8.845504 v 0.537438 c 0,1.87e-4 0,3.11e-4 0,5e-4 l 6.3e-5,4.567373 c 0,0.492626 0.394312,0.893438 0.878937,0.893438 h 1.429625 c 0.258875,0 0.46875,0.209875 0.46875,0.46875 0,0.258875 -0.209875,0.46875 -0.46875,0.46875 H 9.724504 c -1.001625,0 -1.816438,-0.821375 -1.816438,-1.830938 L 7.908,23.229492 c -0.00844,1.87e-4 -0.016625,0.0013 -0.025063,0.0013 H 5.367063 c -0.53075,0 -0.962563,-0.431814 -0.962563,-0.962562 V 21.730792 H 2.09375 C 0.93925,21.730743 0,20.791492 0,19.636993 V 2.093616 C 0,0.939117 0.93925,-1.34e-4 2.09375,-1.34e-4 h 27.8125 C 31.060749,-1.34e-4 32,0.939117 32,2.093616 v 3.588812 c 0,0.258875 -0.209875,0.46875 -0.46875,0.46875 -0.258875,0 -0.46875,-0.209875 -0.46875,-0.46875 V 2.093616 c 0,-0.637561 -0.518688,-1.15625 -1.15625,-1.15625 h -4.0625 v 16.793313 h 0.789188 c 0.366438,0 0.6855,0.205875 0.848063,0.507938 0.07437,0.136501 0.116749,0.292938 0.116749,0.459063 v 2.095499 h 2.3085 c 0.637562,0 1.15625,-0.518687 1.15625,-1.15625 V 7.869867 c 0,-0.258875 0.209875,-0.46875 0.46875,-0.46875 z m -7.414188,14.892062 h 2.515876 c 0.01381,0 0.02506,-0.01125 0.02506,-0.02506 v -3.574875 c 0,-0.0029 -7.5e-4,-0.0055 -0.0016,-0.0081 -0.0044,-0.0074 -0.01206,-0.0125 -0.02119,-0.0125 -0.910999,0 -1.606188,0 -2.515875,0 -0.01381,0 -0.02506,0.01125 -0.02506,0.02506 l 0.02281,3.595437 z M 10.946188,25.26243 c 0,0.189562 0.150312,0.34375 0.335125,0.34375 h 9.437311 c 0.184813,0 0.335125,-0.154188 0.335125,-0.34375 v -3.531687 c -0.728687,0 -9.821811,0 -10.107561,0 z M 5.342,22.268116 c 0,0.01381 0.01125,0.02506 0.025063,0.02506 h 2.515874 c 0.039438,0 0.022813,0.201625 0.022813,-3.599938 0,-0.01381 -0.01125,-0.02506 -0.025062,-0.02506 -0.909438,0 -1.605563,0 -2.513625,0 -0.013813,0 -0.025063,0.01125 -0.025063,0.02506 v 3.574875 z M 0.9375,2.093554 v 17.543375 c 0,0.637563 0.518687,1.15625 1.15625,1.15625 h 2.3085 v -2.099938 c 0,-0.53075 0.431813,-0.962562 0.962562,-0.962562 h 0.00225 0.789187 V 0.937304 h -4.0625 c -0.637563,0 -1.15625,0.518688 -1.15625,1.15625 z M 24.90625,0.937304 H 7.09375 v 16.793375 h 0.786938 0.00225 c 0.530751,0 0.962563,0.431812 0.962563,0.962562 v 2.099938 h 14.308938 v -2.099938 c 0,-0.53075 0.431812,-0.962562 0.962563,-0.962562 h 0.789249 V 0.937304 Z"
         style="fill:#252525;fill-opacity:1;fill-rule:nonzero;stroke:none"
         id="path22" /></g></g></svg>
