<?xml version="1.0" encoding="UTF-8" standalone="no"?>
<svg
   xmlns:dc="http://purl.org/dc/elements/1.1/"
   xmlns:cc="http://creativecommons.org/ns#"
   xmlns:rdf="http://www.w3.org/1999/02/22-rdf-syntax-ns#"
   xmlns:svg="http://www.w3.org/2000/svg"
   xmlns="http://www.w3.org/2000/svg"
   version="1.1"
   id="svg2"
   xml:space="preserve"
   width="40"
   height="40"
   viewBox="0 0 42.666668 42.666668"><metadata
     id="metadata8"><rdf:RDF><cc:Work
         rdf:about=""><dc:format>image/svg+xml</dc:format><dc:type
           rdf:resource="http://purl.org/dc/dcmitype/StillImage" /></cc:Work></rdf:RDF></metadata><defs
     id="defs6" /><g
     id="g10"
     transform="matrix(1.3333333,0,0,-1.3333333,0,42.666667)"><g
       id="g12"
       transform="translate(6,23.5)"><path
         d="M 2,0 C 3.1,0 4,0.9 4,2 V 3 C 4,4.1 3.1,5 2,5 0.9,5 0,4.1 0,3 V 2 C 0,0.9 0.9,0 2,0 Z M 1,3 C 1,3.55 1.45,4 2,4 2.55,4 3,3.55 3,3 V 2 C 3,1.45 2.55,1 2,1 1.45,1 1,1.45 1,2 Z"
         style="fill:#252525;fill-opacity:1;fill-rule:nonzero;stroke:none"
         id="path14" /></g><g
       id="g16"
       transform="translate(22.222656,10.456543)"><path
         d="m 8.77732,7.043402 c -2.85,-0.4 -6.35,-3.75 -8.65,-6.05 -0.2,-0.199999 -0.150001,-0.5 0.049999,-0.7 0.3,-0.25 0.600001,-0.050001 0.700001,0.049999 5.1,5.2 7.35,5.700001 7.9,5.700001 0.3,0 0.5,0.2 0.5,0.5 0,0.3 -0.25,0.55 -0.5,0.5 z"
         style="fill:#252525;fill-opacity:1;fill-rule:nonzero;stroke:none"
         id="path18" /></g><g
       id="g20"
       transform="translate(0.53125,0.450195)"><path
         d="m 20.770475,9.699804 c -0.35,-0.399999 -0.849998,-0.649999 -1.349998,-0.649999 -0.700001,0 -1.400002,-0.3 -1.950001,-0.8 l -0.549999,-0.550001 -0.6,8.600001 c 0.35,0.25 0.649999,0.7 0.649999,1.25 0,0.6 -0.35,1.149999 -0.899999,1.35 l -0.1,1.699999 c 0,0.300001 -0.25,0.5 -0.55,0.450001 -0.3,0 -0.5,-0.25 -0.45,-0.55 l 0.1,-1.45 h -2.45 l -3.05,2.299999 c -0.6,0.450001 -1.35,0.700001 -2.1,0.700001 h -2.85 c -0.3,0 -0.5,-0.200001 -0.5,-0.5 0,-0.3 0.2,-0.5 0.5,-0.5 h 0.85 c -0.3,-0.4 -0.5,-0.950001 -0.5,-1.5 v -0.5 h -2 c -0.55,0 -1,0.45 -1,1 0,0.549999 0.45,1 1,1 0.3,0 0.5,0.2 0.5,0.5 0,0.299999 -0.2,0.5 -0.5,0.5 -1.1,0 -2,-0.9 -2,-2 0,-0.600001 0.25,-1.15 0.7,-1.5 -0.45,-0.350001 -0.7,-0.9 -0.7,-1.5 v -2 c 0,-1.100001 0.9,-2 2,-2 h 1.85 l -0.6,-7.3 c 0,-0.25 0.2,-0.500001 0.45,-0.550001 0,0 0.45,-0.049999 0.55,0.450001 l 0.55,6.65 c 0.45,-0.75 2.05,-1.200001 2.05,-1.200001 l -0.7,-7.099999 c -0.05,-0.5 -0.5,-0.900001 -1,-0.900001 -0.3,0 -1,0.25 -1,1.1 0,0.3 -0.2,0.500002 -0.45,0.550001 -0.3,0.05 -0.5,-0.2 -0.55,-0.45 -0.05,-0.450001 0.1,-0.9 0.35,-1.3 -0.35,-0.1 -0.75,-0.2 -1.05,-0.400001 l -3.15,-1.549999 c -0.25,-0.100001 -0.35,-0.4 -0.2,-0.65 0.2,-0.4 0.6,-0.25 0.65,-0.200001 l 3.15,1.550001 c 0.5,0.25 1.05,0.4 1.6,0.4 h 2.2 c 0.65,0 1.3,0.25 1.75,0.75 0.8,0.799999 1.9,1.25 3.05,1.25 1.4,0 2.799999,0.549999 3.749999,1.549999 l 1.950001,1.950001 c 0.299999,0.3 0.75,0.5 1.25,0.5 0.85,0 1.6,0.349999 2.15,1.049999 0.149999,0.2 0.149999,0.550001 -0.100001,0.700001 -0.25,0.05 -0.550001,-1e-6 -0.700001,-0.200001 z M 4.920477,14.049805 h -1.95 c -0.55,0 -1,0.449999 -1,1 v 2 c 0,0.549999 0.45,1 1,1 h 2 z m 3.8,-10.55 c -0.25,-0.25 -0.55,-0.350002 -0.85,-0.400001 0.149999,0.25 0.25,0.500002 0.25,0.800001 l 0.7,6.85 1.2,-0.45 v -4.25 c 0,-0.55 0.2,-1 0.55,-1.4 -0.699999,-0.25 -1.35,-0.65 -1.85,-1.15 z m 4.25,2.55 c 0,-0.600001 -0.549999,-1.100001 -1.15,-1 -0.5,0.1 -0.85,0.549999 -0.85,1.049999 v 4.25 c 0,0.3 -0.2,0.6 -0.5,0.700001 l -3.05,1.2 c -0.45,0.2 -0.85,0.5 -1.1,0.9 0.75,0.2 1.8,0.749999 2.65,1.949999 0,0 -0.15,-1.049999 0.25,-1.049999 l 3.05,-1.55 c 0.4,-0.199999 0.7,-0.65 0.7,-1.1 z m 0.85,-0.8 c 0.100001,0.25 0.15,0.5 0.15,0.8 v 5.45 c 0,0.850001 -0.5,1.600001 -1.25,2 l -2.75,1.349999 v 2.200001 c 0,0 1,-1 2.25,-1 h 3.05 l 0.7,-9.3 c 0,0 -0.799999,-1.2 -2.15,-1.5 z m 1.65,11.8 h -3.25 c -0.4,0 -0.75,0.1 -1.05,0.35 l -2.4,1.799999 c -0.2,0.15 -0.55,0.100001 -0.7,-0.1 -0.15,-0.199999 -0.1,-0.549999 0.1,-0.699999 l 0.8,-0.6 c 0,0 -0.599999,-2.95 -3,-3.65 0,0.1 0,5.4 0,5.4 0,0.85 0.65,1.5 1.5,1.5 0.55,0 1.05,-0.15 1.5,-0.5 l 3.35,-2.5 h 3.15 c 0.3,0 0.5,-0.200001 0.5,-0.5 0,-0.3 -0.2,-0.5 -0.5,-0.5 z"
         style="fill:#252525;fill-opacity:1;fill-rule:nonzero;stroke:none"
         id="path22" /></g><g
       id="g24"
       transform="translate(19.5,26.5)"><path
         d="m 1.5,0 h 5 C 7.35,0 8,0.65 8,1.5 8,2.15 7.550001,2.75 6.950001,2.95 6.750001,4.1 5.75,5 4.5,5 3.6,5 2.749999,4.5 2.299999,3.7 2.149999,3.45 2.25,3.15 2.5,3 2.75,2.85 3.050001,2.95 3.200001,3.2 3.450001,3.7 3.95,4 4.5,4 5.35,4 6,3.35 6,2.5 6,2.2 6.2,2 6.5,2 6.8,2 7,1.8 7,1.5 7,1.2 6.8,1 6.5,1 h -5 C 1.2,1 1,1.2 1,1.5 1,1.8 1.2,2 1.5,2 1.8,2 2,2.2 2,2.5 2,2.8 1.8,3 1.5,3 0.65,3 0,2.35 0,1.5 0,0.65 0.65,0 1.5,0 Z"
         style="fill:#252525;fill-opacity:1;fill-rule:nonzero;stroke:none"
         id="path26" /></g><g
       id="g28"
       transform="translate(23.824219,24.431152)"><path
         d="m 4.62732,4.018677 c 0.65,-0.25 1.05,-0.8 1.05,-1.45 0,-0.3 0.199999,-0.5 0.5,-0.5 0.3,0 0.5,-0.2 0.5,-0.5 0,-0.3 -0.2,-0.5 -0.5,-0.5 H 1.177319 c -0.15,0 -0.25,0.05 -0.35,0.15 -0.2,0.2 -0.499999,0.2 -0.699999,-0.05 -0.2,-0.2 -0.150001,-0.5 0.049999,-0.7 0.3,-0.25 0.65,-0.4 1,-0.4 H 6.17732 c 0.849999,0 1.5,0.65 1.5,1.5 0,0.65 -0.45,1.25 -1.05,1.45 -0.15,0.9 -0.8,1.65 -1.7,1.95 -0.25,0.1 -0.55,-0.05 -0.65,-0.3 -0.05,-0.3 0.1,-0.6 0.35,-0.65 z"
         style="fill:#252525;fill-opacity:1;fill-rule:nonzero;stroke:none"
         id="path30" /></g><g
       id="g32"
       transform="translate(3.5,15.5)"><path
         d="M 0,0.5 C 0,0.2 0.2,0 0.5,0 0.8,0 1,0.2 1,0.5 v 1 C 1,1.8 0.8,2 0.5,2 0.2,2 0,1.8 0,1.5 Z"
         style="fill:#252525;fill-opacity:1;fill-rule:nonzero;stroke:none"
         id="path34" /></g></g></svg>
