<?xml version="1.0" encoding="UTF-8" standalone="no"?>
<svg
   xmlns:dc="http://purl.org/dc/elements/1.1/"
   xmlns:cc="http://creativecommons.org/ns#"
   xmlns:rdf="http://www.w3.org/1999/02/22-rdf-syntax-ns#"
   xmlns:svg="http://www.w3.org/2000/svg"
   xmlns="http://www.w3.org/2000/svg"
   version="1.1"
   id="svg2"
   xml:space="preserve"
   width="15"
   height="15"
   viewBox="0 0 40.002605 26.254557"><metadata
     id="metadata8"><rdf:RDF><cc:Work
         rdf:about=""><dc:format>image/svg+xml</dc:format><dc:type
           rdf:resource="http://purl.org/dc/dcmitype/StillImage" /></cc:Work></rdf:RDF></metadata><defs
     id="defs6" /><g
     id="g10"
     transform="matrix(1.3333333,0,0,-1.3333333,0,26.254557)"><g
       id="g12"
       transform="matrix(-1,0,0,1,9.029297,12.34082)"><path
         d="M 0.042995,1.064198 C 0.016345,1.004154 0.001786,0.939447 1.54e-4,0.873775 -0.001478,0.808104 0.009848,0.742754 0.033483,0.681461 0.057118,0.620168 0.092599,0.564132 0.137899,0.516558 0.1832,0.468983 0.237432,0.430804 0.297495,0.404198 0.935887,0.121663 1.633786,-1.33e-4 2.330141,0.049463 3.026496,0.09906 3.700089,0.318536 4.291994,0.688696 c 0.521042,0.323059 1.121934,0.494228 1.735001,0.494228 0.613067,0 1.213958,-0.171169 1.735,-0.494228 l 0.5,-0.3125 C 8.374712,0.305914 8.510731,0.283288 8.640131,0.313293 c 0.1294,0.030006 0.241581,0.110188 0.311863,0.222905 0.070282,0.112717 0.09291,0.248735 0.062904,0.378135 -0.030005,0.1294 -0.110187,0.241581 -0.222904,0.311863 l -0.5,0.312501 C 7.611718,1.960252 6.827297,2.183594 6.026995,2.183594 c -0.800302,0 -1.584724,-0.223342 -2.265,-0.644897 C 3.308856,1.254844 2.792962,1.08657 2.259605,1.048647 1.726248,1.010724 1.191738,1.104314 0.702995,1.321198 0.6428,1.34777 0.57795,1.362201 0.512167,1.363661 0.446383,1.365121 0.38096,1.353582 0.319645,1.329706 0.25833,1.30583 0.202329,1.270087 0.154856,1.224525 0.107382,1.178964 0.06937,1.12448 0.042995,1.064198 Z"
         style="fill:#252525;fill-opacity:1;fill-rule:nonzero;stroke:none"
         id="path14" /></g><g
       id="g16"
       transform="matrix(-1,0,0,1,30.001953,9.722168)"><path
         d="m 5.765851,1.656758 c -0.680276,0.421555 -1.464698,0.644898 -2.265,0.644898 -0.800302,0 -1.584724,-0.223343 -2.265,-0.644898 l -1,-0.625 C 0.123134,0.961476 0.042953,0.849296 0.012947,0.719895 -0.017059,0.590495 0.005569,0.454474 0.075851,0.341758 0.146133,0.229041 0.258314,0.148861 0.387714,0.118855 0.517114,0.08885 0.653134,0.111476 0.765851,0.181758 l 1,0.625 c 0.521042,0.323059 1.121933,0.494228 1.735,0.494228 0.613067,0 1.213958,-0.171169 1.735,-0.494228 0.680276,-0.421555 1.464698,-0.644898 2.265,-0.644898 0.800302,0 1.584724,0.223343 2.265,0.644898 0.521042,0.323059 1.121932,0.494228 1.735,0.494228 0.613067,0 1.213957,-0.171169 1.734999,-0.494228 0.680276,-0.421555 1.464698,-0.644898 2.265001,-0.644898 0.800302,0 1.584724,0.223343 2.264999,0.644898 0.521042,0.323059 1.121933,0.494228 1.735001,0.494228 0.613067,0 1.213958,-0.171169 1.735,-0.494228 0.710463,-0.444799 1.536043,-0.670842 2.373999,-0.65 0.06566,8.54e-4 0.13051,0.014633 0.190847,0.040549 0.06034,0.025916 0.114977,0.063461 0.160803,0.110494 0.04583,0.047034 0.08194,0.102631 0.106278,0.16362 0.02434,0.06099 0.03643,0.126177 0.03557,0.191838 -8.55e-4,0.06566 -0.01463,0.130511 -0.04055,0.190847 -0.02591,0.060336 -0.06346,0.114977 -0.110494,0.160803 -0.04703,0.045826 -0.102633,0.081939 -0.163622,0.106277 -0.06099,0.024339 -0.126175,0.036426 -0.191836,0.035572 h -0.0125 c -0.641873,-0.017519 -1.274586,0.155229 -1.818501,0.4965 -0.568232,0.350401 -1.210243,0.563685 -1.875189,0.622959 -0.664945,0.059275 -1.33456,-0.03709 -1.95581,-0.281459 l -3.05,3.050001 1.566,0.6705 2.411,-1.4465 c 0.348268,-0.212251 0.765985,-0.279179 1.163133,-0.186361 0.397148,0.092819 0.741932,0.337953 0.960051,0.682577 0.218119,0.344623 0.292112,0.761147 0.206034,1.15981 -0.08608,0.398662 -0.325339,0.747548 -0.666218,0.971473 l -2.544001,1.696 C 17.648006,8.81394 17.26689,8.952641 16.869419,8.996746 16.471949,9.040852 16.069696,8.989077 15.69635,8.845758 L 12.461851,7.601759 c -0.107953,-0.041649 -0.212873,-0.090768 -0.314,-0.147 -0.05776,-0.031661 -0.108701,-0.074423 -0.149886,-0.125829 -0.04119,-0.051406 -0.07181,-0.110445 -0.09011,-0.173722 -0.0183,-0.063278 -0.02392,-0.129547 -0.01653,-0.195001 0.0074,-0.065454 0.02764,-0.128804 0.05959,-0.186408 0.03195,-0.057604 0.07496,-0.108328 0.126573,-0.149258 0.05161,-0.04093 0.1108,-0.071257 0.174167,-0.089242 0.06337,-0.017984 0.129665,-0.02327 0.195082,-0.015555 0.06542,0.00772 0.128664,0.028281 0.186109,0.060514 0.06076,0.033718 0.123743,0.063286 0.1885,0.0885 l 3.229499,1.2435 c 0.223858,0.086495 0.4652,0.118015 0.703762,0.091914 0.238562,-0.0261 0.46738,-0.109061 0.667238,-0.241913 l 2.544001,-1.696001 c 0.11862,-0.081324 0.201074,-0.205485 0.23002,-0.346363 0.02895,-0.140877 0.0021,-0.287491 -0.07482,-0.408998 C 20.044104,5.18939 19.923033,5.102463 19.783304,5.0684 19.643576,5.034338 19.496082,5.055795 19.371851,5.128259 l -2.630501,1.578 c -0.06783,0.040713 -0.144344,0.064752 -0.223268,0.070142 -0.07892,0.00539 -0.157999,-0.00803 -0.23073,-0.039142 L 13.81235,5.676258 C 13.737277,5.644054 13.671239,5.593948 13.620009,5.53032 13.56878,5.466692 13.533919,5.391481 13.518478,5.311265 13.503037,5.231049 13.507484,5.148272 13.531432,5.070172 13.55538,4.992073 13.598098,4.921031 13.65585,4.863258 L 16.989851,1.529759 C 16.486383,1.272183 15.925019,1.148736 15.35994,1.171332 14.79486,1.193929 14.245144,1.361805 13.76385,1.658759 13.083574,2.080314 12.299153,2.303657 11.498851,2.303657 10.698548,2.303657 9.914126,2.080314 9.23385,1.658759 8.611815,1.2744 7.879226,1.108805 7.152351,1.188258 l 2.260499,2.261 c 0.093736,0.093764 0.146394,0.220918 0.146394,0.3535 0,0.132582 -0.052658,0.259737 -0.146394,0.353501 l -0.122499,0.123 c 0.663228,0.319466 1.185457,0.872153 1.466855,1.552407 0.281398,0.680254 0.302224,1.440354 0.0585,2.134996 C 10.57198,8.661304 10.080798,9.241758 9.436058,9.597062 8.791315,9.952366 8.038246,10.057593 7.320808,9.89263 6.60337,9.727666 5.971892,9.304084 5.547091,8.702856 5.12229,8.101629 4.933966,7.364933 5.01812,6.6336 5.102273,5.902267 5.453002,5.2276 6.003258,4.738571 6.553514,4.249543 7.264695,3.980458 8.000851,3.982759 c 0.055,0 0.109,0.005 0.1635,0.008 L 8.24785,3.907758 C 7.767186,3.707216 7.245335,3.625243 6.726335,3.668754 6.207334,3.712265 5.706415,3.879985 5.265851,4.157759 c -0.680276,0.421554 -1.464698,0.644897 -2.265,0.644897 -0.800302,0 -1.584724,-0.223343 -2.265,-0.644897 l -0.5,-0.312501 C 0.180039,3.810457 0.131628,3.765005 0.093382,3.711495 0.055137,3.657986 0.027805,3.597467 0.012947,3.533395 -0.00191,3.469322 -0.004002,3.402952 0.006791,3.338071 0.017584,3.27319 0.041051,3.211071 0.075851,3.155259 0.110651,3.099447 0.156104,3.051035 0.209613,3.01279 0.263123,2.974544 0.323641,2.947212 0.387714,2.932355 0.451786,2.917498 0.518158,2.915405 0.583039,2.926198 c 0.064881,0.010793 0.127,0.034261 0.182812,0.069061 l 0.5,0.3125 c 0.521042,0.323059 1.121933,0.494227 1.735,0.494227 0.613067,0 1.213958,-0.171168 1.735,-0.494227 0.678591,-0.426229 1.463653,-0.652389 2.265,-0.6525 0.074,0 0.147501,0.0075 0.221501,0.0115 l -1.165501,-1.164 c -0.098499,0.0485 -0.197,0.095499 -0.291,0.153999 z m 2.235,7.326001 C 8.263485,8.983183 8.523622,8.931772 8.76635,8.831471 9.009078,8.731172 9.229626,8.583955 9.415351,8.398258 9.470919,8.337725 9.522842,8.273947 9.57085,8.207258 8.323116,8.237477 7.093086,7.907664 6.027851,7.257258 6.089578,7.736062 6.324237,8.175776 6.687635,8.493587 7.051033,8.811399 7.518092,8.985379 8.000851,8.982759 Z m -1.8155,-2.823 c 1.096284,0.796259 2.448435,1.158697 3.796,1.017499 C 10.032505,6.705463 9.913242,6.230929 9.645108,5.839379 9.376974,5.447829 8.97765,5.165082 8.519271,5.042216 8.060892,4.91935 7.573685,4.964466 7.145663,5.169415 6.71764,5.374363 6.377026,5.72563 6.185351,6.159759 Z"
         style="fill:#252525;fill-opacity:1;fill-rule:nonzero;stroke:none"
         id="path18" /></g><g
       id="g20"
       transform="matrix(-1,0,0,1,5.001953,10.436035)"><path
         d="M 4.76585,0.942993 C 4.085574,1.364548 3.301153,1.587891 2.500851,1.587891 c -0.800302,0 -1.584724,-0.223343 -2.265,-0.644898 C 0.123134,0.872711 0.042953,0.76053 0.012947,0.63113 -0.017059,0.50173 0.005569,0.36571 0.075852,0.252993 0.146134,0.140276 0.258314,0.060096 0.387715,0.03009 0.517115,8.5e-5 0.653133,0.02271 0.76585,0.092993 c 0.521042,0.323059 1.121933,0.494228 1.735001,0.494228 0.613067,0 1.213959,-0.171169 1.735,-0.494228 C 4.348568,0.02271 4.484587,8.5e-5 4.613987,0.03009 4.743387,0.060096 4.855567,0.140276 4.92585,0.252993 4.996132,0.36571 5.01876,0.50173 4.988754,0.63113 4.958748,0.76053 4.878567,0.872711 4.76585,0.942993 Z"
         style="fill:#252525;fill-opacity:1;fill-rule:nonzero;stroke:none"
         id="path22" /></g><g
       id="g24"
       transform="matrix(-1,0,0,1,30.001953,6.998535)"><path
         d="m 6.265851,1.880493 c -0.680276,0.421555 -1.464698,0.644898 -2.265,0.644898 -0.800302,0 -1.584724,-0.223343 -2.265,-0.644898 l -1.5,-0.9375 C 0.123134,0.872711 0.042953,0.76053 0.012947,0.63113 -0.017059,0.50173 0.005569,0.36571 0.075851,0.252993 0.146133,0.140276 0.258314,0.060096 0.387714,0.03009 0.517114,8.4e-5 0.653134,0.02271 0.765851,0.092993 l 1.5,0.9375 c 0.521042,0.323059 1.121933,0.494228 1.735,0.494228 0.613067,0 1.213958,-0.171169 1.735,-0.494228 C 5.848568,0.96021 5.984588,0.937585 6.113988,0.96759 6.243389,0.997596 6.355569,1.077776 6.425851,1.190493 6.496134,1.30321 6.518761,1.43923 6.488755,1.56863 6.458749,1.69803 6.378568,1.810211 6.265851,1.880493 Z"
         style="fill:#252525;fill-opacity:1;fill-rule:nonzero;stroke:none"
         id="path26" /></g><g
       id="g28"
       transform="matrix(-1,0,0,1,22.630859,7.341309)"><path
         d="m 10.895047,0.689805 c 0.521042,0.323059 1.121933,0.494227 1.735001,0.494227 0.613067,0 1.213959,-0.171168 1.735,-0.494227 0.680276,-0.421554 1.464698,-0.644897 2.265001,-0.644897 0.800302,0 1.584722,0.223343 2.264999,0.644897 0.449894,0.280408 0.961186,0.447303 1.489874,0.486323 0.528688,0.03902 1.058939,-0.051004 1.545126,-0.262324 0.121,-0.048917 0.256332,-0.048582 0.37709,9.31e-4 0.120758,0.049514 0.217368,0.144281 0.269198,0.264063 0.05183,0.119782 0.05477,0.255083 0.0082,0.377003 -0.04658,0.12192 -0.138983,0.220794 -0.257477,0.275505 C 21.691936,2.107048 20.9993,2.224228 20.308826,2.17275 19.618353,2.121271 18.950752,1.902678 18.363548,1.535806 17.842426,1.212969 17.241568,1.041931 16.62855,1.041931 c -0.613018,0 -1.21388,0.171038 -1.735002,0.493875 -0.680276,0.421555 -1.464697,0.644898 -2.264999,0.644898 -0.800303,0 -1.584726,-0.223343 -2.265002,-0.644898 C 9.842425,1.212969 9.241567,1.041931 8.628549,1.041931 c -0.613018,0 -1.213879,0.171038 -1.735001,0.493875 -0.680275,0.421555 -1.464698,0.644898 -2.265,0.644898 -0.800302,0 -1.584725,-0.223343 -2.265,-0.644898 C 1.810566,1.192155 1.168288,1.019755 0.517548,1.040305 0.38494,1.044881 0.255946,0.99659 0.158942,0.906057 0.061939,0.815524 0.004873,0.690164 2.98e-4,0.557556 -0.004277,0.424947 0.044014,0.295952 0.134547,0.198949 0.225081,0.101946 0.35044,0.044881 0.483048,0.040306 c 0.05,0 0.1,0 0.15,0 0.800302,-5.21e-4 1.584511,0.224777 2.2625,0.649999 0.521042,0.323059 1.121933,0.494227 1.735,0.494227 0.613067,0 1.213959,-0.171168 1.735001,-0.494227 0.680173,-0.42153 1.464476,-0.644904 2.264678,-0.644993 0.800202,-8.8e-5 1.584554,0.223113 2.26482,0.644493 z"
         style="fill:#252525;fill-opacity:1;fill-rule:nonzero;stroke:none"
         id="path30" /></g><g
       id="g32"
       transform="matrix(-1,0,0,1,15.806641,-0.00293)"><path
         d="m 14.454661,5.87089 -4.0205,0.730999 C 10.369551,6.613676 10.303251,6.61262 10.239049,6.598784 10.174847,6.584948 10.113998,6.558603 10.059978,6.52125 10.005957,6.483898 9.959823,6.436271 9.924209,6.381089 9.888595,6.325907 9.864199,6.264251 9.852412,6.199641 9.840626,6.135031 9.841681,6.068731 9.855517,6.004529 9.869353,5.940326 9.8957,5.879478 9.933053,5.825457 c 0.037353,-0.05402 0.084978,-0.100156 0.14016,-0.135771 0.05518,-0.035614 0.116839,-0.06001 0.18145,-0.071796 l 4.019998,-0.730999 c 0.148627,-0.026831 0.283114,-0.105008 0.37998,-0.220882 0.09687,-0.115875 0.149963,-0.262089 0.150021,-0.413118 v -0.226 C 14.804646,3.934616 14.784816,3.843421 14.746512,3.759473 14.708209,3.675524 14.652327,3.600779 14.582643,3.540292 14.512959,3.479804 14.431099,3.434986 14.342599,3.408866 14.254099,3.382746 14.161021,3.375933 14.069661,3.38889 L 9.408662,4.053391 C 9.19695,4.083919 8.99414,4.159077 8.813663,4.27389 L 4.073661,7.299889 C 3.998086,7.348124 3.910933,7.375152 3.821327,7.37814 3.73172,7.381128 3.642959,7.359967 3.564338,7.316874 3.485718,7.273781 3.42013,7.210342 3.374444,7.133198 3.328759,7.056055 3.304657,6.968046 3.304662,6.87839 V 4.85789 C 3.304679,4.567806 3.388809,4.283951 3.546861,4.040706 3.704913,3.79746 3.930104,3.60526 4.195161,3.487389 l 2.812001,-1.25 C 7.162755,2.170581 7.285777,2.04518 7.349592,1.888335 7.413407,1.73149 7.41288,1.555823 7.348127,1.399363 7.283373,1.242903 7.159603,1.11824 7.003612,1.052365 6.847621,0.98649 6.671961,0.984703 6.514661,1.04739 l -4.066499,1.564 C 2.098036,2.747402 1.792989,2.978731 1.567564,3.279181 1.342138,3.579631 1.20534,3.937199 1.172662,4.311391 l -0.174,2.090999 C 0.993832,6.468292 0.975988,6.532584 0.946159,6.591547 0.91633,6.650511 0.875109,6.702976 0.82488,6.745911 0.774651,6.788847 0.716408,6.8214 0.653521,6.841689 0.590634,6.861978 0.524348,6.8696 0.458497,6.864115 0.392646,6.858631 0.328536,6.840148 0.269872,6.809735 0.211208,6.779322 0.159154,6.737582 0.11672,6.686928 0.074286,6.636275 0.042313,6.577712 0.02265,6.514626 0.002987,6.45154 -0.003977,6.385183 0.002162,6.31939 l 0.174,-2.090999 C 0.225143,3.667197 0.430238,3.130918 0.768235,2.680256 1.106231,2.229595 1.563631,1.882546 2.088663,1.678391 l 4.066,-1.564501 C 6.344342,0.040734 6.545864,0.003107 6.749162,0.00289 7.126466,0.003023 7.492257,0.132854 7.785217,0.370619 8.078176,0.608385 8.280496,0.939632 8.358262,1.308835 8.436028,1.678037 8.384516,2.062751 8.212356,2.398488 8.040195,2.734224 7.757854,3.000574 7.412662,3.15289 l -2.812,1.25 C 4.51275,4.442176 4.438052,4.506012 4.385543,4.586726 4.333035,4.66744 4.30495,4.7616 4.304662,4.85789 V 5.966389 L 8.274661,3.43139 C 8.575866,3.239787 8.914336,3.114352 9.267661,3.063389 L 13.928662,2.39889 c 0.233178,-0.033238 0.470776,-0.015984 0.696705,0.050594 0.225929,0.066578 0.434916,0.180926 0.612806,0.335301 0.177891,0.154374 0.320534,0.345171 0.418271,0.559471 0.09774,0.2143 0.148283,0.447099 0.148218,0.682635 v 0.226 c 2e-5,0.38508 -0.135098,0.757956 -0.3818,1.053634 -0.246702,0.295677 -0.589345,0.495404 -0.968201,0.564365 z"
         style="fill:#252525;fill-opacity:1;fill-rule:nonzero;stroke:none"
         id="path34" /></g><g
       id="g36"
       transform="matrix(-1,0,0,1,28.001953,0.675781)"><path
         d="M 1.500001,3.029297 C 1.203329,3.029297 0.913319,2.941323 0.666645,2.776501 0.419971,2.611679 0.227713,2.37741 0.114181,2.103321 6.5e-4,1.829232 -0.029055,1.527633 0.028823,1.236662 0.086701,0.94569 0.229562,0.678416 0.43934,0.468637 0.649119,0.258859 0.916394,0.115997 1.207365,0.058119 1.498337,2.41e-4 1.799937,0.029947 2.074026,0.143478 2.348115,0.25701 2.582383,0.449268 2.747205,0.695942 2.912027,0.942616 3,1.232625 3,1.529297 3,1.927122 2.841965,2.308652 2.560661,2.589956 2.279356,2.871261 1.897825,3.029297 1.500001,3.029297 Z m 0,-2 C 1.40111,1.029297 1.30444,1.058621 1.222215,1.113562 1.139991,1.168502 1.075905,1.246592 1.038061,1.337955 1.000217,1.429319 0.990315,1.529852 1.009608,1.626842 1.028901,1.723833 1.076521,1.812924 1.146447,1.882851 1.216374,1.952777 1.305465,2.000397 1.402455,2.01969 1.499446,2.038982 1.599979,2.029079 1.691342,1.991236 1.782706,1.953392 1.860795,1.889306 1.915735,1.807081 1.970676,1.724857 2,1.628188 2,1.529297 2,1.396689 1.947322,1.269511 1.853554,1.175743 1.759786,1.081975 1.632609,1.029297 1.500001,1.029297 Z"
         style="fill:#252525;fill-opacity:1;fill-rule:nonzero;stroke:none"
         id="path38" /></g><g
       id="g40"
       transform="matrix(-1,0,0,1,20.001953,4.175781)"><path
         d="M 1.500001,3.029297 C 1.203329,3.029297 0.91332,2.941323 0.666646,2.776501 0.419972,2.611679 0.227713,2.37741 0.114181,2.103321 6.5e-4,1.829232 -0.029055,1.527633 0.028823,1.236662 0.086701,0.94569 0.229562,0.678416 0.43934,0.468637 0.649119,0.258859 0.916393,0.115997 1.207365,0.058119 1.498336,2.41e-4 1.799937,0.029947 2.074026,0.143478 c 0.274089,0.113532 0.508357,0.30579 0.673179,0.552464 0.164823,0.246674 0.252796,0.536683 0.252796,0.833355 0,0.397825 -0.158035,0.779355 -0.43934,1.060659 -0.281305,0.281305 -0.662835,0.439341 -1.06066,0.439341 z m 0,-2 C 1.40111,1.029297 1.30444,1.058621 1.222216,1.113562 1.139991,1.168502 1.075905,1.246592 1.038061,1.337955 1.000217,1.429319 0.990316,1.529852 1.009608,1.626842 1.028901,1.723833 1.076521,1.812924 1.146447,1.882851 1.216373,1.952777 1.305465,2.000397 1.402455,2.01969 1.499446,2.038982 1.599979,2.029079 1.691342,1.991236 1.782705,1.953392 1.860795,1.889306 1.915736,1.807081 1.970677,1.724857 2.000001,1.628188 2.000001,1.529297 2.000001,1.396689 1.947323,1.269511 1.853555,1.175743 1.759786,1.081975 1.632609,1.029297 1.500001,1.029297 Z"
         style="fill:#252525;fill-opacity:1;fill-rule:nonzero;stroke:none"
         id="path42" /></g><g
       id="g44"
       transform="matrix(-1,0,0,1,23.001953,0.705078)"><path
         d="M 0.5,0 C 0.776142,0 1,0.223858 1,0.5 1,0.776142 0.776142,1 0.5,1 0.223858,1 0,0.776142 0,0.5 0,0.223858 0.223858,0 0.5,0 Z"
         style="fill:#252525;fill-opacity:1;fill-rule:nonzero;stroke:none"
         id="path46" /></g><g
       id="g48"
       transform="matrix(-1,0,0,1,18.501953,1.205078)"><path
         d="M 0.5,0 C 0.776142,0 1,0.223858 1,0.5 1,0.776142 0.776142,1 0.5,1 0.223858,1 0,0.776142 0,0.5 0,0.223858 0.223858,0 0.5,0 Z"
         style="fill:#252525;fill-opacity:1;fill-rule:nonzero;stroke:none"
         id="path50" /></g><g
       id="g52"
       transform="matrix(-1,0,0,1,23.501953,4.205078)"><path
         d="M 0.5,0 C 0.776142,0 1,0.223858 1,0.5 1,0.776142 0.776142,1 0.5,1 0.223858,1 0,0.776142 0,0.5 0,0.223858 0.223858,0 0.5,0 Z"
         style="fill:#252525;fill-opacity:1;fill-rule:nonzero;stroke:none"
         id="path54" /></g><g
       id="g56"
       transform="matrix(-1,0,0,1,4.501953,0.705078)"><path
         d="M 0.5,0 C 0.776142,0 1,0.223858 1,0.5 1,0.776142 0.776142,1 0.5,1 0.223858,1 0,0.776142 0,0.5 0,0.223858 0.223858,0 0.5,0 Z"
         style="fill:#252525;fill-opacity:1;fill-rule:nonzero;stroke:none"
         id="path58" /></g><g
       id="g60"
       transform="matrix(-1,0,0,1,27.501953,5.705078)"><path
         d="M 0.5,0 C 0.776142,0 1,0.223858 1,0.5 1,0.776142 0.776142,1 0.5,1 0.223858,1 0,0.776142 0,0.5 0,0.223858 0.223858,0 0.5,0 Z"
         style="fill:#252525;fill-opacity:1;fill-rule:nonzero;stroke:none"
         id="path62" /></g></g></svg>
