<?xml version="1.0" encoding="UTF-8" standalone="no"?>
<svg
   xmlns:dc="http://purl.org/dc/elements/1.1/"
   xmlns:cc="http://creativecommons.org/ns#"
   xmlns:rdf="http://www.w3.org/1999/02/22-rdf-syntax-ns#"
   xmlns:svg="http://www.w3.org/2000/svg"
   xmlns="http://www.w3.org/2000/svg"
   version="1.1"
   id="svg2"
   xml:space="preserve"
   width="15"
   height="15"
   viewBox="0 0 42.666668 42.666668"><metadata
     id="metadata8"><rdf:RDF><cc:Work
         rdf:about=""><dc:format>image/svg+xml</dc:format><dc:type
           rdf:resource="http://purl.org/dc/dcmitype/StillImage" /></cc:Work></rdf:RDF></metadata><defs
     id="defs6" /><g
     id="g10"
     transform="matrix(1.3333333,0,0,-1.3333333,0,42.666667)"><g
       id="g12"
       transform="translate(0,-0.245605)"><path
         d="M 31.429438,32.231892 C 25.2225,31.008455 19.732748,28.504829 15.112561,24.790268 11.587998,21.956642 8.575937,18.430832 6.154562,14.306519 5.365812,14.521082 4.465499,14.127455 4.091937,13.395267 c -0.339,-0.636875 -0.6675,-1.291875 -0.976375,-1.946937 -0.110625,-0.234562 -0.010125,-0.514437 0.2245,-0.625 0.234563,-0.110563 0.5145,-0.01012 0.625063,0.224501 0.302437,0.641374 0.624062,1.282686 0.955937,1.906187 0.215,0.424875 0.782187,0.598312 1.197813,0.365688 C 6.55,13.09008 6.713999,12.552332 6.484437,12.120956 3.545437,6.598894 2.705625,1.965332 2.6975,1.919207 2.6175,1.440582 2.147749,1.111893 1.672187,1.199768 1.191687,1.284018 0.868874,1.743519 0.952624,2.224081 0.974062,2.347269 1.497249,5.288143 3.207187,9.348581 3.307874,9.587645 3.195687,9.862957 2.956625,9.963644 2.717499,10.064331 2.442125,9.952082 2.3415,9.713081 0.590625,5.555393 0.049437,2.512581 0.027249,2.385206 -0.145313,1.395081 0.519812,0.448332 1.509749,0.274706 2.489499,0.09433 3.458124,0.771206 3.622499,1.755644 3.628875,1.791206 4.149,4.625832 5.780062,8.464706 6.197437,7.636019 7.055686,7.066019 8.044936,7.066019 c 0.272062,0 0.534063,0.043625 0.779938,0.123312 L 9.263686,6.384394 C 9.173436,6.23908 9.120437,6.068331 9.120437,5.885017 c 0,-0.524063 0.426312,-0.950437 0.950374,-0.950437 0.524,0 0.950376,0.426374 0.950376,0.950437 0,0.51825 -0.417063,0.940253 -0.933126,0.949564 l -0.439,0.805312 c 0.567688,0.465313 0.930625,1.171688 0.930625,1.961376 0,1.397938 -1.137062,2.535312 -2.53475,2.535312 -0.199,0 -0.392562,-0.02344 -0.578437,-0.067 0.169063,0.637562 -0.023437,1.319874 -0.493,1.776625 2.361938,4.019251 5.296624,7.453562 8.727687,10.212126 3.96675,3.189125 8.59575,5.462312 13.784751,6.774187 -1.015562,-0.788 -2.33675,-1.861626 -3.60675,-3.037751 -1.523001,-1.410499 -2.679749,-2.69425 -3.438061,-3.815687 -1.014437,-1.500189 -1.33544,-2.756 -0.954189,-3.732563 0.684249,-1.752687 2.622938,-1.601812 4.180688,-1.480751 1.454813,0.11319 2.357438,0.134064 2.622937,-0.52906 0.353313,-0.882126 -1.142435,-2.664 -2.063874,-3.540875 -1.031187,0.186814 -5.001188,0.707751 -8.265937,-1.580249 -0.253188,-0.177437 -0.491188,-0.375126 -0.713625,-0.590064 -0.827999,0.123188 -1.892189,0.143063 -2.693815,-0.325061 -0.488624,-0.285313 -0.781749,-0.859564 -0.825499,-1.616877 -0.061,-1.056625 0.383375,-2.501249 1.500562,-3.44775 0.07888,-1.663313 0.69975,-3.233749 1.75,-4.349938 0.178,-0.189188 0.475314,-0.197685 0.663876,-0.020248 0.188938,0.177687 0.198,0.474873 0.02025,0.663811 -1.104499,1.173876 -1.653499,2.950813 -1.468437,4.753313 0.179062,1.744625 1.019501,3.262251 2.30575,4.163689 0.50425,0.353437 1.031311,0.6315 1.562937,0.849874 0.129375,-1.904688 0.933311,-3.375124 2.356375,-4.313499 C 22.116249,8.709332 21.804813,8.542892 21.488501,8.374268 21.277813,8.261892 21.059938,8.145769 20.847063,8.028269 20.829626,8.018644 20.812437,8.009018 20.79475,7.998955 19.768625,7.413267 19.298563,6.258892 19.625063,5.126392 c 0.329063,-1.141374 1.348812,-1.873561 2.539562,-1.823499 0.449499,0.019125 0.872189,0.10675 1.256251,0.260439 0.125499,0.050188 0.223936,0.153812 0.268999,0.28125 0.02119,0.059812 0.455501,1.246749 1.669063,1.722936 C 25.175188,4.969456 25.016939,4.134207 25.177376,3.291206 25.321814,2.532581 25.966936,1.751205 26.454124,1.252331 25.871687,1.113331 24.9445,1.120644 24.014626,2.069956 23.881376,2.206018 23.6775,2.247456 23.500999,2.175894 23.490124,2.171518 22.395937,1.738768 20.699312,1.940893 20.101437,2.012081 19.542749,2.172205 19.03875,2.416643 18.805437,2.529768 18.524376,2.432394 18.411188,2.199081 18.298,1.965769 18.395374,1.684832 18.62875,1.571581 c 0.598249,-0.290188 1.257501,-0.479687 1.959438,-0.563313 1.425375,-0.169874 2.481625,0.054875 2.970562,0.197937 0.800062,-0.720249 1.635937,-0.958749 2.358563,-0.958686 0.70125,6.2e-5 1.295875,0.224687 1.647188,0.451686 0.261688,0.159438 0.286812,0.56325 0.04713,0.754 -0.373625,0.314125 -1.373377,1.288187 -1.511502,2.0135 -0.233625,1.227125 0.428063,2.522251 0.434376,2.534376 0.176813,0.312876 -0.09919,0.727749 -0.455875,0.68575 C 24.054125,6.514769 23.159374,4.957644 22.892187,4.371206 22.654749,4.296455 22.397375,4.252768 22.124563,4.241205 21.199125,4.202456 20.686998,4.83358 20.527624,5.386456 c -0.157438,0.546062 -0.05994,1.344249 0.732189,1.796375 l 0.04112,0.023062 c 0.206937,0.114187 0.421812,0.22875 0.629499,0.3395 1.227249,0.654312 2.496313,1.330875 3.457064,2.58275 0.157875,0.20575 0.119123,0.500563 -0.08669,0.658438 -0.205813,0.157875 -0.500624,0.119125 -0.658562,-0.08669 -0.389063,-0.506937 -0.840937,-0.907188 -1.332312,-1.254938 -1.484125,0.797312 -2.264251,2.165064 -2.322626,4.072563 2.057562,0.594563 4.028439,0.410624 4.861689,0.286249 -0.08375,-0.575437 -0.211876,-1.103937 -0.382313,-1.575937 -0.08806,-0.243939 0.03825,-0.513126 0.28225,-0.601189 0.243999,-0.08819 0.513187,0.03825 0.601249,0.282252 0.220812,0.611499 0.376814,1.301937 0.466126,2.052999 0.250437,0.237125 0.81275,0.792439 1.336187,1.469126 0.993939,1.284874 1.333687,2.346248 1.009937,3.154623 -0.541313,1.351625 -2.149187,1.226625 -3.567812,1.116312 -1.692625,-0.131624 -2.831874,-0.141062 -3.232812,0.885939 -0.285626,0.731624 -0.126378,2.5505 4.149374,6.511875 2.462562,2.2815 5.125877,4.173624 5.281751,4.283811 0.0335,0.02388 0.06419,0.04969 0.09081,0.08088 0.300625,0.321188 -0.02869,0.875312 -0.454313,0.767437 v 0 z M 8.044936,11.19733 c 0.879687,0 1.595375,-0.715999 1.595375,-1.596061 0,-0.432688 -0.173249,-0.825438 -0.453624,-1.113188 L 8.457312,9.826017 C 8.333124,10.053768 8.047937,10.137768 7.820125,10.013643 7.592375,9.889519 7.508375,9.604269 7.6325,9.376581 L 8.362686,8.037144 C 8.259936,8.016268 8.153687,8.005268 8.044936,8.005268 c -0.879687,0 -1.595374,0.716 -1.595374,1.596062 0,0.880062 0.715687,1.596 1.595374,1.596 z m 7.236813,-2.727188 c -0.461251,0.670376 -0.6505,1.464751 -0.616187,2.059313 0.02431,0.420437 0.159375,0.742001 0.361499,0.860001 0.349438,0.204 0.858627,0.294061 1.473752,0.267187 -0.642875,-0.904562 -1.066877,-1.998314 -1.219064,-3.186501 z"
         style="fill:#252525;fill-opacity:1;fill-rule:nonzero;stroke:none"
         id="path14" /></g><g
       id="g16"
       transform="translate(22.929688,11.367676)"><path
         d="M 0.8692,1.1669 C 0.732825,1.387463 0.443325,1.455838 0.222763,1.3194 0.002138,1.183025 -0.066175,0.89365 0.070263,0.673025 L 0.267326,0.354337 c 0.13725,-0.2225 0.42925,-0.287687 0.6465,-0.1525 0.220625,0.136375 0.288938,0.425751 0.1525,0.646376 z"
         style="fill:#252525;fill-opacity:1;fill-rule:nonzero;stroke:none"
         id="path18" /></g></g></svg>
