<?xml version="1.0" encoding="UTF-8" standalone="no"?>
<svg
   xmlns:dc="http://purl.org/dc/elements/1.1/"
   xmlns:cc="http://creativecommons.org/ns#"
   xmlns:rdf="http://www.w3.org/1999/02/22-rdf-syntax-ns#"
   xmlns:svg="http://www.w3.org/2000/svg"
   xmlns="http://www.w3.org/2000/svg"
   version="1.1"
   id="svg2"
   xml:space="preserve"
   width="42.666668"
   height="42.647785"
   viewBox="0 0 42.666668 42.647785"><metadata
     id="metadata8"><rdf:RDF><cc:Work
         rdf:about=""><dc:format>image/svg+xml</dc:format><dc:type
           rdf:resource="http://purl.org/dc/dcmitype/StillImage" /></cc:Work></rdf:RDF></metadata><defs
     id="defs6" /><g
     id="g10"
     transform="matrix(1.3333333,0,0,-1.3333333,0,42.647787)"><g
       id="g12"
       transform="translate(13.929688,25.839844)"><path
         d="m 1.657562,0.281167 h 4.189062 c 1.151188,0 2.087752,0.936563 2.087752,2.08775 0,1.18225 -1.026502,2.151813 -2.206564,2.084438 C 5.646437,4.634293 5.54125,4.803917 5.413,4.960542 4.618,5.931792 3.18125,6.07498 2.210062,5.280042 1.684687,4.84998 1.388438,4.227667 1.375063,3.572105 0.595188,3.437667 0,2.756355 0,1.938667 0,1.02473 0.743562,0.281167 1.657562,0.281167 Z m 0,2.3775 c 0.398813,0 0.721376,0.057063 0.691376,0.552625 -0.118063,0.50225 0.056312,1.016938 0.455,1.343313 0.753937,0.61725 1.932875,0.209812 2.151625,-0.732 C 5.115125,3.354042 5.488999,3.51923 5.846624,3.51923 c 0.634251,0 1.150252,-0.516 1.150252,-1.150313 0,-0.63425 -0.516001,-1.15025 -1.150252,-1.15025 H 1.657562 c -0.90075,0 -0.942,1.44 0,1.44 z"
         style="fill:#252525;fill-opacity:1;fill-rule:nonzero;stroke:none"
         id="path14" /></g><g
       id="g16"
       transform="translate(21.839844,21.662598)"><path
         d="m 2.035686,0.351993 h 2.936377 c 0.606062,0 0.606062,0.9375 0,0.9375 H 2.035686 c -0.605499,0 -1.098186,0.492624 -1.098186,1.098187 0,0.605563 0.492687,1.098187 1.098186,1.098187 0.320126,0 0.895251,-0.004 0.766188,0.54525 C 2.633249,4.74893 2.882438,5.48468 3.452375,5.951242 4.268813,6.61968 5.476811,6.499055 6.145061,5.682743 6.332686,5.453493 6.461563,5.191742 6.528063,4.904742 6.623688,4.623742 6.81775,4.508492 7.11025,4.558992 7.256375,4.599617 7.40675,4.62018 7.557375,4.62018 c 0.91825,0 1.665375,-0.747063 1.665375,-1.665313 0,-0.91825 -0.747063,-1.665374 -1.665375,-1.665374 -0.696188,-0.051313 -0.690312,-0.83 0,-0.9375 1.43525,0 2.602875,1.167624 2.602875,2.602874 0,1.508251 -1.353438,2.736875 -2.8545,2.590563 C 7.19925,5.808055 7.053626,6.052742 6.870501,6.276493 5.874626,7.492867 4.074937,7.672367 2.8585,6.67668 2.166812,6.11043 1.792125,5.278305 1.812813,4.411242 0.79475,4.29993 0,3.434867 0,2.38768 0,1.26518 0.913187,0.351993 2.035686,0.351993 Z"
         style="fill:#252525;fill-opacity:1;fill-rule:nonzero;stroke:none"
         id="path18" /></g><g
       id="g20"><path
         d="m 32,6.250433 c 0,3.446438 -2.790501,6.250313 -6.220501,6.250313 -0.706249,0 -1.385311,-0.119125 -2.018623,-0.338063 l -0.547064,1.279313 h 1.094313 c 0.897188,0 1.649623,0.645813 1.788999,1.535562 l 0.549313,3.507752 h 0.388689 c 0.606062,0 0.606062,0.9375 0,0.9375 H 20.656 l -0.548437,1.28125 c -0.212437,0.496248 -0.6975,0.816936 -1.23575,0.816936 h -1.337689 c -0.606062,0 -0.606062,-0.9375 0,-0.9375 h 1.337689 c 0.162624,0 0.309313,-0.0975 0.373874,-0.248375 l 1.115563,-2.60725 C 20.258812,17.280434 19.874374,15.785995 18.997063,14.204996 17.694,11.856747 15.949938,10.405058 13.80925,9.883558 l -0.909063,2.312063 c -2.49e-4,6.88e-4 -5.62e-4,0.0013 -8.12e-4,0.002 l -0.947187,2.409001 1.847125,0.571375 c 1.145875,0.354437 0.877437,2.098562 -0.315376,2.098562 H 9.268125 c -0.773688,0 -1.312188,-0.875624 -0.947188,-1.572249 l 0.588,-1.122251 C 9.145687,14.130182 9.6855,13.905434 10.1715,14.055746 l 0.882625,0.273001 0.854812,-2.174 -1.427687,-1.351189 c -0.290375,0.274125 -0.607375,0.522438 -0.9495,0.739001 -1.294812,0.8195 -2.905188,1.132812 -4.418625,0.859375 C 4.312062,12.257246 3.526562,11.945058 2.841687,11.499121 2.33375,11.168496 2.845375,10.38256 3.353188,10.713497 c 0.581187,0.378375 1.247374,0.643188 1.926624,0.765875 1.284875,0.232062 2.651937,-0.03356 3.750563,-0.729 0.899499,-0.569312 1.620375,-1.424376 2.04275,-2.402063 h -1.040062 c -0.75875,1.392937 -2.2235,2.277437 -3.812501,2.277437 -2.396187,0 -4.345562,-1.962751 -4.345562,-4.375313 0,-2.412563 1.949375,-4.375311 4.3455,-4.375311 1.589,0 3.05375,0.884562 3.8125,2.277437 h 1.042188 C 10.641,3.139185 9.891812,2.272871 8.948438,1.699684 7.929125,1.080372 6.713063,0.825996 5.523875,0.983309 4.410687,1.130684 3.351687,1.647058 2.541875,2.437246 1.733125,3.226435 1.188125,4.27331 1.007187,5.384996 0.81875,6.542809 1.018,7.74506 1.56825,8.770309 1.854875,9.30431 1.028813,9.747746 0.742188,9.213684 0.095,8.007747 -0.1395,6.594559 0.081875,5.234371 0.29475,3.926184 0.935937,2.694496 1.887187,1.766247 2.209938,1.451309 2.567,1.174309 2.948313,0.937559 H 0.46875 C 0.209875,0.937559 0,0.727684 0,0.468809 0,0.209934 0.209875,5.9e-5 0.46875,5.9e-5 h 31.0625 C 31.790188,5.9e-5 32,0.209934 32,0.468809 c 0,0.258875 -0.209812,0.46875 -0.46875,0.46875 H 29.0525 C 30.820312,2.041183 32,4.009808 32,6.250433 Z M 9.8945,14.951496 c -0.060126,-0.01875 -0.125375,0.0091 -0.155063,0.06575 l -0.587999,1.122313 c -0.035188,0.111124 0.00375,0.177686 0.11675,0.199625 h 4.215874 c 0.162812,-0.0775 0.175563,-0.165938 0.03831,-0.265438 z m 15.276376,0.171126 c -0.0675,-0.430625 -0.430377,-0.743126 -0.862814,-0.743126 h -1.495249 c -0.585251,1.368625 -1.170563,2.737249 -1.755814,4.105814 h 4.640375 z m -5.354063,-1.372376 c 0.535812,0.965563 0.897811,1.892813 1.131437,2.605249 l 0.827249,-1.934436 -5.919624,-6.293812 c -0.281563,0.141125 -0.598937,0.221062 -0.93475,0.221062 h -0.508063 l -0.258124,0.656562 c 2.321811,0.609312 4.271187,2.239063 5.661875,4.745375 z M 15.624937,5.331059 15.166875,6.430683 c -0.09956,0.239 -0.374063,0.351937 -0.613,0.252438 -0.238937,-0.099563 -0.352,-0.373999 -0.252438,-0.612999 L 14.70975,5.089996 H 6.139625 c -1.4785,0 -1.501125,2.32075 0,2.32075 h 8.781437 c 1.083937,6.3e-5 1.560187,-1.4195 0.703875,-2.079687 z m -4.512312,4.779251 1.166187,1.103874 0.80225,-2.040312 c 3.13e-4,-7.5e-4 5.63e-4,-0.0015 8.76e-4,-0.00225 L 13.405687,8.348247 H 12.080688 C 11.854,8.987995 11.526063,9.581935 11.112625,10.11031 Z M 6.2205,2.812622 c -1.879188,0 -3.408,1.542187 -3.408,3.437811 0,1.895625 1.528812,3.437813 3.408,3.437813 0.823,0 1.60375,-0.303624 2.210625,-0.825249 L 7.887312,8.348246 H 6.139625 c -2.72025,0 -2.72025,-4.19575 0,-4.19575 H 8.917812 C 8.279687,3.321058 7.285563,2.812622 6.2205,2.812622 Z m 3.27625,-1.875 c 1.188312,0.741562 2.115937,1.894938 2.58375,3.214937 0.997312,0 2.022563,-0.07525 3.0165,0.00794 l 0.467187,-1.1215 h -0.564875 c -0.606062,0 -0.606062,-0.9375 0,-0.9375 h 2.522314 c 0.606061,0 0.606061,0.9375 0,0.9375 h -0.941813 l -0.587126,1.409437 c 0.611626,0.365938 1.022125,1.034687 1.022125,1.79775 v 0.00844 c 0,0.479374 -0.162313,0.921311 -0.434312,1.274623 l 5.597313,5.951189 0.722999,-1.690626 C 20.91625,10.744308 19.559,8.653808 19.559,6.250433 c 0,-2.240625 1.179688,-4.209248 2.9475,-5.312811 z m 16.282749,0 c -2.913063,0 -5.282999,2.38331 -5.282999,5.312811 0,2.016937 1.123562,3.774876 2.774187,4.674438 l 0.371,-0.8675 C 22.324938,9.304747 21.434,7.880808 21.434,6.250433 c 0,-2.412563 1.949373,-4.375311 4.345499,-4.375311 2.396126,0 4.345501,1.962748 4.345501,4.375311 0,2.412562 -1.949375,4.375313 -4.345501,4.375313 -0.444813,0 -0.874123,-0.06794 -1.278561,-0.193499 l -0.369814,0.864811 c 0.519063,0.171875 1.072814,0.266251 1.648375,0.266251 2.913063,0 5.283001,-2.383313 5.283001,-5.312813 0,-2.929501 -2.369938,-5.312874 -5.283001,-5.312874 z m 0,5.825937 c 0.282938,0 0.513126,-0.230189 0.513126,-0.513126 0,-0.282937 -0.230188,-0.513124 -0.513126,-0.513124 -0.282938,0 -0.513187,0.230187 -0.513187,0.513124 0,0.282937 0.230186,0.513126 0.513187,0.513126 z m 0,-1.963813 c 0.799875,0 1.450626,0.650751 1.450626,1.450626 0,0.823 -0.739749,1.507249 -1.559312,1.446186 l -0.798438,1.867064 c 0.289063,0.080624 0.592999,0.124624 0.907124,0.124624 1.879187,0 3.408001,-1.542188 3.408001,-3.437813 0,-1.895624 -1.528814,-3.437811 -3.408001,-3.437811 -1.879187,0 -3.407999,1.542187 -3.407999,3.437811 0,1.243688 0.658062,2.335188 1.641375,2.938938 l 0.796188,-1.86175 C 24.514439,7.061934 24.328875,6.677496 24.328875,6.250433 24.328812,5.450558 24.979561,4.799746 25.779499,4.799746 Z"
         style="fill:#252525;fill-opacity:1;fill-rule:nonzero;stroke:none"
         id="path22" /></g><g
       id="g24"
       transform="translate(2.878906,22.467773)"><path
         d="m 6.651813,3.32598 c 0,1.833875 -1.492001,3.325875 -3.325875,3.325875 C 1.492063,6.651855 0,5.159855 0,3.32598 0,1.492105 1.492,1.05e-4 3.325875,1.05e-4 c 1.833875,0 3.325938,1.492 3.325938,3.325875 z M 3.325938,0.937542 c -1.316938,0 -2.388376,1.071438 -2.388376,2.388376 0,1.316937 1.071438,2.388375 2.388376,2.388375 1.316937,0 2.388375,-1.071438 2.388375,-2.388375 0,-1.316938 -1.071438,-2.388376 -2.388375,-2.388376 z"
         style="fill:#252525;fill-opacity:1;fill-rule:nonzero;stroke:none"
         id="path26" /></g><g
       id="g28"
       transform="translate(5.738281,29.768066)"><path
         d="m 0.46875,0.151602 c 0.258875,0 0.46875,0.209875 0.46875,0.46875 V 1.763227 C 0.9375,2.369289 0,2.369289 0,1.763227 V 0.620352 C 0,0.361477 0.209875,0.151602 0.46875,0.151602 Z"
         style="fill:#252525;fill-opacity:1;fill-rule:nonzero;stroke:none"
         id="path30" /></g><g
       id="g32"
       transform="translate(2.863281,28.68457)"><path
         d="M 0.638056,0.853863 C 0.960431,0.295488 1.740057,0.820113 1.449932,1.322613 L 0.878494,2.312363 C 0.575494,2.8373 -0.236444,2.368487 0.066619,1.843612 Z"
         style="fill:#252525;fill-opacity:1;fill-rule:nonzero;stroke:none"
         id="path34" /></g><g
       id="g36"
       transform="translate(0.773438,27.158691)"><path
         d="m 0.229602,1.09756 0.98975,-0.571438 c 0.502063,-0.289937 1.00775,0.50075 0.46875,0.811875 L 0.698352,1.909435 C 0.173477,2.21256 -0.295273,1.40056 0.229602,1.09756 Z"
         style="fill:#252525;fill-opacity:1;fill-rule:nonzero;stroke:none"
         id="path38" /></g><g
       id="g40"
       transform="translate(0.015625,25.324707)"><path
         d="m 0.454547,0 h 1.142875 c 0.606062,0 0.606062,0.9375 0,0.9375 H 0.454547 c -0.606063,0 -0.606063,-0.9375 0,-0.9375 z"
         style="fill:#252525;fill-opacity:1;fill-rule:nonzero;stroke:none"
         id="path42" /></g><g
       id="g44"
       transform="translate(0.773438,21.992676)"><path
         d="M 1.221133,1.909476 0.231383,1.338038 C -0.307617,1.026851 0.19807,0.236225 0.700133,0.526163 l 0.98975,0.571438 c 0.524875,0.303 0.056125,1.114875 -0.46875,0.811875 z"
         style="fill:#252525;fill-opacity:1;fill-rule:nonzero;stroke:none"
         id="path46" /></g><g
       id="g48"
       transform="translate(2.867188,20.000488)"><path
         d="M 0.23444,0.418167 C 0.471502,0.295292 0.68494,0.35248 0.874752,0.58973 L 1.44619,1.57948 C 1.749253,2.104355 0.937315,2.573105 0.634315,2.04823 L 0.062877,1.05848 C -0.06656,0.834293 0.010252,0.547605 0.23444,0.418167 Z"
         style="fill:#252525;fill-opacity:1;fill-rule:nonzero;stroke:none"
         id="path50" /></g><g
       id="g52"
       transform="translate(5.738281,19.29834)"><path
         d="M 0,1.900434 V 0.757558 c 0,-0.606063 0.9375,-0.606063 0.9375,0 v 1.142876 c 0,0.606062 -0.9375,0.606062 -0.9375,0 z"
         style="fill:#252525;fill-opacity:1;fill-rule:nonzero;stroke:none"
         id="path54" /></g><g
       id="g56"
       transform="translate(8.03125,19.736328)"><path
         d="M 0.638057,0.85389 C 0.960432,0.295515 1.740119,0.820203 1.449932,1.32264 L 0.878494,2.31239 c -0.303,0.524875 -1.114938,0.056125 -0.811875,-0.46875 z"
         style="fill:#252525;fill-opacity:1;fill-rule:nonzero;stroke:none"
         id="path58" /></g><g
       id="g60"
       transform="translate(9.722656,21.992676)"><path
         d="M 0.22959,1.097536 1.219339,0.526098 c 0.502063,-0.289937 1.00775,0.500688 0.46875,0.811876 L 0.69834,1.90941 C 0.173527,2.212598 -0.295285,1.400599 0.22959,1.097536 Z"
         style="fill:#252525;fill-opacity:1;fill-rule:nonzero;stroke:none"
         id="path62" /></g><g
       id="g64"
       transform="translate(10.332031,25.324707)"><path
         d="M 0,0.46875 C 0,0.209875 0.209875,0 0.46875,0 h 1.142875 c 0.606062,0 0.606062,0.9375 0,0.9375 H 0.46875 C 0.209875,0.9375 0,0.727625 0,0.46875 Z"
         style="fill:#252525;fill-opacity:1;fill-rule:nonzero;stroke:none"
         id="path66" /></g><g
       id="g68"
       transform="translate(9.734375,27.38623)"><path
         d="m 0.453283,0.236197 c 0.0795,0 0.160125,0.020249 0.233937,0.062874 l 0.98975,0.571438 c 0.524875,0.303 0.056062,1.115 -0.46875,0.811875 L 0.21847,1.110946 C -0.15703,0.894196 -0.028967,0.236197 0.453283,0.236197 Z"
         style="fill:#252525;fill-opacity:1;fill-rule:nonzero;stroke:none"
         id="path70" /></g><g
       id="g72"
       transform="translate(8.035156,28.94873)"><path
         d="M 0.23444,0.418152 C 0.471503,0.295277 0.68494,0.352465 0.874753,0.589715 L 1.44619,1.579465 C 1.749253,2.104277 0.937315,2.573152 0.634315,2.048215 L 0.062877,1.058465 C -0.06656,0.834277 0.010253,0.54759 0.23444,0.418152 Z"
         style="fill:#252525;fill-opacity:1;fill-rule:nonzero;stroke:none"
         id="path74" /></g></g></svg>
