<?xml version="1.0" encoding="UTF-8" standalone="no"?>
<svg
   xmlns:dc="http://purl.org/dc/elements/1.1/"
   xmlns:cc="http://creativecommons.org/ns#"
   xmlns:rdf="http://www.w3.org/1999/02/22-rdf-syntax-ns#"
   xmlns:svg="http://www.w3.org/2000/svg"
   xmlns="http://www.w3.org/2000/svg"
   version="1.1"
   id="svg2"
   xml:space="preserve"
   width="15"
   height="15"
   viewBox="0 0 42.666668 36.654297"><metadata
     id="metadata8"><rdf:RDF><cc:Work
         rdf:about=""><dc:format>image/svg+xml</dc:format><dc:type
           rdf:resource="http://purl.org/dc/dcmitype/StillImage" /></cc:Work></rdf:RDF></metadata><defs
     id="defs6" /><g
     id="g10"
     transform="matrix(1.3333333,0,0,-1.3333333,0,36.654297)"><g
       id="g12"
       transform="translate(0,-0.108398)"><path
         d="m 31.53125,1.045931 h -5.820749 l 0.654312,1.63575 c 1.179188,0.079125 2.252313,0.648438 3.026438,1.609501 0.162374,0.201624 0.130624,0.496686 -0.071,0.659124 -0.201626,0.162437 -0.496687,0.130564 -0.659062,-0.070999 -0.61725,-0.766313 -1.470501,-1.215876 -2.4025,-1.265938 -0.835751,-0.045 -1.628813,0.242561 -2.175062,0.788874 -0.570688,0.57075 -0.879938,1.361251 -0.848376,2.16875 0.0014,0.035063 -0.0014,0.069251 -0.0075,0.102438 0.151375,0.077751 0.255125,0.235062 0.255125,0.416874 0,0.570313 0.463999,1.034251 1.034311,1.034251 0.570313,0 1.03425,-0.464001 1.03425,-1.034251 0,-0.090438 -0.01669,-0.186687 -0.05256,-0.302749 -0.05613,-0.181751 0.0031,-0.379375 0.149938,-0.50025 l 1.382311,-1.137812 c 0.08731,-0.071874 0.192751,-0.106876 0.297627,-0.106876 0.135313,0 0.269498,0.05825 0.362186,0.170875 0.164499,0.199875 0.135876,0.495313 -0.064,0.659813 l -1.158501,0.953625 c 0.01369,0.089687 0.02044,0.177062 0.02044,0.263374 0,1.08725 -0.8845,1.971751 -1.97175,1.971751 -0.925751,0 -1.704061,-0.641376 -1.915062,-1.503001 h -0.844812 c -0.258875,0 -0.46875,-0.209875 -0.46875,-0.46875 0,-0.258875 0.209875,-0.46875 0.46875,-0.46875 h 0.542375 c -3.12e-4,-0.00469 -0.0011,-0.00925 -0.0013,-0.013937 -0.04175,-1.067875 0.367253,-2.113312 1.122252,-2.868313 0.522875,-0.522812 1.207372,-0.868999 1.955873,-1.003936 L 24.700705,1.045931 h -7.785938 l -0.383812,3.070562 h 2.475062 c 0.258874,0 0.46875,0.209875 0.46875,0.46875 0,1.916001 -1.558749,3.474814 -3.474812,3.474814 h -1.503 c -1.916001,0 -3.474813,-1.558813 -3.474813,-3.474814 0,-0.258875 0.209875,-0.46875 0.46875,-0.46875 h 2.475063 L 13.582143,1.045931 H 7.45058 v 7.854187 l 1.734625,1.734625 c 0.058438,-0.0032 0.117,-0.0057 0.175812,-0.0057 0.991625,0 2.025813,0.455938 2.836,1.266188 0.924125,0.924062 1.38725,2.139249 1.238938,3.250624 -0.028,0.209688 -0.192938,0.374626 -0.402625,0.402625 C 11.922017,15.69673 10.706892,15.233667 9.782767,14.309542 8.924313,13.451056 8.464,12.341432 8.521812,11.297119 L 7.450625,10.225931 v 3.32725 c 0.127,0.991874 -0.286313,2.073 -1.108375,2.895 -0.826063,0.826063 -1.914,1.239813 -2.909562,1.106938 C 3.223,17.527119 3.058063,17.362181 3.030062,17.152493 2.897187,16.156681 3.310938,15.068994 4.137,14.242931 4.817375,13.562556 5.67525,13.161995 6.513125,13.116119 V 9.094368 9.094055 6.718805 L 5.441937,7.789993 c 0.057813,1.044251 -0.4025,2.153876 -1.261,3.012375 -0.924125,0.924188 -2.139125,1.387313 -3.250624,1.239 C 0.720625,12.013369 0.555687,11.848433 0.527687,11.638744 0.379375,10.527431 0.842563,9.312244 1.766625,8.388182 2.576938,7.577869 3.611,7.121994 4.602687,7.121994 c 0.058751,0 0.117313,0.0025 0.175751,0.00575 L 6.513062,5.393119 V 1.045995 H 0.46875 C 0.209875,1.045994 0,0.836119 0,0.577244 0,0.318369 0.209875,0.108494 0.46875,0.108494 h 31.0625 C 31.790125,0.108494 32,0.318369 32,0.577244 32,0.836119 31.790125,1.045931 31.53125,1.045931 Z M 10.445687,13.646557 c 0.598188,0.598187 1.364562,0.956999 2.077188,0.988811 -0.03175,-0.712687 -0.390562,-1.479062 -0.98875,-2.077249 -0.598187,-0.598188 -1.364562,-0.957001 -2.077187,-0.988751 0.03175,0.712688 0.390562,1.479063 0.988749,2.077189 z M 2.429563,9.051056 C 1.831375,9.649243 1.472562,10.415618 1.440812,11.128305 2.153438,11.096493 2.919875,10.737681 3.518063,10.139494 4.116188,9.541368 4.475,8.774932 4.506813,8.062244 3.794188,8.094119 3.027688,8.45293 2.429563,9.051056 Z m 1.519562,7.585062 c 0.595938,-0.04462 1.2305,-0.351063 1.730188,-0.850812 0.49975,-0.49975 0.806187,-1.134188 0.850812,-1.730187 -0.596,0.04462 -1.2305,0.351061 -1.730187,0.850812 -0.499813,0.499749 -0.80625,1.134188 -0.850813,1.730187 z M 14.497,7.122494 H 16 c 1.238937,0 2.273375,-0.892626 2.493876,-2.068564 h -6.490814 c 0.220563,1.175938 1.254937,2.068564 2.493938,2.068564 z m 0.41375,-3.006001 h 0.675437 L 15.97,1.045931 h -1.443063 z"
         style="fill:#252525;fill-opacity:1;fill-rule:nonzero;stroke:none"
         id="path14" /></g><g
       id="g16"
       transform="translate(24.050781,6.512695)"><path
         d="M 0.466249,0.9375 C 0.207374,0.9375 0,0.727625 0,0.46875 0,0.209875 0.212376,0 0.471251,0 c 0.258875,0 0.46875,0.209875 0.46875,0.46875 0,0.258875 -0.209875,0.46875 -0.46875,0.46875 z"
         style="fill:#252525;fill-opacity:1;fill-rule:nonzero;stroke:none"
         id="path18" /></g><g
       id="g20"
       transform="translate(18.539062,15.530762)"><path
         d="m 3.975876,3.6e-5 c 2.192312,0 3.975811,1.783562 3.975811,3.975812 0,0.564125 -0.115874,1.109375 -0.344437,1.62075 C 7.501625,5.832911 7.224437,5.93891 6.988062,5.833286 6.751687,5.727661 6.645688,5.45041 6.751375,5.214097 6.92575,4.82391 7.014187,4.407285 7.014187,3.975848 c 0,-1.675313 -1.362999,-3.038312 -3.038311,-3.038312 -1.675313,0 -3.038313,1.362999 -3.038313,3.038312 0,1.675312 1.363,3.038312 3.038313,3.038312 0.553187,0 1.094499,-0.149937 1.565374,-0.433687 C 5.763,6.446848 6.051063,6.518411 6.184626,6.740098 6.318188,6.961848 6.246749,7.24991 6.025,7.383535 5.408062,7.755223 4.699501,7.95166 3.975813,7.95166 1.783563,7.95166 0,6.168097 0,3.975848 1.25e-4,1.783598 1.783626,3.6e-5 3.975876,3.6e-5 Z"
         style="fill:#252525;fill-opacity:1;fill-rule:nonzero;stroke:none"
         id="path22" /></g><g
       id="g24"
       transform="translate(22.042969,24.549316)"><path
         d="m 0.46875,-9.4e-5 c 0.258875,0 0.46875,0.209875 0.46875,0.46875 v 2.004 c 0,0.258875 -0.209875,0.46875 -0.46875,0.46875 C 0.209875,2.941406 0,2.731531 0,2.472656 V 0.468594 C 0,0.209781 0.209875,-9.4e-5 0.46875,-9.4e-5 Z"
         style="fill:#252525;fill-opacity:1;fill-rule:nonzero;stroke:none"
         id="path26" /></g><g
       id="g28"
       transform="translate(22.042969,11.522949)"><path
         d="M 0,2.472656 V 0.468657 C 0,0.209782 0.209875,-9.3e-5 0.46875,-9.3e-5 c 0.258875,0 0.46875,0.209875 0.46875,0.46875 v 2.003999 c 0,0.258875 -0.209875,0.46875 -0.46875,0.46875 C 0.209875,2.941406 0,2.731531 0,2.472656 Z"
         style="fill:#252525;fill-opacity:1;fill-rule:nonzero;stroke:none"
         id="path30" /></g><g
       id="g32"
       transform="translate(27.554688,19.038086)"><path
         d="m 0.46875,0 h 2.004 C 2.731625,0 2.9415,0.209875 2.9415,0.46875 2.9415,0.727625 2.731625,0.9375 2.47275,0.9375 h -2.004 C 0.209875,0.9375 0,0.727625 0,0.46875 0,0.209875 0.209875,0 0.46875,0 Z"
         style="fill:#252525;fill-opacity:1;fill-rule:nonzero;stroke:none"
         id="path34" /></g><g
       id="g36"
       transform="translate(14.527344,19.038086)"><path
         d="m 0.46875,0 h 2.004001 c 0.258875,0 0.46875,0.209875 0.46875,0.46875 0,0.258875 -0.209875,0.46875 -0.46875,0.46875 H 0.46875 C 0.209875,0.9375 0,0.727625 0,0.46875 0,0.209875 0.209875,0 0.46875,0 Z"
         style="fill:#252525;fill-opacity:1;fill-rule:nonzero;stroke:none"
         id="path38" /></g><g
       id="g40"
       transform="translate(17.4375,14.386719)"><path
         d="m 0.845797,1.554598 -0.7085,-0.708563 c -0.183063,-0.183063 -0.183063,-0.479875 0,-0.662937 0.0915,-0.0915 0.2115,-0.137313 0.331438,-0.137313 0.119937,0 0.239936,0.04575 0.331436,0.137313 l 0.7085,0.708563 c 0.183063,0.183062 0.183063,0.479874 0,0.662937 -0.183063,0.183062 -0.479874,0.183062 -0.662874,0 z"
         style="fill:#252525;fill-opacity:1;fill-rule:nonzero;stroke:none"
         id="path42" /></g><g
       id="g44"
       transform="translate(25.941406,22.88916)"><path
         d="m 0.468735,0.04591 c 0.119937,0 0.239938,0.04575 0.331438,0.137313 l 0.7085,0.7085 c 0.183063,0.183062 0.183063,0.479812 0,0.662875 -0.183063,0.183062 -0.479876,0.183062 -0.662876,0 l -0.7085,-0.708501 c -0.183063,-0.183062 -0.183063,-0.479812 0,-0.662874 C 0.228797,0.09166 0.348735,0.04591 0.468735,0.04591 Z"
         style="fill:#252525;fill-opacity:1;fill-rule:nonzero;stroke:none"
         id="path46" /></g><g
       id="g48"
       transform="translate(17.4375,22.88916)"><path
         d="m 0.845797,0.183223 c 0.0915,-0.091563 0.2115,-0.137313 0.331438,-0.137313 0.119937,0 0.239936,0.04575 0.331436,0.137313 0.183063,0.183062 0.183063,0.479812 0,0.662874 l -0.7085,0.708501 c -0.183062,0.183062 -0.479874,0.183062 -0.662874,0 -0.183063,-0.183063 -0.183063,-0.479813 0,-0.662875 z"
         style="fill:#252525;fill-opacity:1;fill-rule:nonzero;stroke:none"
         id="path50" /></g><g
       id="g52"
       transform="translate(25.941406,14.386719)"><path
         d="m 0.800173,1.554621 c -0.183063,0.183063 -0.479876,0.183 -0.662876,0 -0.183063,-0.183062 -0.183063,-0.479875 0,-0.662937 l 0.7085,-0.708563 c 0.0915,-0.091562 0.2115,-0.137313 0.331438,-0.137313 0.119937,0 0.239938,0.045751 0.331438,0.137313 0.183063,0.183063 0.183063,0.479875 0,0.662937 z"
         style="fill:#252525;fill-opacity:1;fill-rule:nonzero;stroke:none"
         id="path54" /></g></g></svg>
