<?xml version="1.0" encoding="UTF-8" standalone="no"?>
<svg
   xmlns:dc="http://purl.org/dc/elements/1.1/"
   xmlns:cc="http://creativecommons.org/ns#"
   xmlns:rdf="http://www.w3.org/1999/02/22-rdf-syntax-ns#"
   xmlns:svg="http://www.w3.org/2000/svg"
   xmlns="http://www.w3.org/2000/svg"
   version="1.1"
   id="svg2"
   xml:space="preserve"
   width="40"
   height="40"
   viewBox="0 0 42.666668 25.029297"><metadata
     id="metadata8"><rdf:RDF><cc:Work
         rdf:about=""><dc:format>image/svg+xml</dc:format><dc:type
           rdf:resource="http://purl.org/dc/dcmitype/StillImage" /></cc:Work></rdf:RDF></metadata><defs
     id="defs6" /><g
     id="g10"
     transform="matrix(1.3333333,0,0,-1.3333333,0,25.029297)"><g
       id="g12"
       transform="translate(5.382812,11.644531)"><path
         d="M 4.919942,5.20166 H 1.67338 c -0.423125,0 -0.7905,-0.286438 -0.893688,-0.696626 L 0.038192,1.55316 C -0.056245,1.177222 0.02638,0.786347 0.264692,0.480722 0.503005,0.175097 0.862067,-2.16e-4 1.249692,-2.16e-4 h 3.670312 c 0.68875,0 1.249063,0.560313 1.249063,1.249063 V 3.952598 C 6.169004,4.641285 5.60863,5.20166 4.919942,5.20166 Z M 5.231505,1.248785 c 0,-0.171813 -0.13975,-0.311563 -0.311563,-0.311563 H 1.249629 c -0.132375,0 -0.21075,0.075188 -0.24575,0.12 -0.034937,0.044813 -0.08875,0.139125 -0.056437,0.2675 L 1.685755,4.26416 h 3.234124 c 0.171813,0 0.311563,-0.13975 0.311563,-0.311562 V 1.248785 Z"
         style="fill:#252525;fill-opacity:1;fill-rule:nonzero;stroke:none"
         id="path14" /></g><g
       id="g16"
       transform="translate(12.3125,11.644531)"><path
         d="M 6.555437,4.671597 C 6.40425,4.993598 6.076937,5.20166 5.721624,5.20166 H 1.249063 C 0.560313,5.20166 0,4.641348 0,3.952598 V 1.248847 C 0,0.560097 0.560375,-2.16e-4 1.249063,-2.16e-4 H 6.78125 c 0.429688,0 0.823813,0.216501 1.054251,0.579189 0.230437,0.362625 0.259124,0.811374 0.076624,1.200374 z M 7.04425,1.08166 C 7.016688,1.038223 6.93575,0.93716 6.78125,0.93716 H 1.249063 C 1.07725,0.93716 0.9375,1.07691 0.9375,1.248722 v 2.703751 c 0,0.171812 0.13975,0.311562 0.311563,0.311562 h 4.462 L 7.063375,1.380972 C 7.129001,1.241222 7.071876,1.125098 7.04425,1.08166 Z"
         style="fill:#252525;fill-opacity:1;fill-rule:nonzero;stroke:none"
         id="path18" /></g><g
       id="g20"
       transform="translate(5.671875,1.940918)"><path
         d="M 2.202188,4.404297 C 0.987875,4.404297 0,3.416358 0,2.202108 0,0.987796 0.987938,-1.41e-4 2.202188,-1.41e-4 c 1.214375,0 2.202249,0.987937 2.202249,2.202249 0,1.21425 -0.987874,2.202189 -2.202249,2.202189 z m 0,-3.467001 c -0.697376,0 -1.264688,0.567374 -1.264688,1.264749 0,0.697375 0.567312,1.264689 1.264688,1.264689 0.697375,0 1.264749,-0.567376 1.264749,-1.264689 0,-0.697375 -0.567374,-1.264749 -1.264749,-1.264749 z"
         style="fill:#252525;fill-opacity:1;fill-rule:nonzero;stroke:none"
         id="path22" /></g><g
       id="g24"
       transform="translate(23.214844,1.940918)"><path
         d="M 2.20225,4.404297 C 0.987875,4.404297 0,3.416358 0,2.202108 0,0.987796 0.987937,-1.41e-4 2.20225,-1.41e-4 c 1.214312,0 2.202188,0.987937 2.202188,2.202249 0,1.21425 -0.987938,2.202189 -2.202188,2.202189 z m 0,-3.467001 c -0.697376,0 -1.26475,0.567374 -1.26475,1.264749 0,0.697375 0.567374,1.264689 1.26475,1.264689 0.697375,0 1.264688,-0.567376 1.264688,-1.264689 0,-0.697375 -0.567313,-1.264749 -1.264688,-1.264749 z"
         style="fill:#252525;fill-opacity:1;fill-rule:nonzero;stroke:none"
         id="path26" /></g><g
       id="g28"><path
         d="M 30.960375,7.215347 V 9.28116 c 0,0.668001 -0.436564,1.235937 -1.039375,1.433563 v 0.519874 c 0,0.742875 -0.604376,1.34725 -1.347313,1.34725 h -5.828625 l -2.134312,4.551875 c -0.466812,0.995188 -1.478437,1.638251 -2.577312,1.638251 H 7.056 c -1.307125,0 -2.4425,-0.8855 -2.761,-2.153313 L 3.493125,13.426535 v 1.797 c 0,0.642 -0.522313,1.164374 -1.164375,1.164374 H 1.164375 C 0.522375,16.387909 0,15.865597 0,15.223535 V 13.96166 c 0,-0.258875 0.209812,-0.46875 0.46875,-0.46875 0.258937,0 0.46875,0.209875 0.46875,0.46875 v 1.261875 c 0,0.125062 0.10175,0.226875 0.226875,0.226875 H 2.32875 c 0.125125,0 0.226875,-0.10175 0.226875,-0.226875 V 8.674786 C 2.555625,8.549723 2.453875,8.44791 2.32875,8.44791 H 1.164375 C 1.03925,8.44791 0.9375,8.549661 0.9375,8.674786 v 3.411874 c 0,0.258875 -0.209813,0.46875 -0.46875,0.46875 C 0.209812,12.55541 0,12.345535 0,12.08666 V 8.674786 C 0,8.032785 0.522312,7.51041 1.164375,7.51041 H 2.32875 c 0.077687,0 0.1535,0.008 0.227,0.022562 V 7.258909 C 1.845062,7.182096 1.289937,6.578723 1.289937,5.847973 v -0.75425 c 0,-0.782625 0.63675,-1.419376 1.419375,-1.419376 h 0.538001 c 0.175874,0 0.34425,0.032375 0.499875,0.091125 C 3.938625,1.65741 5.715125,9.7e-5 7.872188,9.7e-5 c 2.125874,0 3.881938,1.609688 4.11575,3.674063 h 0.690124 c 0.1085,-0.848312 0.834563,-1.506374 1.712,-1.506374 h 4.848189 c 0.877374,0 1.603437,0.657999 1.712,1.506374 h 0.352062 c 0.233625,-2.064501 1.989561,-3.674376 4.115187,-3.674376 2.157249,0 3.933813,1.657502 4.125188,3.765751 0.155625,-0.05875 0.324,-0.091188 0.499937,-0.091188 h 0.538001 C 31.363251,3.674347 32,4.311098 32,5.093723 v 0.75425 c 0,0.651188 -0.440813,1.200874 -1.039625,1.367374 z M 28.9835,11.23466 v -0.445312 h -5.117501 c -0.370813,0 -0.688375,0.252249 -0.772375,0.613312 l -0.05619,0.24175 h 5.536313 c 0.225936,0 0.40975,-0.183812 0.40975,-0.40975 v 0 z M 3.247313,4.611847 H 2.709312 c -0.265687,0 -0.481875,0.216126 -0.481875,0.481876 v 0.75425 c 0,0.265688 0.216188,0.481874 0.481875,0.481874 h 0.538001 c 0.265687,0 0.481874,-0.216124 0.481874,-0.481874 V 5.093723 C 3.729187,4.828035 3.513,4.611847 3.247313,4.611847 Z m 4.624875,-3.67425 c -1.7675,0 -3.205501,1.438 -3.205501,3.2055 0,1.7675 1.438001,3.205501 3.205501,3.205501 1.7675,0 3.205499,-1.438001 3.205499,-3.205501 0,-1.7675 -1.437999,-3.2055 -3.205499,-3.2055 z M 19.238251,3.105286 H 14.39 c -0.358625,0 -0.6615,0.240686 -0.757125,0.568874 h 6.3625 C 19.89975,3.345972 19.596813,3.105286 19.238251,3.105286 Z M 25.4175,0.937284 c -1.767188,0 -3.204937,1.438063 -3.204937,3.205626 0,0.353188 0.05719,0.7005 0.17,1.032249 0.08338,0.245063 -0.04781,0.511377 -0.292939,0.594689 C 21.844749,5.853286 21.578314,5.722034 21.494938,5.47691 21.399313,5.195785 21.335251,4.906097 21.302,4.611597 H 11.987938 C 11.754375,6.67616 9.998188,8.286098 7.872188,8.286098 6.477,8.286098 5.241562,7.592161 4.4905,6.532036 4.2865,6.901286 3.922812,7.17016 3.49325,7.245598 v 2.333625 l 1.711125,6.811062 c 0.213562,0.850314 0.975063,1.444251 1.851688,1.444251 h 10.977438 c 0.736938,0 1.415435,-0.431315 1.728498,-1.098875 l 2.239939,-4.777064 0.178625,-0.768312 c 0.183313,-0.788062 0.876373,-1.3385 1.685499,-1.3385 h 5.58625 c 0.314625,0 0.570626,-0.256 0.570626,-0.570625 V 7.266848 C 29.496376,7.259598 29.038313,6.964472 28.799376,6.531847 28.04825,7.592034 26.812813,8.286036 25.4175,8.286036 c -1.022126,0 -2.004,-0.375939 -2.764876,-1.058627 -0.192688,-0.172937 -0.20875,-0.46925 -0.03581,-0.661937 0.17275,-0.192625 0.469063,-0.208749 0.661937,-0.035874 0.588562,0.528063 1.348126,0.818938 2.138813,0.818938 1.767563,0 3.205626,-1.438063 3.205626,-3.205626 0,-1.767563 -1.438126,-3.205626 -3.205688,-3.205626 v 0 z m 5.645,4.156439 c 0,-0.265688 -0.216187,-0.481876 -0.481874,-0.481876 h -0.538001 c -0.265688,0 -0.481876,0.216126 -0.481876,0.481876 v 0.75425 c 0,0.265688 0.216188,0.481874 0.481876,0.481874 h 0.538001 c 0.265687,0 0.481874,-0.216124 0.481874,-0.481874 z"
         style="fill:#252525;fill-opacity:1;fill-rule:nonzero;stroke:none"
         id="path30" /></g><g
       id="g32"
       transform="translate(28.757812,7.290527)"><path
         d="m 0.46875,-7e-5 c 0.258937,0 0.46875,0.209875 0.46875,0.46875 v 1.323313 c 0,0.258875 -0.209813,0.468749 -0.46875,0.468749 C 0.209812,2.260742 0,2.050868 0,1.791993 V 0.46868 C 0,0.209805 0.209875,-7e-5 0.46875,-7e-5 Z"
         style="fill:#252525;fill-opacity:1;fill-rule:nonzero;stroke:none"
         id="path34" /></g><g
       id="g36"
       transform="translate(12.320312,9.595703)"><path
         d="M 2.090876,0.9375 H 0.46875 C 0.209812,0.9375 0,0.727625 0,0.46875 0,0.209875 0.209812,0 0.46875,0 h 1.622126 c 0.258937,0 0.46875,0.209875 0.46875,0.46875 0,0.258875 -0.209813,0.46875 -0.46875,0.46875 z"
         style="fill:#252525;fill-opacity:1;fill-rule:nonzero;stroke:none"
         id="path38" /></g></g></svg>
