<?xml version="1.0" encoding="UTF-8" standalone="no"?>
<svg
   xmlns:dc="http://purl.org/dc/elements/1.1/"
   xmlns:cc="http://creativecommons.org/ns#"
   xmlns:rdf="http://www.w3.org/1999/02/22-rdf-syntax-ns#"
   xmlns:svg="http://www.w3.org/2000/svg"
   xmlns="http://www.w3.org/2000/svg"
   version="1.1"
   id="svg2"
   xml:space="preserve"
   width="40"
   height="40"
   viewBox="0 0 42.666668 42.666668"><metadata
     id="metadata8"><rdf:RDF><cc:Work
         rdf:about=""><dc:format>image/svg+xml</dc:format><dc:type
           rdf:resource="http://purl.org/dc/dcmitype/StillImage" /></cc:Work></rdf:RDF></metadata><defs
     id="defs6" /><g
     id="g10"
     transform="matrix(1.3333333,0,0,-1.3333333,0,42.666667)"><g
       id="g12"
       transform="translate(26.226562,1.072266)"><path
         d="M 3.569061,4.71707 0.703125,6.371758 c -0.145,0.08375 -0.32375,0.08375 -0.46875,0 C 0.089375,6.288008 0,6.133321 0,5.965821 V 5.52582 2.656445 0.489571 c 0,-0.258875 0.209812,-0.46875 0.46875,-0.46875 0.258937,0 0.46875,0.209875 0.46875,0.46875 v 1.89625 l 2.631561,1.519374 c 0.145,0.08375 0.234375,0.238438 0.234375,0.405937 0,0.167501 -0.089375,0.322188 -0.234375,0.405938 z M 0.9375,3.468321 V 5.153883 L 2.397186,4.311132 Z"
         style="fill:#252525;fill-opacity:1;fill-rule:nonzero;stroke:none"
         id="path14" /></g><g
       id="g16"
       transform="translate(3.621094,-0.020996)"><path
         d="m 3.569125,4.746367 -2.866,1.654688 c -0.145,0.08375 -0.32375,0.08375 -0.46875,0 C 0.089375,6.317305 0,6.162618 0,5.995118 V 5.555117 2.685742 0.489806 c 0,-0.258875 0.209812,-0.46875 0.46875,-0.46875 0.258937,0 0.46875,0.209875 0.46875,0.46875 v 1.925312 l 2.631625,1.519374 c 0.145,0.08375 0.234375,0.238438 0.234375,0.405937 0,0.167501 -0.089312,0.322188 -0.234375,0.405938 z M 0.9375,3.497618 V 5.18318 L 2.39725,4.340429 Z"
         style="fill:#252525;fill-opacity:1;fill-rule:nonzero;stroke:none"
         id="path18" /></g><g
       id="g20"
       transform="translate(1.28125,25.700195)"><path
         d="M 2.027438,2.244805 H 3.441 C 3.43325,2.172805 3.42925,2.100367 3.42925,2.02793 3.42925,1.485992 3.640063,0.976679 4.0225,0.594367 4.405,0.210992 4.914375,-1.33e-4 5.45675,-1.33e-4 H 6.0155 c 0.258937,0 0.46875,0.209875 0.46875,0.46875 0,0.258875 -0.209813,0.46875 -0.46875,0.46875 H 5.45675 C 5.165187,0.937367 4.8915,1.050742 4.685688,1.25693 4.48,1.462617 4.36675,1.73643 4.36675,2.02793 c 0,0.168625 0.037187,0.329625 0.110563,0.478562 0.071562,0.145313 0.063,0.317188 -0.0225,0.454688 C 4.36925,3.09868 4.21875,3.182305 4.056812,3.182305 H 2.027438 c -0.291125,0 -0.564938,0.1135 -0.771063,0.319625 -0.205625,0.205625 -0.318938,0.479187 -0.318938,0.770375 0,0.600999 0.488938,1.09 1.089938,1.09 h 4.61375 c 0.291125,0 0.564938,-0.1135 0.771,-0.319563 C 7.617813,4.837055 7.731124,4.563492 7.731124,4.272305 7.731124,4.10368 7.693937,3.94268 7.620562,3.793742 7.549,3.64843 7.557562,3.476555 7.643062,3.339055 7.728625,3.201555 7.879126,3.11793 8.041063,3.11793 H 10.0705 c 0.291188,0 0.564625,-0.113375 0.77075,-0.319938 0.205876,-0.205375 0.319188,-0.478875 0.319188,-0.770062 0,-0.601375 -0.488938,-1.090626 -1.089938,-1.090626 h -2.18 c -0.258938,0 -0.46875,-0.209875 -0.46875,-0.46875 0,-0.258874 0.209812,-0.46875 0.46875,-0.46875 h 2.18 c 1.117937,0 2.027438,0.909813 2.027438,2.028126 0,0.542 -0.211126,1.051125 -0.59375,1.432937 -0.382563,0.383375 -0.89175,0.594562 -1.433688,0.594562 H 8.657312 c 0.0075,0.071501 0.011313,0.143813 0.011313,0.216876 0,0.541562 -0.210812,1.050562 -0.593499,1.433312 C 7.692001,6.088742 7.18275,6.299805 6.641187,6.299805 H 2.027438 C 0.9095,6.299805 0,5.390305 0,4.272305 0,3.73068 0.210813,3.221617 0.5935,2.838992 0.976562,2.455867 1.485875,2.244805 2.027438,2.244805 Z"
         style="fill:#252525;fill-opacity:1;fill-rule:nonzero;stroke:none"
         id="path22" /></g><g
       id="g24"
       transform="translate(0,6.684082)"><path
         d="m 31.992373,6.192961 c -0.04619,0.254687 -0.290125,0.423626 -0.544938,0.3775 L 30.918999,6.474524 23.636061,19.088461 c -0.746813,1.294001 -2.084687,2.066626 -3.578875,2.066812 -1.87e-4,0 -2.52e-4,0 -4.39e-4,0 -1.494125,0 -2.832374,-0.772625 -3.579561,-2.066749 l -5.433001,-9.410189 -0.03694,0.063938 c -0.454812,0.787751 -1.269375,1.258126 -2.179,1.258126 -6.3e-5,0 10e-7,0 -6.2e-5,0 -0.909563,0 -1.72425,-0.470375 -2.179063,-1.258126 L 1.698935,1.168398 0.38506,0.929836 C 0.130372,0.883587 -0.038628,0.639587 0.007622,0.384899 0.048685,0.158463 0.245997,-2.27e-4 0.468247,-2.27e-4 c 0.02775,0 0.056,0.002501 0.084313,0.007626 l 31.062375,5.640625 c 0.254688,0.04625 0.423689,0.290249 0.377438,0.544937 z M 17.289124,18.619774 c 0.577749,1.000624 1.612375,1.597999 2.767749,1.597999 h 3.13e-4 c 1.155125,-1.25e-4 2.189499,-0.597499 2.766937,-1.597999 L 28.804373,8.262087 C 28.53731,7.897274 28.114309,7.678024 27.65181,7.678024 c -0.7885,0 -1.429999,0.641812 -1.429999,1.430624 0,1.305437 -1.062063,2.367501 -2.3675,2.367501 -0.230812,0 -0.459875,-0.03356 -0.680813,-0.09975 -0.247999,-0.07431 -0.388813,-0.335563 -0.314501,-0.583563 0.07425,-0.248 0.335501,-0.388686 0.583563,-0.314499 0.133562,0.04 0.272064,0.06031 0.411751,0.06031 0.7885,0 1.43,-0.641501 1.43,-1.430001 0,-1.30575 1.062062,-2.368124 2.367499,-2.368124 0.628563,0 1.213001,0.244375 1.646814,0.665562 l 0.640625,-1.10956 -21.986502,-3.9925 c 0.070188,0.217437 0.164125,0.429125 0.282125,0.633312 l 2.579875,4.468437 c 0.433187,-0.420999 1.017563,-0.665249 1.646562,-0.665249 1.305438,0 2.367501,1.062311 2.367501,2.368124 0,0.7885 0.6415,1.430001 1.43,1.430001 0.788876,0 1.430689,-0.641501 1.430689,-1.430001 0,-1.30575 1.062061,-2.368124 2.367498,-2.368124 1.305437,0 2.367501,1.062311 2.367501,2.368124 0,0.137625 0.01925,0.271813 0.05725,0.398938 0.07412,0.248062 -0.06694,0.509187 -0.315001,0.583313 -0.248062,0.07413 -0.509188,-0.06694 -0.583313,-0.314938 -0.06394,-0.21425 -0.09644,-0.43875 -0.09644,-0.667313 0,-0.788874 -0.641501,-1.430624 -1.430001,-1.430624 -0.7885,0 -1.429998,0.641812 -1.429998,1.430624 0,1.305437 -1.062376,2.367501 -2.368126,2.367501 -1.305437,0 -2.367501,-1.062064 -2.367501,-2.367501 0,-0.788874 -0.6415,-1.430624 -1.43,-1.430624 -0.463125,0 -0.886062,0.21925 -1.152187,0.584063 L 17.28912,18.619774 Z M 7.460997,9.273586 c 0.285375,0.494313 0.7965,0.789376 1.36725,0.789376 0.570687,0 1.08175,-0.295125 1.367188,-0.789563 L 10.503059,8.741024 8.75231,5.708712 C 8.408748,5.94665 7.99656,6.080399 7.570684,6.080399 c -1.142375,0 -2.071812,-0.929438 -2.071812,-2.071875 0,-0.625813 -0.509125,-1.135 -1.135,-1.135 -0.1855,0 -0.364,0.04475 -0.523937,0.128187 z M 3.370622,2.188837 c 0.301125,-0.164875 0.640312,-0.25275 0.99325,-0.25275 1.14275,0 2.0725,0.929687 2.0725,2.0725 0,0.6255 0.508875,1.134375 1.134312,1.134375 0.264313,0 0.512001,-0.088938 0.710876,-0.249564 L 7.422997,3.406273 C 7.187934,2.999397 7.02681,2.5679 6.939685,2.12015 L 2.908247,1.388023 Z"
         style="fill:#252525;fill-opacity:1;fill-rule:nonzero;stroke:none"
         id="path26" /></g><g
       id="g28"
       transform="translate(15.53125,6.623535)"><path
         d="M 15.677621,3.745373 0.38506,0.968497 C 0.130372,0.922247 -0.038628,0.678247 0.007622,0.42356 0.048685,0.197122 0.245997,0.038436 0.468247,0.038436 c 0.027812,0 0.056001,0.002498 0.084313,0.007623 l 15.292562,2.776877 c 0.254688,0.04625 0.423688,0.290249 0.377439,0.544937 -0.04619,0.25475 -0.290628,0.4235 -0.54494,0.3775 z"
         style="fill:#252525;fill-opacity:1;fill-rule:nonzero;stroke:none"
         id="path30" /></g><g
       id="g32"
       transform="translate(10.007812,3.813477)"><path
         d="m 13.242247,2.826843 c -0.04619,0.254687 -0.289937,0.423563 -0.544938,0.3775 L 0.38506,0.968656 C 0.130372,0.922406 -0.038628,0.678406 0.007622,0.423719 0.048685,0.197281 0.245998,0.038593 0.468248,0.038593 c 0.02775,0 0.056,0.0025 0.084312,0.007625 l 12.312249,2.235688 c 0.254687,0.04625 0.423688,0.290249 0.377438,0.544937 z"
         style="fill:#252525;fill-opacity:1;fill-rule:nonzero;stroke:none"
         id="path34" /></g><g
       id="g36"
       transform="translate(19.160156,2.446777)"><path
         d="M 5.230498,1.848386 0.38506,0.968511 C 0.130372,0.922261 -0.038628,0.678262 0.007622,0.423574 0.048685,0.197137 0.245997,0.038448 0.468247,0.038448 c 0.02775,0 0.056,0.002501 0.084312,0.007626 l 4.845438,0.879875 c 0.254688,0.04625 0.423688,0.290249 0.377438,0.544937 -0.046187,0.254687 -0.29,0.423563 -0.544937,0.3775 z"
         style="fill:#252525;fill-opacity:1;fill-rule:nonzero;stroke:none"
         id="path38" /></g></g></svg>
