<?xml version="1.0" encoding="UTF-8" standalone="no"?>
<svg
   xmlns:dc="http://purl.org/dc/elements/1.1/"
   xmlns:cc="http://creativecommons.org/ns#"
   xmlns:rdf="http://www.w3.org/1999/02/22-rdf-syntax-ns#"
   xmlns:svg="http://www.w3.org/2000/svg"
   xmlns="http://www.w3.org/2000/svg"
   version="1.1"
   id="svg2"
   xml:space="preserve"
   width="40"
   height="40"
   viewBox="0 0 42.632812 42.666668"><metadata
     id="metadata8"><rdf:RDF><cc:Work
         rdf:about=""><dc:format>image/svg+xml</dc:format><dc:type
           rdf:resource="http://purl.org/dc/dcmitype/StillImage" /></cc:Work></rdf:RDF></metadata><defs
     id="defs6" /><g
     id="g10"
     transform="matrix(1.3333333,0,0,-1.3333333,0,42.666667)"><g
       id="g12"><path
         d="m 30.193501,29.351875 h -0.583127 l 1.113438,1.337563 c 0.200438,0.240875 0.242375,0.566686 0.109375,0.850437 C 30.700188,31.82375 30.422939,32 30.109501,32 h -4.984688 c -0.258938,0 -0.46875,-0.209812 -0.46875,-0.46875 v -2.179375 h -9.497562 c -0.258875,0 -0.46875,-0.209812 -0.46875,-0.46875 0,-0.258938 0.209875,-0.46875 0.46875,-0.46875 h 9.497562 V 27.3475 H 9.231626 c -0.66375,0 -1.203751,-0.540312 -1.203751,-1.204374 V 14.968937 L 6.961,16.035812 v 11.534813 c 0,0.46525 0.3785,0.84375 0.84375,0.84375 h 5.166251 c 0.258875,0 0.46875,0.209812 0.46875,0.46875 0,0.258938 -0.209875,0.46875 -0.46875,0.46875 H 7.80475 c -0.982188,0 -1.78125,-0.799062 -1.78125,-1.78125 v -10.59725 l -0.497,0.497 c -0.462438,0.462376 -1.214813,0.462437 -1.67725,0 L 0.347375,13.9685 C 0.123375,13.744499 0,13.446625 0,13.129875 0,12.813063 0.123375,12.515188 0.347375,12.291187 L 3.849188,8.789375 c 0.23125,-0.231188 0.534937,-0.34675 0.838624,-0.34675 0.303688,0 0.607438,0.115625 0.838625,0.34675 l 0.497001,0.497 V 7.153063 C 5.679563,6.945126 5.4485,6.56875 5.4485,6.1385 V 1.186188 c 0,-0.654 0.532062,-1.186062 1.186,-1.186062 h 4.952375 c 0.653937,0 1.186,0.532062 1.186,1.186062 V 3.400625 H 25.12475 c 0.258938,0 0.46875,0.209812 0.46875,0.46875 0,0.258938 -0.209812,0.46875 -0.46875,0.46875 H 12.772875 v 1.066876 h 15.993126 c 0.664062,0 1.204374,0.540311 1.204374,1.204374 v 19.040937 h 0.139187 c 0.313438,0 0.590689,0.176251 0.723688,0.460062 0.132999,0.283751 0.09106,0.609627 -0.109375,0.850438 l -1.209938,1.453563 h 0.679564 c 0.46525,0 0.84375,-0.3785 0.84375,-0.84375 V 5.181875 c 0,-0.46525 -0.3785,-0.84375 -0.84375,-0.84375 H 27.31225 c -0.258938,0 -0.46875,-0.209812 -0.46875,-0.46875 0,-0.258938 0.209812,-0.46875 0.46875,-0.46875 h 2.881251 c 0.982187,0 1.78125,0.799063 1.78125,1.78125 v 22.38875 c 0,0.982188 -0.799063,1.78125 -1.78125,1.78125 z M 17.527187,19.948313 v 1.662937 h 2.464938 V 19.948313 Z M 17.771,14.898624 16.368813,13.93425 l -1.64675,1.5375 1.133875,1.214688 z m 0.695063,-0.65975 c 0.521562,-0.547124 0.736812,-1.0475 0.730938,-1.668125 -0.0046,-0.590625 -0.243187,-1.150186 -0.651875,-1.555999 l -1.544437,1.543001 c 0.02281,0.05456 0.04037,0.11181 0.05212,0.170873 0.03481,0.174813 0.01669,0.349251 -0.048,0.505251 l 1.461251,1.004999 z M 11.25825,10.356251 v 1.661875 h 2.481563 v -1.661875 z m 3.419063,1.665748 c 0.561437,0.0031 1.441124,-0.0067 1.535812,-0.0025 l 1.515562,-1.514126 c -0.24875,-0.08613 -0.501688,-0.120501 -0.740625,-0.142876 -0.1695,-0.0027 -1.549749,-0.0049 -2.310749,-0.0058 v 1.665311 z m -1.5545,6.708313 c 0.02631,0.220436 0.07281,0.432688 0.1375,0.635437 l 1.526813,-0.74356 c -0.03419,-0.210751 -0.02825,-0.426503 0.02256,-0.629063 0.0465,-0.183001 0.125063,-0.351376 0.232812,-0.499376 0.04656,-0.06431 0.09,-0.117251 0.131938,-0.1635 l -1.137187,-1.218125 c -0.132813,0.134125 -0.264251,0.299061 -0.353126,0.424313 -0.0024,0.0034 -0.0076,0.01044 -0.01,0.01375 -0.426188,0.567627 -0.643563,1.411938 -0.551313,2.180126 v 0 z m 2.071375,0.7365 -1.5235,0.741938 c 0.571125,0.845499 1.491687,1.353876 2.504187,1.399812 h 0.414875 v -1.659999 c -0.390125,0.0125 -0.965375,-0.01044 -1.395562,-0.481751 z m 5.735437,2.144438 h 1.781812 c -0.08994,-0.260563 -0.139436,-0.539812 -0.139436,-0.830563 0,-0.291437 0.04975,-0.571312 0.140062,-0.832374 h -1.782438 z m 2.579876,-0.830563 c 0,0.727688 0.483812,1.344376 1.146625,1.545752 v -1.545752 c 0,-0.258938 0.209812,-0.46875 0.46875,-0.46875 0.258938,0 0.46875,0.209812 0.46875,0.46875 v 1.545752 c 0.662813,-0.201376 1.146687,-0.818064 1.146687,-1.545752 0,-0.890749 -0.724686,-1.615438 -1.615437,-1.615438 -0.890751,6.5e-5 -1.615375,0.724689 -1.615375,1.615438 z M 4.863625,9.45225 c -0.096813,-0.096875 -0.254562,-0.097001 -0.3515,0 L 1.010313,12.954063 C 0.963375,13.001001 0.9375,13.063375 0.9375,13.129812 c 0,0.06638 0.025875,0.128813 0.072813,0.175751 l 3.501812,3.501812 c 0.096875,0.09694 0.254562,0.09694 0.3515,0 L 8.365438,13.3055 c 0.046937,-0.04694 0.072813,-0.109314 0.072813,-0.175751 0,-0.06638 -0.025876,-0.128748 -0.072813,-0.175686 z m 3.16425,1.838438 V 7.324438 H 6.961 v 2.899374 z M 11.586875,0.9375 H 6.6345 C 6.497499,0.9375 6.386,1.049 6.386,1.186062 v 4.952312 c 0,0.136999 0.111499,0.248564 0.2485,0.248564 h 4.952375 c 0.137,0 0.2485,-0.111502 0.2485,-0.248564 V 1.186062 c 0,-0.137062 -0.111438,-0.248562 -0.2485,-0.248562 z m 17.446,5.671875 c 0,-0.147125 -0.119686,-0.266874 -0.266874,-0.266874 H 12.754063 c -0.09719,0.556875 -0.582938,0.981874 -1.167188,0.981874 h -2.6215 v 4.90375 l 0.062938,0.06294 c 0.224,0.224001 0.347375,0.521876 0.347375,0.838625 0,0.316813 -0.123375,0.614685 -0.347375,0.838686 l -0.062938,0.06294 v 12.111813 c 0,0.147123 0.119438,0.266874 0.266251,0.266874 h 15.4245 v -3.120312 c -0.533251,-0.09944 -1.008438,-0.364937 -1.370125,-0.740875 h -6.227564 c -0.01681,0 -0.03337,-10e-4 -0.04969,-0.0027 0,0 -0.857437,-1.24e-4 -0.864,-4.36e-4 -1.484938,-0.06288 -2.837751,-0.899315 -3.540188,-2.308751 -0.0031,-0.006 -0.0056,-0.01213 -0.0084,-0.01812 -6.88e-4,-0.0014 -0.0016,-0.0027 -0.0023,-0.0041 -0.415875,-0.842125 -0.552688,-1.852937 -0.304501,-2.856687 0.127125,-0.51075 0.345063,-0.982374 0.631501,-1.365812 0.08806,-0.123875 0.319063,-0.433188 0.590188,-0.672125 l 2.493374,-2.328062 c 0.0017,-0.0016 0.0035,-0.0029 0.0052,-0.0044 0.01194,-0.01131 0.02419,-0.02244 0.03637,-0.03362 -0.0585,1.87e-4 -0.129625,10e-4 -0.208312,0.0019 -0.546,0.0061 0.23475,0.0018 -4.847688,-2.49e-4 C 10.620937,12.9555 10.32075,12.655437 10.32075,12.286501 v -2.198563 c 0,-0.368999 0.300187,-0.669187 0.669188,-0.669187 0,0 5.907061,0.00231 6.041562,0.007 0.0089,3.13e-4 0.01763,8.75e-4 0.02644,0.00163 0.322,0.029625 0.703813,0.08056 1.093,0.234186 0.226187,0.088751 0.438875,0.202562 0.633062,0.337126 l 0.0011,7.49e-4 c 0.0071,0.00494 0.01456,0.00931 0.02163,0.014313 0.0074,0.0053 0.014,0.01138 0.02125,0.01681 0.796063,0.60125 1.29875,1.525689 1.306625,2.532063 0.01175,1.253626 -0.677812,2.049063 -1.28025,2.60775 -3.180312,2.949249 -3.077438,2.823498 -3.1355,3.052124 -0.03431,0.136875 -0.01344,0.306564 0.05431,0.4435 0.172374,0.3375 0.405749,0.363251 0.897874,0.341187 0.141813,-0.0063 0.2765,-0.01112 0.408374,0.0036 h 6.208439 c 0.464688,-0.482188 1.116249,-0.782999 1.837124,-0.782999 1.407625,0 2.552939,1.145248 2.552939,2.552936 0,1.2475 -0.899752,2.288124 -2.084189,2.508999 v 2.360687 h 3.439251 V 6.609351 h -6.3e-5 z m 0.474751,19.978437 c -0.002,0 -0.004,3.13e-4 -0.0061,3.13e-4 -0.0021,0 -0.004,-2.5e-4 -0.0061,-3.13e-4 H 25.593425 V 31.0625 h 4.220938 l -1.436751,-1.726 c -0.246563,-0.296312 -0.246563,-0.726438 0,-1.022562 l 1.436751,-1.726063 h -0.306812 v -6.3e-5 z"
         style="fill:#252525;fill-opacity:1;fill-rule:nonzero;stroke:none"
         id="path14" /></g><g
       id="g16"
       transform="translate(4.191406,12.589355)"><path
         d="M 0.851954,0.897883 C 0.668828,1.080945 0.372016,1.080946 0.189078,0.897696 L 0.137203,0.84582 c -0.183,-0.183125 -0.182937,-0.479937 1.88e-4,-0.662875 0.0915,-0.0915 0.211437,-0.137188 0.331375,-0.137188 0.12,0 0.24,0.04575 0.331562,0.137375 l 0.051875,0.051876 c 0.182938,0.183063 0.182876,0.479874 -2.49e-4,0.662875 z"
         style="fill:#252525;fill-opacity:1;fill-rule:nonzero;stroke:none"
         id="path18" /></g><g
       id="g20"
       transform="translate(7.777344,2.255859)"><path
         d="M 0.189078,0.897696 0.137203,0.845821 c -0.183,-0.183125 -0.182937,-0.479938 1.88e-4,-0.662876 0.0915,-0.0915 0.211437,-0.137186 0.331374,-0.137186 0.12,0 0.240001,0.04575 0.331563,0.137375 l 0.051875,0.051874 c 0.183,0.183125 0.182938,0.479937 -1.88e-4,0.662875 C 0.66889,1.080945 0.372078,1.080946 0.189078,0.897696 Z"
         style="fill:#252525;fill-opacity:1;fill-rule:nonzero;stroke:none"
         id="path22" /></g><g
       id="g24"
       transform="translate(9.453125,3.929688)"><path
         d="M 0.189266,0.897906 0.137391,0.846095 c -0.183125,-0.183 -0.183188,-0.479814 -1.88e-4,-0.662876 0.0915,-0.091625 0.2115,-0.137375 0.331563,-0.137375 0.119875,0 0.239813,0.045688 0.331375,0.137188 l 0.051874,0.051813 c 0.183125,0.183 0.183188,0.479811 1.88e-4,0.662874 -0.183,0.183125 -0.479812,0.183312 -0.662937,1.87e-4 z"
         style="fill:#252525;fill-opacity:1;fill-rule:nonzero;stroke:none"
         id="path26" /></g><g
       id="g28"
       transform="translate(22.78125,8.390137)"><path
         d="M 2.719063,3.984863 H 1.265562 C 0.56775,3.984863 0,3.417114 0,2.719301 V 1.265802 C 0,0.56799 0.56775,2.38e-4 1.265562,2.38e-4 h 1.453501 c 0.697812,0 1.265562,0.567752 1.265562,1.265564 v 1.453499 c 0,0.697813 -0.56775,1.265562 -1.265562,1.265562 z M 3.047125,1.265802 C 3.047125,1.084865 2.9,0.937738 2.719063,0.937738 H 1.265562 c -0.180937,0 -0.328062,0.147127 -0.328062,0.328064 v 1.453499 c 0,0.180938 0.147125,0.328062 0.328062,0.328062 h 1.453501 c 0.180937,0 0.328062,-0.147124 0.328062,-0.328062 z"
         style="fill:#252525;fill-opacity:1;fill-rule:nonzero;stroke:none"
         id="path30" /></g></g></svg>
