<svg width="32" height="32" viewBox="0 0 32 32" fill="none" xmlns="http://www.w3.org/2000/svg">
<path d="M24.739 5.08246H25.3512C25.6094 5.08246 25.8187 4.87315 25.8187 4.61496C25.8187 4.35677 25.6094 4.14746 25.3512 4.14746H24.739C24.4808 4.14746 24.2715 4.35677 24.2715 4.61496C24.2715 4.87315 24.4807 5.08246 24.739 5.08246Z" fill="#252525"/>
<path d="M28.0476 5.08246H28.6598C28.918 5.08246 29.1273 4.87315 29.1273 4.61496C29.1273 4.35677 28.918 4.14746 28.6598 4.14746H28.0476C27.7894 4.14746 27.5801 4.35677 27.5801 4.61496C27.5801 4.87315 27.7894 5.08246 28.0476 5.08246Z" fill="#252525"/>
<path d="M11.3434 14.9487H10.7312C10.473 14.9487 10.2637 15.158 10.2637 15.4162C10.2637 15.6744 10.473 15.8837 10.7312 15.8837H11.3434C11.6015 15.8837 11.8109 15.6744 11.8109 15.4162C11.8109 15.158 11.6015 14.9487 11.3434 14.9487Z" fill="#252525"/>
<path d="M14.0398 15.8837H14.652C14.9101 15.8837 15.1195 15.6744 15.1195 15.4162C15.1195 15.158 14.9101 14.9487 14.652 14.9487H14.0398C13.7816 14.9487 13.5723 15.158 13.5723 15.4162C13.5723 15.6744 13.7816 15.8837 14.0398 15.8837Z" fill="#252525"/>
<path d="M17.3484 15.8837H17.9605C18.2187 15.8837 18.428 15.6744 18.428 15.4162C18.428 15.158 18.2188 14.9487 17.9605 14.9487H17.3484C17.0902 14.9487 16.8809 15.158 16.8809 15.4162C16.8809 15.6744 17.0902 15.8837 17.3484 15.8837Z" fill="#252525"/>
<path d="M20.657 15.8837H21.2691C21.5273 15.8837 21.7366 15.6744 21.7366 15.4162C21.7366 15.158 21.5274 14.9487 21.2691 14.9487H20.657C20.3988 14.9487 20.1895 15.158 20.1895 15.4162C20.1895 15.6744 20.3988 15.8837 20.657 15.8837Z" fill="#252525"/>
<path d="M12.3855 13.8217H12.9977C13.2558 13.8217 13.4652 13.6124 13.4652 13.3542C13.4652 13.096 13.2558 12.8867 12.9977 12.8867H12.3855C12.1273 12.8867 11.918 13.096 11.918 13.3542C11.918 13.6124 12.1273 13.8217 12.3855 13.8217Z" fill="#252525"/>
<path d="M15.6941 13.8217H16.3063C16.5644 13.8217 16.7737 13.6124 16.7737 13.3542C16.7737 13.096 16.5645 12.8867 16.3063 12.8867H15.6941C15.4359 12.8867 15.2266 13.096 15.2266 13.3542C15.2266 13.6124 15.4359 13.8217 15.6941 13.8217Z" fill="#252525"/>
<path d="M19.0027 13.8217H19.6149C19.8731 13.8217 20.0824 13.6124 20.0824 13.3542C20.0824 13.096 19.8732 12.8867 19.6149 12.8867H19.0027C18.7445 12.8867 18.5352 13.096 18.5352 13.3542C18.5352 13.6124 18.7444 13.8217 19.0027 13.8217Z" fill="#252525"/>
<path d="M25.6884 14.0647H27.4097C27.7515 14.0647 28.0296 13.7866 28.0296 13.4448V11.9669C28.0296 11.1505 27.3654 10.4863 26.549 10.4863C25.7326 10.4863 25.0684 11.1505 25.0684 11.9669V13.4448C25.0684 13.7866 25.3465 14.0647 25.6884 14.0647ZM26.0034 11.9668C26.0034 11.666 26.2481 11.4212 26.549 11.4212C26.8499 11.4212 27.0946 11.666 27.0946 11.9668V13.1297H26.0033V11.9668H26.0034Z" fill="#252525"/>
<path d="M26.549 21.1763C25.7326 21.1763 25.0684 21.8405 25.0684 22.6568V24.1347C25.0684 24.4766 25.3465 24.7546 25.6883 24.7546H27.4096C27.7514 24.7546 28.0295 24.4765 28.0295 24.1347V22.6568C28.0296 21.8405 27.3654 21.1763 26.549 21.1763ZM27.0946 23.8197H26.0033V22.6568C26.0033 22.356 26.248 22.1112 26.5489 22.1112C26.8498 22.1112 27.0945 22.356 27.0945 22.6568V23.8197H27.0946Z" fill="#252525"/>
<path d="M27.3226 16.2702C27.3226 16.012 27.1134 15.8027 26.8551 15.8027H26.2429C25.9847 15.8027 25.7754 16.012 25.7754 16.2702C25.7754 16.5284 25.9846 16.7377 26.2429 16.7377H26.8551C27.1133 16.7377 27.3226 16.5284 27.3226 16.2702Z" fill="#252525"/>
<path d="M24.9655 19.4379H25.5777C25.8359 19.4379 26.0452 19.2286 26.0452 18.9704C26.0452 18.7122 25.836 18.5029 25.5777 18.5029H24.9655C24.7074 18.5029 24.498 18.7122 24.498 18.9704C24.498 19.2286 24.7073 19.4379 24.9655 19.4379Z" fill="#252525"/>
<path d="M27.0527 18.9704C27.0527 19.2286 27.262 19.4379 27.5202 19.4379H28.1325C28.3907 19.4379 28.6 19.2286 28.6 18.9704C28.6 18.7122 28.3907 18.5029 28.1325 18.5029H27.5202C27.262 18.5029 27.0527 18.7122 27.0527 18.9704Z" fill="#252525"/>
<path d="M30.5782 27.872H30.3348V7.14493L31.6071 5.3798C31.7832 5.13549 31.8762 4.84724 31.8762 4.54618V0.589617C31.8762 0.279055 31.6236 0.0263672 31.313 0.0263672H29.5411C29.2304 0.0263672 28.9778 0.279055 28.9778 0.589617V1.91643H28.0227V0.589617C28.0227 0.279055 27.77 0.0263672 27.4594 0.0263672H25.6383C25.3277 0.0263672 25.075 0.279055 25.075 0.589617V1.91643H24.12V0.589617C24.12 0.279055 23.8673 0.0263672 23.5567 0.0263672H21.7848C21.4742 0.0263672 21.2215 0.279055 21.2215 0.589617V4.54624C21.2215 4.8473 21.3146 5.13555 21.4907 5.37987L22.7629 7.14499V8.63637H20.4831C20.1272 8.63637 19.8376 8.92593 19.8376 9.28187V10.7172H17.9566V9.28187C17.9566 8.92593 17.667 8.63637 17.3111 8.63637H14.6684C14.3125 8.63637 14.0229 8.92593 14.0229 9.28187V10.7172H12.1419V9.28187C12.1419 8.92593 11.8523 8.63637 11.4964 8.63637H9.21531V7.14499L10.4875 5.3798C10.6636 5.13549 10.7566 4.84724 10.7566 4.54624V0.589617C10.7566 0.279055 10.5039 0.0263672 10.1933 0.0263672H8.42138C8.11081 0.0263672 7.85813 0.279055 7.85813 0.589617V1.91643H6.903V0.589617C6.903 0.279055 6.65031 0.0263672 6.33975 0.0263672H4.51869C4.20813 0.0263672 3.95544 0.279055 3.95544 0.589617V1.91643H3.00031V0.589617C3.00031 0.279055 2.74762 0.0263672 2.43706 0.0263672H0.665125C0.354563 0.0263672 0.101875 0.279055 0.101875 0.589617V1.5828C0.101875 1.84099 0.311187 2.0503 0.569375 2.0503C0.827562 2.0503 1.03688 1.84099 1.03688 1.5828V0.961305H2.06538V2.28812C2.06538 2.59868 2.31806 2.85137 2.62862 2.85137H4.32719C4.63775 2.85137 4.89044 2.59868 4.89044 2.28812V0.961305H5.96812V2.28812C5.96812 2.59868 6.22081 2.85137 6.53137 2.85137H8.22987C8.54044 2.85137 8.79313 2.59868 8.79313 2.28812V0.961305H9.82162V4.54618C9.82162 4.6498 9.78956 4.74905 9.729 4.83312L8.50838 6.52649H2.35006L1.1295 4.83312C1.06888 4.74905 1.03688 4.6498 1.03688 4.54618V3.74393C1.03688 3.48574 0.827562 3.27643 0.569375 3.27643C0.311187 3.27643 0.101875 3.48574 0.101875 3.74393V4.54618C0.101875 4.8473 0.194937 5.13555 0.371 5.3798L1.64325 7.14493V27.872H1.42175C0.637812 27.872 0 28.5098 0 29.2938V31.205C0 31.6291 0.345 31.9741 0.769063 31.9741H31.231C31.655 31.9741 32.0001 31.6291 32.0001 31.205V29.2938C32 28.5098 31.3622 27.872 30.5782 27.872V27.872ZM22.2491 4.83312C22.1885 4.74899 22.1565 4.6498 22.1565 4.54618V0.961305H23.1851V2.28812C23.1851 2.59868 23.4377 2.85137 23.7483 2.85137H25.4468C25.7574 2.85137 26.0101 2.59868 26.0101 2.28812V0.961305H27.0878V2.28812C27.0878 2.59868 27.3405 2.85137 27.6511 2.85137H29.3496C29.6601 2.85137 29.9128 2.59868 29.9128 2.28812V0.961305H30.9413V4.54618C30.9413 4.6498 30.9093 4.74899 30.8487 4.83312L29.6281 6.52649H23.4697L22.2491 4.83312ZM29.3999 7.46149V27.7793H23.6979V7.46149H29.3999ZM9.21638 9.57124H11.2068V11.0066C11.2068 11.3626 11.4964 11.6521 11.8523 11.6521H14.3123C14.6682 11.6521 14.9578 11.3626 14.9578 11.0066V9.57124H17.0216V11.0066C17.0216 11.3626 17.3111 11.6521 17.667 11.6521H20.127C20.4829 11.6521 20.7725 11.3626 20.7725 11.0066V9.57124H22.7629V27.7793H20.3171V25.4169C20.3171 25.1587 20.1079 24.9494 19.8496 24.9494C19.5914 24.9494 19.3821 25.1587 19.3821 25.4169V27.7793H16.4736V17.8432C18.1154 18.077 19.3821 19.4919 19.3821 21.1974V23.2357C19.3821 23.4939 19.5914 23.7032 19.8496 23.7032C20.1079 23.7032 20.3171 23.4939 20.3171 23.2357V21.1974C20.3171 18.8218 18.3911 16.8882 16.0186 16.8747C16.0144 16.8746 16.0104 16.8741 16.0061 16.8741C16.0041 16.8741 16.002 16.8742 15.9999 16.8742C15.9979 16.8742 15.9958 16.8741 15.9937 16.8741C15.9896 16.8741 15.9854 16.8746 15.9812 16.8747C13.6088 16.8882 11.6827 18.8218 11.6827 21.1974V27.7793H9.21625V9.57124H9.21638ZM15.5263 17.8432V27.7793H12.6178V21.1974C12.6178 19.492 13.8845 18.0771 15.5263 17.8432ZM2.57825 7.46149H8.28019V27.7793H2.57825V7.46149ZM31.0651 31.0391H0.934937V29.2938C0.934937 29.0254 1.15331 28.807 1.42175 28.807H30.5782C30.8466 28.807 31.0651 29.0254 31.0651 29.2938V31.0391Z" fill="#252525"/>
<path d="M4.56922 14.0647H6.29047C6.63234 14.0647 6.91041 13.7866 6.91041 13.4448V11.9669C6.91041 11.1505 6.24622 10.4863 5.42978 10.4863C4.61341 10.4863 3.94922 11.1505 3.94922 11.9669V13.4448C3.94922 13.7866 4.22734 14.0647 4.56922 14.0647ZM4.88422 11.9668C4.88422 11.666 5.12897 11.4212 5.42984 11.4212C5.73072 11.4212 5.97547 11.666 5.97547 11.9668V13.1297H4.88422V11.9668Z" fill="#252525"/>
<path d="M5.42978 21.1763C4.61341 21.1763 3.94922 21.8405 3.94922 22.6568V24.1347C3.94922 24.4766 4.22734 24.7546 4.56916 24.7546H6.29041C6.63228 24.7546 6.91034 24.4765 6.91034 24.1347V22.6568C6.91034 21.8405 6.24622 21.1763 5.42978 21.1763ZM5.97541 23.8197H4.88416V22.6568C4.88416 22.356 5.12891 22.1112 5.42978 22.1112C5.73066 22.1112 5.97541 22.356 5.97541 22.6568V23.8197Z" fill="#252525"/>
<path d="M5.12375 15.8027C4.86556 15.8027 4.65625 16.012 4.65625 16.2702C4.65625 16.5284 4.86556 16.7377 5.12375 16.7377H5.73594C5.99413 16.7377 6.20344 16.5284 6.20344 16.2702C6.20344 16.012 5.99413 15.8027 5.73594 15.8027H5.12375Z" fill="#252525"/>
<path d="M4.92609 18.9704C4.92609 18.7122 4.71678 18.5029 4.45859 18.5029H3.84641C3.58822 18.5029 3.37891 18.7122 3.37891 18.9704C3.37891 19.2286 3.58822 19.4379 3.84641 19.4379H4.45859C4.71678 19.4379 4.92609 19.2286 4.92609 18.9704Z" fill="#252525"/>
<path d="M7.01328 18.5029H6.40109C6.14291 18.5029 5.93359 18.7122 5.93359 18.9704C5.93359 19.2286 6.14291 19.4379 6.40109 19.4379H7.01328C7.27147 19.4379 7.48078 19.2286 7.48078 18.9704C7.48078 18.7122 7.27147 18.5029 7.01328 18.5029Z" fill="#252525"/>
<path d="M4.23203 5.08246C4.49022 5.08246 4.69953 4.87315 4.69953 4.61496C4.69953 4.35677 4.49022 4.14746 4.23203 4.14746H3.61984C3.36166 4.14746 3.15234 4.35677 3.15234 4.61496C3.15234 4.87315 3.36166 5.08246 3.61984 5.08246H4.23203Z" fill="#252525"/>
<path d="M7.54063 5.08246C7.79881 5.08246 8.00812 4.87315 8.00812 4.61496C8.00812 4.35677 7.79881 4.14746 7.54063 4.14746H6.92844C6.67025 4.14746 6.46094 4.35677 6.46094 4.61496C6.46094 4.87315 6.67025 5.08246 6.92844 5.08246H7.54063Z" fill="#252525"/>
</svg>
