<?xml version="1.0" encoding="UTF-8" standalone="no"?>
<svg
   xmlns:dc="http://purl.org/dc/elements/1.1/"
   xmlns:cc="http://creativecommons.org/ns#"
   xmlns:rdf="http://www.w3.org/1999/02/22-rdf-syntax-ns#"
   xmlns:svg="http://www.w3.org/2000/svg"
   xmlns="http://www.w3.org/2000/svg"
   version="1.1"
   id="svg2"
   xml:space="preserve"
   width="34.132812"
   height="34.133465"
   viewBox="0 0 34.132812 34.133465"><metadata
     id="metadata8"><rdf:RDF><cc:Work
         rdf:about=""><dc:format>image/svg+xml</dc:format><dc:type
           rdf:resource="http://purl.org/dc/dcmitype/StillImage" /></cc:Work></rdf:RDF></metadata><defs
     id="defs6" /><g
     id="g10"
     transform="matrix(1.3333333,0,0,-1.3333333,0,34.133464)"><g
       id="g12"
       transform="translate(0,-0.648438)"><path
         d="m 21.850634,22.506445 c -1.447424,1.45001 -3.223677,2.528833 -5.177725,3.144667 -0.04493,0.02167 -0.09267,0.03704 -0.141953,0.04568 -2.884352,0.872831 -5.983488,0.705984 -8.757542,-0.471449 C 7.723059,25.212053 7.675008,25.191233 7.630886,25.163553 5.166131,24.07801 3.107187,22.241749 1.747827,19.916769 0.388467,17.591776 -0.201857,14.896828 0.061081,12.216508 c 4.48e-4,-0.02752 0.003021,-0.05504 0.00768,-0.08218 C 0.278515,10.052546 0.998835,8.05472 2.165811,6.318146 2.381388,5.99725 2.614937,5.682241 2.854578,5.387457 3.412402,4.688705 4.047103,4.05485 4.7467,3.498051 4.845247,3.424833 4.942463,3.350338 5.039398,3.276354 5.242214,3.121346 5.451954,2.960833 5.672857,2.812737 8.31502,1.043905 11.52078,0.321474 14.666124,0.785858 c 3.145472,0.464512 6.005631,2.08256 8.023808,4.539391 2.018303,2.45696 3.050238,5.576832 2.895101,8.752513 -0.155136,3.175809 -1.486335,6.180249 -3.734399,8.428683 z m 1.794561,-4.620619 c -0.757761,0.160778 -1.545727,0.09879 -2.269054,-0.178471 -0.491137,0.684376 -1.027712,1.33495 -1.606144,1.9473 l 1.686269,1.686581 c 0.927489,-1.013876 1.668482,-2.183666 2.188801,-3.45541 z m -6.412287,6.408472 c 1.270657,-0.518284 2.439551,-1.257345 3.452669,-2.183 l -1.685886,-1.686209 c -0.612225,0.578535 -1.26259,1.115251 -1.946878,1.606527 0.276735,0.721152 0.339199,1.506855 0.180095,2.262682 z m -4.434175,0.867289 c 1.085439,-6.53e-4 2.165503,-0.151308 3.209598,-0.447691 0.234753,-0.65906 0.274689,-1.371763 0.114945,-2.052904 -1.714688,1.087783 -3.610368,1.859649 -5.597312,2.279052 0.748672,0.147175 1.509888,0.221377 2.272769,0.221543 z M 4.517145,21.735962 c 1.013338,1.014362 2.205209,1.832947 3.515724,2.414617 2.683559,-0.131378 5.284775,-0.969472 7.540135,-2.429426 C 14.290572,20.31282 11.548301,19.773197 11.349645,19.735579 9.727065,19.490664 8.140018,19.050432 6.623104,18.424486 4.181312,17.415552 2.319321,16.027714 1.127231,14.351937 c 0.212314,2.787111 1.414733,5.406272 3.389914,7.384025 z M 11.497101,1.811649 C 9.62958,2.015808 7.839385,2.669762 6.279974,3.717442 6.08686,3.846977 5.899468,3.990082 5.701196,4.142017 5.599987,4.219458 5.498367,4.296898 5.39543,4.373186 l -2.82e-4,3.83e-4 C 5.15214,4.557379 4.921381,4.756929 4.704332,4.970945 4.796159,4.944706 4.893388,4.943682 4.985702,4.968258 5.078015,4.992704 5.161958,5.041731 5.228646,5.11021 L 7.213452,7.095362 C 7.315621,7.197506 7.37303,7.33613 7.373043,7.480642 7.373068,7.625027 7.315686,7.763649 7.213542,7.865793 7.111385,7.967937 6.972838,8.02541 6.828364,8.02541 6.68389,8.02541 6.545318,7.968065 6.443148,7.865921 L 4.458342,5.880642 C 4.392486,5.814594 4.344768,5.732672 4.319808,5.642689 4.294847,5.552832 4.293478,5.457987 4.315852,5.367491 3.959615,5.748674 3.711756,6.059841 3.70469,6.068802 3.480716,6.34413 3.267263,6.632513 3.069875,6.926273 2.021631,8.485312 1.366732,10.275138 1.161228,12.142658 c 1.077773,2.784767 3.768871,4.399769 5.854067,5.264805 1.440167,0.593678 2.946137,1.013031 4.485901,1.24914 0.0088,0.0011 0.01818,0.0024 0.02714,0.004 0.148607,0.02629 3.393408,0.619764 4.949248,2.443098 0.614399,-0.444941 1.199488,-0.928869 1.751806,-1.448805 l -6.713599,-6.715175 c -0.05094,-0.05056 -0.09139,-0.110591 -0.119168,-0.176767 -0.02765,-0.06618 -0.04198,-0.137216 -0.04211,-0.208897 -2.55e-4,-0.07181 0.01383,-0.142848 0.04122,-0.209151 0.02739,-0.0663 0.06758,-0.126592 0.118273,-0.17728 0.05069,-0.05069 0.110976,-0.09101 0.177281,-0.1184 0.0663,-0.02739 0.137343,-0.04134 0.209151,-0.04122 0.07168,1.29e-4 0.142721,0.01447 0.208896,0.04211 0.06618,0.02765 0.126208,0.06822 0.176768,0.119167 l 6.713599,6.714931 c 0.519808,-0.552434 1.003649,-1.137691 1.44845,-1.752128 -1.822721,-1.556084 -2.416128,-4.801651 -2.442369,-4.950515 -0.0017,-0.009 -0.0029,-0.01805 -0.0041,-0.02713 -0.01037,-0.0823 -1.09376,-8.244482 -6.504576,-10.342785 v 0 z m 9.583101,3.357312 c -1.975679,-1.974144 -4.59238,-3.176575 -7.377149,-3.390078 1.684479,1.200384 3.077375,3.08147 4.086526,5.544575 0.615426,1.502847 1.048832,3.073791 1.291136,4.679552 0.03738,0.198527 0.577025,2.941695 1.985024,4.224254 C 22.527628,13.96781 23.36577,11.36173 23.49505,8.673601 22.910986,7.367617 22.092554,6.179905 21.080202,5.168961 Z m 0.925057,11.608779 c 0.683519,0.159937 1.398782,0.119195 2.059774,-0.117336 0.506113,-1.790323 0.582403,-3.674994 0.222723,-5.500402 -0.418177,1.99424 -1.191425,3.896958 -2.282497,5.617738 z M 9.176166,10.469185 c -0.034701,-0.0058 -0.068557,-0.01574 -0.1008,-0.02982 C 9.009919,10.410946 8.949989,10.371265 8.898329,10.322113 8.847436,10.271297 8.807038,10.211008 8.779468,10.144705 8.751909,10.078274 8.737701,10.007105 8.737689,9.935297 8.737228,9.899586 8.74089,9.863874 8.748595,9.829058 8.755673,9.794626 8.765682,9.760962 8.778508,9.728193 8.791948,9.69453 8.809305,9.662659 8.830246,9.632961 8.849127,9.602755 8.872025,9.575233 8.898329,9.551043 8.948543,9.500225 9.00832,9.459906 9.074227,9.432257 9.140134,9.404737 9.210841,9.39053 9.282291,9.390402 c 0.071808,8.96e-4 0.142873,0.014719 0.20974,0.04096 0.032781,0.013439 0.063847,0.030848 0.092557,0.051584 0.03058,0.019583 0.058906,0.042368 0.08448,0.068097 0.024756,0.025598 0.047527,0.052991 0.068084,0.081918 0.019034,0.030337 0.035456,0.062208 0.0491,0.095232 0.014029,0.032257 0.024076,0.066178 0.029914,0.100865 0.00764,0.034816 0.011302,0.070528 0.010905,0.106111 -2.81e-4,0.14464 -0.056972,0.283392 -0.158003,0.386816 -0.063872,0.06298 -0.142208,0.109312 -0.228135,0.135041 -0.085926,0.0256 -0.176844,0.02982 -0.264767,0.01216 z"
         style="fill:#252525;fill-opacity:1;fill-rule:nonzero;stroke:none"
         id="path14" /></g></g></svg>
