<svg width="32" height="32" viewBox="0 0 32 32" fill="none" xmlns="http://www.w3.org/2000/svg">
<path d="M1.6 30.9336H0.533333C0.238781 30.9336 0 31.1724 0 31.4669C0 31.7615 0.238781 32.0003 0.533333 32.0003H1.6C1.89455 32.0003 2.13333 31.7615 2.13333 31.4669C2.13333 31.1724 1.89455 30.9336 1.6 30.9336Z" fill="#252525"/>
<path d="M29.8256 2.71434C29.5707 1.16892 28.2346 0.0351562 26.6683 0.0351562C25.102 0.0351562 23.7659 1.16892 23.5109 2.71434C22.1633 2.97347 21.2324 4.21309 21.3592 5.57954C21.4861 6.946 22.6293 7.99306 24.0016 7.99968H27.2016C27.4962 7.99968 27.7349 7.7609 27.7349 7.46634C27.7349 7.17179 27.4962 6.93301 27.2016 6.93301H24.0016C23.2211 6.91865 22.565 6.3432 22.4488 5.57129C22.3327 4.79938 22.7906 4.05635 23.5323 3.81301C23.6221 4.28678 23.8192 4.73373 24.1083 5.11968C24.209 5.25397 24.3671 5.33301 24.5349 5.33301C24.7369 5.33301 24.9216 5.21888 25.012 5.03819C25.1023 4.85751 25.0828 4.64129 24.9616 4.47968C24.4365 3.78322 24.3883 2.83729 24.8398 2.09104C25.2913 1.3448 26.1517 0.948576 27.0122 1.09051C27.8728 1.23245 28.5603 1.88396 28.7483 2.73568C28.2015 2.85766 27.707 3.14876 27.3349 3.56768C27.1736 3.79101 27.2089 4.10049 27.4164 4.28173C27.6239 4.46298 27.9354 4.45631 28.1349 4.26634C28.6245 3.71904 29.4237 3.57521 30.0733 3.91751C30.723 4.2598 31.0562 5.00035 30.8816 5.71358C30.7069 6.4268 30.0692 6.92959 29.3349 6.93301C29.0404 6.93301 28.8016 7.17179 28.8016 7.46634C28.8016 7.7609 29.0404 7.99968 29.3349 7.99968C30.7073 7.99306 31.8505 6.946 31.9773 5.57954C32.1042 4.21309 31.1732 2.97347 29.8256 2.71434Z" fill="#252525"/>
<path d="M6.399 9.59916C6.399 9.3046 6.16022 9.06582 5.86567 9.06582H2.66567C1.8852 9.05146 1.22902 8.47601 1.11291 7.7041C0.996792 6.93219 1.45464 6.18916 2.19633 5.94582C2.28621 6.41959 2.48323 6.86654 2.77233 7.25249C2.87305 7.38679 3.03113 7.46582 3.199 7.46582C3.40101 7.46582 3.58568 7.35169 3.67603 7.171C3.76637 6.99032 3.74687 6.7741 3.62567 6.61249C3.1006 5.91604 3.05237 4.9701 3.50389 4.22386C3.9554 3.47762 4.81571 3.08139 5.67629 3.22333C6.53687 3.36527 7.22437 4.01678 7.41233 4.86849C6.86552 4.99047 6.37101 5.28157 5.999 5.70049C5.83763 5.92382 5.87294 6.23331 6.08047 6.41455C6.288 6.59579 6.59942 6.58912 6.799 6.39916C7.28854 5.85185 8.08777 5.70802 8.73741 6.05032C9.38704 6.39262 9.72029 7.13317 9.54564 7.84639C9.37099 8.55961 8.73329 9.06241 7.999 9.06582C7.70445 9.06582 7.46567 9.3046 7.46567 9.59916C7.46567 9.89371 7.70445 10.1325 7.999 10.1325C9.37131 10.1259 10.5145 9.07881 10.6414 7.71235C10.7682 6.3459 9.83731 5.10628 8.48967 4.84716C8.23474 3.30174 6.89864 2.16797 5.33233 2.16797C3.76603 2.16797 2.42992 3.30174 2.175 4.84716C0.827355 5.10628 -0.103585 6.3459 0.0232707 7.71235C0.150126 9.07881 1.29335 10.1259 2.66567 10.1325H5.86567C6.16022 10.1325 6.399 9.89371 6.399 9.59916Z" fill="#252525"/>
<path d="M26.1318 24.0008V21.3341C26.1318 21.0396 25.893 20.8008 25.5984 20.8008C25.3039 20.8008 25.0651 21.0396 25.0651 21.3341V24.0008H22.9318C22.6372 24.0008 22.3984 24.2396 22.3984 24.5341C22.3984 24.8287 22.6372 25.0674 22.9318 25.0674H25.0651C25.6542 25.0674 26.1318 24.5899 26.1318 24.0008Z" fill="#252525"/>
<path d="M29.3326 15.9992H28.2659V14.3992C28.2659 12.6319 26.8332 11.1992 25.0659 11.1992H21.8659C20.0986 11.1992 18.6659 12.6319 18.6659 14.3992V23.9992C18.6659 25.7665 20.0986 27.1992 21.8659 27.1992H22.9326V30.9326H15.8606C15.9678 30.6015 15.9678 30.245 15.8606 29.9139L14.6126 26.5272C14.3086 25.7059 13.9886 25.5032 12.2659 23.8339V22.2339C12.6659 22.4899 12.6979 22.4632 15.6152 23.4072C16.4323 23.5463 17.2204 23.0384 17.4312 22.2368C17.642 21.4352 17.2057 20.6054 16.4259 20.3246C13.5939 19.4179 14.2659 19.7912 12.7192 18.3299C12.221 17.858 11.5601 17.5963 10.8739 17.5992H8.66589C8.1227 17.5989 7.59238 17.7645 7.14589 18.0739C5.58855 19.1406 5.09255 19.4072 4.69789 20.0739C3.51922 22.0419 3.38055 22.2072 3.35922 22.2446C3.06044 23.0156 3.39837 23.8872 4.13879 24.2554C4.87921 24.6235 5.77816 24.3668 6.21255 23.6632C7.33789 21.8819 7.27922 21.9299 7.46589 21.7592V25.9512C7.46589 26.6659 7.27389 26.8099 5.67922 29.6046C5.45229 30.0107 5.41335 30.4954 5.57255 30.9326H3.73255C3.438 30.9326 3.19922 31.1713 3.19922 31.4659C3.19922 31.7604 3.438 31.9992 3.73255 31.9992H31.4659C31.7604 31.9992 31.9992 31.7604 31.9992 31.4659C31.9992 31.1713 31.7604 30.9326 31.4659 30.9326H28.7992V28.7992H29.3326C30.8053 28.7992 31.9992 27.6053 31.9992 26.1326V18.6659C31.9992 17.1931 30.8053 15.9992 29.3326 15.9992ZM19.7326 23.9992V14.3992C19.7326 13.221 20.6877 12.2659 21.8659 12.2659H25.0659C26.2441 12.2659 27.1992 13.221 27.1992 14.3992V23.9992C27.1992 25.1774 26.2441 26.1326 25.0659 26.1326H21.8659C20.6877 26.1326 19.7326 25.1774 19.7326 23.9992ZM7.06589 20.7086C6.50055 21.0979 6.38855 21.3646 5.29522 23.1139V23.1672C5.15139 23.3887 4.86715 23.4715 4.62684 23.3621C4.38653 23.2526 4.26251 22.9837 4.33522 22.7299C5.59389 20.6926 5.71655 20.3779 6.11122 20.1059L7.78055 18.9486C8.04203 18.7705 8.34962 18.6723 8.66589 18.6659H10.8739C12.1912 18.6659 12.5272 20.1859 13.9886 20.6766L16.1219 21.3592C16.3842 21.4402 16.5423 21.7071 16.4871 21.976C16.4319 22.245 16.1816 22.4281 15.9086 22.3992C12.9912 21.4552 12.9379 21.4926 12.5859 21.1512C12.2339 20.8099 12.2659 20.8632 12.2659 20.7992C12.2659 20.5047 12.0271 20.2659 11.7326 20.2659C11.438 20.2659 11.1992 20.5047 11.1992 20.7992V23.4659H8.53255V21.0339C8.74271 20.9337 8.96251 20.855 9.18855 20.7992C9.4831 20.7315 9.66697 20.4378 9.59922 20.1432C9.53147 19.8487 9.23777 19.6648 8.94322 19.7326C8.2575 19.9266 7.61866 20.2588 7.06589 20.7086ZM6.60722 30.1326C8.74055 26.3992 8.53255 27.1992 8.53255 24.5326H11.4552C13.1406 26.1699 13.4019 26.3299 13.6152 26.9006L14.8686 30.2499C14.9407 30.5356 14.7676 30.8257 14.4819 30.8979C14.1962 30.9701 13.9061 30.7969 13.8339 30.5112C12.3886 26.6659 12.7992 27.3966 11.4819 25.8286C11.1925 25.4848 10.7188 25.3593 10.2972 25.5145C9.87564 25.6698 9.59653 26.0726 9.59922 26.5219C9.59859 26.8736 9.50671 27.219 9.33255 27.5246L7.53522 30.6552C7.38794 30.9115 7.06081 30.9998 6.80455 30.8526C6.54829 30.7053 6.45994 30.3781 6.60722 30.1219V30.1326ZM10.2606 28.0526C10.5235 27.585 10.663 27.0583 10.6659 26.5219C11.8659 27.9352 11.4499 27.1726 12.7992 30.8472L12.8312 30.9326H8.56455L10.2606 28.0526ZM27.7326 30.9326H23.9992V27.1992H24.7619C25.185 28.1688 26.1413 28.7966 27.1992 28.7992H27.7326V30.9326ZM30.9326 26.1326C30.9326 27.0162 30.2162 27.7326 29.3326 27.7326H27.1992C26.6937 27.73 26.2191 27.4888 25.9192 27.0819C27.3053 26.6984 28.2652 25.4373 28.2659 23.9992V17.0659H29.3326C30.2162 17.0659 30.9326 17.7822 30.9326 18.6659V26.1326Z" fill="#252525"/>
<path d="M10.1333 12.2656C8.95513 12.2656 8 13.2208 8 14.399C8 15.5772 8.95513 16.5323 10.1333 16.5323C11.3115 16.5323 12.2667 15.5772 12.2667 14.399C12.2667 13.2208 11.3115 12.2656 10.1333 12.2656ZM10.1333 15.4656C9.54423 15.4656 9.06667 14.9881 9.06667 14.399C9.06667 13.8099 9.54423 13.3323 10.1333 13.3323C10.7224 13.3323 11.2 13.8099 11.2 14.399C11.2 14.9881 10.7224 15.4656 10.1333 15.4656Z" fill="#252525"/>
<path d="M14.401 5.33333C15.8738 5.33333 17.0677 4.13943 17.0677 2.66667C17.0677 1.19391 15.8738 0 14.401 0C12.9283 0 11.7344 1.19391 11.7344 2.66667C11.7344 4.13943 12.9283 5.33333 14.401 5.33333ZM14.401 1.06667C15.2847 1.06667 16.001 1.78301 16.001 2.66667C16.001 3.55032 15.2847 4.26667 14.401 4.26667C13.5174 4.26667 12.801 3.55032 12.801 2.66667C12.801 1.78301 13.5174 1.06667 14.401 1.06667Z" fill="#252525"/>
<path d="M25.5997 19.7349C25.8943 19.7349 26.1331 19.4961 26.1331 19.2016V18.1349C26.1331 17.8403 25.8943 17.6016 25.5997 17.6016C25.3052 17.6016 25.0664 17.8403 25.0664 18.1349V19.2016C25.0664 19.4961 25.3052 19.7349 25.5997 19.7349Z" fill="#252525"/>
</svg>
