<svg width="151" height="48" viewBox="0 0 151 48" fill="none" xmlns="http://www.w3.org/2000/svg">
<rect width="151" height="48" rx="8" fill="#252525"/>
<path d="M75.7145 25.1289C73.6233 25.1289 71.9189 26.7068 71.9189 28.88C71.9189 31.0399 73.6233 32.631 75.7145 32.631C77.8066 32.631 79.511 31.0399 79.511 28.88C79.5101 26.7068 77.8057 25.1289 75.7145 25.1289ZM75.7145 31.1546C74.5685 31.1546 73.5807 30.217 73.5807 28.8808C73.5807 27.5305 74.5693 26.6071 75.7145 26.6071C76.8606 26.6071 77.8484 27.5305 77.8484 28.8808C77.8484 30.2162 76.8606 31.1546 75.7145 31.1546ZM67.4334 25.1289C65.3422 25.1289 63.6378 26.7068 63.6378 28.88C63.6378 31.0399 65.3422 32.631 67.4334 32.631C69.5254 32.631 71.2299 31.0399 71.2299 28.88C71.2299 26.7068 69.5254 25.1289 67.4334 25.1289ZM67.4334 31.1546C66.2873 31.1546 65.2995 30.217 65.2995 28.8808C65.2995 27.5305 66.2882 26.6071 67.4334 26.6071C68.5794 26.6071 69.5672 27.5305 69.5672 28.8808C69.5681 30.2162 68.5794 31.1546 67.4334 31.1546ZM57.5838 26.2808V27.8719H61.423C61.3083 28.7671 61.0078 29.4206 60.549 29.8748C59.9906 30.4287 59.1166 31.0399 57.5838 31.0399C55.2206 31.0399 53.373 29.1498 53.373 26.8056C53.373 24.4613 55.2206 22.5712 57.5838 22.5712C58.8588 22.5712 59.7897 23.0686 60.477 23.7081L61.6088 22.5853C60.6486 21.676 59.3745 20.9801 57.5838 20.9801C54.3466 20.9801 51.625 23.5943 51.625 26.8056C51.625 30.0168 54.3466 32.631 57.5838 32.631C59.3309 32.631 60.6495 32.0621 61.6799 30.9967C62.7398 29.9454 63.0696 28.4672 63.0696 27.2739C63.0696 26.9052 63.0412 26.5639 62.9834 26.2799H57.5838V26.2808ZM97.8676 27.5164C97.5528 26.6785 96.5926 25.1289 94.6303 25.1289C92.6823 25.1289 91.0632 26.6494 91.0632 28.88C91.0632 30.9826 92.6681 32.631 94.8161 32.631C96.549 32.631 97.5519 31.5797 97.968 30.9685L96.6788 30.1156C96.2494 30.7409 95.6617 31.1528 94.8161 31.1528C93.9715 31.1528 93.3696 30.7691 92.9828 30.0159L98.0392 27.9415L97.8676 27.5164ZM92.7107 28.7671C92.668 27.3171 93.8426 26.5789 94.6881 26.5789C95.3469 26.5789 95.9053 26.9061 96.092 27.3744L92.7107 28.7671ZM88.6004 32.4043H90.2612V21.3788H88.6004V32.4043ZM85.8779 25.9677H85.821C85.4485 25.5267 84.7319 25.1289 83.8303 25.1289C81.9392 25.1289 80.2063 26.7773 80.2063 28.895C80.2063 30.9976 81.9392 32.6319 83.8303 32.6319C84.7328 32.6319 85.4485 32.2341 85.821 31.7799H85.8779V32.3197C85.8779 33.7546 85.1044 34.522 83.8588 34.522C82.8416 34.522 82.2112 33.7979 81.9534 33.1866L80.5068 33.7837C80.922 34.7777 82.0245 36.0001 83.8588 36.0001C85.8068 36.0001 87.4543 34.8633 87.4543 32.0921V25.3573H85.8788V25.9677H85.8779ZM83.9735 31.1546C82.8274 31.1546 81.868 30.202 81.868 28.895C81.868 27.5729 82.8274 26.6071 83.9735 26.6071C85.1044 26.6071 85.9926 27.5729 85.9926 28.895C85.9926 30.202 85.1044 31.1546 83.9735 31.1546ZM105.651 21.3788H101.676V32.4043H103.334V28.2273H105.65C107.489 28.2273 109.297 26.907 109.297 24.8035C109.297 22.7 107.489 21.3788 105.651 21.3788ZM105.693 26.6927H103.334V22.9134H105.693C106.934 22.9134 107.638 23.9321 107.638 24.8035C107.638 25.6572 106.934 26.6927 105.693 26.6927ZM115.947 25.1095C114.746 25.1095 113.502 25.6343 112.987 26.7976L114.459 27.4071C114.774 26.7976 115.361 26.5983 115.975 26.5983C116.833 26.5983 117.705 27.109 117.72 28.0165V28.1303C117.419 27.9601 116.775 27.7052 115.989 27.7052C114.402 27.7052 112.786 28.5704 112.786 30.187C112.786 31.6626 114.088 32.6125 115.546 32.6125C116.661 32.6125 117.276 32.1159 117.662 31.5338H117.719V32.3849H119.321V28.1576C119.322 26.2014 117.848 25.1095 115.947 25.1095ZM115.746 31.1519C115.203 31.1519 114.445 30.882 114.445 30.2153C114.445 29.3642 115.389 29.0378 116.205 29.0378C116.933 29.0378 117.277 29.1939 117.72 29.4065C117.591 30.4287 116.704 31.1519 115.746 31.1519ZM125.155 25.3503L123.253 30.1306H123.196L121.223 25.3503H119.436L122.395 32.0313L120.708 35.7479H122.438L127 25.3503H125.155ZM110.213 32.4043H111.871V21.3788H110.213V32.4043Z" fill="white"/>
<path d="M57.2918 14.9793C57.2918 15.7184 57.0713 16.3066 56.6294 16.7459C56.1279 17.268 55.4735 17.5291 54.6698 17.5291C53.8998 17.5291 53.2445 17.2645 52.7066 16.7353C52.1678 16.2052 51.8984 15.549 51.8984 14.7658C51.8984 13.9818 52.1678 13.3256 52.7066 12.7964C53.2445 12.2663 53.8998 12.0017 54.6698 12.0017C55.0521 12.0017 55.4175 12.0758 55.7643 12.2231C56.1119 12.3713 56.3902 12.568 56.5983 12.814L56.1297 13.2797C55.7767 12.8608 55.2904 12.6517 54.6689 12.6517C54.107 12.6517 53.6215 12.8475 53.2116 13.2391C52.8018 13.6307 52.5973 14.1396 52.5973 14.765C52.5973 15.3903 52.8018 15.8992 53.2116 16.2908C53.6215 16.6824 54.107 16.8782 54.6689 16.8782C55.2646 16.8782 55.7616 16.6815 56.159 16.2872C56.4169 16.0306 56.5663 15.6734 56.6063 15.2156H54.6689V14.5797H57.2535C57.2802 14.7182 57.2918 14.8514 57.2918 14.9793Z" fill="white"/>
<path d="M61.3906 12.7691H58.9616V14.4466H61.1524V15.0825H58.9616V16.76H61.3906V17.4109H58.2761V12.1191H61.3906V12.7691Z" fill="white"/>
<path d="M64.281 17.4109H63.5955V12.7691H62.1054V12.1191H65.7712V12.7691H64.281V17.4109Z" fill="white"/>
<path d="M68.4234 17.4109V12.1191H69.1089V17.4109H68.4234Z" fill="white"/>
<path d="M72.1489 17.4109H71.4634V12.7691H69.9732V12.1191H73.639V12.7691H72.1489V17.4109Z" fill="white"/>
<path d="M80.5783 16.7274C80.0537 17.2619 79.402 17.5291 78.6223 17.5291C77.8425 17.5291 77.1908 17.2619 76.6671 16.7274C76.1426 16.1929 75.8811 15.5385 75.8811 14.765C75.8811 13.9915 76.1426 13.3371 76.6671 12.8026C77.1908 12.2681 77.8425 12 78.6223 12C79.3976 12 80.0484 12.269 80.5748 12.8061C81.1011 13.3432 81.3643 13.9959 81.3643 14.765C81.3643 15.5385 81.102 16.1929 80.5783 16.7274ZM77.173 16.2838C77.5678 16.6806 78.0506 16.8782 78.6223 16.8782C79.194 16.8782 79.6777 16.6798 80.0715 16.2838C80.4663 15.8869 80.6646 15.3806 80.6646 14.765C80.6646 14.1494 80.4663 13.6431 80.0715 13.2462C79.6777 12.8493 79.194 12.6518 78.6223 12.6518C78.0506 12.6518 77.5678 12.8502 77.173 13.2462C76.7792 13.6431 76.5809 14.1494 76.5809 14.765C76.5809 15.3806 76.7792 15.8869 77.173 16.2838Z" fill="white"/>
<path d="M82.3263 17.4109V12.1191H83.1603L85.753 16.2353H85.7823L85.753 15.2157V12.1191H86.4385V17.4109H85.7227L83.0101 13.0945H82.9807L83.0101 14.1141V17.4109H82.3263Z" fill="white"/>
<path d="M57.2918 14.9793C57.2918 15.7184 57.0713 16.3066 56.6294 16.7459C56.1279 17.268 55.4735 17.5291 54.6698 17.5291C53.8998 17.5291 53.2445 17.2645 52.7066 16.7353C52.1678 16.2052 51.8984 15.549 51.8984 14.7658C51.8984 13.9818 52.1678 13.3256 52.7066 12.7964C53.2445 12.2663 53.8998 12.0017 54.6698 12.0017C55.0521 12.0017 55.4175 12.0758 55.7643 12.2231C56.1119 12.3713 56.3902 12.568 56.5983 12.814L56.1297 13.2797C55.7767 12.8608 55.2904 12.6517 54.6689 12.6517C54.107 12.6517 53.6215 12.8475 53.2116 13.2391C52.8018 13.6307 52.5973 14.1396 52.5973 14.765C52.5973 15.3903 52.8018 15.8992 53.2116 16.2908C53.6215 16.6824 54.107 16.8782 54.6689 16.8782C55.2646 16.8782 55.7616 16.6815 56.159 16.2872C56.4169 16.0306 56.5663 15.6734 56.6063 15.2156H54.6689V14.5797H57.2535C57.2802 14.7182 57.2918 14.8514 57.2918 14.9793Z" stroke="white" stroke-width="0.2" stroke-miterlimit="10"/>
<path d="M61.3906 12.7691H58.9616V14.4466H61.1524V15.0825H58.9616V16.76H61.3906V17.4109H58.2761V12.1191H61.3906V12.7691Z" stroke="white" stroke-width="0.2" stroke-miterlimit="10"/>
<path d="M64.281 17.4109H63.5955V12.7691H62.1054V12.1191H65.7712V12.7691H64.281V17.4109Z" stroke="white" stroke-width="0.2" stroke-miterlimit="10"/>
<path d="M68.4234 17.4109V12.1191H69.1089V17.4109H68.4234Z" stroke="white" stroke-width="0.2" stroke-miterlimit="10"/>
<path d="M72.1489 17.4109H71.4634V12.7691H69.9732V12.1191H73.639V12.7691H72.1489V17.4109Z" stroke="white" stroke-width="0.2" stroke-miterlimit="10"/>
<path d="M80.5783 16.7274C80.0537 17.2619 79.402 17.5291 78.6223 17.5291C77.8425 17.5291 77.1908 17.2619 76.6671 16.7274C76.1426 16.1929 75.8811 15.5385 75.8811 14.765C75.8811 13.9915 76.1426 13.3371 76.6671 12.8026C77.1908 12.2681 77.8425 12 78.6223 12C79.3976 12 80.0484 12.269 80.5748 12.8061C81.1011 13.3432 81.3643 13.9959 81.3643 14.765C81.3643 15.5385 81.102 16.1929 80.5783 16.7274ZM77.173 16.2838C77.5678 16.6806 78.0506 16.8782 78.6223 16.8782C79.194 16.8782 79.6777 16.6798 80.0715 16.2838C80.4663 15.8869 80.6646 15.3806 80.6646 14.765C80.6646 14.1494 80.4663 13.6431 80.0715 13.2462C79.6777 12.8493 79.194 12.6518 78.6223 12.6518C78.0506 12.6518 77.5678 12.8502 77.173 13.2462C76.7792 13.6431 76.5809 14.1494 76.5809 14.765C76.5809 15.3806 76.7792 15.8869 77.173 16.2838Z" stroke="white" stroke-width="0.2" stroke-miterlimit="10"/>
<path d="M82.3263 17.4109V12.1191H83.1603L85.753 16.2353H85.7823L85.753 15.2157V12.1191H86.4385V17.4109H85.7227L83.0101 13.0945H82.9807L83.0101 14.1141V17.4109H82.3263Z" stroke="white" stroke-width="0.2" stroke-miterlimit="10"/>
<g filter="url(#filter0_ii_3034_4217)">
<path d="M24.4117 12.5953C24.1529 12.8669 24 13.2885 24 13.8344V33.3402C24 33.887 24.1529 34.3077 24.4117 34.5794L24.4775 34.6429L35.4926 23.7161V23.5873V23.4586L24.4775 12.5309L24.4117 12.5953Z" fill="url(#paint0_linear_3034_4217)"/>
<path d="M39.1633 27.3592L35.4922 23.7158V23.587V23.4582L39.1642 19.8157L39.2469 19.8624L43.5973 22.3143C44.8394 23.0146 44.8394 24.1603 43.5973 24.8615L39.2469 27.3133L39.1633 27.3592Z" fill="url(#paint1_linear_3034_4217)"/>
<g filter="url(#filter1_i_3034_4217)">
<path d="M39.2497 27.3114L35.4941 23.5859L24.4141 34.578C24.8231 35.0084 25.4997 35.0613 26.2616 34.6327L39.2497 27.3114Z" fill="url(#paint2_linear_3034_4217)"/>
</g>
<path d="M39.2497 19.8609L26.2616 12.5406C25.4997 12.111 24.8231 12.1648 24.4141 12.5952L35.495 23.5873L39.2497 19.8609Z" fill="url(#paint3_linear_3034_4217)"/>
</g>
<defs>
<filter id="filter0_ii_3034_4217" x="24" y="12.2441" width="20.5293" height="22.6846" filterUnits="userSpaceOnUse" color-interpolation-filters="sRGB">
<feFlood flood-opacity="0" result="BackgroundImageFix"/>
<feBlend mode="normal" in="SourceGraphic" in2="BackgroundImageFix" result="shape"/>
<feColorMatrix in="SourceAlpha" type="matrix" values="0 0 0 0 0 0 0 0 0 0 0 0 0 0 0 0 0 0 127 0" result="hardAlpha"/>
<feOffset dy="-0.15"/>
<feComposite in2="hardAlpha" operator="arithmetic" k2="-1" k3="1"/>
<feColorMatrix type="matrix" values="0 0 0 0 0 0 0 0 0 0 0 0 0 0 0 0 0 0 0.12 0"/>
<feBlend mode="normal" in2="shape" result="effect1_innerShadow_3034_4217"/>
<feColorMatrix in="SourceAlpha" type="matrix" values="0 0 0 0 0 0 0 0 0 0 0 0 0 0 0 0 0 0 127 0" result="hardAlpha"/>
<feOffset dy="0.15"/>
<feComposite in2="hardAlpha" operator="arithmetic" k2="-1" k3="1"/>
<feColorMatrix type="matrix" values="0 0 0 0 1 0 0 0 0 1 0 0 0 0 1 0 0 0 0.25 0"/>
<feBlend mode="normal" in2="effect1_innerShadow_3034_4217" result="effect2_innerShadow_3034_4217"/>
</filter>
<filter id="filter1_i_3034_4217" x="24.4141" y="23.5859" width="14.8359" height="11.3428" filterUnits="userSpaceOnUse" color-interpolation-filters="sRGB">
<feFlood flood-opacity="0" result="BackgroundImageFix"/>
<feBlend mode="normal" in="SourceGraphic" in2="BackgroundImageFix" result="shape"/>
<feColorMatrix in="SourceAlpha" type="matrix" values="0 0 0 0 0 0 0 0 0 0 0 0 0 0 0 0 0 0 127 0" result="hardAlpha"/>
<feOffset dy="-0.15"/>
<feComposite in2="hardAlpha" operator="arithmetic" k2="-1" k3="1"/>
<feColorMatrix type="matrix" values="0 0 0 0 0 0 0 0 0 0 0 0 0 0 0 0 0 0 0.08 0"/>
<feBlend mode="normal" in2="shape" result="effect1_innerShadow_3034_4217"/>
</filter>
<linearGradient id="paint0_linear_3034_4217" x1="34.5162" y1="13.6281" x2="19.7154" y2="28.5486" gradientUnits="userSpaceOnUse">
<stop stop-color="#00A0FF"/>
<stop offset="0.0066" stop-color="#00A1FF"/>
<stop offset="0.2601" stop-color="#00BEFF"/>
<stop offset="0.5122" stop-color="#00D2FF"/>
<stop offset="0.7604" stop-color="#00DFFF"/>
<stop offset="1" stop-color="#00E3FF"/>
</linearGradient>
<linearGradient id="paint1_linear_3034_4217" x1="45.2141" y1="23.587" x2="23.7014" y2="23.587" gradientUnits="userSpaceOnUse">
<stop stop-color="#FFE000"/>
<stop offset="0.4087" stop-color="#FFBD00"/>
<stop offset="0.7754" stop-color="#FFA500"/>
<stop offset="1" stop-color="#FF9C00"/>
</linearGradient>
<linearGradient id="paint2_linear_3034_4217" x1="37.2102" y1="25.6091" x2="17.1384" y2="45.8432" gradientUnits="userSpaceOnUse">
<stop stop-color="#FF3A44"/>
<stop offset="1" stop-color="#C31162"/>
</linearGradient>
<linearGradient id="paint3_linear_3034_4217" x1="21.6235" y1="6.10195" x2="30.5861" y2="15.1371" gradientUnits="userSpaceOnUse">
<stop stop-color="#32A071"/>
<stop offset="0.0685" stop-color="#2DA771"/>
<stop offset="0.4762" stop-color="#15CF74"/>
<stop offset="0.8009" stop-color="#06E775"/>
<stop offset="1" stop-color="#00F076"/>
</linearGradient>
</defs>
</svg>
