<svg width="100%" height="48" viewBox="0 0 416 48" fill="none" xmlns="http://www.w3.org/2000/svg">
    <rect width="416" height="48" rx="8" fill="#252525"/>
    <path d="M208.215 25.1289C206.123 25.1289 204.419 26.7068 204.419 28.88C204.419 31.0399 206.123 32.631 208.215 32.631C210.307 32.631 212.011 31.0399 212.011 28.88C212.01 26.7068 210.306 25.1289 208.215 25.1289ZM208.215 31.1546C207.068 31.1546 206.081 30.217 206.081 28.8808C206.081 27.5305 207.069 26.6071 208.215 26.6071C209.361 26.6071 210.348 27.5305 210.348 28.8808C210.348 30.2162 209.361 31.1546 208.215 31.1546ZM199.933 25.1289C197.842 25.1289 196.138 26.7068 196.138 28.88C196.138 31.0399 197.842 32.631 199.933 32.631C202.025 32.631 203.73 31.0399 203.73 28.88C203.73 26.7068 202.025 25.1289 199.933 25.1289ZM199.933 31.1546C198.787 31.1546 197.799 30.217 197.799 28.8808C197.799 27.5305 198.788 26.6071 199.933 26.6071C201.079 26.6071 202.067 27.5305 202.067 28.8808C202.068 30.2162 201.079 31.1546 199.933 31.1546ZM190.084 26.2808V27.8719H193.923C193.808 28.7671 193.508 29.4206 193.049 29.8748C192.491 30.4287 191.617 31.0399 190.084 31.0399C187.721 31.0399 185.873 29.1498 185.873 26.8056C185.873 24.4613 187.721 22.5712 190.084 22.5712C191.359 22.5712 192.29 23.0686 192.977 23.7081L194.109 22.5853C193.149 21.676 191.874 20.9801 190.084 20.9801C186.847 20.9801 184.125 23.5943 184.125 26.8056C184.125 30.0168 186.847 32.631 190.084 32.631C191.831 32.631 193.149 32.0621 194.18 30.9967C195.24 29.9454 195.57 28.4672 195.57 27.2739C195.57 26.9052 195.541 26.5639 195.483 26.2799H190.084V26.2808ZM230.368 27.5164C230.053 26.6785 229.093 25.1289 227.13 25.1289C225.182 25.1289 223.563 26.6494 223.563 28.88C223.563 30.9826 225.168 32.631 227.316 32.631C229.049 32.631 230.052 31.5797 230.468 30.9685L229.179 30.1156C228.749 30.7409 228.162 31.1528 227.316 31.1528C226.471 31.1528 225.87 30.7691 225.483 30.0159L230.539 27.9415L230.368 27.5164ZM225.211 28.7671C225.168 27.3171 226.343 26.5789 227.188 26.5789C227.847 26.5789 228.405 26.9061 228.592 27.3744L225.211 28.7671ZM221.1 32.4043H222.761V21.3788H221.1V32.4043ZM218.378 25.9677H218.321C217.948 25.5267 217.232 25.1289 216.33 25.1289C214.439 25.1289 212.706 26.7773 212.706 28.895C212.706 30.9976 214.439 32.6319 216.33 32.6319C217.233 32.6319 217.948 32.2341 218.321 31.7799H218.378V32.3197C218.378 33.7546 217.604 34.522 216.359 34.522C215.342 34.522 214.711 33.7979 214.453 33.1866L213.007 33.7837C213.422 34.7777 214.525 36.0001 216.359 36.0001C218.307 36.0001 219.954 34.8633 219.954 32.0921V25.3573H218.379V25.9677H218.378ZM216.473 31.1546C215.327 31.1546 214.368 30.202 214.368 28.895C214.368 27.5729 215.327 26.6071 216.473 26.6071C217.604 26.6071 218.493 27.5729 218.493 28.895C218.493 30.202 217.604 31.1546 216.473 31.1546ZM238.151 21.3788H234.176V32.4043H235.834V28.2273H238.15C239.989 28.2273 241.797 26.907 241.797 24.8035C241.797 22.7 239.989 21.3788 238.151 21.3788ZM238.193 26.6927H235.834V22.9134H238.193C239.434 22.9134 240.138 23.9321 240.138 24.8035C240.138 25.6572 239.434 26.6927 238.193 26.6927ZM248.447 25.1095C247.246 25.1095 246.002 25.6343 245.487 26.7976L246.959 27.4071C247.274 26.7976 247.861 26.5983 248.475 26.5983C249.333 26.5983 250.205 27.109 250.22 28.0165V28.1303C249.919 27.9601 249.275 27.7052 248.489 27.7052C246.902 27.7052 245.286 28.5704 245.286 30.187C245.286 31.6626 246.588 32.6125 248.046 32.6125C249.161 32.6125 249.776 32.1159 250.162 31.5338H250.219V32.3849H251.821V28.1576C251.822 26.2014 250.348 25.1095 248.447 25.1095ZM248.246 31.1519C247.703 31.1519 246.945 30.882 246.945 30.2153C246.945 29.3642 247.889 29.0378 248.705 29.0378C249.433 29.0378 249.777 29.1939 250.22 29.4065C250.091 30.4287 249.204 31.1519 248.246 31.1519ZM257.655 25.3503L255.753 30.1306H255.696L253.723 25.3503H251.936L254.895 32.0313L253.208 35.7479H254.938L259.5 25.3503H257.655ZM242.713 32.4043H244.371V21.3788H242.713V32.4043Z" fill="white"/>
    <path d="M189.792 14.9793C189.792 15.7184 189.571 16.3066 189.129 16.7459C188.628 17.268 187.974 17.5291 187.17 17.5291C186.4 17.5291 185.745 17.2645 185.207 16.7353C184.668 16.2052 184.398 15.549 184.398 14.7658C184.398 13.9818 184.668 13.3256 185.207 12.7964C185.745 12.2663 186.4 12.0017 187.17 12.0017C187.552 12.0017 187.918 12.0758 188.264 12.2231C188.612 12.3713 188.89 12.568 189.098 12.814L188.63 13.2797C188.277 12.8608 187.79 12.6517 187.169 12.6517C186.607 12.6517 186.122 12.8475 185.712 13.2391C185.302 13.6307 185.097 14.1396 185.097 14.765C185.097 15.3903 185.302 15.8992 185.712 16.2908C186.122 16.6824 186.607 16.8782 187.169 16.8782C187.765 16.8782 188.262 16.6815 188.659 16.2872C188.917 16.0306 189.066 15.6734 189.106 15.2156H187.169V14.5797H189.754C189.78 14.7182 189.792 14.8514 189.792 14.9793Z" fill="white"/>
    <path d="M193.891 12.7691H191.462V14.4466H193.652V15.0825H191.462V16.76H193.891V17.4109H190.776V12.1191H193.891V12.7691Z" fill="white"/>
    <path d="M196.781 17.4109H196.096V12.7691H194.605V12.1191H198.271V12.7691H196.781V17.4109Z" fill="white"/>
    <path d="M200.923 17.4109V12.1191H201.609V17.4109H200.923Z" fill="white"/>
    <path d="M204.649 17.4109H203.963V12.7691H202.473V12.1191H206.139V12.7691H204.649V17.4109Z" fill="white"/>
    <path d="M213.078 16.7274C212.554 17.2619 211.902 17.5291 211.122 17.5291C210.343 17.5291 209.691 17.2619 209.167 16.7274C208.643 16.1929 208.381 15.5385 208.381 14.765C208.381 13.9915 208.643 13.3371 209.167 12.8026C209.691 12.2681 210.343 12 211.122 12C211.898 12 212.548 12.269 213.075 12.8061C213.601 13.3432 213.864 13.9959 213.864 14.765C213.864 15.5385 213.602 16.1929 213.078 16.7274ZM209.673 16.2838C210.068 16.6806 210.551 16.8782 211.122 16.8782C211.694 16.8782 212.178 16.6798 212.572 16.2838C212.966 15.8869 213.165 15.3806 213.165 14.765C213.165 14.1494 212.966 13.6431 212.572 13.2462C212.178 12.8493 211.694 12.6518 211.122 12.6518C210.551 12.6518 210.068 12.8502 209.673 13.2462C209.279 13.6431 209.081 14.1494 209.081 14.765C209.081 15.3806 209.279 15.8869 209.673 16.2838Z" fill="white"/>
    <path d="M214.826 17.4109V12.1191H215.66L218.253 16.2353H218.282L218.253 15.2157V12.1191H218.938V17.4109H218.223L215.51 13.0945H215.481L215.51 14.1141V17.4109H214.826Z" fill="white"/>
    <path d="M189.792 14.9793C189.792 15.7184 189.571 16.3066 189.129 16.7459C188.628 17.268 187.974 17.5291 187.17 17.5291C186.4 17.5291 185.745 17.2645 185.207 16.7353C184.668 16.2052 184.398 15.549 184.398 14.7658C184.398 13.9818 184.668 13.3256 185.207 12.7964C185.745 12.2663 186.4 12.0017 187.17 12.0017C187.552 12.0017 187.918 12.0758 188.264 12.2231C188.612 12.3713 188.89 12.568 189.098 12.814L188.63 13.2797C188.277 12.8608 187.79 12.6517 187.169 12.6517C186.607 12.6517 186.122 12.8475 185.712 13.2391C185.302 13.6307 185.097 14.1396 185.097 14.765C185.097 15.3903 185.302 15.8992 185.712 16.2908C186.122 16.6824 186.607 16.8782 187.169 16.8782C187.765 16.8782 188.262 16.6815 188.659 16.2872C188.917 16.0306 189.066 15.6734 189.106 15.2156H187.169V14.5797H189.754C189.78 14.7182 189.792 14.8514 189.792 14.9793Z" stroke="white" stroke-width="0.2" stroke-miterlimit="10"/>
    <path d="M193.891 12.7691H191.462V14.4466H193.652V15.0825H191.462V16.76H193.891V17.4109H190.776V12.1191H193.891V12.7691Z" stroke="white" stroke-width="0.2" stroke-miterlimit="10"/>
    <path d="M196.781 17.4109H196.096V12.7691H194.605V12.1191H198.271V12.7691H196.781V17.4109Z" stroke="white" stroke-width="0.2" stroke-miterlimit="10"/>
    <path d="M200.923 17.4109V12.1191H201.609V17.4109H200.923Z" stroke="white" stroke-width="0.2" stroke-miterlimit="10"/>
    <path d="M204.649 17.4109H203.963V12.7691H202.473V12.1191H206.139V12.7691H204.649V17.4109Z" stroke="white" stroke-width="0.2" stroke-miterlimit="10"/>
    <path d="M213.078 16.7274C212.554 17.2619 211.902 17.5291 211.122 17.5291C210.343 17.5291 209.691 17.2619 209.167 16.7274C208.643 16.1929 208.381 15.5385 208.381 14.765C208.381 13.9915 208.643 13.3371 209.167 12.8026C209.691 12.2681 210.343 12 211.122 12C211.898 12 212.548 12.269 213.075 12.8061C213.601 13.3432 213.864 13.9959 213.864 14.765C213.864 15.5385 213.602 16.1929 213.078 16.7274ZM209.673 16.2838C210.068 16.6806 210.551 16.8782 211.122 16.8782C211.694 16.8782 212.178 16.6798 212.572 16.2838C212.966 15.8869 213.165 15.3806 213.165 14.765C213.165 14.1494 212.966 13.6431 212.572 13.2462C212.178 12.8493 211.694 12.6518 211.122 12.6518C210.551 12.6518 210.068 12.8502 209.673 13.2462C209.279 13.6431 209.081 14.1494 209.081 14.765C209.081 15.3806 209.279 15.8869 209.673 16.2838Z" stroke="white" stroke-width="0.2" stroke-miterlimit="10"/>
    <path d="M214.826 17.4109V12.1191H215.66L218.253 16.2353H218.282L218.253 15.2157V12.1191H218.938V17.4109H218.223L215.51 13.0945H215.481L215.51 14.1141V17.4109H214.826Z" stroke="white" stroke-width="0.2" stroke-miterlimit="10"/>
    <g filter="url(#filter0_ii_3034_3909)">
    <path d="M156.912 12.5953C156.653 12.8669 156.5 13.2885 156.5 13.8344V33.3402C156.5 33.887 156.653 34.3077 156.912 34.5794L156.977 34.6429L167.993 23.7161V23.5873V23.4586L156.977 12.5309L156.912 12.5953Z" fill="url(#paint0_linear_3034_3909)"/>
    <path d="M171.663 27.3592L167.992 23.7158V23.587V23.4582L171.664 19.8157L171.747 19.8624L176.097 22.3143C177.339 23.0146 177.339 24.1603 176.097 24.8615L171.747 27.3133L171.663 27.3592Z" fill="url(#paint1_linear_3034_3909)"/>
    <g filter="url(#filter1_i_3034_3909)">
    <path d="M171.75 27.3114L167.994 23.5859L156.914 34.578C157.323 35.0084 158 35.0613 158.762 34.6327L171.75 27.3114Z" fill="url(#paint2_linear_3034_3909)"/>
    </g>
    <path d="M171.75 19.8609L158.762 12.5406C158 12.111 157.323 12.1648 156.914 12.5952L167.995 23.5873L171.75 19.8609Z" fill="url(#paint3_linear_3034_3909)"/>
    </g>
    <defs>
    <filter id="filter0_ii_3034_3909" x="156.5" y="12.2441" width="20.5293" height="22.6846" filterUnits="userSpaceOnUse" color-interpolation-filters="sRGB">
    <feFlood flood-opacity="0" result="BackgroundImageFix"/>
    <feBlend mode="normal" in="SourceGraphic" in2="BackgroundImageFix" result="shape"/>
    <feColorMatrix in="SourceAlpha" type="matrix" values="0 0 0 0 0 0 0 0 0 0 0 0 0 0 0 0 0 0 127 0" result="hardAlpha"/>
    <feOffset dy="-0.15"/>
    <feComposite in2="hardAlpha" operator="arithmetic" k2="-1" k3="1"/>
    <feColorMatrix type="matrix" values="0 0 0 0 0 0 0 0 0 0 0 0 0 0 0 0 0 0 0.12 0"/>
    <feBlend mode="normal" in2="shape" result="effect1_innerShadow_3034_3909"/>
    <feColorMatrix in="SourceAlpha" type="matrix" values="0 0 0 0 0 0 0 0 0 0 0 0 0 0 0 0 0 0 127 0" result="hardAlpha"/>
    <feOffset dy="0.15"/>
    <feComposite in2="hardAlpha" operator="arithmetic" k2="-1" k3="1"/>
    <feColorMatrix type="matrix" values="0 0 0 0 1 0 0 0 0 1 0 0 0 0 1 0 0 0 0.25 0"/>
    <feBlend mode="normal" in2="effect1_innerShadow_3034_3909" result="effect2_innerShadow_3034_3909"/>
    </filter>
    <filter id="filter1_i_3034_3909" x="156.914" y="23.5859" width="14.8359" height="11.3428" filterUnits="userSpaceOnUse" color-interpolation-filters="sRGB">
    <feFlood flood-opacity="0" result="BackgroundImageFix"/>
    <feBlend mode="normal" in="SourceGraphic" in2="BackgroundImageFix" result="shape"/>
    <feColorMatrix in="SourceAlpha" type="matrix" values="0 0 0 0 0 0 0 0 0 0 0 0 0 0 0 0 0 0 127 0" result="hardAlpha"/>
    <feOffset dy="-0.15"/>
    <feComposite in2="hardAlpha" operator="arithmetic" k2="-1" k3="1"/>
    <feColorMatrix type="matrix" values="0 0 0 0 0 0 0 0 0 0 0 0 0 0 0 0 0 0 0.08 0"/>
    <feBlend mode="normal" in2="shape" result="effect1_innerShadow_3034_3909"/>
    </filter>
    <linearGradient id="paint0_linear_3034_3909" x1="167.016" y1="13.6281" x2="152.215" y2="28.5486" gradientUnits="userSpaceOnUse">
    <stop stop-color="#00A0FF"/>
    <stop offset="0.0066" stop-color="#00A1FF"/>
    <stop offset="0.2601" stop-color="#00BEFF"/>
    <stop offset="0.5122" stop-color="#00D2FF"/>
    <stop offset="0.7604" stop-color="#00DFFF"/>
    <stop offset="1" stop-color="#00E3FF"/>
    </linearGradient>
    <linearGradient id="paint1_linear_3034_3909" x1="177.714" y1="23.587" x2="156.201" y2="23.587" gradientUnits="userSpaceOnUse">
    <stop stop-color="#FFE000"/>
    <stop offset="0.4087" stop-color="#FFBD00"/>
    <stop offset="0.7754" stop-color="#FFA500"/>
    <stop offset="1" stop-color="#FF9C00"/>
    </linearGradient>
    <linearGradient id="paint2_linear_3034_3909" x1="169.71" y1="25.6091" x2="149.638" y2="45.8432" gradientUnits="userSpaceOnUse">
    <stop stop-color="#FF3A44"/>
    <stop offset="1" stop-color="#C31162"/>
    </linearGradient>
    <linearGradient id="paint3_linear_3034_3909" x1="154.124" y1="6.10195" x2="163.086" y2="15.1371" gradientUnits="userSpaceOnUse">
    <stop stop-color="#32A071"/>
    <stop offset="0.0685" stop-color="#2DA771"/>
    <stop offset="0.4762" stop-color="#15CF74"/>
    <stop offset="0.8009" stop-color="#06E775"/>
    <stop offset="1" stop-color="#00F076"/>
    </linearGradient>
    </defs>
</svg>