<svg width="100%" height="48" viewBox="0 0 416 48" fill="none" xmlns="http://www.w3.org/2000/svg">
<rect width="416" height="48" rx="8" fill="#252525"/>
<path d="M229.216 22.3208V24.5133H227.817V25.9511H229.216V30.8366C229.216 32.5048 229.984 33.1721 231.917 33.1721C232.257 33.1721 232.581 33.1323 232.864 33.0847V31.6627C232.621 31.6866 232.467 31.7025 232.2 31.7025C231.335 31.7025 230.955 31.3053 230.955 30.3997V25.9511H232.864V24.5133H230.955V22.3208H229.216Z" fill="white"/>
<path d="M237.788 33.2912C240.36 33.2912 241.937 31.5992 241.937 28.795C241.937 26.0067 240.351 24.3067 237.788 24.3067C235.216 24.3067 233.631 26.0067 233.631 28.795C233.631 31.5992 235.208 33.2912 237.788 33.2912ZM237.788 31.7739C236.275 31.7739 235.426 30.6856 235.426 28.795C235.426 26.9203 236.275 25.824 237.788 25.824C239.292 25.824 240.149 26.9203 240.149 28.795C240.149 30.6777 239.292 31.7739 237.788 31.7739Z" fill="white"/>
<path d="M243.286 33.1244H245.025V28.0165C245.025 26.8011 245.955 25.9829 247.273 25.9829C247.58 25.9829 248.098 26.0385 248.244 26.0862V24.4021C248.058 24.3544 247.726 24.3306 247.467 24.3306C246.319 24.3306 245.34 24.9502 245.09 25.8002H244.96V24.4736H243.286V33.1244Z" fill="white"/>
<path d="M252.561 25.7605C253.847 25.7605 254.688 26.6422 254.729 28.0006H250.28C250.378 26.6502 251.275 25.7605 252.561 25.7605ZM254.721 30.7889C254.397 31.4641 253.677 31.8375 252.626 31.8375C251.235 31.8375 250.337 30.8763 250.28 29.359V29.2637H256.5V28.6679C256.5 25.9511 255.02 24.3067 252.569 24.3067C250.086 24.3067 248.509 26.0623 248.509 28.8268C248.509 31.5912 250.054 33.2912 252.577 33.2912C254.591 33.2912 255.998 32.338 256.395 30.7889H254.721Z" fill="white"/>
<path d="M217.813 29.9298C217.947 32.054 219.75 33.4126 222.432 33.4126C225.299 33.4126 227.093 31.9882 227.093 29.7157C227.093 27.929 226.07 26.941 223.589 26.3729L222.256 26.0518C220.68 25.6895 220.043 25.2037 220.043 24.3557C220.043 23.2853 221.032 22.5854 222.516 22.5854C223.924 22.5854 224.896 23.2688 225.072 24.3639H226.9C226.791 22.3631 224.997 20.9552 222.541 20.9552C219.9 20.9552 218.14 22.3631 218.14 24.4792C218.14 26.2247 219.138 27.2621 221.325 27.7644L222.885 28.1349C224.486 28.5054 225.19 29.0488 225.19 29.9545C225.19 31.0084 224.083 31.7741 222.574 31.7741C220.957 31.7741 219.833 31.0578 219.674 29.9298H217.813Z" fill="white"/>
<path d="M199.801 24.3306C198.604 24.3306 197.568 24.9184 197.035 25.9034H196.905V24.4736H195.231V36.0001H196.97V31.8137H197.107C197.568 32.7272 198.563 33.2674 199.817 33.2674C202.041 33.2674 203.456 31.5436 203.456 28.795C203.456 26.0464 202.041 24.3306 199.801 24.3306ZM199.307 31.7342C197.851 31.7342 196.938 30.6062 196.938 28.8029C196.938 26.9918 197.851 25.8637 199.315 25.8637C200.787 25.8637 201.669 26.9679 201.669 28.795C201.669 30.63 200.787 31.7342 199.307 31.7342Z" fill="white"/>
<path d="M209.541 24.3306C208.344 24.3306 207.308 24.9184 206.775 25.9034H206.645V24.4736H204.971V36.0001H206.71V31.8137H206.847C207.308 32.7272 208.303 33.2674 209.557 33.2674C211.781 33.2674 213.196 31.5436 213.196 28.795C213.196 26.0464 211.781 24.3306 209.541 24.3306ZM209.047 31.7342C207.592 31.7342 206.678 30.6062 206.678 28.8029C206.678 26.9918 207.592 25.8637 209.055 25.8637C210.527 25.8637 211.409 26.9679 211.409 28.795C211.409 30.63 210.527 31.7342 209.047 31.7342Z" fill="white"/>
<path d="M192.111 33.1244H194.106L189.739 21.2434H187.719L183.352 33.1244H185.28L186.394 29.9709H191.005L192.111 33.1244ZM188.633 23.4006H188.775L190.527 28.423H186.872L188.633 23.4006Z" fill="white"/>
<path d="M184.52 12.282V18.0135H186.626C188.365 18.0135 189.372 16.9609 189.372 15.1299C189.372 13.3266 188.357 12.282 186.626 12.282H184.52ZM185.425 13.0923H186.525C187.734 13.0923 188.45 13.8469 188.45 15.1418C188.45 16.4565 187.746 17.2032 186.525 17.2032H185.425V13.0923Z" fill="white"/>
<path d="M192.456 18.0969C193.742 18.0969 194.53 17.2509 194.53 15.8488C194.53 14.4546 193.738 13.6047 192.456 13.6047C191.17 13.6047 190.377 14.4546 190.377 15.8488C190.377 17.2509 191.166 18.0969 192.456 18.0969ZM192.456 17.3383C191.7 17.3383 191.275 16.7941 191.275 15.8488C191.275 14.9114 191.7 14.3633 192.456 14.3633C193.208 14.3633 193.637 14.9114 193.637 15.8488C193.637 16.7901 193.208 17.3383 192.456 17.3383Z" fill="white"/>
<path d="M201.245 13.6881H200.376L199.592 16.9887H199.523L198.617 13.6881H197.784L196.878 16.9887H196.813L196.025 13.6881H195.143L196.357 18.0135H197.25L198.156 14.828H198.225L199.135 18.0135H200.036L201.245 13.6881Z" fill="white"/>
<path d="M202.247 18.0135H203.116V15.4834C203.116 14.8081 203.525 14.3871 204.168 14.3871C204.811 14.3871 205.118 14.7327 205.118 15.4278V18.0135H205.987V15.2133C205.987 14.1846 205.445 13.6047 204.463 13.6047C203.8 13.6047 203.363 13.8946 203.149 14.3752H203.084V13.6881H202.247V18.0135Z" fill="white"/>
<path d="M207.356 18.0135H208.226V12H207.356V18.0135Z" fill="white"/>
<path d="M211.496 18.0969C212.782 18.0969 213.57 17.2509 213.57 15.8488C213.57 14.4546 212.778 13.6047 211.496 13.6047C210.21 13.6047 209.417 14.4546 209.417 15.8488C209.417 17.2509 210.206 18.0969 211.496 18.0969ZM211.496 17.3383C210.74 17.3383 210.315 16.7941 210.315 15.8488C210.315 14.9114 210.74 14.3633 211.496 14.3633C212.248 14.3633 212.677 14.9114 212.677 15.8488C212.677 16.7901 212.248 17.3383 211.496 17.3383Z" fill="white"/>
<path d="M216.161 17.3661C215.688 17.3661 215.344 17.1397 215.344 16.7504C215.344 16.3691 215.619 16.1665 216.225 16.1268L217.301 16.0593V16.4207C217.301 16.957 216.816 17.3661 216.161 17.3661ZM215.938 18.085C216.516 18.085 216.998 17.8387 217.261 17.4058H217.329V18.0135H218.166V15.0584C218.166 14.1448 217.544 13.6047 216.44 13.6047C215.441 13.6047 214.729 14.0813 214.64 14.824H215.481C215.578 14.5182 215.914 14.3434 216.399 14.3434C216.994 14.3434 217.301 14.6016 217.301 15.0584V15.4317L216.108 15.4993C215.061 15.5628 214.47 16.0116 214.47 16.7901C214.47 17.5805 215.089 18.085 215.938 18.085Z" fill="white"/>
<path d="M221.117 18.085C221.723 18.085 222.237 17.803 222.5 17.3303H222.568V18.0135H223.401V12H222.532V14.3752H222.467C222.229 13.8986 221.719 13.6166 221.117 13.6166C220.005 13.6166 219.289 14.4825 219.289 15.8488C219.289 17.2191 219.997 18.085 221.117 18.085ZM221.363 14.3832C222.091 14.3832 222.548 14.9511 222.548 15.8528C222.548 16.7584 222.095 17.3184 221.363 17.3184C220.627 17.3184 220.187 16.7663 220.187 15.8488C220.187 14.9392 220.631 14.3832 221.363 14.3832Z" fill="white"/>
<path d="M229.039 18.0969C230.325 18.0969 231.114 17.2509 231.114 15.8488C231.114 14.4546 230.321 13.6047 229.039 13.6047C227.753 13.6047 226.961 14.4546 226.961 15.8488C226.961 17.2509 227.749 18.0969 229.039 18.0969ZM229.039 17.3383C228.283 17.3383 227.859 16.7941 227.859 15.8488C227.859 14.9114 228.283 14.3633 229.039 14.3633C229.791 14.3633 230.22 14.9114 230.22 15.8488C230.22 16.7901 229.791 17.3383 229.039 17.3383Z" fill="white"/>
<path d="M232.265 18.0135H233.134V15.4834C233.134 14.8081 233.543 14.3871 234.185 14.3871C234.828 14.3871 235.136 14.7327 235.136 15.4278V18.0135H236.005V15.2133C236.005 14.1846 235.463 13.6047 234.481 13.6047C233.817 13.6047 233.381 13.8946 233.166 14.3752H233.102V13.6881H232.265V18.0135Z" fill="white"/>
<path d="M240.009 12.6117V13.7079H239.31V14.4268H240.009V16.8696C240.009 17.7037 240.394 18.0373 241.36 18.0373C241.53 18.0373 241.692 18.0175 241.833 17.9936V17.2827C241.712 17.2946 241.635 17.3025 241.502 17.3025C241.069 17.3025 240.879 17.1039 240.879 16.6511V14.4268H241.833V13.7079H240.879V12.6117H240.009Z" fill="white"/>
<path d="M243 18.0135H243.87V15.4873C243.87 14.832 244.266 14.3911 244.978 14.3911C245.592 14.3911 245.92 14.7406 245.92 15.4317V18.0135H246.789V15.2212C246.789 14.1925 246.211 13.6086 245.273 13.6086C244.61 13.6086 244.145 13.8986 243.93 14.3832H243.861V12H243V18.0135Z" fill="white"/>
<path d="M249.926 14.3315C250.569 14.3315 250.989 14.7724 251.009 15.4516H248.785C248.834 14.7764 249.283 14.3315 249.926 14.3315ZM251.005 16.8457C250.843 17.1834 250.484 17.37 249.958 17.37C249.262 17.37 248.813 16.8894 248.785 16.1308V16.0831H251.895V15.7852C251.895 14.4268 251.155 13.6047 249.93 13.6047C248.688 13.6047 247.9 14.4825 247.9 15.8647C247.9 17.2469 248.672 18.0969 249.934 18.0969C250.941 18.0969 251.644 17.6203 251.842 16.8457H251.005Z" fill="white"/>
<path d="M173.917 23.374C173.938 21.7653 174.818 20.2431 176.213 19.4005C175.333 18.1657 173.859 17.3827 172.325 17.3356C170.689 17.1669 169.102 18.2972 168.269 18.2972C167.419 18.2972 166.135 17.3524 164.753 17.3803C162.951 17.4375 161.271 18.4436 160.395 19.9909C158.51 23.1953 159.916 27.9047 161.721 30.495C162.624 31.7633 163.68 33.1801 165.061 33.1299C166.412 33.0748 166.917 32.2834 168.548 32.2834C170.164 32.2834 170.638 33.1299 172.047 33.0979C173.497 33.0748 174.411 31.8239 175.282 30.5436C175.931 29.6398 176.43 28.641 176.762 27.584C175.057 26.876 173.919 25.1915 173.917 23.374Z" fill="white"/>
<path d="M171.256 15.6321C172.046 14.6998 172.436 13.5015 172.342 12.2916C171.134 12.4162 170.018 12.9833 169.216 13.8799C168.433 14.7558 168.025 15.9331 168.102 17.0967C169.311 17.1089 170.499 16.5572 171.256 15.6321Z" fill="white"/>
</svg>
