<svg width="145" height="48" viewBox="0 0 145 48" fill="none" xmlns="http://www.w3.org/2000/svg">
<rect width="145" height="48" rx="8" fill="#252525"/>
<path d="M93.7161 22.3208V24.5133H92.317V25.9511H93.7161V30.8366C93.7161 32.5048 94.4845 33.1721 96.4174 33.1721C96.7571 33.1721 97.0806 33.1323 97.3636 33.0847V31.6627C97.121 31.6866 96.9674 31.7025 96.7005 31.7025C95.8351 31.7025 95.455 31.3053 95.455 30.3997V25.9511H97.3636V24.5133H95.455V22.3208H93.7161Z" fill="white"/>
<path d="M102.288 33.2912C104.86 33.2912 106.437 31.5992 106.437 28.795C106.437 26.0067 104.851 24.3067 102.288 24.3067C99.7158 24.3067 98.1307 26.0067 98.1307 28.795C98.1307 31.5992 99.7078 33.2912 102.288 33.2912ZM102.288 31.7739C100.775 31.7739 99.9261 30.6856 99.9261 28.795C99.9261 26.9203 100.775 25.824 102.288 25.824C103.792 25.824 104.649 26.9203 104.649 28.795C104.649 30.6777 103.792 31.7739 102.288 31.7739Z" fill="white"/>
<path d="M107.786 33.1244H109.525V28.0165C109.525 26.8011 110.455 25.9829 111.773 25.9829C112.08 25.9829 112.598 26.0385 112.744 26.0862V24.4021C112.558 24.3544 112.226 24.3306 111.967 24.3306C110.819 24.3306 109.84 24.9502 109.59 25.8002H109.46V24.4736H107.786V33.1244Z" fill="white"/>
<path d="M117.061 25.7605C118.347 25.7605 119.188 26.6422 119.229 28.0006H114.78C114.878 26.6502 115.775 25.7605 117.061 25.7605ZM119.221 30.7889C118.897 31.4641 118.177 31.8375 117.126 31.8375C115.735 31.8375 114.837 30.8763 114.78 29.359V29.2637H121V28.6679C121 25.9511 119.52 24.3067 117.069 24.3067C114.586 24.3067 113.009 26.0623 113.009 28.8268C113.009 31.5912 114.554 33.2912 117.077 33.2912C119.091 33.2912 120.498 32.338 120.895 30.7889H119.221Z" fill="white"/>
<path d="M82.3131 29.9298C82.4473 32.054 84.2495 33.4126 86.9319 33.4126C89.7988 33.4126 91.5926 31.9882 91.5926 29.7157C91.5926 27.929 90.57 26.941 88.0887 26.3729L86.7559 26.0518C85.18 25.6895 84.5429 25.2037 84.5429 24.3557C84.5429 23.2853 85.532 22.5854 87.0157 22.5854C88.424 22.5854 89.3964 23.2688 89.5724 24.3639H91.3998C91.2909 22.3631 89.497 20.9552 87.0409 20.9552C84.4004 20.9552 82.6401 22.3631 82.6401 24.4792C82.6401 26.2247 83.6376 27.2621 85.8254 27.7644L87.3846 28.1349C88.9856 28.5054 89.6898 29.0488 89.6898 29.9545C89.6898 31.0084 88.5833 31.7741 87.0744 31.7741C85.4566 31.7741 84.3333 31.0578 84.1741 29.9298H82.3131Z" fill="white"/>
<path d="M64.3006 24.3306C63.1036 24.3306 62.0684 24.9184 61.5346 25.9034H61.4052V24.4736H59.7311V36.0001H61.4699V31.8137H61.6074C62.0684 32.7272 63.0632 33.2674 64.3168 33.2674C66.5409 33.2674 67.9562 31.5436 67.9562 28.795C67.9562 26.0464 66.5409 24.3306 64.3006 24.3306ZM63.8073 31.7342C62.3515 31.7342 61.4376 30.6062 61.4376 28.8029C61.4376 26.9918 62.3515 25.8637 63.8153 25.8637C65.2873 25.8637 66.1688 26.9679 66.1688 28.795C66.1688 30.63 65.2873 31.7342 63.8073 31.7342Z" fill="white"/>
<path d="M74.0406 24.3306C72.8437 24.3306 71.8085 24.9184 71.2747 25.9034H71.1453V24.4736H69.4712V36.0001H71.21V31.8137H71.3475C71.8085 32.7272 72.8032 33.2674 74.0568 33.2674C76.2809 33.2674 77.6962 31.5436 77.6962 28.795C77.6962 26.0464 76.2809 24.3306 74.0406 24.3306ZM73.5473 31.7342C72.0915 31.7342 71.1776 30.6062 71.1776 28.8029C71.1776 26.9918 72.0915 25.8637 73.5554 25.8637C75.0273 25.8637 75.9089 26.9679 75.9089 28.795C75.9089 30.63 75.0273 31.7342 73.5473 31.7342Z" fill="white"/>
<path d="M56.6113 33.1244H58.6064L54.2391 21.2434H52.2189L47.8516 33.1244H49.7796L50.8944 29.9709H55.5048L56.6113 33.1244ZM53.1326 23.4006H53.2751L55.027 28.423H51.3722L53.1326 23.4006Z" fill="white"/>
<path d="M49.0195 12.282V18.0135H51.1264C52.8652 18.0135 53.8721 16.9609 53.8721 15.1299C53.8721 13.3266 52.8571 12.282 51.1264 12.282H49.0195ZM49.9253 13.0923H51.0253C52.2344 13.0923 52.9501 13.8469 52.9501 15.1418C52.9501 16.4565 52.2465 17.2032 51.0253 17.2032H49.9253V13.0923Z" fill="white"/>
<path d="M56.9559 18.0969C58.2418 18.0969 59.0304 17.2509 59.0304 15.8488C59.0304 14.4546 58.2378 13.6047 56.9559 13.6047C55.67 13.6047 54.8774 14.4546 54.8774 15.8488C54.8774 17.2509 55.6659 18.0969 56.9559 18.0969ZM56.9559 17.3383C56.1997 17.3383 55.7751 16.7941 55.7751 15.8488C55.7751 14.9114 56.1997 14.3633 56.9559 14.3633C57.708 14.3633 58.1367 14.9114 58.1367 15.8488C58.1367 16.7901 57.708 17.3383 56.9559 17.3383Z" fill="white"/>
<path d="M65.7455 13.6881H64.8761L64.0916 16.9887H64.0228L63.117 13.6881H62.284L61.3782 16.9887H61.3135L60.5249 13.6881H59.6434L60.8565 18.0135H61.7502L62.656 14.828H62.7248L63.6346 18.0135H64.5364L65.7455 13.6881Z" fill="white"/>
<path d="M66.7467 18.0135H67.6162V15.4834C67.6162 14.8081 68.0246 14.3871 68.6675 14.3871C69.3105 14.3871 69.6178 14.7327 69.6178 15.4278V18.0135H70.4872V15.2133C70.4872 14.1846 69.9454 13.6047 68.9627 13.6047C68.2996 13.6047 67.8628 13.8946 67.6485 14.3752H67.5838V13.6881H66.7467V18.0135Z" fill="white"/>
<path d="M71.8565 18.0135H72.7259V12H71.8565V18.0135Z" fill="white"/>
<path d="M75.9957 18.0969C77.2816 18.0969 78.0702 17.2509 78.0702 15.8488C78.0702 14.4546 77.2776 13.6047 75.9957 13.6047C74.7098 13.6047 73.9172 14.4546 73.9172 15.8488C73.9172 17.2509 74.7057 18.0969 75.9957 18.0969ZM75.9957 17.3383C75.2395 17.3383 74.8149 16.7941 74.8149 15.8488C74.8149 14.9114 75.2395 14.3633 75.9957 14.3633C76.7479 14.3633 77.1765 14.9114 77.1765 15.8488C77.1765 16.7901 76.7479 17.3383 75.9957 17.3383Z" fill="white"/>
<path d="M80.6606 17.3661C80.1875 17.3661 79.8438 17.1397 79.8438 16.7504C79.8438 16.3691 80.1188 16.1665 80.7253 16.1268L81.801 16.0593V16.4207C81.801 16.957 81.3157 17.3661 80.6606 17.3661ZM80.4382 18.085C81.0165 18.085 81.4977 17.8387 81.7605 17.4058H81.8293V18.0135H82.6664V15.0584C82.6664 14.1448 82.0436 13.6047 80.9397 13.6047C79.9408 13.6047 79.2291 14.0813 79.1402 14.824H79.9813C80.0783 14.5182 80.414 14.3434 80.8992 14.3434C81.4937 14.3434 81.801 14.6016 81.801 15.0584V15.4317L80.6081 15.4993C79.5607 15.5628 78.9703 16.0116 78.9703 16.7901C78.9703 17.5805 79.589 18.085 80.4382 18.085Z" fill="white"/>
<path d="M85.6167 18.085C86.2233 18.085 86.7368 17.803 86.9997 17.3303H87.0684V18.0135H87.9015V12H87.032V14.3752H86.9673C86.7288 13.8986 86.2192 13.6166 85.6167 13.6166C84.5047 13.6166 83.7889 14.4825 83.7889 15.8488C83.7889 17.2191 84.4966 18.085 85.6167 18.085ZM85.8634 14.3832C86.5913 14.3832 87.0482 14.9511 87.0482 15.8528C87.0482 16.7584 86.5953 17.3184 85.8634 17.3184C85.1274 17.3184 84.6866 16.7663 84.6866 15.8488C84.6866 14.9392 85.1315 14.3832 85.8634 14.3832Z" fill="white"/>
<path d="M93.5393 18.0969C94.8253 18.0969 95.6138 17.2509 95.6138 15.8488C95.6138 14.4546 94.8212 13.6047 93.5393 13.6047C92.2534 13.6047 91.4608 14.4546 91.4608 15.8488C91.4608 17.2509 92.2494 18.0969 93.5393 18.0969ZM93.5393 17.3383C92.7831 17.3383 92.3585 16.7941 92.3585 15.8488C92.3585 14.9114 92.7831 14.3633 93.5393 14.3633C94.2915 14.3633 94.7201 14.9114 94.7201 15.8488C94.7201 16.7901 94.2915 17.3383 93.5393 17.3383Z" fill="white"/>
<path d="M96.7647 18.0135H97.6341V15.4834C97.6341 14.8081 98.0425 14.3871 98.6855 14.3871C99.3284 14.3871 99.6358 14.7327 99.6358 15.4278V18.0135H100.505V15.2133C100.505 14.1846 99.9633 13.6047 98.9807 13.6047C98.3175 13.6047 97.8807 13.8946 97.6664 14.3752H97.6017V13.6881H96.7647V18.0135Z" fill="white"/>
<path d="M104.509 12.6117V13.7079H103.81V14.4268H104.509V16.8696C104.509 17.7037 104.894 18.0373 105.86 18.0373C106.03 18.0373 106.192 18.0175 106.333 17.9936V17.2827C106.212 17.2946 106.135 17.3025 106.002 17.3025C105.569 17.3025 105.379 17.1039 105.379 16.6511V14.4268H106.333V13.7079H105.379V12.6117H104.509Z" fill="white"/>
<path d="M107.5 18.0135H108.37V15.4873C108.37 14.832 108.766 14.3911 109.478 14.3911C110.092 14.3911 110.42 14.7406 110.42 15.4317V18.0135H111.289V15.2212C111.289 14.1925 110.711 13.6086 109.773 13.6086C109.11 13.6086 108.645 13.8986 108.43 14.3832H108.361V12H107.5V18.0135Z" fill="white"/>
<path d="M114.426 14.3315C115.069 14.3315 115.489 14.7724 115.509 15.4516H113.285C113.334 14.7764 113.783 14.3315 114.426 14.3315ZM115.505 16.8457C115.343 17.1834 114.984 17.37 114.458 17.37C113.762 17.37 113.313 16.8894 113.285 16.1308V16.0831H116.395V15.7852C116.395 14.4268 115.655 13.6047 114.43 13.6047C113.188 13.6047 112.4 14.4825 112.4 15.8647C112.4 17.2469 113.172 18.0969 114.434 18.0969C115.441 18.0969 116.144 17.6203 116.342 16.8457H115.505Z" fill="white"/>
<path d="M38.4173 23.374C38.4384 21.7653 39.318 20.2431 40.7133 19.4005C39.8331 18.1657 38.3586 17.3827 36.8247 17.3356C35.1885 17.1669 33.6024 18.2972 32.7687 18.2972C31.9188 18.2972 30.6351 17.3524 29.2529 17.3803C27.4511 17.4375 25.7714 18.4436 24.8948 19.9909C23.0105 23.1953 24.416 27.9047 26.221 30.495C27.1241 31.7633 28.1796 33.1801 29.5606 33.1299C30.9121 33.0748 31.4168 32.2834 33.0481 32.2834C34.6643 32.2834 35.1378 33.1299 36.5469 33.0979C37.9971 33.0748 38.9107 31.8239 39.7821 30.5436C40.431 29.6398 40.9303 28.641 41.2616 27.584C39.5574 26.876 38.4193 25.1915 38.4173 23.374Z" fill="white"/>
<path d="M35.7558 15.6321C36.5465 14.6998 36.936 13.5015 36.8417 12.2916C35.6337 12.4162 34.5178 12.9833 33.7165 13.8799C32.9328 14.7558 32.525 15.9331 32.6021 17.0967C33.8106 17.1089 34.9985 16.5572 35.7558 15.6321Z" fill="white"/>
</svg>
