<?xml version="1.0" encoding="utf-8"?>
<!-- Generator: Adobe Illustrator 25.0.1, SVG Export Plug-In . SVG Version: 6.00 Build 0)  -->
<svg version="1.1" id="Layer_1" xmlns="http://www.w3.org/2000/svg" xmlns:xlink="http://www.w3.org/1999/xlink" x="0px" y="0px"
	 viewBox="0 0 1920 567" style="enable-background:new 0 0 1920 567;" xml:space="preserve">
<style type="text/css">
	.st0{fill:#007052;}
	.st1{fill:#36B28F;}
	.st2{fill:#005548;}
</style>
<g>
	<path class="st0" d="M242.6,5.5L109.4,233.9l142.8-99.5V0C248.4,0,244.7,1.8,242.6,5.5z"/>
	<path class="st1" d="M261.7,5.5c-2.1-3.7-5.8-5.5-9.6-5.5v134.4l142.8,99.5L261.7,5.5z"/>
	<g>
		<polygon class="st0" points="233.4,517.7 233.4,429.1 106.1,517.7 		"/>
		<path class="st0" d="M496.3,421.2l-56.9-105.1c-3-5.5-7.3-10.3-12.4-13.9L252.1,180.4L77.3,302.2c-5.2,3.6-9.4,8.4-12.4,13.9
			L8,421.2c-20.1,37.2-0.2,81.3,36.7,93.3l188.7-131.5v-51l-86,59.9c-8.2,5.7-19.7,4.5-25.9-3.4c-6.8-8.7-4.8-21.1,4-27.3
			l126.6-88.2l126.6,88.2c8.5,5.9,10.7,17.7,4.8,26.3c-3.6,5.3-9.5,8.2-15.4,8.2c-3.7,0-7.4-1.1-10.6-3.4l-86.5-60.3v51l188.7,131.5
			C496.5,502.5,516.4,458.4,496.3,421.2z"/>
		<polygon class="st0" points="270.9,517.7 398.1,517.7 270.9,429.1 		"/>
	</g>
	<g>
		<path class="st2" d="M686.1,349.8h-59.2V315c60.7,0,97.6,0,158.6,0v34.7h-59.1v167.9h-40.3V349.8z"/>
		<path class="st2" d="M916.8,374.4v143.3h37.3V374.4H916.8z M958.1,335.3c0,12.4-10,22.5-22.3,22.5s-22.3-10.1-22.3-22.5
			s10-22.5,22.3-22.5S958.1,322.9,958.1,335.3z"/>
		<path class="st2" d="M984.6,567V375h32.5l4.9,19.7c11.4-15.9,31.3-22.9,48.1-22.9c45.7,0,76,32.7,76,74.7
			c0,41.7-27.4,74.7-74.8,74.7c-15.6,0-38.8-4.6-49.3-20.3v66H984.6z M1109.3,446.5c0-22.3-15.6-40.5-42.1-40.5
			s-42.1,18.2-42.1,40.5c0,22.3,17.1,40.5,42.1,40.5S1109.3,468.8,1109.3,446.5z"/>
		<path class="st2" d="M1299.9,499.5c-17.1,16.2-35.2,22.6-57.1,22.6c-43,0-79.1-24.9-79.1-75.6c0-50.7,36.1-75.6,79.1-75.6
			c21,0,37.3,5.8,53.5,21.1l-23.1,23.5c-8.7-7.5-19.5-11.3-29.8-11.3c-24.6,0-42.7,17.4-42.7,42.3c0,27.2,19.2,41.7,42.1,41.7
			c11.7,0,23.4-3.2,32.5-11.9L1299.9,499.5z"/>
		<path class="st2" d="M1435.8,375h33.4v142.8h-35.2l-1.8-20.8c-8.4,16.8-31.6,24.9-48.1,25.2c-43.9,0.3-76.3-25.8-76.3-75.9
			c0-49.2,34-75,77.2-74.7c19.8,0,38.8,9,47.2,23.2L1435.8,375z M1344.4,446.2c0,27.2,19.5,43.4,43.9,43.4c57.7,0,57.7-86.6,0-86.6
			C1363.9,403,1344.4,419,1344.4,446.2z"/>
		<path class="st2" d="M1598.7,517.7v-76.4c0-18.8-10.2-35.9-30.4-35.9c-19.8,0-31.6,17.1-31.6,35.9v76.4h-37.3v-143h32.2l5.2,17.4
			c7.8-14.5,24.9-19.7,39.1-19.7c17.7,0,35.5,6.9,43.9,26.6c13.2-20.3,30.4-26.1,49.6-26.1c42.1,0,62.8,24.9,62.8,67.8v77h-36.7v-77
			c0-18.8-8.1-34.7-28-34.7c-19.8,0-32.2,16.5-32.2,35.3v76.4H1598.7z"/>
		<path class="st2" d="M1758.6,567V375h32.5l4.9,19.7c11.4-15.9,31.3-22.9,48.1-22.9c45.7,0,76,32.7,76,74.7
			c0,41.7-27.4,74.7-74.8,74.7c-15.6,0-38.8-4.6-49.3-20.3v66H1758.6z M1883.3,446.5c0-22.3-15.6-40.5-42.1-40.5
			s-42.1,18.2-42.1,40.5c0,22.3,17.1,40.5,42.1,40.5S1883.3,468.8,1883.3,446.5z"/>
		<path class="st2" d="M898.2,383.4c-8.4-7.1-22.2-12.2-36.6-12.2c-15,0-30.4,2.6-41.8,20.3l-5.2-16.5h-32.2v142.8h37.3v-75.3
			c0-45.5,53-39.3,63.2-27.1L898.2,383.4z"/>
	</g>
</g>
</svg>
