<?xml version="1.0" encoding="utf-8"?>
<!-- Generator: Adobe Illustrator 25.0.1, SVG Export Plug-In . SVG Version: 6.00 Build 0)  -->
<svg version="1.1" id="Layer_1" xmlns="http://www.w3.org/2000/svg" xmlns:xlink="http://www.w3.org/1999/xlink" x="0px" y="0px"
	 viewBox="0 0 435.2 443.3" style="enable-background:new 0 0 435.2 443.3;" xml:space="preserve">
<style type="text/css">
	.st0{fill:#007052;}
	.st1{fill:#36B28F;}
</style>
<g>
	<path class="st0" d="M209.3,4.7l-115,195.6l123.2-85.2V0C214.4,0,211.2,1.6,209.3,4.7z"/>
	<path class="st1" d="M225.8,4.7c-1.8-3.1-5-4.7-8.2-4.7v115.1l123.2,85.2L225.8,4.7z"/>
	<g>
		<polygon class="st0" points="201.4,443.3 201.4,367.4 91.6,443.3 		"/>
		<path class="st0" d="M428.3,360.7l-49.1-90c-2.6-4.8-6.3-8.8-10.7-11.9L217.6,154.5L66.7,258.8c-4.5,3.1-8.1,7.2-10.7,11.9
			l-49.1,90c-17.4,31.8-0.2,69.6,31.7,79.9L201.4,328v-43.6l-74.2,51.3c-7.1,4.9-17,3.8-22.3-2.9c-5.9-7.4-4.2-18.1,3.5-23.4
			l109.3-75.5l109.3,75.5c7.4,5.1,9.2,15.2,4.1,22.5c-3.1,4.5-8.2,7-13.3,7c-3.2,0-6.4-0.9-9.2-2.9l-74.7-51.6V328l162.8,112.5
			C428.4,430.3,445.6,392.5,428.3,360.7z"/>
		<polygon class="st0" points="233.8,443.3 343.6,443.3 233.8,367.4 		"/>
	</g>
</g>
</svg>
