<?xml version="1.0" encoding="utf-8"?>
<!-- Generator: Adobe Illustrator 25.0.1, SVG Export Plug-In . SVG Version: 6.00 Build 0)  -->
<svg version="1.1" id="Layer_1" xmlns="http://www.w3.org/2000/svg" xmlns:xlink="http://www.w3.org/1999/xlink" x="0px" y="0px"
	 viewBox="0 0 405 396.8" style="enable-background:new 0 0 405 396.8;" xml:space="preserve">
<style type="text/css">
	.st0{fill:#007052;}
	.st1{fill:#36B28F;}
	.st2{fill:#005548;}
</style>
<g>
	<path class="st0" d="M195,2.9l-69.9,118.9L200,70V0C198,0,196.1,1,195,2.9z"/>
	<path class="st1" d="M205,2.9C203.9,1,201.9,0,200,0v70l74.9,51.8L205,2.9z"/>
	<g>
		<polygon class="st0" points="190.1,269.5 190.1,223.4 123.4,269.5 		"/>
		<path class="st0" d="M328.1,219.3l-29.8-54.7c-1.6-2.9-3.8-5.4-6.5-7.2L200,93.9l-91.8,63.4c-2.7,1.9-4.9,4.4-6.5,7.2l-29.8,54.7
			c-10.6,19.4-0.1,42.3,19.3,48.6l99-68.4v-26.5L145,204.1c-4.3,3-10.3,2.3-13.6-1.8c-3.6-4.5-2.5-11,2.1-14.2l66.4-45.9l66.4,45.9
			c4.5,3.1,5.6,9.2,2.5,13.7c-1.9,2.8-5,4.2-8.1,4.2c-1.9,0-3.9-0.6-5.6-1.7l-45.4-31.4v26.5l99,68.4
			C328.2,261.6,338.6,238.6,328.1,219.3z"/>
		<polygon class="st0" points="209.8,269.5 276.6,269.5 209.8,223.4 		"/>
	</g>
	<path class="st2" d="M18.5,329.3H0v-10.8c19,0,30.6,0,49.7,0v10.8H31.2v52.2H18.5V329.3z"/>
	<path class="st2" d="M90.8,337v44.5h11.7V337H90.8z M103.7,324.8c0,3.9-3.1,7-7,7c-3.9,0-7-3.1-7-7s3.1-7,7-7
		C100.6,317.8,103.7,321,103.7,324.8z"/>
	<path class="st2" d="M112,396.8v-59.7h10.2l1.5,6.1c3.6-4.9,9.8-7.1,15.1-7.1c14.3,0,23.8,10.2,23.8,23.2c0,13-8.6,23.2-23.4,23.2
		c-4.9,0-12.1-1.4-15.4-6.3v20.5H112z M151.1,359.4c0-6.9-4.9-12.6-13.2-12.6c-8.3,0-13.2,5.7-13.2,12.6c0,6.9,5.4,12.6,13.2,12.6
		C145.7,372,151.1,366.3,151.1,359.4z"/>
	<path class="st2" d="M210.8,375.8c-5.4,5-11,7-17.9,7c-13.5,0-24.8-7.7-24.8-23.5c0-15.7,11.3-23.5,24.8-23.5
		c6.6,0,11.7,1.8,16.8,6.6l-7.2,7.3c-2.7-2.3-6.1-3.5-9.3-3.5c-7.7,0-13.4,5.4-13.4,13.1c0,8.5,6,13,13.2,13c3.7,0,7.3-1,10.2-3.7
		L210.8,375.8z"/>
	<path class="st2" d="M253.3,337.1h10.4v44.4h-11l-0.6-6.5c-2.6,5.2-9.9,7.7-15.1,7.8c-13.7,0.1-23.9-8-23.9-23.6
		c0-15.3,10.6-23.3,24.2-23.2c6.2,0,12.1,2.8,14.8,7.2L253.3,337.1z M224.7,359.3c0,8.5,6.1,13.5,13.7,13.5c18.1,0,18.1-26.9,0-26.9
		C230.8,345.9,224.7,350.8,224.7,359.3z"/>
	<path class="st2" d="M304.4,381.5v-23.8c0-5.8-3.2-11.2-9.5-11.2c-6.2,0-9.9,5.3-9.9,11.2v23.8h-11.7v-44.4h10.1l1.6,5.4
		c2.4-4.5,7.8-6.1,12.2-6.1c5.6,0,11.1,2.2,13.7,8.3c4.1-6.3,9.5-8.1,15.5-8.1c13.2,0,19.7,7.7,19.7,21.1v23.9h-11.5v-23.9
		c0-5.8-2.5-10.8-8.8-10.8c-6.2,0-10.1,5.1-10.1,11v23.8H304.4z"/>
	<path class="st2" d="M354.4,396.8v-59.7h10.2l1.5,6.1c3.6-4.9,9.8-7.1,15.1-7.1c14.3,0,23.8,10.2,23.8,23.2
		c0,13-8.6,23.2-23.4,23.2c-4.9,0-12.1-1.4-15.4-6.3v20.5H354.4z M393.5,359.4c0-6.9-4.9-12.6-13.2-12.6c-8.3,0-13.2,5.7-13.2,12.6
		c0,6.9,5.4,12.6,13.2,12.6C388.1,372,393.5,366.3,393.5,359.4z"/>
	<path class="st2" d="M85,339.8c-2.6-2.2-6.9-3.8-11.4-3.8c-4.7,0-9.5,0.8-13.1,6.3l-1.6-5.1H48.7v44.4h11.7v-23.4
		c0-14.1,16.6-12.2,19.8-8.4L85,339.8z"/>
</g>
</svg>
